M48
; DRILL file {KiCad 6.0.11+dfsg-1} date Wed 26 Apr 2023 00:49:19 BST
; FORMAT={-:-/ absolute / metric / decimal}
; #@! TF.CreationDate,2023-04-26T00:49:19+01:00
; #@! TF.GenerationSoftware,Kicad,Pcbnew,6.0.11+dfsg-1
; #@! TF.FileFunction,Plated,1,4,PTH
FMAT,2
METRIC
; #@! TA.AperFunction,Plated,PTH,ViaDrill
T1C0.300
; #@! TA.AperFunction,Plated,PTH,ComponentDrill
T2C0.500
; #@! TA.AperFunction,Plated,PTH,ComponentDrill
T3C0.600
; #@! TA.AperFunction,Plated,PTH,ComponentDrill
T4C1.000
%
G90
G05
T1
X141.7Y-100.0
X142.5Y-124.75
X142.55Y-75.45
X143.025Y-113.725
X143.52Y-90.27
X143.52Y-93.16
X143.55Y-82.95
X143.6Y-96.7
X143.625Y-98.0
X144.1Y-106.25
X144.1Y-108.15
X144.3Y-93.3
X144.563Y-89.55
X144.6Y-79.675
X144.8Y-113.8
X145.05Y-90.5
X145.05Y-91.9
X145.4Y-108.2
X145.75Y-84.55
X146.3Y-113.85
X146.4Y-90.5
X146.4Y-91.89
X146.5Y-102.1
X146.8Y-116.45
X146.89Y-93.2
X147.013Y-89.55
X147.4Y-103.5
X147.5Y-94.5
X147.5Y-109.0
X147.5Y-111.97
X147.5Y-112.6
X147.6Y-104.7
X147.8Y-116.45
X148.2Y-103.5
X148.2Y-107.35
X148.8Y-119.22
X148.81Y-112.63
X149.02Y-82.93
X149.2Y-96.2
X149.2Y-97.8
X149.2Y-109.2
X149.2Y-110.8
X149.25Y-90.6
X149.25Y-103.5
X149.5Y-101.45
X149.6Y-102.7
X149.6Y-112.64
X149.7Y-116.7
X150.0Y-99.63
X150.0Y-107.4
X150.3Y-103.5
X150.4Y-94.37
X150.8Y-96.2
X150.8Y-97.8
X150.8Y-109.2
X150.8Y-110.8
X150.9Y-82.9
X151.21Y-94.37
X151.44Y-102.14
X151.52Y-115.97
X151.6Y-119.25
X151.9Y-82.8
X151.9Y-99.2
X151.915Y-116.775
X152.25Y-90.6
X152.3Y-97.7
X152.5Y-107.4
X152.5Y-112.5
X152.63Y-95.0
X152.65Y-94.35
X153.0Y-92.9
X153.2Y-115.0
X153.2Y-116.451
X153.25Y-90.6
X153.6Y-93.6
X153.7Y-113.4
X153.728Y-100.311
X153.95Y-88.75
X154.0Y-92.225
X154.05Y-91.25
X154.1Y-105.9
X154.34Y-110.66
X154.4Y-109.55
X154.57Y-115.1
X154.575Y-116.45
X154.595Y-97.075
X154.67Y-112.65
X154.675Y-93.775
X154.84Y-85.9
X154.865Y-111.895
X154.91Y-110.93
X155.0Y-83.0
X155.0Y-89.0
X155.5Y-96.79
X155.5Y-110.59
X155.516Y-96.046
X155.7Y-75.7
X155.75Y-85.9
X155.75Y-103.15
X155.75Y-105.9
X155.775Y-89.725
X155.8Y-82.2
X155.8Y-98.85
X155.8Y-107.4
X155.905Y-122.175
X155.929Y-122.841
X155.94Y-97.25
X155.97Y-110.01
X155.99Y-87.35
X156.21Y-116.738
X156.405Y-95.085
X156.45Y-94.35
X156.66Y-85.9
X156.69Y-98.13
X156.73Y-89.73
X156.75Y-123.1
X156.9Y-112.6
X156.9Y-115.08
X157.0Y-122.0
X157.02Y-95.96
X157.45Y-84.7
X157.55Y-124.8
X158.0Y-77.15
X159.3Y-89.85
X159.35Y-84.75
X159.35Y-87.3
T2
X144.7Y-104.5
X145.7Y-104.5
X146.7Y-104.5
T4
X139.5Y-75.87
X139.5Y-78.41
X139.5Y-80.95
X139.5Y-83.49
X139.5Y-86.03
X139.5Y-88.57
X139.5Y-91.11
X139.5Y-93.65
X139.5Y-96.19
X139.5Y-98.73
X139.5Y-101.27
X139.5Y-103.81
X139.5Y-106.35
X139.5Y-108.89
X139.5Y-111.43
X139.5Y-113.97
X139.5Y-116.51
X139.5Y-119.05
X139.5Y-121.59
X139.5Y-124.13
X141.11Y-75.87
X141.11Y-78.41
X141.11Y-80.95
X141.11Y-83.49
X141.11Y-86.03
X141.11Y-88.57
X141.11Y-91.11
X141.11Y-93.65
X141.11Y-96.19
X141.11Y-98.73
X141.11Y-101.27
X141.11Y-103.81
X141.11Y-106.35
X141.11Y-108.89
X141.11Y-111.43
X141.11Y-113.97
X141.11Y-116.51
X141.11Y-119.05
X141.11Y-121.59
X141.11Y-124.13
X158.89Y-75.87
X158.89Y-78.41
X158.89Y-80.95
X158.89Y-83.49
X158.89Y-86.03
X158.89Y-88.57
X158.89Y-91.11
X158.89Y-93.65
X158.89Y-96.19
X158.89Y-98.73
X158.89Y-101.27
X158.89Y-103.81
X158.89Y-106.35
X158.89Y-108.89
X158.89Y-111.43
X158.89Y-113.97
X158.89Y-116.51
X158.89Y-119.05
X158.89Y-121.59
X158.89Y-124.13
X160.5Y-75.87
X160.5Y-78.41
X160.5Y-80.95
X160.5Y-83.49
X160.5Y-86.03
X160.5Y-88.57
X160.5Y-91.11
X160.5Y-93.65
X160.5Y-96.19
X160.5Y-98.73
X160.5Y-101.27
X160.5Y-103.81
X160.5Y-106.35
X160.5Y-108.89
X160.5Y-111.43
X160.5Y-113.97
X160.5Y-116.51
X160.5Y-119.05
X160.5Y-121.59
X160.5Y-124.13
T3
X145.68Y-77.325G85X145.68Y-76.525
G05
X145.68Y-81.655G85X145.68Y-80.555
G05
X145.68Y-118.345G85X145.68Y-119.445
G05
X145.68Y-122.675G85X145.68Y-123.475
G05
X154.32Y-77.325G85X154.32Y-76.525
G05
X154.32Y-81.655G85X154.32Y-80.555
G05
X154.32Y-118.345G85X154.32Y-119.445
G05
X154.32Y-122.675G85X154.32Y-123.475
G05
T0
M30
