%TF.GenerationSoftware,KiCad,Pcbnew,6.0.11+dfsg-1*%
%TF.CreationDate,2023-04-26T00:49:20+01:00*%
%TF.ProjectId,bico,6269636f-2e6b-4696-9361-645f70636258,rev?*%
%TF.SameCoordinates,Original*%
%TF.FileFunction,Drillmap*%
%TF.FilePolarity,Positive*%
%FSLAX45Y45*%
G04 Gerber Fmt 4.5, Leading zero omitted, Abs format (unit mm)*
G04 Created by KiCad (PCBNEW 6.0.11+dfsg-1) date 2023-04-26 00:49:20*
%MOMM*%
%LPD*%
G01*
G04 APERTURE LIST*
%ADD10C,0.200000*%
%ADD11C,0.065000*%
G04 APERTURE END LIST*
D10*
D11*
X14678500Y-8028000D02*
X14743500Y-8093000D01*
X14743500Y-8028000D02*
X14678500Y-8093000D01*
X14678500Y-11907000D02*
X14743500Y-11972000D01*
X14743500Y-11907000D02*
X14678500Y-11972000D01*
X15256500Y-8028000D02*
X15321500Y-8093000D01*
X15321500Y-8028000D02*
X15256500Y-8093000D01*
X15256500Y-11907000D02*
X15321500Y-11972000D01*
X15321500Y-11907000D02*
X15256500Y-11972000D01*
D10*
X14201619Y-12866476D02*
X14201619Y-12666476D01*
X14249238Y-12666476D01*
X14277809Y-12676000D01*
X14296857Y-12695048D01*
X14306381Y-12714095D01*
X14315905Y-12752190D01*
X14315905Y-12780762D01*
X14306381Y-12818857D01*
X14296857Y-12837905D01*
X14277809Y-12856952D01*
X14249238Y-12866476D01*
X14201619Y-12866476D01*
X14401619Y-12866476D02*
X14401619Y-12733143D01*
X14401619Y-12771238D02*
X14411143Y-12752190D01*
X14420667Y-12742667D01*
X14439714Y-12733143D01*
X14458762Y-12733143D01*
X14525428Y-12866476D02*
X14525428Y-12733143D01*
X14525428Y-12666476D02*
X14515905Y-12676000D01*
X14525428Y-12685524D01*
X14534952Y-12676000D01*
X14525428Y-12666476D01*
X14525428Y-12685524D01*
X14649238Y-12866476D02*
X14630190Y-12856952D01*
X14620667Y-12837905D01*
X14620667Y-12666476D01*
X14754000Y-12866476D02*
X14734952Y-12856952D01*
X14725428Y-12837905D01*
X14725428Y-12666476D01*
X14982571Y-12866476D02*
X14982571Y-12666476D01*
X15049238Y-12809333D01*
X15115905Y-12666476D01*
X15115905Y-12866476D01*
X15296857Y-12866476D02*
X15296857Y-12761714D01*
X15287333Y-12742667D01*
X15268286Y-12733143D01*
X15230190Y-12733143D01*
X15211143Y-12742667D01*
X15296857Y-12856952D02*
X15277809Y-12866476D01*
X15230190Y-12866476D01*
X15211143Y-12856952D01*
X15201619Y-12837905D01*
X15201619Y-12818857D01*
X15211143Y-12799809D01*
X15230190Y-12790286D01*
X15277809Y-12790286D01*
X15296857Y-12780762D01*
X15392095Y-12733143D02*
X15392095Y-12933143D01*
X15392095Y-12742667D02*
X15411143Y-12733143D01*
X15449238Y-12733143D01*
X15468286Y-12742667D01*
X15477809Y-12752190D01*
X15487333Y-12771238D01*
X15487333Y-12828381D01*
X15477809Y-12847428D01*
X15468286Y-12856952D01*
X15449238Y-12866476D01*
X15411143Y-12866476D01*
X15392095Y-12856952D01*
X15573048Y-12847428D02*
X15582571Y-12856952D01*
X15573048Y-12866476D01*
X15563524Y-12856952D01*
X15573048Y-12847428D01*
X15573048Y-12866476D01*
X15573048Y-12742667D02*
X15582571Y-12752190D01*
X15573048Y-12761714D01*
X15563524Y-12752190D01*
X15573048Y-12742667D01*
X15573048Y-12761714D01*
D11*
X13879000Y-13163500D02*
X13944000Y-13228500D01*
X13944000Y-13163500D02*
X13879000Y-13228500D01*
D10*
X14239714Y-13086476D02*
X14258762Y-13086476D01*
X14277809Y-13096000D01*
X14287333Y-13105524D01*
X14296857Y-13124571D01*
X14306381Y-13162667D01*
X14306381Y-13210286D01*
X14296857Y-13248381D01*
X14287333Y-13267428D01*
X14277809Y-13276952D01*
X14258762Y-13286476D01*
X14239714Y-13286476D01*
X14220667Y-13276952D01*
X14211143Y-13267428D01*
X14201619Y-13248381D01*
X14192095Y-13210286D01*
X14192095Y-13162667D01*
X14201619Y-13124571D01*
X14211143Y-13105524D01*
X14220667Y-13096000D01*
X14239714Y-13086476D01*
X14392095Y-13267428D02*
X14401619Y-13276952D01*
X14392095Y-13286476D01*
X14382571Y-13276952D01*
X14392095Y-13267428D01*
X14392095Y-13286476D01*
X14573048Y-13086476D02*
X14534952Y-13086476D01*
X14515905Y-13096000D01*
X14506381Y-13105524D01*
X14487333Y-13134095D01*
X14477809Y-13172190D01*
X14477809Y-13248381D01*
X14487333Y-13267428D01*
X14496857Y-13276952D01*
X14515905Y-13286476D01*
X14554000Y-13286476D01*
X14573048Y-13276952D01*
X14582571Y-13267428D01*
X14592095Y-13248381D01*
X14592095Y-13200762D01*
X14582571Y-13181714D01*
X14573048Y-13172190D01*
X14554000Y-13162667D01*
X14515905Y-13162667D01*
X14496857Y-13172190D01*
X14487333Y-13181714D01*
X14477809Y-13200762D01*
X14773048Y-13086476D02*
X14677809Y-13086476D01*
X14668286Y-13181714D01*
X14677809Y-13172190D01*
X14696857Y-13162667D01*
X14744476Y-13162667D01*
X14763524Y-13172190D01*
X14773048Y-13181714D01*
X14782571Y-13200762D01*
X14782571Y-13248381D01*
X14773048Y-13267428D01*
X14763524Y-13276952D01*
X14744476Y-13286476D01*
X14696857Y-13286476D01*
X14677809Y-13276952D01*
X14668286Y-13267428D01*
X14906381Y-13086476D02*
X14925428Y-13086476D01*
X14944476Y-13096000D01*
X14954000Y-13105524D01*
X14963524Y-13124571D01*
X14973048Y-13162667D01*
X14973048Y-13210286D01*
X14963524Y-13248381D01*
X14954000Y-13267428D01*
X14944476Y-13276952D01*
X14925428Y-13286476D01*
X14906381Y-13286476D01*
X14887333Y-13276952D01*
X14877809Y-13267428D01*
X14868286Y-13248381D01*
X14858762Y-13210286D01*
X14858762Y-13162667D01*
X14868286Y-13124571D01*
X14877809Y-13105524D01*
X14887333Y-13096000D01*
X14906381Y-13086476D01*
X15058762Y-13286476D02*
X15058762Y-13153143D01*
X15058762Y-13172190D02*
X15068286Y-13162667D01*
X15087333Y-13153143D01*
X15115905Y-13153143D01*
X15134952Y-13162667D01*
X15144476Y-13181714D01*
X15144476Y-13286476D01*
X15144476Y-13181714D02*
X15154000Y-13162667D01*
X15173048Y-13153143D01*
X15201619Y-13153143D01*
X15220667Y-13162667D01*
X15230190Y-13181714D01*
X15230190Y-13286476D01*
X15325428Y-13286476D02*
X15325428Y-13153143D01*
X15325428Y-13172190D02*
X15334952Y-13162667D01*
X15354000Y-13153143D01*
X15382571Y-13153143D01*
X15401619Y-13162667D01*
X15411143Y-13181714D01*
X15411143Y-13286476D01*
X15411143Y-13181714D02*
X15420667Y-13162667D01*
X15439714Y-13153143D01*
X15468286Y-13153143D01*
X15487333Y-13162667D01*
X15496857Y-13181714D01*
X15496857Y-13286476D01*
X15887333Y-13076952D02*
X15715905Y-13334095D01*
X16144476Y-13086476D02*
X16163524Y-13086476D01*
X16182571Y-13096000D01*
X16192095Y-13105524D01*
X16201619Y-13124571D01*
X16211143Y-13162667D01*
X16211143Y-13210286D01*
X16201619Y-13248381D01*
X16192095Y-13267428D01*
X16182571Y-13276952D01*
X16163524Y-13286476D01*
X16144476Y-13286476D01*
X16125428Y-13276952D01*
X16115905Y-13267428D01*
X16106381Y-13248381D01*
X16096857Y-13210286D01*
X16096857Y-13162667D01*
X16106381Y-13124571D01*
X16115905Y-13105524D01*
X16125428Y-13096000D01*
X16144476Y-13086476D01*
X16296857Y-13267428D02*
X16306381Y-13276952D01*
X16296857Y-13286476D01*
X16287333Y-13276952D01*
X16296857Y-13267428D01*
X16296857Y-13286476D01*
X16430190Y-13086476D02*
X16449238Y-13086476D01*
X16468286Y-13096000D01*
X16477809Y-13105524D01*
X16487333Y-13124571D01*
X16496857Y-13162667D01*
X16496857Y-13210286D01*
X16487333Y-13248381D01*
X16477809Y-13267428D01*
X16468286Y-13276952D01*
X16449238Y-13286476D01*
X16430190Y-13286476D01*
X16411143Y-13276952D01*
X16401619Y-13267428D01*
X16392095Y-13248381D01*
X16382571Y-13210286D01*
X16382571Y-13162667D01*
X16392095Y-13124571D01*
X16401619Y-13105524D01*
X16411143Y-13096000D01*
X16430190Y-13086476D01*
X16573048Y-13105524D02*
X16582571Y-13096000D01*
X16601619Y-13086476D01*
X16649238Y-13086476D01*
X16668286Y-13096000D01*
X16677809Y-13105524D01*
X16687333Y-13124571D01*
X16687333Y-13143619D01*
X16677809Y-13172190D01*
X16563524Y-13286476D01*
X16687333Y-13286476D01*
X16868286Y-13086476D02*
X16773048Y-13086476D01*
X16763524Y-13181714D01*
X16773048Y-13172190D01*
X16792095Y-13162667D01*
X16839714Y-13162667D01*
X16858762Y-13172190D01*
X16868286Y-13181714D01*
X16877810Y-13200762D01*
X16877810Y-13248381D01*
X16868286Y-13267428D01*
X16858762Y-13276952D01*
X16839714Y-13286476D01*
X16792095Y-13286476D01*
X16773048Y-13276952D01*
X16763524Y-13267428D01*
X17049238Y-13086476D02*
X17011143Y-13086476D01*
X16992095Y-13096000D01*
X16982571Y-13105524D01*
X16963524Y-13134095D01*
X16954000Y-13172190D01*
X16954000Y-13248381D01*
X16963524Y-13267428D01*
X16973048Y-13276952D01*
X16992095Y-13286476D01*
X17030190Y-13286476D01*
X17049238Y-13276952D01*
X17058762Y-13267428D01*
X17068286Y-13248381D01*
X17068286Y-13200762D01*
X17058762Y-13181714D01*
X17049238Y-13172190D01*
X17030190Y-13162667D01*
X16992095Y-13162667D01*
X16973048Y-13172190D01*
X16963524Y-13181714D01*
X16954000Y-13200762D01*
X17144476Y-13086476D02*
X17144476Y-13124571D01*
X17220667Y-13086476D02*
X17220667Y-13124571D01*
X17515905Y-13362667D02*
X17506381Y-13353143D01*
X17487333Y-13324571D01*
X17477810Y-13305524D01*
X17468286Y-13276952D01*
X17458762Y-13229333D01*
X17458762Y-13191238D01*
X17468286Y-13143619D01*
X17477810Y-13115048D01*
X17487333Y-13096000D01*
X17506381Y-13067428D01*
X17515905Y-13057905D01*
X17677810Y-13153143D02*
X17677810Y-13286476D01*
X17630190Y-13076952D02*
X17582571Y-13219809D01*
X17706381Y-13219809D01*
X17934952Y-13286476D02*
X17934952Y-13086476D01*
X18020667Y-13286476D02*
X18020667Y-13181714D01*
X18011143Y-13162667D01*
X17992095Y-13153143D01*
X17963524Y-13153143D01*
X17944476Y-13162667D01*
X17934952Y-13172190D01*
X18144476Y-13286476D02*
X18125429Y-13276952D01*
X18115905Y-13267428D01*
X18106381Y-13248381D01*
X18106381Y-13191238D01*
X18115905Y-13172190D01*
X18125429Y-13162667D01*
X18144476Y-13153143D01*
X18173048Y-13153143D01*
X18192095Y-13162667D01*
X18201619Y-13172190D01*
X18211143Y-13191238D01*
X18211143Y-13248381D01*
X18201619Y-13267428D01*
X18192095Y-13276952D01*
X18173048Y-13286476D01*
X18144476Y-13286476D01*
X18325429Y-13286476D02*
X18306381Y-13276952D01*
X18296857Y-13257905D01*
X18296857Y-13086476D01*
X18477810Y-13276952D02*
X18458762Y-13286476D01*
X18420667Y-13286476D01*
X18401619Y-13276952D01*
X18392095Y-13257905D01*
X18392095Y-13181714D01*
X18401619Y-13162667D01*
X18420667Y-13153143D01*
X18458762Y-13153143D01*
X18477810Y-13162667D01*
X18487333Y-13181714D01*
X18487333Y-13200762D01*
X18392095Y-13219809D01*
X18563524Y-13276952D02*
X18582571Y-13286476D01*
X18620667Y-13286476D01*
X18639714Y-13276952D01*
X18649238Y-13257905D01*
X18649238Y-13248381D01*
X18639714Y-13229333D01*
X18620667Y-13219809D01*
X18592095Y-13219809D01*
X18573048Y-13210286D01*
X18563524Y-13191238D01*
X18563524Y-13181714D01*
X18573048Y-13162667D01*
X18592095Y-13153143D01*
X18620667Y-13153143D01*
X18639714Y-13162667D01*
X18715905Y-13362667D02*
X18725429Y-13353143D01*
X18744476Y-13324571D01*
X18754000Y-13305524D01*
X18763524Y-13276952D01*
X18773048Y-13229333D01*
X18773048Y-13191238D01*
X18763524Y-13143619D01*
X18754000Y-13115048D01*
X18744476Y-13096000D01*
X18725429Y-13067428D01*
X18715905Y-13057905D01*
X19077810Y-13362667D02*
X19068286Y-13353143D01*
X19049238Y-13324571D01*
X19039714Y-13305524D01*
X19030190Y-13276952D01*
X19020667Y-13229333D01*
X19020667Y-13191238D01*
X19030190Y-13143619D01*
X19039714Y-13115048D01*
X19049238Y-13096000D01*
X19068286Y-13067428D01*
X19077810Y-13057905D01*
X19154000Y-13153143D02*
X19154000Y-13286476D01*
X19154000Y-13172190D02*
X19163524Y-13162667D01*
X19182571Y-13153143D01*
X19211143Y-13153143D01*
X19230190Y-13162667D01*
X19239714Y-13181714D01*
X19239714Y-13286476D01*
X19363524Y-13286476D02*
X19344476Y-13276952D01*
X19334952Y-13267428D01*
X19325429Y-13248381D01*
X19325429Y-13191238D01*
X19334952Y-13172190D01*
X19344476Y-13162667D01*
X19363524Y-13153143D01*
X19392095Y-13153143D01*
X19411143Y-13162667D01*
X19420667Y-13172190D01*
X19430190Y-13191238D01*
X19430190Y-13248381D01*
X19420667Y-13267428D01*
X19411143Y-13276952D01*
X19392095Y-13286476D01*
X19363524Y-13286476D01*
X19487333Y-13153143D02*
X19563524Y-13153143D01*
X19515905Y-13086476D02*
X19515905Y-13257905D01*
X19525429Y-13276952D01*
X19544476Y-13286476D01*
X19563524Y-13286476D01*
X19782571Y-13153143D02*
X19782571Y-13353143D01*
X19782571Y-13162667D02*
X19801619Y-13153143D01*
X19839714Y-13153143D01*
X19858762Y-13162667D01*
X19868286Y-13172190D01*
X19877810Y-13191238D01*
X19877810Y-13248381D01*
X19868286Y-13267428D01*
X19858762Y-13276952D01*
X19839714Y-13286476D01*
X19801619Y-13286476D01*
X19782571Y-13276952D01*
X19992095Y-13286476D02*
X19973048Y-13276952D01*
X19963524Y-13257905D01*
X19963524Y-13086476D01*
X20154000Y-13286476D02*
X20154000Y-13181714D01*
X20144476Y-13162667D01*
X20125429Y-13153143D01*
X20087333Y-13153143D01*
X20068286Y-13162667D01*
X20154000Y-13276952D02*
X20134952Y-13286476D01*
X20087333Y-13286476D01*
X20068286Y-13276952D01*
X20058762Y-13257905D01*
X20058762Y-13238857D01*
X20068286Y-13219809D01*
X20087333Y-13210286D01*
X20134952Y-13210286D01*
X20154000Y-13200762D01*
X20220667Y-13153143D02*
X20296857Y-13153143D01*
X20249238Y-13086476D02*
X20249238Y-13257905D01*
X20258762Y-13276952D01*
X20277810Y-13286476D01*
X20296857Y-13286476D01*
X20439714Y-13276952D02*
X20420667Y-13286476D01*
X20382571Y-13286476D01*
X20363524Y-13276952D01*
X20354000Y-13257905D01*
X20354000Y-13181714D01*
X20363524Y-13162667D01*
X20382571Y-13153143D01*
X20420667Y-13153143D01*
X20439714Y-13162667D01*
X20449238Y-13181714D01*
X20449238Y-13200762D01*
X20354000Y-13219809D01*
X20620667Y-13286476D02*
X20620667Y-13086476D01*
X20620667Y-13276952D02*
X20601619Y-13286476D01*
X20563524Y-13286476D01*
X20544476Y-13276952D01*
X20534952Y-13267428D01*
X20525429Y-13248381D01*
X20525429Y-13191238D01*
X20534952Y-13172190D01*
X20544476Y-13162667D01*
X20563524Y-13153143D01*
X20601619Y-13153143D01*
X20620667Y-13162667D01*
X20696857Y-13362667D02*
X20706381Y-13353143D01*
X20725429Y-13324571D01*
X20734952Y-13305524D01*
X20744476Y-13276952D01*
X20754000Y-13229333D01*
X20754000Y-13191238D01*
X20744476Y-13143619D01*
X20734952Y-13115048D01*
X20725429Y-13096000D01*
X20706381Y-13067428D01*
X20696857Y-13057905D01*
M02*
