%TF.GenerationSoftware,KiCad,Pcbnew,6.0.11+dfsg-1*%
%TF.CreationDate,2023-04-26T00:49:17+01:00*%
%TF.ProjectId,bico,6269636f-2e6b-4696-9361-645f70636258,rev?*%
%TF.SameCoordinates,Original*%
%TF.FileFunction,Legend,Top*%
%TF.FilePolarity,Positive*%
%FSLAX46Y46*%
G04 Gerber Fmt 4.6, Leading zero omitted, Abs format (unit mm)*
G04 Created by KiCad (PCBNEW 6.0.11+dfsg-1) date 2023-04-26 00:49:17*
%MOMM*%
%LPD*%
G01*
G04 APERTURE LIST*
G04 Aperture macros list*
%AMRoundRect*
0 Rectangle with rounded corners*
0 $1 Rounding radius*
0 $2 $3 $4 $5 $6 $7 $8 $9 X,Y pos of 4 corners*
0 Add a 4 corners polygon primitive as box body*
4,1,4,$2,$3,$4,$5,$6,$7,$8,$9,$2,$3,0*
0 Add four circle primitives for the rounded corners*
1,1,$1+$1,$2,$3*
1,1,$1+$1,$4,$5*
1,1,$1+$1,$6,$7*
1,1,$1+$1,$8,$9*
0 Add four rect primitives between the rounded corners*
20,1,$1+$1,$2,$3,$4,$5,0*
20,1,$1+$1,$4,$5,$6,$7,0*
20,1,$1+$1,$6,$7,$8,$9,0*
20,1,$1+$1,$8,$9,$2,$3,0*%
%AMFreePoly0*
4,1,19,-0.700000,0.800000,0.000000,0.800000,0.127565,0.788278,0.288060,0.737982,0.431925,0.650855,0.550855,0.531925,0.637982,0.388060,0.688278,0.227565,0.700000,0.100000,0.700000,-0.100000,0.688278,-0.227565,0.637982,-0.388060,0.550855,-0.531925,0.431925,-0.650855,0.288060,-0.737982,0.127565,-0.788278,0.000000,-0.800000,-0.700000,-0.800000,-0.700000,0.800000,-0.700000,0.800000,
$1*%
%AMFreePoly1*
4,1,13,-0.700000,0.800000,0.560000,0.800000,0.613576,0.789343,0.658995,0.758995,0.689343,0.713576,0.700000,0.660000,0.700000,-0.660000,0.689343,-0.713576,0.658995,-0.758995,0.613576,-0.789343,0.560000,-0.800000,-0.700000,-0.800000,-0.700000,0.800000,-0.700000,0.800000,$1*%
G04 Aperture macros list end*
%ADD10C,0.100000*%
%ADD11C,0.150000*%
%ADD12C,0.200000*%
%ADD13C,0.120000*%
%ADD14R,1.200000X0.900000*%
%ADD15R,0.650000X1.560000*%
%ADD16R,0.650000X1.050000*%
%ADD17RoundRect,0.135000X0.135000X0.185000X-0.135000X0.185000X-0.135000X-0.185000X0.135000X-0.185000X0*%
%ADD18RoundRect,0.135000X-0.185000X0.135000X-0.185000X-0.135000X0.185000X-0.135000X0.185000X0.135000X0*%
%ADD19RoundRect,0.135000X-0.135000X-0.185000X0.135000X-0.185000X0.135000X0.185000X-0.135000X0.185000X0*%
%ADD20RoundRect,0.135000X0.185000X-0.135000X0.185000X0.135000X-0.185000X0.135000X-0.185000X-0.135000X0*%
%ADD21R,0.850000X0.850000*%
%ADD22O,0.850000X0.850000*%
%ADD23RoundRect,0.218750X-0.218750X-0.256250X0.218750X-0.256250X0.218750X0.256250X-0.218750X0.256250X0*%
%ADD24RoundRect,0.218750X0.256250X-0.218750X0.256250X0.218750X-0.256250X0.218750X-0.256250X-0.218750X0*%
%ADD25RoundRect,0.140000X-0.140000X-0.170000X0.140000X-0.170000X0.140000X0.170000X-0.140000X0.170000X0*%
%ADD26RoundRect,0.140000X0.140000X0.170000X-0.140000X0.170000X-0.140000X-0.170000X0.140000X-0.170000X0*%
%ADD27RoundRect,0.140000X0.170000X-0.140000X0.170000X0.140000X-0.170000X0.140000X-0.170000X-0.140000X0*%
%ADD28RoundRect,0.140000X-0.170000X0.140000X-0.170000X-0.140000X0.170000X-0.140000X0.170000X0.140000X0*%
%ADD29R,1.800000X1.600000*%
%ADD30FreePoly0,0.000000*%
%ADD31FreePoly1,0.000000*%
%ADD32FreePoly0,180.000000*%
%ADD33FreePoly1,180.000000*%
%ADD34O,1.000000X0.200000*%
%ADD35O,0.200000X1.000000*%
%ADD36R,1.600000X1.600000*%
%ADD37C,0.650000*%
%ADD38R,0.600000X1.150000*%
%ADD39R,0.300000X1.150000*%
%ADD40O,1.000000X1.800000*%
%ADD41O,1.000000X2.100000*%
%ADD42RoundRect,0.062500X-0.312500X-0.062500X0.312500X-0.062500X0.312500X0.062500X-0.312500X0.062500X0*%
%ADD43R,0.400000X1.800000*%
%ADD44R,1.400000X1.200000*%
%ADD45RoundRect,0.062500X0.312500X0.062500X-0.312500X0.062500X-0.312500X-0.062500X0.312500X-0.062500X0*%
G04 APERTURE END LIST*
D10*
X157716666Y-123196666D02*
X157316666Y-123196666D01*
X157516666Y-123196666D02*
X157516666Y-122496666D01*
X157450000Y-122596666D01*
X157383333Y-122663333D01*
X157316666Y-122696666D01*
X158316666Y-122496666D02*
X158183333Y-122496666D01*
X158116666Y-122530000D01*
X158083333Y-122563333D01*
X158016666Y-122663333D01*
X157983333Y-122796666D01*
X157983333Y-123063333D01*
X158016666Y-123130000D01*
X158050000Y-123163333D01*
X158116666Y-123196666D01*
X158250000Y-123196666D01*
X158316666Y-123163333D01*
X158350000Y-123130000D01*
X158383333Y-123063333D01*
X158383333Y-122896666D01*
X158350000Y-122830000D01*
X158316666Y-122796666D01*
X158250000Y-122763333D01*
X158116666Y-122763333D01*
X158050000Y-122796666D01*
X158016666Y-122830000D01*
X157983333Y-122896666D01*
X157716666Y-120776666D02*
X157316666Y-120776666D01*
X157516666Y-120776666D02*
X157516666Y-120076666D01*
X157450000Y-120176666D01*
X157383333Y-120243333D01*
X157316666Y-120276666D01*
X157950000Y-120076666D02*
X158416666Y-120076666D01*
X158116666Y-120776666D01*
X157416666Y-83882666D02*
X157783333Y-83416000D01*
X157416666Y-83416000D02*
X157783333Y-83882666D01*
X157416666Y-88962666D02*
X157783333Y-88496000D01*
X157416666Y-88496000D02*
X157783333Y-88962666D01*
X157200666Y-86865666D02*
X157634000Y-86865666D01*
X157400666Y-87132333D01*
X157500666Y-87132333D01*
X157567333Y-87165666D01*
X157600666Y-87199000D01*
X157634000Y-87265666D01*
X157634000Y-87432333D01*
X157600666Y-87499000D01*
X157567333Y-87532333D01*
X157500666Y-87565666D01*
X157300666Y-87565666D01*
X157234000Y-87532333D01*
X157200666Y-87499000D01*
X157834000Y-86865666D02*
X158067333Y-87565666D01*
X158300666Y-86865666D01*
X156692666Y-90869333D02*
X156726000Y-90836000D01*
X156792666Y-90802666D01*
X156959333Y-90802666D01*
X157026000Y-90836000D01*
X157059333Y-90869333D01*
X157092666Y-90936000D01*
X157092666Y-91002666D01*
X157059333Y-91102666D01*
X156659333Y-91502666D01*
X157092666Y-91502666D01*
X157492666Y-91102666D02*
X157426000Y-91069333D01*
X157392666Y-91036000D01*
X157359333Y-90969333D01*
X157359333Y-90936000D01*
X157392666Y-90869333D01*
X157426000Y-90836000D01*
X157492666Y-90802666D01*
X157626000Y-90802666D01*
X157692666Y-90836000D01*
X157726000Y-90869333D01*
X157759333Y-90936000D01*
X157759333Y-90969333D01*
X157726000Y-91036000D01*
X157692666Y-91069333D01*
X157626000Y-91102666D01*
X157492666Y-91102666D01*
X157426000Y-91136000D01*
X157392666Y-91169333D01*
X157359333Y-91236000D01*
X157359333Y-91369333D01*
X157392666Y-91436000D01*
X157426000Y-91469333D01*
X157492666Y-91502666D01*
X157626000Y-91502666D01*
X157692666Y-91469333D01*
X157726000Y-91436000D01*
X157759333Y-91369333D01*
X157759333Y-91236000D01*
X157726000Y-91169333D01*
X157692666Y-91136000D01*
X157626000Y-91102666D01*
X157433333Y-79316666D02*
X157666666Y-80016666D01*
X157900000Y-79316666D01*
X158100000Y-79983333D02*
X158200000Y-80016666D01*
X158366666Y-80016666D01*
X158433333Y-79983333D01*
X158466666Y-79950000D01*
X158500000Y-79883333D01*
X158500000Y-79816666D01*
X158466666Y-79750000D01*
X158433333Y-79716666D01*
X158366666Y-79683333D01*
X158233333Y-79650000D01*
X158166666Y-79616666D01*
X158133333Y-79583333D01*
X158100000Y-79516666D01*
X158100000Y-79450000D01*
X158133333Y-79383333D01*
X158166666Y-79350000D01*
X158233333Y-79316666D01*
X158400000Y-79316666D01*
X158500000Y-79350000D01*
X157416666Y-76816666D02*
X157650000Y-77516666D01*
X157883333Y-76816666D01*
X158350000Y-77150000D02*
X158450000Y-77183333D01*
X158483333Y-77216666D01*
X158516666Y-77283333D01*
X158516666Y-77383333D01*
X158483333Y-77450000D01*
X158450000Y-77483333D01*
X158383333Y-77516666D01*
X158116666Y-77516666D01*
X158116666Y-76816666D01*
X158350000Y-76816666D01*
X158416666Y-76850000D01*
X158450000Y-76883333D01*
X158483333Y-76950000D01*
X158483333Y-77016666D01*
X158450000Y-77083333D01*
X158416666Y-77116666D01*
X158350000Y-77150000D01*
X158116666Y-77150000D01*
X144883333Y-105150000D02*
X144816666Y-105116666D01*
X144716666Y-105116666D01*
X144616666Y-105150000D01*
X144550000Y-105216666D01*
X144516666Y-105283333D01*
X144483333Y-105416666D01*
X144483333Y-105516666D01*
X144516666Y-105650000D01*
X144550000Y-105716666D01*
X144616666Y-105783333D01*
X144716666Y-105816666D01*
X144783333Y-105816666D01*
X144883333Y-105783333D01*
X144916666Y-105750000D01*
X144916666Y-105516666D01*
X144783333Y-105516666D01*
X146516666Y-105816666D02*
X146516666Y-105116666D01*
X146683333Y-105116666D01*
X146783333Y-105150000D01*
X146850000Y-105216666D01*
X146883333Y-105283333D01*
X146916666Y-105416666D01*
X146916666Y-105516666D01*
X146883333Y-105650000D01*
X146850000Y-105716666D01*
X146783333Y-105783333D01*
X146683333Y-105816666D01*
X146516666Y-105816666D01*
X145916666Y-105750000D02*
X145883333Y-105783333D01*
X145783333Y-105816666D01*
X145716666Y-105816666D01*
X145616666Y-105783333D01*
X145550000Y-105716666D01*
X145516666Y-105650000D01*
X145483333Y-105516666D01*
X145483333Y-105416666D01*
X145516666Y-105283333D01*
X145550000Y-105216666D01*
X145616666Y-105150000D01*
X145716666Y-105116666D01*
X145783333Y-105116666D01*
X145883333Y-105150000D01*
X145916666Y-105183333D01*
X157194266Y-116902666D02*
X156794266Y-116902666D01*
X156994266Y-116902666D02*
X156994266Y-116202666D01*
X156927600Y-116302666D01*
X156860933Y-116369333D01*
X156794266Y-116402666D01*
X157594266Y-116502666D02*
X157527600Y-116469333D01*
X157494266Y-116436000D01*
X157460933Y-116369333D01*
X157460933Y-116336000D01*
X157494266Y-116269333D01*
X157527600Y-116236000D01*
X157594266Y-116202666D01*
X157727600Y-116202666D01*
X157794266Y-116236000D01*
X157827600Y-116269333D01*
X157860933Y-116336000D01*
X157860933Y-116369333D01*
X157827600Y-116436000D01*
X157794266Y-116469333D01*
X157727600Y-116502666D01*
X157594266Y-116502666D01*
X157527600Y-116536000D01*
X157494266Y-116569333D01*
X157460933Y-116636000D01*
X157460933Y-116769333D01*
X157494266Y-116836000D01*
X157527600Y-116869333D01*
X157594266Y-116902666D01*
X157727600Y-116902666D01*
X157794266Y-116869333D01*
X157827600Y-116836000D01*
X157860933Y-116769333D01*
X157860933Y-116636000D01*
X157827600Y-116569333D01*
X157794266Y-116536000D01*
X157727600Y-116502666D01*
X157194266Y-114362666D02*
X156794266Y-114362666D01*
X156994266Y-114362666D02*
X156994266Y-113662666D01*
X156927600Y-113762666D01*
X156860933Y-113829333D01*
X156794266Y-113862666D01*
X157527600Y-114362666D02*
X157660933Y-114362666D01*
X157727600Y-114329333D01*
X157760933Y-114296000D01*
X157827600Y-114196000D01*
X157860933Y-114062666D01*
X157860933Y-113796000D01*
X157827600Y-113729333D01*
X157794266Y-113696000D01*
X157727600Y-113662666D01*
X157594266Y-113662666D01*
X157527600Y-113696000D01*
X157494266Y-113729333D01*
X157460933Y-113796000D01*
X157460933Y-113962666D01*
X157494266Y-114029333D01*
X157527600Y-114062666D01*
X157594266Y-114096000D01*
X157727600Y-114096000D01*
X157794266Y-114062666D01*
X157827600Y-114029333D01*
X157860933Y-113962666D01*
X156794266Y-111138533D02*
X156827600Y-111105200D01*
X156894266Y-111071866D01*
X157060933Y-111071866D01*
X157127600Y-111105200D01*
X157160933Y-111138533D01*
X157194266Y-111205200D01*
X157194266Y-111271866D01*
X157160933Y-111371866D01*
X156760933Y-111771866D01*
X157194266Y-111771866D01*
X157627600Y-111071866D02*
X157694266Y-111071866D01*
X157760933Y-111105200D01*
X157794266Y-111138533D01*
X157827600Y-111205200D01*
X157860933Y-111338533D01*
X157860933Y-111505200D01*
X157827600Y-111638533D01*
X157794266Y-111705200D01*
X157760933Y-111738533D01*
X157694266Y-111771866D01*
X157627600Y-111771866D01*
X157560933Y-111738533D01*
X157527600Y-111705200D01*
X157494266Y-111638533D01*
X157460933Y-111505200D01*
X157460933Y-111338533D01*
X157494266Y-111205200D01*
X157527600Y-111138533D01*
X157560933Y-111105200D01*
X157627600Y-111071866D01*
X156819666Y-108649333D02*
X156853000Y-108616000D01*
X156919666Y-108582666D01*
X157086333Y-108582666D01*
X157153000Y-108616000D01*
X157186333Y-108649333D01*
X157219666Y-108716000D01*
X157219666Y-108782666D01*
X157186333Y-108882666D01*
X156786333Y-109282666D01*
X157219666Y-109282666D01*
X157886333Y-109282666D02*
X157486333Y-109282666D01*
X157686333Y-109282666D02*
X157686333Y-108582666D01*
X157619666Y-108682666D01*
X157553000Y-108749333D01*
X157486333Y-108782666D01*
X156692666Y-103569333D02*
X156726000Y-103536000D01*
X156792666Y-103502666D01*
X156959333Y-103502666D01*
X157026000Y-103536000D01*
X157059333Y-103569333D01*
X157092666Y-103636000D01*
X157092666Y-103702666D01*
X157059333Y-103802666D01*
X156659333Y-104202666D01*
X157092666Y-104202666D01*
X157359333Y-103569333D02*
X157392666Y-103536000D01*
X157459333Y-103502666D01*
X157626000Y-103502666D01*
X157692666Y-103536000D01*
X157726000Y-103569333D01*
X157759333Y-103636000D01*
X157759333Y-103702666D01*
X157726000Y-103802666D01*
X157326000Y-104202666D01*
X157759333Y-104202666D01*
X156516666Y-101662666D02*
X156283333Y-101329333D01*
X156116666Y-101662666D02*
X156116666Y-100962666D01*
X156383333Y-100962666D01*
X156450000Y-100996000D01*
X156483333Y-101029333D01*
X156516666Y-101096000D01*
X156516666Y-101196000D01*
X156483333Y-101262666D01*
X156450000Y-101296000D01*
X156383333Y-101329333D01*
X156116666Y-101329333D01*
X156783333Y-101629333D02*
X156883333Y-101662666D01*
X157050000Y-101662666D01*
X157116666Y-101629333D01*
X157150000Y-101596000D01*
X157183333Y-101529333D01*
X157183333Y-101462666D01*
X157150000Y-101396000D01*
X157116666Y-101362666D01*
X157050000Y-101329333D01*
X156916666Y-101296000D01*
X156850000Y-101262666D01*
X156816666Y-101229333D01*
X156783333Y-101162666D01*
X156783333Y-101096000D01*
X156816666Y-101029333D01*
X156850000Y-100996000D01*
X156916666Y-100962666D01*
X157083333Y-100962666D01*
X157183333Y-100996000D01*
X157383333Y-100962666D02*
X157783333Y-100962666D01*
X157583333Y-101662666D02*
X157583333Y-100962666D01*
X156692666Y-98489333D02*
X156726000Y-98456000D01*
X156792666Y-98422666D01*
X156959333Y-98422666D01*
X157026000Y-98456000D01*
X157059333Y-98489333D01*
X157092666Y-98556000D01*
X157092666Y-98622666D01*
X157059333Y-98722666D01*
X156659333Y-99122666D01*
X157092666Y-99122666D01*
X157692666Y-98422666D02*
X157559333Y-98422666D01*
X157492666Y-98456000D01*
X157459333Y-98489333D01*
X157392666Y-98589333D01*
X157359333Y-98722666D01*
X157359333Y-98989333D01*
X157392666Y-99056000D01*
X157426000Y-99089333D01*
X157492666Y-99122666D01*
X157626000Y-99122666D01*
X157692666Y-99089333D01*
X157726000Y-99056000D01*
X157759333Y-98989333D01*
X157759333Y-98822666D01*
X157726000Y-98756000D01*
X157692666Y-98722666D01*
X157626000Y-98689333D01*
X157492666Y-98689333D01*
X157426000Y-98722666D01*
X157392666Y-98756000D01*
X157359333Y-98822666D01*
X156692666Y-96330333D02*
X156726000Y-96297000D01*
X156792666Y-96263666D01*
X156959333Y-96263666D01*
X157026000Y-96297000D01*
X157059333Y-96330333D01*
X157092666Y-96397000D01*
X157092666Y-96463666D01*
X157059333Y-96563666D01*
X156659333Y-96963666D01*
X157092666Y-96963666D01*
X157326000Y-96263666D02*
X157792666Y-96263666D01*
X157492666Y-96963666D01*
D11*
X157734000Y-80772000D02*
X157734000Y-81280000D01*
X157734000Y-93472000D02*
X157734000Y-93980000D01*
X157734000Y-106172000D02*
X157734000Y-106680000D01*
X157734000Y-118872000D02*
X157734000Y-119380000D01*
X142240000Y-118872000D02*
X142240000Y-119380000D01*
X142240000Y-106172000D02*
X142240000Y-106680000D01*
X142240000Y-93472000D02*
X142240000Y-93980000D01*
X142240000Y-80772000D02*
X142240000Y-81280000D01*
D10*
X141903466Y-118071066D02*
X141503466Y-118071066D01*
X141703466Y-118071066D02*
X141703466Y-117371066D01*
X141636800Y-117471066D01*
X141570133Y-117537733D01*
X141503466Y-117571066D01*
X142136800Y-117371066D02*
X142570133Y-117371066D01*
X142336800Y-117637733D01*
X142436800Y-117637733D01*
X142503466Y-117671066D01*
X142536800Y-117704400D01*
X142570133Y-117771066D01*
X142570133Y-117937733D01*
X142536800Y-118004400D01*
X142503466Y-118037733D01*
X142436800Y-118071066D01*
X142236800Y-118071066D01*
X142170133Y-118037733D01*
X142136800Y-118004400D01*
X142487666Y-124395666D02*
X142087666Y-124395666D01*
X142287666Y-124395666D02*
X142287666Y-123695666D01*
X142221000Y-123795666D01*
X142154333Y-123862333D01*
X142087666Y-123895666D01*
X143121000Y-123695666D02*
X142787666Y-123695666D01*
X142754333Y-124029000D01*
X142787666Y-123995666D01*
X142854333Y-123962333D01*
X143021000Y-123962333D01*
X143087666Y-123995666D01*
X143121000Y-124029000D01*
X143154333Y-124095666D01*
X143154333Y-124262333D01*
X143121000Y-124329000D01*
X143087666Y-124362333D01*
X143021000Y-124395666D01*
X142854333Y-124395666D01*
X142787666Y-124362333D01*
X142754333Y-124329000D01*
X142487666Y-121982666D02*
X142087666Y-121982666D01*
X142287666Y-121982666D02*
X142287666Y-121282666D01*
X142221000Y-121382666D01*
X142154333Y-121449333D01*
X142087666Y-121482666D01*
X143087666Y-121516000D02*
X143087666Y-121982666D01*
X142921000Y-121249333D02*
X142754333Y-121749333D01*
X143187666Y-121749333D01*
X142486666Y-109282666D02*
X142086666Y-109282666D01*
X142286666Y-109282666D02*
X142286666Y-108582666D01*
X142220000Y-108682666D01*
X142153333Y-108749333D01*
X142086666Y-108782666D01*
X142920000Y-108582666D02*
X142986666Y-108582666D01*
X143053333Y-108616000D01*
X143086666Y-108649333D01*
X143120000Y-108716000D01*
X143153333Y-108849333D01*
X143153333Y-109016000D01*
X143120000Y-109149333D01*
X143086666Y-109216000D01*
X143053333Y-109249333D01*
X142986666Y-109282666D01*
X142920000Y-109282666D01*
X142853333Y-109249333D01*
X142820000Y-109216000D01*
X142786666Y-109149333D01*
X142753333Y-109016000D01*
X142753333Y-108849333D01*
X142786666Y-108716000D01*
X142820000Y-108649333D01*
X142853333Y-108616000D01*
X142920000Y-108582666D01*
X142360666Y-104202666D02*
X142494000Y-104202666D01*
X142560666Y-104169333D01*
X142594000Y-104136000D01*
X142660666Y-104036000D01*
X142694000Y-103902666D01*
X142694000Y-103636000D01*
X142660666Y-103569333D01*
X142627333Y-103536000D01*
X142560666Y-103502666D01*
X142427333Y-103502666D01*
X142360666Y-103536000D01*
X142327333Y-103569333D01*
X142294000Y-103636000D01*
X142294000Y-103802666D01*
X142327333Y-103869333D01*
X142360666Y-103902666D01*
X142427333Y-103936000D01*
X142560666Y-103936000D01*
X142627333Y-103902666D01*
X142660666Y-103869333D01*
X142694000Y-103802666D01*
X142427333Y-101262666D02*
X142360666Y-101229333D01*
X142327333Y-101196000D01*
X142294000Y-101129333D01*
X142294000Y-101096000D01*
X142327333Y-101029333D01*
X142360666Y-100996000D01*
X142427333Y-100962666D01*
X142560666Y-100962666D01*
X142627333Y-100996000D01*
X142660666Y-101029333D01*
X142694000Y-101096000D01*
X142694000Y-101129333D01*
X142660666Y-101196000D01*
X142627333Y-101229333D01*
X142560666Y-101262666D01*
X142427333Y-101262666D01*
X142360666Y-101296000D01*
X142327333Y-101329333D01*
X142294000Y-101396000D01*
X142294000Y-101529333D01*
X142327333Y-101596000D01*
X142360666Y-101629333D01*
X142427333Y-101662666D01*
X142560666Y-101662666D01*
X142627333Y-101629333D01*
X142660666Y-101596000D01*
X142694000Y-101529333D01*
X142694000Y-101396000D01*
X142660666Y-101329333D01*
X142627333Y-101296000D01*
X142560666Y-101262666D01*
X142260666Y-98422666D02*
X142727333Y-98422666D01*
X142427333Y-99122666D01*
X142627333Y-95882666D02*
X142494000Y-95882666D01*
X142427333Y-95916000D01*
X142394000Y-95949333D01*
X142327333Y-96049333D01*
X142294000Y-96182666D01*
X142294000Y-96449333D01*
X142327333Y-96516000D01*
X142360666Y-96549333D01*
X142427333Y-96582666D01*
X142560666Y-96582666D01*
X142627333Y-96549333D01*
X142660666Y-96516000D01*
X142694000Y-96449333D01*
X142694000Y-96282666D01*
X142660666Y-96216000D01*
X142627333Y-96182666D01*
X142560666Y-96149333D01*
X142427333Y-96149333D01*
X142360666Y-96182666D01*
X142327333Y-96216000D01*
X142294000Y-96282666D01*
X142660666Y-90802666D02*
X142327333Y-90802666D01*
X142294000Y-91136000D01*
X142327333Y-91102666D01*
X142394000Y-91069333D01*
X142560666Y-91069333D01*
X142627333Y-91102666D01*
X142660666Y-91136000D01*
X142694000Y-91202666D01*
X142694000Y-91369333D01*
X142660666Y-91436000D01*
X142627333Y-91469333D01*
X142560666Y-91502666D01*
X142394000Y-91502666D01*
X142327333Y-91469333D01*
X142294000Y-91436000D01*
X142627333Y-88496000D02*
X142627333Y-88962666D01*
X142460666Y-88229333D02*
X142294000Y-88729333D01*
X142727333Y-88729333D01*
X142260666Y-85722666D02*
X142694000Y-85722666D01*
X142460666Y-85989333D01*
X142560666Y-85989333D01*
X142627333Y-86022666D01*
X142660666Y-86056000D01*
X142694000Y-86122666D01*
X142694000Y-86289333D01*
X142660666Y-86356000D01*
X142627333Y-86389333D01*
X142560666Y-86422666D01*
X142360666Y-86422666D01*
X142294000Y-86389333D01*
X142260666Y-86356000D01*
X142294000Y-83249333D02*
X142327333Y-83216000D01*
X142394000Y-83182666D01*
X142560666Y-83182666D01*
X142627333Y-83216000D01*
X142660666Y-83249333D01*
X142694000Y-83316000D01*
X142694000Y-83382666D01*
X142660666Y-83482666D01*
X142260666Y-83882666D01*
X142694000Y-83882666D01*
X142694000Y-78802666D02*
X142294000Y-78802666D01*
X142494000Y-78802666D02*
X142494000Y-78102666D01*
X142427333Y-78202666D01*
X142360666Y-78269333D01*
X142294000Y-78302666D01*
X142456666Y-75696666D02*
X142523333Y-75696666D01*
X142590000Y-75730000D01*
X142623333Y-75763333D01*
X142656666Y-75830000D01*
X142690000Y-75963333D01*
X142690000Y-76130000D01*
X142656666Y-76263333D01*
X142623333Y-76330000D01*
X142590000Y-76363333D01*
X142523333Y-76396666D01*
X142456666Y-76396666D01*
X142390000Y-76363333D01*
X142356666Y-76330000D01*
X142323333Y-76263333D01*
X142290000Y-76130000D01*
X142290000Y-75963333D01*
X142323333Y-75830000D01*
X142356666Y-75763333D01*
X142390000Y-75730000D01*
X142456666Y-75696666D01*
D12*
X144822857Y-101842857D02*
X144994285Y-101914285D01*
X145051428Y-101985714D01*
X145108571Y-102128571D01*
X145108571Y-102342857D01*
X145051428Y-102485714D01*
X144994285Y-102557142D01*
X144880000Y-102628571D01*
X144422857Y-102628571D01*
X144422857Y-101128571D01*
X144822857Y-101128571D01*
X144937142Y-101200000D01*
X144994285Y-101271428D01*
X145051428Y-101414285D01*
X145051428Y-101557142D01*
X144994285Y-101700000D01*
X144937142Y-101771428D01*
X144822857Y-101842857D01*
X144422857Y-101842857D01*
X145622857Y-102628571D02*
X145622857Y-101628571D01*
X145622857Y-101128571D02*
X145565714Y-101200000D01*
X145622857Y-101271428D01*
X145680000Y-101200000D01*
X145622857Y-101128571D01*
X145622857Y-101271428D01*
X146708571Y-102557142D02*
X146594285Y-102628571D01*
X146365714Y-102628571D01*
X146251428Y-102557142D01*
X146194285Y-102485714D01*
X146137142Y-102342857D01*
X146137142Y-101914285D01*
X146194285Y-101771428D01*
X146251428Y-101700000D01*
X146365714Y-101628571D01*
X146594285Y-101628571D01*
X146708571Y-101700000D01*
X147394285Y-102628571D02*
X147280000Y-102557142D01*
X147222857Y-102485714D01*
X147165714Y-102342857D01*
X147165714Y-101914285D01*
X147222857Y-101771428D01*
X147280000Y-101700000D01*
X147394285Y-101628571D01*
X147565714Y-101628571D01*
X147680000Y-101700000D01*
X147737142Y-101771428D01*
X147794285Y-101914285D01*
X147794285Y-102342857D01*
X147737142Y-102485714D01*
X147680000Y-102557142D01*
X147565714Y-102628571D01*
X147394285Y-102628571D01*
D10*
X147714285Y-89142857D02*
X147828571Y-89180952D01*
X147866666Y-89219047D01*
X147904761Y-89295238D01*
X147904761Y-89409523D01*
X147866666Y-89485714D01*
X147828571Y-89523809D01*
X147752380Y-89561904D01*
X147447619Y-89561904D01*
X147447619Y-88761904D01*
X147714285Y-88761904D01*
X147790476Y-88800000D01*
X147828571Y-88838095D01*
X147866666Y-88914285D01*
X147866666Y-88990476D01*
X147828571Y-89066666D01*
X147790476Y-89104761D01*
X147714285Y-89142857D01*
X147447619Y-89142857D01*
X148400000Y-88761904D02*
X148552380Y-88761904D01*
X148628571Y-88800000D01*
X148704761Y-88876190D01*
X148742857Y-89028571D01*
X148742857Y-89295238D01*
X148704761Y-89447619D01*
X148628571Y-89523809D01*
X148552380Y-89561904D01*
X148400000Y-89561904D01*
X148323809Y-89523809D01*
X148247619Y-89447619D01*
X148209523Y-89295238D01*
X148209523Y-89028571D01*
X148247619Y-88876190D01*
X148323809Y-88800000D01*
X148400000Y-88761904D01*
X149238095Y-88761904D02*
X149390476Y-88761904D01*
X149466666Y-88800000D01*
X149542857Y-88876190D01*
X149580952Y-89028571D01*
X149580952Y-89295238D01*
X149542857Y-89447619D01*
X149466666Y-89523809D01*
X149390476Y-89561904D01*
X149238095Y-89561904D01*
X149161904Y-89523809D01*
X149085714Y-89447619D01*
X149047619Y-89295238D01*
X149047619Y-89028571D01*
X149085714Y-88876190D01*
X149161904Y-88800000D01*
X149238095Y-88761904D01*
X149809523Y-88761904D02*
X150266666Y-88761904D01*
X150038095Y-89561904D02*
X150038095Y-88761904D01*
X151511904Y-89561904D02*
X151245238Y-89180952D01*
X151054761Y-89561904D02*
X151054761Y-88761904D01*
X151359523Y-88761904D01*
X151435714Y-88800000D01*
X151473809Y-88838095D01*
X151511904Y-88914285D01*
X151511904Y-89028571D01*
X151473809Y-89104761D01*
X151435714Y-89142857D01*
X151359523Y-89180952D01*
X151054761Y-89180952D01*
X151816666Y-89523809D02*
X151930952Y-89561904D01*
X152121428Y-89561904D01*
X152197619Y-89523809D01*
X152235714Y-89485714D01*
X152273809Y-89409523D01*
X152273809Y-89333333D01*
X152235714Y-89257142D01*
X152197619Y-89219047D01*
X152121428Y-89180952D01*
X151969047Y-89142857D01*
X151892857Y-89104761D01*
X151854761Y-89066666D01*
X151816666Y-88990476D01*
X151816666Y-88914285D01*
X151854761Y-88838095D01*
X151892857Y-88800000D01*
X151969047Y-88761904D01*
X152159523Y-88761904D01*
X152273809Y-88800000D01*
X152502380Y-88761904D02*
X152959523Y-88761904D01*
X152730952Y-89561904D02*
X152730952Y-88761904D01*
D12*
X144848971Y-123443714D02*
X143348971Y-123443714D01*
X143348971Y-122986571D01*
X143420400Y-122872285D01*
X143491828Y-122815142D01*
X143634685Y-122758000D01*
X143848971Y-122758000D01*
X143991828Y-122815142D01*
X144063257Y-122872285D01*
X144134685Y-122986571D01*
X144134685Y-123443714D01*
X144848971Y-122243714D02*
X143848971Y-122243714D01*
X144134685Y-122243714D02*
X143991828Y-122186571D01*
X143920400Y-122129428D01*
X143848971Y-122015142D01*
X143848971Y-121900857D01*
X144848971Y-121329428D02*
X144777542Y-121443714D01*
X144706114Y-121500857D01*
X144563257Y-121558000D01*
X144134685Y-121558000D01*
X143991828Y-121500857D01*
X143920400Y-121443714D01*
X143848971Y-121329428D01*
X143848971Y-121158000D01*
X143920400Y-121043714D01*
X143991828Y-120986571D01*
X144134685Y-120929428D01*
X144563257Y-120929428D01*
X144706114Y-120986571D01*
X144777542Y-121043714D01*
X144848971Y-121158000D01*
X144848971Y-121329428D01*
X144848971Y-120415142D02*
X143348971Y-120415142D01*
X143920400Y-120415142D02*
X143848971Y-120300857D01*
X143848971Y-120072285D01*
X143920400Y-119958000D01*
X143991828Y-119900857D01*
X144134685Y-119843714D01*
X144563257Y-119843714D01*
X144706114Y-119900857D01*
X144777542Y-119958000D01*
X144848971Y-120072285D01*
X144848971Y-120300857D01*
X144777542Y-120415142D01*
X144777542Y-118872285D02*
X144848971Y-118986571D01*
X144848971Y-119215142D01*
X144777542Y-119329428D01*
X144634685Y-119386571D01*
X144063257Y-119386571D01*
X143920400Y-119329428D01*
X143848971Y-119215142D01*
X143848971Y-118986571D01*
X143920400Y-118872285D01*
X144063257Y-118815142D01*
X144206114Y-118815142D01*
X144348971Y-119386571D01*
X144678571Y-79071428D02*
X143178571Y-79071428D01*
X144250000Y-78671428D01*
X143178571Y-78271428D01*
X144678571Y-78271428D01*
X144678571Y-77185714D02*
X143892857Y-77185714D01*
X143750000Y-77242857D01*
X143678571Y-77357142D01*
X143678571Y-77585714D01*
X143750000Y-77700000D01*
X144607142Y-77185714D02*
X144678571Y-77300000D01*
X144678571Y-77585714D01*
X144607142Y-77700000D01*
X144464285Y-77757142D01*
X144321428Y-77757142D01*
X144178571Y-77700000D01*
X144107142Y-77585714D01*
X144107142Y-77300000D01*
X144035714Y-77185714D01*
X144678571Y-76614285D02*
X143678571Y-76614285D01*
X143178571Y-76614285D02*
X143250000Y-76671428D01*
X143321428Y-76614285D01*
X143250000Y-76557142D01*
X143178571Y-76614285D01*
X143321428Y-76614285D01*
X143678571Y-76042857D02*
X144678571Y-76042857D01*
X143821428Y-76042857D02*
X143750000Y-75985714D01*
X143678571Y-75871428D01*
X143678571Y-75700000D01*
X143750000Y-75585714D01*
X143892857Y-75528571D01*
X144678571Y-75528571D01*
D13*
X156900000Y-120450000D02*
X156050000Y-120450000D01*
X157000000Y-122650000D02*
X156000000Y-122650000D01*
X156000000Y-122650000D02*
X156000000Y-122750000D01*
X156000000Y-122750000D02*
X157000000Y-122750000D01*
X157000000Y-122750000D02*
X157000000Y-122650000D01*
X156350000Y-79750000D02*
X157200000Y-79750000D01*
X156250000Y-77550000D02*
X157250000Y-77550000D01*
X157250000Y-77550000D02*
X157250000Y-77450000D01*
X157250000Y-77450000D02*
X156250000Y-77450000D01*
X156250000Y-77450000D02*
X156250000Y-77550000D01*
X142050000Y-114550000D02*
X142170000Y-114550000D01*
X143180000Y-114550000D02*
X144320000Y-114550000D01*
X144320000Y-110150000D02*
X143180000Y-110150000D01*
X142170000Y-110150000D02*
X142050000Y-110150000D01*
X145450000Y-114550000D02*
X145450000Y-110150000D01*
X145330000Y-114550000D02*
X145450000Y-114550000D01*
X142050000Y-110150000D02*
X142050000Y-114550000D01*
X145450000Y-110150000D02*
X145330000Y-110150000D01*
X143650000Y-118050000D02*
X143550000Y-118050000D01*
X143550000Y-118050000D02*
X143550000Y-117550000D01*
X143550000Y-117550000D02*
X143650000Y-117550000D01*
X143650000Y-117550000D02*
X143650000Y-118050000D01*
X144750000Y-87450000D02*
X144250000Y-87450000D01*
X144250000Y-87450000D02*
X144250000Y-87550000D01*
X144250000Y-87550000D02*
X144750000Y-87550000D01*
X144750000Y-87550000D02*
X144750000Y-87450000D01*
X156450000Y-117250000D02*
X156550000Y-117250000D01*
X156550000Y-117250000D02*
X156550000Y-117750000D01*
X156550000Y-117750000D02*
X156450000Y-117750000D01*
X156450000Y-117750000D02*
X156450000Y-117250000D01*
X150050000Y-115250000D02*
X149550000Y-115250000D01*
X149550000Y-115250000D02*
X149550000Y-115350000D01*
X149550000Y-115350000D02*
X150050000Y-115350000D01*
X150050000Y-115350000D02*
X150050000Y-115250000D01*
X149050000Y-115250000D02*
X148550000Y-115250000D01*
X148550000Y-115250000D02*
X148550000Y-115350000D01*
X148550000Y-115350000D02*
X149050000Y-115350000D01*
X149050000Y-115350000D02*
X149050000Y-115250000D01*
X156450000Y-118350000D02*
X156550000Y-118350000D01*
X156550000Y-118350000D02*
X156550000Y-118850000D01*
X156550000Y-118850000D02*
X156450000Y-118850000D01*
X156450000Y-118850000D02*
X156450000Y-118350000D01*
X156450000Y-119450000D02*
X156550000Y-119450000D01*
X156550000Y-119450000D02*
X156550000Y-119950000D01*
X156550000Y-119950000D02*
X156450000Y-119950000D01*
X156450000Y-119950000D02*
X156450000Y-119450000D01*
X145350000Y-87550000D02*
X145850000Y-87550000D01*
X145850000Y-87550000D02*
X145850000Y-87450000D01*
X145850000Y-87450000D02*
X145350000Y-87450000D01*
X145350000Y-87450000D02*
X145350000Y-87550000D01*
X150000000Y-91800000D02*
X150500000Y-91800000D01*
X150500000Y-91800000D02*
X150500000Y-91700000D01*
X150500000Y-91700000D02*
X150000000Y-91700000D01*
X150000000Y-91700000D02*
X150000000Y-91800000D01*
X143550000Y-82280000D02*
X143450000Y-82280000D01*
X143450000Y-82280000D02*
X143450000Y-81780000D01*
X143450000Y-81780000D02*
X143550000Y-81780000D01*
X143550000Y-81780000D02*
X143550000Y-82280000D01*
X151000000Y-91800000D02*
X151500000Y-91800000D01*
X151500000Y-91800000D02*
X151500000Y-91700000D01*
X151500000Y-91700000D02*
X151000000Y-91700000D01*
X151000000Y-91700000D02*
X151000000Y-91800000D01*
X143550000Y-81250000D02*
X143450000Y-81250000D01*
X143450000Y-81250000D02*
X143450000Y-80750000D01*
X143450000Y-80750000D02*
X143550000Y-80750000D01*
X143550000Y-80750000D02*
X143550000Y-81250000D01*
X142315000Y-115700000D02*
X142315000Y-116600000D01*
X143750000Y-115750000D02*
X143850000Y-115750000D01*
X143850000Y-115750000D02*
X143850000Y-116550000D01*
X143850000Y-116550000D02*
X143750000Y-116550000D01*
X143750000Y-116550000D02*
X143750000Y-115750000D01*
X144550000Y-85985000D02*
X145450000Y-85985000D01*
X144600000Y-84550000D02*
X145400000Y-84550000D01*
X145400000Y-84550000D02*
X145400000Y-84450000D01*
X145400000Y-84450000D02*
X144600000Y-84450000D01*
X144600000Y-84450000D02*
X144600000Y-84550000D01*
X155250000Y-108050000D02*
X155350000Y-108050000D01*
X155350000Y-108050000D02*
X155350000Y-108550000D01*
X155350000Y-108550000D02*
X155250000Y-108550000D01*
X155250000Y-108550000D02*
X155250000Y-108050000D01*
X155250000Y-113150000D02*
X155350000Y-113150000D01*
X155350000Y-113150000D02*
X155350000Y-113650000D01*
X155350000Y-113650000D02*
X155250000Y-113650000D01*
X155250000Y-113650000D02*
X155250000Y-113150000D01*
X144750000Y-109250000D02*
X144650000Y-109250000D01*
X144650000Y-109250000D02*
X144650000Y-108750000D01*
X144650000Y-108750000D02*
X144750000Y-108750000D01*
X144750000Y-108750000D02*
X144750000Y-109250000D01*
X149000000Y-104750000D02*
X149500000Y-104750000D01*
X149500000Y-104750000D02*
X149500000Y-104650000D01*
X149500000Y-104650000D02*
X149000000Y-104650000D01*
X149000000Y-104650000D02*
X149000000Y-104750000D01*
X155950000Y-104650000D02*
X155450000Y-104650000D01*
X155450000Y-104650000D02*
X155450000Y-104750000D01*
X155450000Y-104750000D02*
X155950000Y-104750000D01*
X155950000Y-104750000D02*
X155950000Y-104650000D01*
X150050000Y-104750000D02*
X150550000Y-104750000D01*
X150550000Y-104750000D02*
X150550000Y-104650000D01*
X150550000Y-104650000D02*
X150050000Y-104650000D01*
X150050000Y-104650000D02*
X150050000Y-104750000D01*
X150950000Y-116950000D02*
X150850000Y-116950000D01*
X150850000Y-116950000D02*
X150850000Y-116450000D01*
X150850000Y-116450000D02*
X150950000Y-116450000D01*
X150950000Y-116450000D02*
X150950000Y-116950000D01*
X147950000Y-104750000D02*
X148450000Y-104750000D01*
X148450000Y-104750000D02*
X148450000Y-104650000D01*
X148450000Y-104650000D02*
X147950000Y-104650000D01*
X147950000Y-104650000D02*
X147950000Y-104750000D01*
X151050000Y-115250000D02*
X150550000Y-115250000D01*
X150550000Y-115250000D02*
X150550000Y-115350000D01*
X150550000Y-115350000D02*
X151050000Y-115350000D01*
X151050000Y-115350000D02*
X151050000Y-115250000D01*
X148050000Y-115250000D02*
X147550000Y-115250000D01*
X147550000Y-115250000D02*
X147550000Y-115350000D01*
X147550000Y-115350000D02*
X148050000Y-115350000D01*
X148050000Y-115350000D02*
X148050000Y-115250000D01*
X147050000Y-115250000D02*
X146550000Y-115250000D01*
X146550000Y-115250000D02*
X146550000Y-115350000D01*
X146550000Y-115350000D02*
X147050000Y-115350000D01*
X147050000Y-115350000D02*
X147050000Y-115250000D01*
X156200000Y-88750000D02*
X156300000Y-88750000D01*
X156300000Y-88750000D02*
X156300000Y-89250000D01*
X156300000Y-89250000D02*
X156200000Y-89250000D01*
X156200000Y-89250000D02*
X156200000Y-88750000D01*
X156200000Y-82750000D02*
X156300000Y-82750000D01*
X156300000Y-82750000D02*
X156300000Y-83250000D01*
X156300000Y-83250000D02*
X156200000Y-83250000D01*
X156200000Y-83250000D02*
X156200000Y-82750000D01*
X144800000Y-94500000D02*
X144700000Y-94500000D01*
X144700000Y-94500000D02*
X144700000Y-94000000D01*
X144700000Y-94000000D02*
X144800000Y-94000000D01*
X144800000Y-94000000D02*
X144800000Y-94500000D01*
X155200000Y-94250000D02*
X155300000Y-94250000D01*
X155300000Y-94250000D02*
X155300000Y-94750000D01*
X155300000Y-94750000D02*
X155200000Y-94750000D01*
X155200000Y-94750000D02*
X155200000Y-94250000D01*
X155200000Y-97750000D02*
X155300000Y-97750000D01*
X155300000Y-97750000D02*
X155300000Y-98250000D01*
X155300000Y-98250000D02*
X155200000Y-98250000D01*
X155200000Y-98250000D02*
X155200000Y-97750000D01*
X144800000Y-98250000D02*
X144700000Y-98250000D01*
X144700000Y-98250000D02*
X144700000Y-97750000D01*
X144700000Y-97750000D02*
X144800000Y-97750000D01*
X144800000Y-97750000D02*
X144800000Y-98250000D01*
X145813248Y-89800000D02*
X145713248Y-89800000D01*
X145713248Y-89800000D02*
X145713248Y-89300000D01*
X145713248Y-89300000D02*
X145813248Y-89300000D01*
X145813248Y-89300000D02*
X145813248Y-89800000D01*
X150550000Y-102180000D02*
X150050000Y-102180000D01*
X150050000Y-102180000D02*
X150050000Y-102280000D01*
X150050000Y-102280000D02*
X150550000Y-102280000D01*
X150550000Y-102280000D02*
X150550000Y-102180000D01*
X149000000Y-91800000D02*
X149500000Y-91800000D01*
X149500000Y-91800000D02*
X149500000Y-91700000D01*
X149500000Y-91700000D02*
X149000000Y-91700000D01*
X149000000Y-91700000D02*
X149000000Y-91800000D01*
X152000000Y-91800000D02*
X152500000Y-91800000D01*
X152500000Y-91800000D02*
X152500000Y-91700000D01*
X152500000Y-91700000D02*
X152000000Y-91700000D01*
X152000000Y-91700000D02*
X152000000Y-91800000D01*
X153000000Y-91800000D02*
X153500000Y-91800000D01*
X153500000Y-91800000D02*
X153500000Y-91700000D01*
X153500000Y-91700000D02*
X153000000Y-91700000D01*
X153000000Y-91700000D02*
X153000000Y-91800000D01*
D11*
X147000000Y-113650000D02*
X146350000Y-113650000D01*
X146350000Y-113650000D02*
X146350000Y-113000000D01*
X147000000Y-106350000D02*
X146350000Y-106350000D01*
X146350000Y-106350000D02*
X146350000Y-107000000D01*
X153000000Y-106350000D02*
X153650000Y-106350000D01*
X153650000Y-106350000D02*
X153650000Y-107000000D01*
X153000000Y-113650000D02*
X154000000Y-113650000D01*
D13*
X154670000Y-78000000D02*
X154670000Y-79800000D01*
X154670000Y-75900000D02*
X154670000Y-74750000D01*
X145330000Y-75900000D02*
X145330000Y-74750000D01*
X145330000Y-78000000D02*
X145330000Y-79800000D01*
X146300000Y-88200000D02*
X146420000Y-88200000D01*
X147430000Y-88200000D02*
X148570000Y-88200000D01*
X148570000Y-83800000D02*
X147430000Y-83800000D01*
X146420000Y-83800000D02*
X146300000Y-83800000D01*
X149700000Y-88200000D02*
X149700000Y-83800000D01*
X149580000Y-88200000D02*
X149700000Y-88200000D01*
X146300000Y-83800000D02*
X146300000Y-88200000D01*
X149700000Y-83800000D02*
X149580000Y-83800000D01*
X150300000Y-88200000D02*
X150420000Y-88200000D01*
X151430000Y-88200000D02*
X152570000Y-88200000D01*
X152570000Y-83800000D02*
X151430000Y-83800000D01*
X150420000Y-83800000D02*
X150300000Y-83800000D01*
X153700000Y-88200000D02*
X153700000Y-83800000D01*
X153580000Y-88200000D02*
X153700000Y-88200000D01*
X150300000Y-83800000D02*
X150300000Y-88200000D01*
X153700000Y-83800000D02*
X153580000Y-83800000D01*
X145330000Y-122000000D02*
X145330000Y-120200000D01*
X145330000Y-124100000D02*
X145330000Y-125250000D01*
X154670000Y-124100000D02*
X154670000Y-125250000D01*
X154670000Y-122000000D02*
X154670000Y-120200000D01*
D11*
X153000000Y-93350000D02*
X153650000Y-93350000D01*
X153650000Y-93350000D02*
X153650000Y-94000000D01*
X153000000Y-100650000D02*
X153650000Y-100650000D01*
X153650000Y-100650000D02*
X153650000Y-100000000D01*
X147000000Y-100650000D02*
X146350000Y-100650000D01*
X146350000Y-100650000D02*
X146350000Y-100000000D01*
X147000000Y-93350000D02*
X146000000Y-93350000D01*
D13*
X144263248Y-92380000D02*
X147263248Y-92380000D01*
X145263248Y-90160000D02*
X147263248Y-90160000D01*
X144063248Y-90170000D02*
X144463248Y-90170000D01*
X151000000Y-102350000D02*
X151000000Y-105650000D01*
X151000000Y-105650000D02*
X155000000Y-105650000D01*
X155400000Y-114590000D02*
X152400000Y-114590000D01*
X154400000Y-116810000D02*
X152400000Y-116810000D01*
X155600000Y-116800000D02*
X155200000Y-116800000D01*
%LPC*%
D14*
X156500000Y-121050000D03*
X156500000Y-124350000D03*
D15*
X156700000Y-84650000D03*
X155750000Y-84650000D03*
X154800000Y-84650000D03*
X154800000Y-87350000D03*
X156700000Y-87350000D03*
D14*
X156750000Y-79150000D03*
X156750000Y-75850000D03*
D16*
X142675000Y-110275000D03*
X144825000Y-110275000D03*
X144825000Y-114425000D03*
X142675000Y-114425000D03*
D17*
X144110000Y-117800000D03*
X143090000Y-117800000D03*
D18*
X144500000Y-86990000D03*
X144500000Y-88010000D03*
D19*
X155990000Y-117500000D03*
X157010000Y-117500000D03*
D18*
X149800000Y-114790000D03*
X149800000Y-115810000D03*
X148800000Y-114790000D03*
X148800000Y-115810000D03*
D19*
X155990000Y-118600000D03*
X157010000Y-118600000D03*
X155990000Y-119700000D03*
X157010000Y-119700000D03*
D20*
X145600000Y-88010000D03*
X145600000Y-86990000D03*
X150250000Y-92260000D03*
X150250000Y-91240000D03*
D17*
X144010000Y-82030000D03*
X142990000Y-82030000D03*
D20*
X151250000Y-92260000D03*
X151250000Y-91240000D03*
D17*
X144010000Y-81000000D03*
X142990000Y-81000000D03*
D21*
X146700000Y-104500000D03*
D22*
X145700000Y-104500000D03*
X144700000Y-104500000D03*
D23*
X143012500Y-116150000D03*
X144587500Y-116150000D03*
D24*
X145000000Y-85287500D03*
X145000000Y-83712500D03*
D25*
X154820000Y-108300000D03*
X155780000Y-108300000D03*
X154820000Y-113400000D03*
X155780000Y-113400000D03*
D26*
X145180000Y-109000000D03*
X144220000Y-109000000D03*
D27*
X149250000Y-105180000D03*
X149250000Y-104220000D03*
D28*
X155700000Y-104220000D03*
X155700000Y-105180000D03*
D27*
X150300000Y-105180000D03*
X150300000Y-104220000D03*
D26*
X151380000Y-116700000D03*
X150420000Y-116700000D03*
D27*
X148200000Y-105180000D03*
X148200000Y-104220000D03*
D28*
X150800000Y-114820000D03*
X150800000Y-115780000D03*
X147800000Y-114820000D03*
X147800000Y-115780000D03*
X146800000Y-114820000D03*
X146800000Y-115780000D03*
D25*
X155770000Y-89000000D03*
X156730000Y-89000000D03*
X155770000Y-83000000D03*
X156730000Y-83000000D03*
D26*
X145230000Y-94250000D03*
X144270000Y-94250000D03*
D25*
X154770000Y-94500000D03*
X155730000Y-94500000D03*
X154770000Y-98000000D03*
X155730000Y-98000000D03*
D26*
X145230000Y-98000000D03*
X144270000Y-98000000D03*
X146243248Y-89550000D03*
X145283248Y-89550000D03*
D28*
X150300000Y-101750000D03*
X150300000Y-102710000D03*
D27*
X149250000Y-92230000D03*
X149250000Y-91270000D03*
X152250000Y-92230000D03*
X152250000Y-91270000D03*
X153250000Y-92230000D03*
X153250000Y-91270000D03*
D29*
X139700000Y-101270000D03*
X139700000Y-108890000D03*
X160300000Y-113970000D03*
X139700000Y-78410000D03*
X160300000Y-103810000D03*
X160300000Y-108890000D03*
X160300000Y-80950000D03*
X160300000Y-93650000D03*
X139700000Y-113970000D03*
X139700000Y-116510000D03*
X160300000Y-124130000D03*
X139700000Y-103810000D03*
X160300000Y-98730000D03*
X139700000Y-96190000D03*
X160300000Y-83490000D03*
X139700000Y-121590000D03*
X160300000Y-88570000D03*
X160300000Y-101270000D03*
X139700000Y-91110000D03*
X160300000Y-78410000D03*
X160300000Y-119050000D03*
X139700000Y-98730000D03*
X139700000Y-83490000D03*
X139700000Y-124130000D03*
X160300000Y-111430000D03*
X139700000Y-75870000D03*
X160300000Y-116510000D03*
X139700000Y-93650000D03*
X160300000Y-91110000D03*
X160300000Y-106350000D03*
X139700000Y-119050000D03*
X160300000Y-121590000D03*
X139700000Y-86030000D03*
X139700000Y-111430000D03*
X160300000Y-75870000D03*
X160300000Y-86030000D03*
X139700000Y-88570000D03*
X160300000Y-96190000D03*
X139700000Y-106350000D03*
X139700000Y-80950000D03*
D30*
X141210000Y-75870000D03*
X141210000Y-78410000D03*
D31*
X141210000Y-80950000D03*
D30*
X141210000Y-83490000D03*
X141210000Y-86030000D03*
X141210000Y-88570000D03*
X141210000Y-91110000D03*
D31*
X141210000Y-93650000D03*
D30*
X141210000Y-96190000D03*
X141210000Y-98730000D03*
X141210000Y-101270000D03*
X141210000Y-103810000D03*
D31*
X141210000Y-106350000D03*
D30*
X141210000Y-108890000D03*
X141210000Y-111430000D03*
X141210000Y-113970000D03*
X141210000Y-116510000D03*
D31*
X141210000Y-119050000D03*
D30*
X141210000Y-121590000D03*
X141210000Y-124130000D03*
D32*
X158790000Y-124130000D03*
X158790000Y-121590000D03*
D33*
X158790000Y-119050000D03*
D32*
X158790000Y-116510000D03*
X158790000Y-113970000D03*
X158790000Y-111430000D03*
X158790000Y-108890000D03*
D33*
X158790000Y-106350000D03*
D32*
X158790000Y-103810000D03*
X158790000Y-101270000D03*
X158790000Y-98730000D03*
X158790000Y-96190000D03*
D33*
X158790000Y-93650000D03*
D32*
X158790000Y-91110000D03*
X158790000Y-88570000D03*
X158790000Y-86030000D03*
X158790000Y-83490000D03*
D33*
X158790000Y-80950000D03*
D32*
X158790000Y-78410000D03*
X158790000Y-75870000D03*
D34*
X153500000Y-112600000D03*
X153500000Y-112200000D03*
X153500000Y-111800000D03*
X153500000Y-111400000D03*
X153500000Y-111000000D03*
X153500000Y-110600000D03*
X153500000Y-110200000D03*
X153500000Y-109800000D03*
X153500000Y-109400000D03*
X153500000Y-109000000D03*
X153500000Y-108600000D03*
X153500000Y-108200000D03*
X153500000Y-107800000D03*
X153500000Y-107400000D03*
D35*
X152600000Y-106500000D03*
X152200000Y-106500000D03*
X151800000Y-106500000D03*
X151400000Y-106500000D03*
X151000000Y-106500000D03*
X150600000Y-106500000D03*
X150200000Y-106500000D03*
X149800000Y-106500000D03*
X149400000Y-106500000D03*
X149000000Y-106500000D03*
X148600000Y-106500000D03*
X148200000Y-106500000D03*
X147800000Y-106500000D03*
X147400000Y-106500000D03*
D34*
X146500000Y-107400000D03*
X146500000Y-107800000D03*
X146500000Y-108200000D03*
X146500000Y-108600000D03*
X146500000Y-109000000D03*
X146500000Y-109400000D03*
X146500000Y-109800000D03*
X146500000Y-110200000D03*
X146500000Y-110600000D03*
X146500000Y-111000000D03*
X146500000Y-111400000D03*
X146500000Y-111800000D03*
X146500000Y-112200000D03*
X146500000Y-112600000D03*
D35*
X147400000Y-113500000D03*
X147800000Y-113500000D03*
X148200000Y-113500000D03*
X148600000Y-113500000D03*
X149000000Y-113500000D03*
X149400000Y-113500000D03*
X149800000Y-113500000D03*
X150200000Y-113500000D03*
X150600000Y-113500000D03*
X151000000Y-113500000D03*
X151400000Y-113500000D03*
X151800000Y-113500000D03*
X152200000Y-113500000D03*
X152600000Y-113500000D03*
D36*
X150800000Y-110800000D03*
X150800000Y-109200000D03*
X149200000Y-110800000D03*
X149200000Y-109200000D03*
D37*
X147110000Y-80605000D03*
X152890000Y-80605000D03*
D38*
X153200000Y-81680000D03*
X152400000Y-81680000D03*
D39*
X151250000Y-81680000D03*
X150250000Y-81680000D03*
X149750000Y-81680000D03*
X148750000Y-81680000D03*
D38*
X147600000Y-81680000D03*
X146800000Y-81680000D03*
X146800000Y-81680000D03*
X147600000Y-81680000D03*
D39*
X148250000Y-81680000D03*
X149250000Y-81680000D03*
X150750000Y-81680000D03*
X151750000Y-81680000D03*
D38*
X152400000Y-81680000D03*
X153200000Y-81680000D03*
D40*
X154320000Y-76925000D03*
D41*
X145680000Y-81105000D03*
D40*
X145680000Y-76925000D03*
D41*
X154320000Y-81105000D03*
D16*
X146925000Y-83925000D03*
X149075000Y-83925000D03*
X149075000Y-88075000D03*
X146925000Y-88075000D03*
X150925000Y-83925000D03*
X153075000Y-83925000D03*
X153075000Y-88075000D03*
X150925000Y-88075000D03*
D37*
X152890000Y-119395000D03*
X147110000Y-119395000D03*
D38*
X146800000Y-118320000D03*
X147600000Y-118320000D03*
D39*
X148750000Y-118320000D03*
X149750000Y-118320000D03*
X150250000Y-118320000D03*
X151250000Y-118320000D03*
D38*
X152400000Y-118320000D03*
X153200000Y-118320000D03*
X153200000Y-118320000D03*
X152400000Y-118320000D03*
D39*
X151750000Y-118320000D03*
X150750000Y-118320000D03*
X149250000Y-118320000D03*
X148250000Y-118320000D03*
D38*
X147600000Y-118320000D03*
X146800000Y-118320000D03*
D40*
X145680000Y-123075000D03*
D41*
X154320000Y-118895000D03*
D40*
X154320000Y-123075000D03*
D41*
X145680000Y-118895000D03*
D34*
X146500000Y-94400000D03*
X146500000Y-94800000D03*
X146500000Y-95200000D03*
X146500000Y-95600000D03*
X146500000Y-96000000D03*
X146500000Y-96400000D03*
X146500000Y-96800000D03*
X146500000Y-97200000D03*
X146500000Y-97600000D03*
X146500000Y-98000000D03*
X146500000Y-98400000D03*
X146500000Y-98800000D03*
X146500000Y-99200000D03*
X146500000Y-99600000D03*
D35*
X147400000Y-100500000D03*
X147800000Y-100500000D03*
X148200000Y-100500000D03*
X148600000Y-100500000D03*
X149000000Y-100500000D03*
X149400000Y-100500000D03*
X149800000Y-100500000D03*
X150200000Y-100500000D03*
X150600000Y-100500000D03*
X151000000Y-100500000D03*
X151400000Y-100500000D03*
X151800000Y-100500000D03*
X152200000Y-100500000D03*
X152600000Y-100500000D03*
D34*
X153500000Y-99600000D03*
X153500000Y-99200000D03*
X153500000Y-98800000D03*
X153500000Y-98400000D03*
X153500000Y-98000000D03*
X153500000Y-97600000D03*
X153500000Y-97200000D03*
X153500000Y-96800000D03*
X153500000Y-96400000D03*
X153500000Y-96000000D03*
X153500000Y-95600000D03*
X153500000Y-95200000D03*
X153500000Y-94800000D03*
X153500000Y-94400000D03*
D35*
X152600000Y-93500000D03*
X152200000Y-93500000D03*
X151800000Y-93500000D03*
X151400000Y-93500000D03*
X151000000Y-93500000D03*
X150600000Y-93500000D03*
X150200000Y-93500000D03*
X149800000Y-93500000D03*
X149400000Y-93500000D03*
X149000000Y-93500000D03*
X148600000Y-93500000D03*
X148200000Y-93500000D03*
X147800000Y-93500000D03*
X147400000Y-93500000D03*
D36*
X149200000Y-96200000D03*
X149200000Y-97800000D03*
X150800000Y-96200000D03*
X150800000Y-97800000D03*
D42*
X144263248Y-90520000D03*
X144263248Y-91020000D03*
X144263248Y-91520000D03*
X144263248Y-92020000D03*
D43*
X145763248Y-91270000D03*
D42*
X147263248Y-92020000D03*
X147263248Y-91520000D03*
X147263248Y-91020000D03*
X147263248Y-90520000D03*
D44*
X151900000Y-104850000D03*
X154100000Y-104850000D03*
X154100000Y-103150000D03*
X151900000Y-103150000D03*
D45*
X155400000Y-116450000D03*
X155400000Y-115950000D03*
X155400000Y-115450000D03*
X155400000Y-114950000D03*
D43*
X153900000Y-115700000D03*
D45*
X152400000Y-114950000D03*
X152400000Y-115450000D03*
X152400000Y-115950000D03*
X152400000Y-116450000D03*
M02*
