%TF.GenerationSoftware,KiCad,Pcbnew,6.0.11+dfsg-1*%
%TF.CreationDate,2023-04-26T00:49:17+01:00*%
%TF.ProjectId,bico,6269636f-2e6b-4696-9361-645f70636258,rev?*%
%TF.SameCoordinates,Original*%
%TF.FileFunction,Copper,L4,Bot*%
%TF.FilePolarity,Positive*%
%FSLAX46Y46*%
G04 Gerber Fmt 4.6, Leading zero omitted, Abs format (unit mm)*
G04 Created by KiCad (PCBNEW 6.0.11+dfsg-1) date 2023-04-26 00:49:17*
%MOMM*%
%LPD*%
G01*
G04 APERTURE LIST*
G04 Aperture macros list*
%AMFreePoly0*
4,1,19,-0.700000,0.800000,0.000000,0.800000,0.127565,0.788278,0.288060,0.737982,0.431925,0.650855,0.550855,0.531925,0.637982,0.388060,0.688278,0.227565,0.700000,0.100000,0.700000,-0.100000,0.688278,-0.227565,0.637982,-0.388060,0.550855,-0.531925,0.431925,-0.650855,0.288060,-0.737982,0.127565,-0.788278,0.000000,-0.800000,-0.700000,-0.800000,-0.700000,0.800000,-0.700000,0.800000,
$1*%
%AMFreePoly1*
4,1,13,-0.700000,0.800000,0.560000,0.800000,0.613576,0.789343,0.658995,0.758995,0.689343,0.713576,0.700000,0.660000,0.700000,-0.660000,0.689343,-0.713576,0.658995,-0.758995,0.613576,-0.789343,0.560000,-0.800000,-0.700000,-0.800000,-0.700000,0.800000,-0.700000,0.800000,$1*%
G04 Aperture macros list end*
%TA.AperFunction,ComponentPad*%
%ADD10R,0.850000X0.850000*%
%TD*%
%TA.AperFunction,ComponentPad*%
%ADD11O,0.850000X0.850000*%
%TD*%
%TA.AperFunction,ComponentPad*%
%ADD12R,1.800000X1.600000*%
%TD*%
%TA.AperFunction,ComponentPad*%
%ADD13FreePoly0,0.000000*%
%TD*%
%TA.AperFunction,ComponentPad*%
%ADD14FreePoly1,0.000000*%
%TD*%
%TA.AperFunction,ComponentPad*%
%ADD15FreePoly0,180.000000*%
%TD*%
%TA.AperFunction,ComponentPad*%
%ADD16FreePoly1,180.000000*%
%TD*%
%TA.AperFunction,ComponentPad*%
%ADD17O,1.000000X1.800000*%
%TD*%
%TA.AperFunction,ComponentPad*%
%ADD18O,1.000000X2.100000*%
%TD*%
%TA.AperFunction,ViaPad*%
%ADD19C,0.450000*%
%TD*%
%TA.AperFunction,Conductor*%
%ADD20C,0.100000*%
%TD*%
%TA.AperFunction,Conductor*%
%ADD21C,0.500000*%
%TD*%
G04 APERTURE END LIST*
D10*
X146700000Y-104500000D03*
D11*
X145700000Y-104500000D03*
X144700000Y-104500000D03*
D12*
X139700000Y-101270000D03*
X139700000Y-108890000D03*
X160300000Y-113970000D03*
X139700000Y-78410000D03*
X160300000Y-103810000D03*
X160300000Y-108890000D03*
X160300000Y-80950000D03*
X160300000Y-93650000D03*
X139700000Y-113970000D03*
X139700000Y-116510000D03*
X160300000Y-124130000D03*
X139700000Y-103810000D03*
X160300000Y-98730000D03*
X139700000Y-96190000D03*
X160300000Y-83490000D03*
X139700000Y-121590000D03*
X160300000Y-88570000D03*
X160300000Y-101270000D03*
X139700000Y-91110000D03*
X160300000Y-78410000D03*
X160300000Y-119050000D03*
X139700000Y-98730000D03*
X139700000Y-83490000D03*
X139700000Y-124130000D03*
X160300000Y-111430000D03*
X139700000Y-75870000D03*
X160300000Y-116510000D03*
X139700000Y-93650000D03*
X160300000Y-91110000D03*
X160300000Y-106350000D03*
X139700000Y-119050000D03*
X160300000Y-121590000D03*
X139700000Y-86030000D03*
X139700000Y-111430000D03*
X160300000Y-75870000D03*
X160300000Y-86030000D03*
X139700000Y-88570000D03*
X160300000Y-96190000D03*
X139700000Y-106350000D03*
X139700000Y-80950000D03*
D13*
X141210000Y-75870000D03*
X141210000Y-78410000D03*
D14*
X141210000Y-80950000D03*
D13*
X141210000Y-83490000D03*
X141210000Y-86030000D03*
X141210000Y-88570000D03*
X141210000Y-91110000D03*
D14*
X141210000Y-93650000D03*
D13*
X141210000Y-96190000D03*
X141210000Y-98730000D03*
X141210000Y-101270000D03*
X141210000Y-103810000D03*
D14*
X141210000Y-106350000D03*
D13*
X141210000Y-108890000D03*
X141210000Y-111430000D03*
X141210000Y-113970000D03*
X141210000Y-116510000D03*
D14*
X141210000Y-119050000D03*
D13*
X141210000Y-121590000D03*
X141210000Y-124130000D03*
D15*
X158790000Y-124130000D03*
X158790000Y-121590000D03*
D16*
X158790000Y-119050000D03*
D15*
X158790000Y-116510000D03*
X158790000Y-113970000D03*
X158790000Y-111430000D03*
X158790000Y-108890000D03*
D16*
X158790000Y-106350000D03*
D15*
X158790000Y-103810000D03*
X158790000Y-101270000D03*
X158790000Y-98730000D03*
X158790000Y-96190000D03*
D16*
X158790000Y-93650000D03*
D15*
X158790000Y-91110000D03*
X158790000Y-88570000D03*
X158790000Y-86030000D03*
X158790000Y-83490000D03*
D16*
X158790000Y-80950000D03*
D15*
X158790000Y-78410000D03*
X158790000Y-75870000D03*
D17*
X154320000Y-76925000D03*
D18*
X145680000Y-81105000D03*
D17*
X145680000Y-76925000D03*
D18*
X154320000Y-81105000D03*
D17*
X145680000Y-123075000D03*
D18*
X154320000Y-118895000D03*
D17*
X154320000Y-123075000D03*
D18*
X145680000Y-118895000D03*
D19*
X154670000Y-112650000D03*
X157020000Y-95960000D03*
X146400000Y-90500000D03*
X145050000Y-90500000D03*
X153200000Y-115000000D03*
X154570000Y-115100000D03*
X156900000Y-115080000D03*
X143550000Y-82950000D03*
X149700000Y-116700000D03*
X143520000Y-93160000D03*
X154400000Y-109550000D03*
X150000000Y-107400000D03*
X159300000Y-89850000D03*
X159350000Y-87300000D03*
X146300000Y-113850000D03*
X156750000Y-123100000D03*
X157550000Y-124800000D03*
X142500000Y-124750000D03*
X159350000Y-84750000D03*
X158000000Y-77150000D03*
X155700000Y-75700000D03*
X142550000Y-75450000D03*
X143520000Y-90270000D03*
X155800000Y-98850000D03*
X153600000Y-93600000D03*
X143600000Y-96700000D03*
X141700000Y-100000000D03*
X155750000Y-103150000D03*
X151520000Y-115970000D03*
X146400000Y-91890000D03*
X145050000Y-91900000D03*
X152630000Y-95000000D03*
X147500000Y-111970000D03*
X148810000Y-112630000D03*
X151210000Y-94370000D03*
X155990000Y-87350000D03*
X156660000Y-85900000D03*
X154840000Y-85900000D03*
X155750000Y-85900000D03*
X153727784Y-100311127D03*
X155516499Y-96046499D03*
X153950000Y-88750000D03*
X149500000Y-101450000D03*
X144100000Y-106250000D03*
X154595000Y-97075000D03*
X145750000Y-84550000D03*
X156405000Y-95085000D03*
X155500000Y-96790000D03*
X155940000Y-97250000D03*
X144800000Y-113800000D03*
X156210000Y-116738400D03*
X154865000Y-111895000D03*
X155970000Y-110010000D03*
X155500000Y-110590000D03*
X154910000Y-110930000D03*
X154340000Y-110660000D03*
X154050000Y-91250000D03*
X154000000Y-92225000D03*
X154675000Y-93775000D03*
X143025000Y-113725000D03*
X151900000Y-82800000D03*
X144600000Y-79675000D03*
X155929327Y-122840673D03*
X148800000Y-119220000D03*
X154575000Y-116450000D03*
X149020000Y-82930000D03*
X150900000Y-82900000D03*
X155905000Y-122175000D03*
X151600000Y-119250000D03*
X147400000Y-103500000D03*
X145400000Y-108200000D03*
X147600000Y-104700000D03*
X155800000Y-107400000D03*
X156900000Y-112600000D03*
X153700000Y-113400000D03*
X153200000Y-116450733D03*
X151915000Y-116775000D03*
X146500000Y-102100000D03*
X157450000Y-84700000D03*
X157000000Y-122000000D03*
X155800000Y-82200000D03*
X155000000Y-83000000D03*
X155000000Y-89000000D03*
X155775000Y-89725000D03*
X156729999Y-89729999D03*
X146890000Y-93200000D03*
X147800000Y-116450000D03*
X146800000Y-116450000D03*
X144100000Y-108150000D03*
X151440000Y-102140000D03*
X154100000Y-105900000D03*
X155750000Y-105900000D03*
X148200000Y-103500000D03*
X149250000Y-103500000D03*
X150300000Y-103500000D03*
X149200000Y-110800000D03*
X150800000Y-110800000D03*
X150800000Y-109200000D03*
X149200000Y-109200000D03*
X147500000Y-109000000D03*
X152500000Y-112500000D03*
X152500000Y-107400000D03*
X148200000Y-107350000D03*
X147500000Y-112600000D03*
X149600000Y-112640000D03*
X147013248Y-89550000D03*
X144563248Y-89550000D03*
X156450000Y-94350000D03*
X156690000Y-98130000D03*
X149600000Y-102700000D03*
X143625000Y-98000000D03*
X144300000Y-93300000D03*
X153250000Y-90600000D03*
X152250000Y-90600000D03*
X149250000Y-90600000D03*
X151900000Y-99200000D03*
X149200000Y-97800000D03*
X150800000Y-97800000D03*
X150800000Y-96200000D03*
X149200000Y-96200000D03*
X152300000Y-97700000D03*
X147500000Y-94500000D03*
X150000000Y-99630000D03*
X152650000Y-94350000D03*
X153000000Y-92900000D03*
X150400000Y-94370000D03*
D20*
X155970000Y-110790000D02*
X155970000Y-110010000D01*
X154865000Y-111895000D02*
X155970000Y-110790000D01*
X155096999Y-98093001D02*
X155096999Y-110371655D01*
X155096999Y-110371655D02*
X154910000Y-110558654D01*
X155940000Y-97250000D02*
X155096999Y-98093001D01*
X154910000Y-110558654D02*
X154910000Y-110930000D01*
X154889501Y-110110499D02*
X154340000Y-110660000D01*
X154889501Y-97892636D02*
X154889501Y-110110499D01*
X155486500Y-97295637D02*
X154889501Y-97892636D01*
X155500000Y-96790000D02*
X155486500Y-96803500D01*
X155486500Y-96803500D02*
X155486500Y-97295637D01*
X153463654Y-120375000D02*
X149955000Y-120375000D01*
X155929327Y-122840673D02*
X153463654Y-120375000D01*
X149955000Y-120375000D02*
X148800000Y-119220000D01*
X153727784Y-100311127D02*
X154018873Y-100311127D01*
X155050000Y-96981346D02*
X155046500Y-96977846D01*
X154018873Y-100311127D02*
X154590000Y-99740000D01*
X154590000Y-99740000D02*
X154590000Y-97740000D01*
X154590000Y-97740000D02*
X155050000Y-97280000D01*
X155046500Y-96516498D02*
X155516499Y-96046499D01*
X155050000Y-97280000D02*
X155050000Y-96981346D01*
X155046500Y-96977846D02*
X155046500Y-96516498D01*
X153950000Y-88750000D02*
X155870000Y-90670000D01*
X155870000Y-90670000D02*
X155870000Y-95692998D01*
X155870000Y-95692998D02*
X155516499Y-96046499D01*
X145750000Y-84550000D02*
X149100000Y-84550000D01*
X149100000Y-84550000D02*
X155316998Y-90766998D01*
X155316998Y-90766998D02*
X155316998Y-95603002D01*
X155316998Y-95603002D02*
X154595000Y-96325000D01*
X154595000Y-96325000D02*
X154595000Y-97075000D01*
X155500000Y-110590000D02*
X155296500Y-110386500D01*
X155296500Y-110386500D02*
X155296500Y-98543500D01*
X155296500Y-98543500D02*
X156405000Y-97435000D01*
X156405000Y-97435000D02*
X156405000Y-95085000D01*
X144800000Y-115330000D02*
X146700000Y-117230000D01*
X144800000Y-113800000D02*
X144800000Y-115330000D01*
X146700000Y-117230000D02*
X155718400Y-117230000D01*
X155718400Y-117230000D02*
X156210000Y-116738400D01*
D21*
X157673500Y-121326500D02*
X157673500Y-85047689D01*
X157450000Y-84824189D02*
X157450000Y-84700000D01*
X157000000Y-122000000D02*
X157673500Y-121326500D01*
X157673500Y-85047689D02*
X157450000Y-84824189D01*
D20*
X151600000Y-119250000D02*
X152525499Y-120175499D01*
X152525499Y-120175499D02*
X153715499Y-120175499D01*
X153715499Y-120175499D02*
X155715000Y-122175000D01*
X155715000Y-122175000D02*
X155905000Y-122175000D01*
X151900000Y-82800000D02*
X151500000Y-82400000D01*
X144600000Y-82000000D02*
X144600000Y-79675000D01*
X151500000Y-82400000D02*
X145000000Y-82400000D01*
X145000000Y-82400000D02*
X144600000Y-82000000D01*
%TA.AperFunction,Conductor*%
G36*
X160362219Y-74637781D02*
G01*
X160379500Y-74679500D01*
X160379500Y-74890500D01*
X160362219Y-74932219D01*
X160320500Y-74949500D01*
X159388129Y-74949500D01*
X158699954Y-74949501D01*
X158695097Y-74949780D01*
X158692666Y-74950341D01*
X158692661Y-74950342D01*
X158550670Y-74983124D01*
X158515737Y-74991189D01*
X158449968Y-75022983D01*
X158352982Y-75069867D01*
X158352980Y-75069868D01*
X158350008Y-75071305D01*
X158347432Y-75073362D01*
X158347428Y-75073364D01*
X158212736Y-75180889D01*
X158206148Y-75186148D01*
X158204094Y-75188721D01*
X158093364Y-75327428D01*
X158093362Y-75327432D01*
X158091305Y-75330008D01*
X158011189Y-75495737D01*
X157969780Y-75675097D01*
X157969500Y-75679953D01*
X157969501Y-76060046D01*
X157969780Y-76064903D01*
X157970341Y-76067332D01*
X157970342Y-76067339D01*
X157977931Y-76100210D01*
X158011189Y-76244263D01*
X158012625Y-76247233D01*
X158073552Y-76373267D01*
X158091305Y-76409992D01*
X158093362Y-76412568D01*
X158093364Y-76412572D01*
X158153457Y-76487848D01*
X158206148Y-76553852D01*
X158208721Y-76555906D01*
X158347428Y-76666636D01*
X158347432Y-76666638D01*
X158350008Y-76668695D01*
X158352980Y-76670132D01*
X158352982Y-76670133D01*
X158442058Y-76713193D01*
X158515737Y-76748811D01*
X158695097Y-76790220D01*
X158697584Y-76790363D01*
X158697588Y-76790364D01*
X158699116Y-76790452D01*
X158699125Y-76790452D01*
X158699953Y-76790500D01*
X160320500Y-76790500D01*
X160362219Y-76807781D01*
X160379500Y-76849500D01*
X160379500Y-77430500D01*
X160362219Y-77472219D01*
X160320500Y-77489500D01*
X159388129Y-77489500D01*
X158699954Y-77489501D01*
X158695097Y-77489780D01*
X158692666Y-77490341D01*
X158692661Y-77490342D01*
X158550670Y-77523124D01*
X158515737Y-77531189D01*
X158449968Y-77562983D01*
X158352982Y-77609867D01*
X158352980Y-77609868D01*
X158350008Y-77611305D01*
X158347432Y-77613362D01*
X158347428Y-77613364D01*
X158245128Y-77695030D01*
X158206148Y-77726148D01*
X158204094Y-77728721D01*
X158093364Y-77867428D01*
X158093362Y-77867432D01*
X158091305Y-77870008D01*
X158089868Y-77872980D01*
X158089867Y-77872982D01*
X158080867Y-77891600D01*
X158011189Y-78035737D01*
X157969780Y-78215097D01*
X157969500Y-78219953D01*
X157969501Y-78600046D01*
X157969780Y-78604903D01*
X158011189Y-78784263D01*
X158091305Y-78949992D01*
X158093362Y-78952568D01*
X158093364Y-78952572D01*
X158200889Y-79087264D01*
X158206148Y-79093852D01*
X158208721Y-79095906D01*
X158347428Y-79206636D01*
X158347432Y-79206638D01*
X158350008Y-79208695D01*
X158352980Y-79210132D01*
X158352982Y-79210133D01*
X158442058Y-79253193D01*
X158515737Y-79288811D01*
X158695097Y-79330220D01*
X158697584Y-79330363D01*
X158697588Y-79330364D01*
X158699116Y-79330452D01*
X158699125Y-79330452D01*
X158699953Y-79330500D01*
X160320500Y-79330500D01*
X160362219Y-79347781D01*
X160379500Y-79389500D01*
X160379500Y-79970500D01*
X160362219Y-80012219D01*
X160320500Y-80029500D01*
X159388130Y-80029500D01*
X159386458Y-80029833D01*
X159383051Y-80030000D01*
X158861737Y-80030001D01*
X158853438Y-80033439D01*
X158850000Y-80041738D01*
X158850000Y-81858263D01*
X158853438Y-81866562D01*
X158861737Y-81870000D01*
X159383051Y-81870000D01*
X159386458Y-81870167D01*
X159388130Y-81870500D01*
X160320500Y-81870500D01*
X160362219Y-81887781D01*
X160379500Y-81929500D01*
X160379500Y-82510500D01*
X160362219Y-82552219D01*
X160320500Y-82569500D01*
X159388129Y-82569500D01*
X158699954Y-82569501D01*
X158695097Y-82569780D01*
X158692666Y-82570341D01*
X158692661Y-82570342D01*
X158550670Y-82603124D01*
X158515737Y-82611189D01*
X158449968Y-82642983D01*
X158352982Y-82689867D01*
X158352980Y-82689868D01*
X158350008Y-82691305D01*
X158347432Y-82693362D01*
X158347428Y-82693364D01*
X158219592Y-82795416D01*
X158206148Y-82806148D01*
X158204094Y-82808721D01*
X158093364Y-82947428D01*
X158093362Y-82947432D01*
X158091305Y-82950008D01*
X158011189Y-83115737D01*
X157969780Y-83295097D01*
X157969500Y-83299953D01*
X157969501Y-83680046D01*
X157969780Y-83684903D01*
X158011189Y-83864263D01*
X158091305Y-84029992D01*
X158093362Y-84032568D01*
X158093364Y-84032572D01*
X158179490Y-84140458D01*
X158206148Y-84173852D01*
X158208721Y-84175906D01*
X158347428Y-84286636D01*
X158347432Y-84286638D01*
X158350008Y-84288695D01*
X158352980Y-84290132D01*
X158352982Y-84290133D01*
X158385793Y-84305994D01*
X158515737Y-84368811D01*
X158695097Y-84410220D01*
X158697584Y-84410363D01*
X158697588Y-84410364D01*
X158699116Y-84410452D01*
X158699125Y-84410452D01*
X158699953Y-84410500D01*
X160320500Y-84410500D01*
X160362219Y-84427781D01*
X160379500Y-84469500D01*
X160379500Y-85050500D01*
X160362219Y-85092219D01*
X160320500Y-85109500D01*
X159388129Y-85109500D01*
X158699954Y-85109501D01*
X158695097Y-85109780D01*
X158692666Y-85110341D01*
X158692661Y-85110342D01*
X158550670Y-85143124D01*
X158515737Y-85151189D01*
X158449968Y-85182983D01*
X158352982Y-85229867D01*
X158352980Y-85229868D01*
X158350008Y-85231305D01*
X158347432Y-85233362D01*
X158347428Y-85233364D01*
X158212736Y-85340889D01*
X158206148Y-85346148D01*
X158204094Y-85348721D01*
X158149110Y-85417598D01*
X158109577Y-85439421D01*
X158066191Y-85426899D01*
X158044368Y-85387366D01*
X158044000Y-85380789D01*
X158044000Y-85093519D01*
X158045322Y-85081101D01*
X158047680Y-85070149D01*
X158048706Y-85065383D01*
X158044409Y-85029075D01*
X158044000Y-85022143D01*
X158044000Y-85016911D01*
X158040659Y-84996839D01*
X158040268Y-84994094D01*
X158040220Y-84993688D01*
X158034209Y-84942894D01*
X158032097Y-84938496D01*
X158030973Y-84934627D01*
X158029671Y-84930823D01*
X158028871Y-84926018D01*
X158004396Y-84880659D01*
X158003135Y-84878182D01*
X157982423Y-84835048D01*
X157982422Y-84835046D01*
X157980817Y-84831704D01*
X157977311Y-84827534D01*
X157977211Y-84827434D01*
X157974827Y-84824610D01*
X157972616Y-84821760D01*
X157970300Y-84817467D01*
X157930726Y-84780885D01*
X157929056Y-84779279D01*
X157874936Y-84725159D01*
X157858381Y-84692670D01*
X157840224Y-84578030D01*
X157839498Y-84573445D01*
X157825217Y-84545416D01*
X157783433Y-84463413D01*
X157781326Y-84459277D01*
X157690723Y-84368674D01*
X157628593Y-84337017D01*
X157580693Y-84312610D01*
X157580691Y-84312609D01*
X157576555Y-84310502D01*
X157450000Y-84290458D01*
X157323445Y-84310502D01*
X157319309Y-84312609D01*
X157319307Y-84312610D01*
X157271407Y-84337017D01*
X157209277Y-84368674D01*
X157118674Y-84459277D01*
X157116567Y-84463413D01*
X157074784Y-84545416D01*
X157060502Y-84573445D01*
X157040458Y-84700000D01*
X157060502Y-84826555D01*
X157077429Y-84859776D01*
X157083449Y-84879623D01*
X157085572Y-84897555D01*
X157088717Y-84924138D01*
X157088718Y-84924141D01*
X157089291Y-84928984D01*
X157091403Y-84933381D01*
X157092525Y-84937244D01*
X157093829Y-84941052D01*
X157094629Y-84945860D01*
X157096944Y-84950151D01*
X157096945Y-84950153D01*
X157119099Y-84991212D01*
X157120361Y-84993688D01*
X157141078Y-85036830D01*
X157142684Y-85040174D01*
X157146189Y-85044344D01*
X157146295Y-85044450D01*
X157148669Y-85047262D01*
X157150882Y-85050116D01*
X157153200Y-85054411D01*
X157156784Y-85057724D01*
X157192771Y-85090990D01*
X157194416Y-85092571D01*
X157285721Y-85183876D01*
X157303000Y-85225594D01*
X157303000Y-121148596D01*
X157285719Y-121190315D01*
X156863920Y-121612114D01*
X156848988Y-121622964D01*
X156759277Y-121668674D01*
X156668674Y-121759277D01*
X156640194Y-121815172D01*
X156634326Y-121826689D01*
X156610502Y-121873445D01*
X156590458Y-122000000D01*
X156610502Y-122126555D01*
X156612609Y-122130691D01*
X156612610Y-122130693D01*
X156620296Y-122145777D01*
X156668674Y-122240723D01*
X156759277Y-122331326D01*
X156815172Y-122359806D01*
X156869307Y-122387390D01*
X156869309Y-122387391D01*
X156873445Y-122389498D01*
X157000000Y-122409542D01*
X157126555Y-122389498D01*
X157130691Y-122387391D01*
X157130693Y-122387390D01*
X157184828Y-122359806D01*
X157240723Y-122331326D01*
X157331326Y-122240723D01*
X157333433Y-122236588D01*
X157333435Y-122236585D01*
X157377035Y-122151015D01*
X157387885Y-122136081D01*
X157868782Y-121655185D01*
X157910501Y-121637904D01*
X157952220Y-121655185D01*
X157969501Y-121696903D01*
X157969501Y-121780046D01*
X157969780Y-121784903D01*
X157970341Y-121787332D01*
X157970342Y-121787339D01*
X158003508Y-121930994D01*
X158011189Y-121964263D01*
X158012625Y-121967233D01*
X158089644Y-122126555D01*
X158091305Y-122129992D01*
X158093362Y-122132568D01*
X158093364Y-122132572D01*
X158176398Y-122236585D01*
X158206148Y-122273852D01*
X158208721Y-122275906D01*
X158347428Y-122386636D01*
X158347432Y-122386638D01*
X158350008Y-122388695D01*
X158352980Y-122390132D01*
X158352982Y-122390133D01*
X158405918Y-122415723D01*
X158515737Y-122468811D01*
X158695097Y-122510220D01*
X158697584Y-122510363D01*
X158697588Y-122510364D01*
X158699116Y-122510452D01*
X158699125Y-122510452D01*
X158699953Y-122510500D01*
X160320500Y-122510500D01*
X160362219Y-122527781D01*
X160379500Y-122569500D01*
X160379500Y-123150500D01*
X160362219Y-123192219D01*
X160320500Y-123209500D01*
X159388129Y-123209500D01*
X158699954Y-123209501D01*
X158695097Y-123209780D01*
X158692666Y-123210341D01*
X158692661Y-123210342D01*
X158550670Y-123243124D01*
X158515737Y-123251189D01*
X158449968Y-123282983D01*
X158352982Y-123329867D01*
X158352980Y-123329868D01*
X158350008Y-123331305D01*
X158347432Y-123333362D01*
X158347428Y-123333364D01*
X158212736Y-123440889D01*
X158206148Y-123446148D01*
X158204094Y-123448721D01*
X158093364Y-123587428D01*
X158093362Y-123587432D01*
X158091305Y-123590008D01*
X158089868Y-123592980D01*
X158089867Y-123592982D01*
X158070105Y-123633863D01*
X158011189Y-123755737D01*
X157969780Y-123935097D01*
X157969500Y-123939953D01*
X157969501Y-124320046D01*
X157969780Y-124324903D01*
X158011189Y-124504263D01*
X158091305Y-124669992D01*
X158093362Y-124672568D01*
X158093364Y-124672572D01*
X158200889Y-124807264D01*
X158206148Y-124813852D01*
X158208721Y-124815906D01*
X158347428Y-124926636D01*
X158347432Y-124926638D01*
X158350008Y-124928695D01*
X158352980Y-124930132D01*
X158352982Y-124930133D01*
X158442058Y-124973193D01*
X158515737Y-125008811D01*
X158695097Y-125050220D01*
X158697584Y-125050363D01*
X158697588Y-125050364D01*
X158699116Y-125050452D01*
X158699125Y-125050452D01*
X158699953Y-125050500D01*
X160320500Y-125050500D01*
X160362219Y-125067781D01*
X160379500Y-125109500D01*
X160379500Y-125320500D01*
X160362219Y-125362219D01*
X160320500Y-125379500D01*
X139679500Y-125379500D01*
X139637781Y-125362219D01*
X139620500Y-125320500D01*
X139620500Y-125109500D01*
X139637781Y-125067781D01*
X139679500Y-125050500D01*
X140611871Y-125050500D01*
X141300046Y-125050499D01*
X141304903Y-125050220D01*
X141307334Y-125049659D01*
X141307339Y-125049658D01*
X141481049Y-125009553D01*
X141484263Y-125008811D01*
X141557942Y-124973193D01*
X141647018Y-124930133D01*
X141647020Y-124930132D01*
X141649992Y-124928695D01*
X141652568Y-124926638D01*
X141652572Y-124926636D01*
X141791279Y-124815906D01*
X141793852Y-124813852D01*
X141799111Y-124807264D01*
X141906636Y-124672572D01*
X141906638Y-124672568D01*
X141908695Y-124669992D01*
X141988811Y-124504263D01*
X142030220Y-124324903D01*
X142030500Y-124320047D01*
X142030499Y-123939954D01*
X142030220Y-123935097D01*
X142023309Y-123905159D01*
X141989553Y-123758951D01*
X141988811Y-123755737D01*
X141929895Y-123633863D01*
X141910133Y-123592982D01*
X141910132Y-123592980D01*
X141908695Y-123590008D01*
X141906638Y-123587432D01*
X141906636Y-123587428D01*
X141846543Y-123512152D01*
X145060000Y-123512152D01*
X145060233Y-123515852D01*
X145074240Y-123626733D01*
X145076071Y-123633863D01*
X145131004Y-123772608D01*
X145134554Y-123779066D01*
X145222266Y-123899790D01*
X145227306Y-123905159D01*
X145342289Y-124000280D01*
X145348502Y-124004223D01*
X145483532Y-124067763D01*
X145490529Y-124070037D01*
X145608473Y-124092536D01*
X145617268Y-124090715D01*
X145620000Y-124086555D01*
X145620000Y-124080714D01*
X145740000Y-124080714D01*
X145743020Y-124088004D01*
X145752677Y-124091654D01*
X145793400Y-124089092D01*
X145800628Y-124087713D01*
X145942547Y-124041600D01*
X145949218Y-124038461D01*
X146075206Y-123958507D01*
X146080889Y-123953805D01*
X146183035Y-123845030D01*
X146187366Y-123839069D01*
X146259254Y-123708306D01*
X146261967Y-123701453D01*
X146299076Y-123556925D01*
X146300000Y-123549608D01*
X146300000Y-123512152D01*
X153700000Y-123512152D01*
X153700233Y-123515852D01*
X153714240Y-123626733D01*
X153716071Y-123633863D01*
X153771004Y-123772608D01*
X153774554Y-123779066D01*
X153862266Y-123899790D01*
X153867306Y-123905159D01*
X153982289Y-124000280D01*
X153988502Y-124004223D01*
X154123532Y-124067763D01*
X154130529Y-124070037D01*
X154248473Y-124092536D01*
X154257268Y-124090715D01*
X154260000Y-124086555D01*
X154260000Y-124080714D01*
X154380000Y-124080714D01*
X154383020Y-124088004D01*
X154392677Y-124091654D01*
X154433400Y-124089092D01*
X154440628Y-124087713D01*
X154582547Y-124041600D01*
X154589218Y-124038461D01*
X154715206Y-123958507D01*
X154720889Y-123953805D01*
X154823035Y-123845030D01*
X154827366Y-123839069D01*
X154899254Y-123708306D01*
X154901967Y-123701453D01*
X154939076Y-123556925D01*
X154940000Y-123549608D01*
X154940000Y-123146737D01*
X154936562Y-123138438D01*
X154928263Y-123135000D01*
X154391737Y-123135000D01*
X154383438Y-123138438D01*
X154380000Y-123146737D01*
X154380000Y-124080714D01*
X154260000Y-124080714D01*
X154260000Y-123146737D01*
X154256562Y-123138438D01*
X154248263Y-123135000D01*
X153711737Y-123135000D01*
X153703438Y-123138438D01*
X153700000Y-123146737D01*
X153700000Y-123512152D01*
X146300000Y-123512152D01*
X146300000Y-123146737D01*
X146296562Y-123138438D01*
X146288263Y-123135000D01*
X145751737Y-123135000D01*
X145743438Y-123138438D01*
X145740000Y-123146737D01*
X145740000Y-124080714D01*
X145620000Y-124080714D01*
X145620000Y-123146737D01*
X145616562Y-123138438D01*
X145608263Y-123135000D01*
X145071737Y-123135000D01*
X145063438Y-123138438D01*
X145060000Y-123146737D01*
X145060000Y-123512152D01*
X141846543Y-123512152D01*
X141795906Y-123448721D01*
X141793852Y-123446148D01*
X141787264Y-123440889D01*
X141652572Y-123333364D01*
X141652568Y-123333362D01*
X141649992Y-123331305D01*
X141647020Y-123329868D01*
X141647018Y-123329867D01*
X141550032Y-123282983D01*
X141484263Y-123251189D01*
X141304903Y-123209780D01*
X141302416Y-123209637D01*
X141302412Y-123209636D01*
X141300884Y-123209548D01*
X141300875Y-123209548D01*
X141300047Y-123209500D01*
X139679500Y-123209500D01*
X139637781Y-123192219D01*
X139620500Y-123150500D01*
X139620500Y-123003263D01*
X145060000Y-123003263D01*
X145063438Y-123011562D01*
X145071737Y-123015000D01*
X145608263Y-123015000D01*
X145616562Y-123011562D01*
X145620000Y-123003263D01*
X145740000Y-123003263D01*
X145743438Y-123011562D01*
X145751737Y-123015000D01*
X146288263Y-123015000D01*
X146296562Y-123011562D01*
X146300000Y-123003263D01*
X153700000Y-123003263D01*
X153703438Y-123011562D01*
X153711737Y-123015000D01*
X154248263Y-123015000D01*
X154256562Y-123011562D01*
X154260000Y-123003263D01*
X154380000Y-123003263D01*
X154383438Y-123011562D01*
X154391737Y-123015000D01*
X154928263Y-123015000D01*
X154936562Y-123011562D01*
X154940000Y-123003263D01*
X154940000Y-122637848D01*
X154939767Y-122634148D01*
X154925760Y-122523267D01*
X154923929Y-122516137D01*
X154868996Y-122377392D01*
X154865446Y-122370934D01*
X154777734Y-122250210D01*
X154772694Y-122244841D01*
X154657711Y-122149720D01*
X154651498Y-122145777D01*
X154516468Y-122082237D01*
X154509471Y-122079963D01*
X154391527Y-122057464D01*
X154382732Y-122059285D01*
X154380000Y-122063445D01*
X154380000Y-123003263D01*
X154260000Y-123003263D01*
X154260000Y-122069286D01*
X154256980Y-122061996D01*
X154247323Y-122058346D01*
X154206600Y-122060908D01*
X154199372Y-122062287D01*
X154057453Y-122108400D01*
X154050782Y-122111539D01*
X153924794Y-122191493D01*
X153919111Y-122196195D01*
X153816965Y-122304970D01*
X153812634Y-122310931D01*
X153740746Y-122441694D01*
X153738033Y-122448547D01*
X153700924Y-122593075D01*
X153700000Y-122600392D01*
X153700000Y-123003263D01*
X146300000Y-123003263D01*
X146300000Y-122637848D01*
X146299767Y-122634148D01*
X146285760Y-122523267D01*
X146283929Y-122516137D01*
X146228996Y-122377392D01*
X146225446Y-122370934D01*
X146137734Y-122250210D01*
X146132694Y-122244841D01*
X146017711Y-122149720D01*
X146011498Y-122145777D01*
X145876468Y-122082237D01*
X145869471Y-122079963D01*
X145751527Y-122057464D01*
X145742732Y-122059285D01*
X145740000Y-122063445D01*
X145740000Y-123003263D01*
X145620000Y-123003263D01*
X145620000Y-122069286D01*
X145616980Y-122061996D01*
X145607323Y-122058346D01*
X145566600Y-122060908D01*
X145559372Y-122062287D01*
X145417453Y-122108400D01*
X145410782Y-122111539D01*
X145284794Y-122191493D01*
X145279111Y-122196195D01*
X145176965Y-122304970D01*
X145172634Y-122310931D01*
X145100746Y-122441694D01*
X145098033Y-122448547D01*
X145060924Y-122593075D01*
X145060000Y-122600392D01*
X145060000Y-123003263D01*
X139620500Y-123003263D01*
X139620500Y-122569500D01*
X139637781Y-122527781D01*
X139679500Y-122510500D01*
X140611871Y-122510500D01*
X141300046Y-122510499D01*
X141304903Y-122510220D01*
X141307334Y-122509659D01*
X141307339Y-122509658D01*
X141481049Y-122469553D01*
X141484263Y-122468811D01*
X141594082Y-122415723D01*
X141647018Y-122390133D01*
X141647020Y-122390132D01*
X141649992Y-122388695D01*
X141652568Y-122386638D01*
X141652572Y-122386636D01*
X141791279Y-122275906D01*
X141793852Y-122273852D01*
X141823602Y-122236585D01*
X141906636Y-122132572D01*
X141906638Y-122132568D01*
X141908695Y-122129992D01*
X141910357Y-122126555D01*
X141987375Y-121967233D01*
X141988811Y-121964263D01*
X142030220Y-121784903D01*
X142030500Y-121780047D01*
X142030499Y-121399954D01*
X142030220Y-121395097D01*
X141988811Y-121215737D01*
X141908695Y-121050008D01*
X141906638Y-121047432D01*
X141906636Y-121047428D01*
X141795906Y-120908721D01*
X141793852Y-120906148D01*
X141787264Y-120900889D01*
X141652572Y-120793364D01*
X141652568Y-120793362D01*
X141649992Y-120791305D01*
X141647020Y-120789868D01*
X141647018Y-120789867D01*
X141550032Y-120742983D01*
X141484263Y-120711189D01*
X141304903Y-120669780D01*
X141302416Y-120669637D01*
X141302412Y-120669636D01*
X141300884Y-120669548D01*
X141300875Y-120669548D01*
X141300047Y-120669500D01*
X139679500Y-120669500D01*
X139637781Y-120652219D01*
X139620500Y-120610500D01*
X139620500Y-120029500D01*
X139637781Y-119987781D01*
X139679500Y-119970500D01*
X140611870Y-119970500D01*
X140613542Y-119970167D01*
X140616949Y-119970000D01*
X141138263Y-119969999D01*
X141146562Y-119966561D01*
X141150000Y-119958262D01*
X141270000Y-119958262D01*
X141273438Y-119966561D01*
X141281737Y-119969999D01*
X141792713Y-119969999D01*
X141798445Y-119969435D01*
X141865747Y-119956049D01*
X141876280Y-119951686D01*
X141952619Y-119900678D01*
X141960678Y-119892619D01*
X142011687Y-119816277D01*
X142016049Y-119805748D01*
X142029433Y-119738458D01*
X142030000Y-119732707D01*
X142030000Y-119482152D01*
X145060000Y-119482152D01*
X145060233Y-119485852D01*
X145074240Y-119596733D01*
X145076071Y-119603863D01*
X145131004Y-119742608D01*
X145134554Y-119749066D01*
X145222266Y-119869790D01*
X145227306Y-119875159D01*
X145342289Y-119970280D01*
X145348502Y-119974223D01*
X145483532Y-120037763D01*
X145490529Y-120040037D01*
X145608473Y-120062536D01*
X145617268Y-120060715D01*
X145620000Y-120056555D01*
X145620000Y-120050714D01*
X145740000Y-120050714D01*
X145743020Y-120058004D01*
X145752677Y-120061654D01*
X145793400Y-120059092D01*
X145800628Y-120057713D01*
X145942547Y-120011600D01*
X145949218Y-120008461D01*
X146075206Y-119928507D01*
X146080889Y-119923805D01*
X146183035Y-119815030D01*
X146187366Y-119809069D01*
X146259254Y-119678306D01*
X146261967Y-119671453D01*
X146299076Y-119526925D01*
X146300000Y-119519608D01*
X146300000Y-119395000D01*
X146525500Y-119395000D01*
X146526005Y-119398836D01*
X146536974Y-119482152D01*
X146545416Y-119546280D01*
X146546895Y-119549850D01*
X146546896Y-119549853D01*
X146597265Y-119671453D01*
X146603808Y-119687250D01*
X146696696Y-119808304D01*
X146707087Y-119816277D01*
X146814683Y-119898839D01*
X146814685Y-119898840D01*
X146817750Y-119901192D01*
X146821319Y-119902671D01*
X146821322Y-119902672D01*
X146903898Y-119936876D01*
X146958720Y-119959584D01*
X146962554Y-119960089D01*
X146962555Y-119960089D01*
X147070095Y-119974247D01*
X147070101Y-119974247D01*
X147072020Y-119974500D01*
X147147980Y-119974500D01*
X147149899Y-119974247D01*
X147149905Y-119974247D01*
X147257445Y-119960089D01*
X147257446Y-119960089D01*
X147261280Y-119959584D01*
X147316102Y-119936876D01*
X147398678Y-119902672D01*
X147398681Y-119902671D01*
X147402250Y-119901192D01*
X147405315Y-119898840D01*
X147405317Y-119898839D01*
X147512913Y-119816277D01*
X147523304Y-119808304D01*
X147616192Y-119687250D01*
X147622736Y-119671453D01*
X147673104Y-119549853D01*
X147673105Y-119549850D01*
X147674584Y-119546280D01*
X147683027Y-119482152D01*
X147693995Y-119398836D01*
X147694500Y-119395000D01*
X147693400Y-119386648D01*
X147675089Y-119247555D01*
X147675089Y-119247554D01*
X147674584Y-119243720D01*
X147664759Y-119220000D01*
X148390458Y-119220000D01*
X148410502Y-119346555D01*
X148412609Y-119350691D01*
X148412610Y-119350693D01*
X148433153Y-119391009D01*
X148468674Y-119460723D01*
X148559277Y-119551326D01*
X148611712Y-119578043D01*
X148669307Y-119607390D01*
X148669309Y-119607391D01*
X148673445Y-119609498D01*
X148800000Y-119629542D01*
X148915700Y-119611217D01*
X148959608Y-119621759D01*
X148966648Y-119627772D01*
X149818970Y-120480094D01*
X149826049Y-120488650D01*
X149837499Y-120505498D01*
X149869133Y-120522461D01*
X149871767Y-120523963D01*
X149902488Y-120542568D01*
X149907184Y-120542863D01*
X149911329Y-120545086D01*
X149914606Y-120545500D01*
X149947233Y-120545500D01*
X149950936Y-120545616D01*
X149957287Y-120546016D01*
X149978972Y-120547380D01*
X149978973Y-120547380D01*
X149986097Y-120547828D01*
X149990484Y-120545875D01*
X149994687Y-120545500D01*
X153368592Y-120545500D01*
X153410311Y-120562781D01*
X154466253Y-121618722D01*
X155521555Y-122674024D01*
X155538836Y-122715743D01*
X155538110Y-122724970D01*
X155519785Y-122840673D01*
X155539829Y-122967228D01*
X155598001Y-123081396D01*
X155688604Y-123171999D01*
X155728288Y-123192219D01*
X155798634Y-123228063D01*
X155798636Y-123228064D01*
X155802772Y-123230171D01*
X155929327Y-123250215D01*
X156055882Y-123230171D01*
X156060018Y-123228064D01*
X156060020Y-123228063D01*
X156130366Y-123192219D01*
X156170050Y-123171999D01*
X156260653Y-123081396D01*
X156318825Y-122967228D01*
X156338869Y-122840673D01*
X156318825Y-122714118D01*
X156260653Y-122599950D01*
X156198095Y-122537392D01*
X156180814Y-122495673D01*
X156198095Y-122453954D01*
X156236326Y-122415723D01*
X156294498Y-122301555D01*
X156314542Y-122175000D01*
X156294498Y-122048445D01*
X156236326Y-121934277D01*
X156145723Y-121843674D01*
X156089828Y-121815194D01*
X156035693Y-121787610D01*
X156035691Y-121787609D01*
X156031555Y-121785502D01*
X155905000Y-121765458D01*
X155778445Y-121785502D01*
X155774309Y-121787609D01*
X155774307Y-121787610D01*
X155676317Y-121837539D01*
X155631299Y-121841082D01*
X155607812Y-121826689D01*
X153851529Y-120070405D01*
X153844450Y-120061849D01*
X153837013Y-120050906D01*
X153833000Y-120045001D01*
X153801364Y-120028037D01*
X153798729Y-120026534D01*
X153768012Y-120007932D01*
X153763317Y-120007637D01*
X153759170Y-120005413D01*
X153755893Y-120004999D01*
X153723262Y-120004999D01*
X153719557Y-120004883D01*
X153691528Y-120003119D01*
X153691527Y-120003119D01*
X153684403Y-120002671D01*
X153680016Y-120004624D01*
X153675813Y-120004999D01*
X153220775Y-120004999D01*
X153179056Y-119987718D01*
X153161775Y-119945999D01*
X153179056Y-119904280D01*
X153184858Y-119899191D01*
X153292913Y-119816277D01*
X153303304Y-119808304D01*
X153396192Y-119687250D01*
X153402736Y-119671453D01*
X153453104Y-119549853D01*
X153453105Y-119549850D01*
X153454584Y-119546280D01*
X153463027Y-119482152D01*
X153700000Y-119482152D01*
X153700233Y-119485852D01*
X153714240Y-119596733D01*
X153716071Y-119603863D01*
X153771004Y-119742608D01*
X153774554Y-119749066D01*
X153862266Y-119869790D01*
X153867306Y-119875159D01*
X153982289Y-119970280D01*
X153988502Y-119974223D01*
X154123532Y-120037763D01*
X154130529Y-120040037D01*
X154248473Y-120062536D01*
X154257268Y-120060715D01*
X154260000Y-120056555D01*
X154260000Y-120050714D01*
X154380000Y-120050714D01*
X154383020Y-120058004D01*
X154392677Y-120061654D01*
X154433400Y-120059092D01*
X154440628Y-120057713D01*
X154582547Y-120011600D01*
X154589218Y-120008461D01*
X154715206Y-119928507D01*
X154720889Y-119923805D01*
X154823035Y-119815030D01*
X154827366Y-119809069D01*
X154899254Y-119678306D01*
X154901967Y-119671453D01*
X154939076Y-119526925D01*
X154940000Y-119519608D01*
X154940000Y-118966737D01*
X154936562Y-118958438D01*
X154928263Y-118955000D01*
X154391737Y-118955000D01*
X154383438Y-118958438D01*
X154380000Y-118966737D01*
X154380000Y-120050714D01*
X154260000Y-120050714D01*
X154260000Y-118966737D01*
X154256562Y-118958438D01*
X154248263Y-118955000D01*
X153711737Y-118955000D01*
X153703438Y-118958438D01*
X153700000Y-118966737D01*
X153700000Y-119482152D01*
X153463027Y-119482152D01*
X153473995Y-119398836D01*
X153474500Y-119395000D01*
X153473400Y-119386648D01*
X153455089Y-119247555D01*
X153455089Y-119247554D01*
X153454584Y-119243720D01*
X153406664Y-119128031D01*
X153397672Y-119106322D01*
X153397671Y-119106319D01*
X153396192Y-119102750D01*
X153303304Y-118981696D01*
X153221172Y-118918674D01*
X153185317Y-118891161D01*
X153185315Y-118891160D01*
X153182250Y-118888808D01*
X153178681Y-118887329D01*
X153178678Y-118887328D01*
X153044853Y-118831896D01*
X153041280Y-118830416D01*
X153037446Y-118829911D01*
X153037445Y-118829911D01*
X152986949Y-118823263D01*
X153700000Y-118823263D01*
X153703438Y-118831562D01*
X153711737Y-118835000D01*
X154248263Y-118835000D01*
X154256562Y-118831562D01*
X154260000Y-118823263D01*
X154380000Y-118823263D01*
X154383438Y-118831562D01*
X154391737Y-118835000D01*
X154928263Y-118835000D01*
X154936562Y-118831562D01*
X154940000Y-118823263D01*
X154940000Y-118307848D01*
X154939767Y-118304148D01*
X154925760Y-118193267D01*
X154923929Y-118186137D01*
X154868996Y-118047392D01*
X154865446Y-118040934D01*
X154777734Y-117920210D01*
X154772694Y-117914841D01*
X154657711Y-117819720D01*
X154651498Y-117815777D01*
X154516468Y-117752237D01*
X154509471Y-117749963D01*
X154391527Y-117727464D01*
X154382732Y-117729285D01*
X154380000Y-117733445D01*
X154380000Y-118823263D01*
X154260000Y-118823263D01*
X154260000Y-117739286D01*
X154256980Y-117731996D01*
X154247323Y-117728346D01*
X154206600Y-117730908D01*
X154199372Y-117732287D01*
X154057453Y-117778400D01*
X154050782Y-117781539D01*
X153924794Y-117861493D01*
X153919111Y-117866195D01*
X153816965Y-117974970D01*
X153812634Y-117980931D01*
X153740746Y-118111694D01*
X153738033Y-118118547D01*
X153700924Y-118263075D01*
X153700000Y-118270392D01*
X153700000Y-118823263D01*
X152986949Y-118823263D01*
X152929905Y-118815753D01*
X152929899Y-118815753D01*
X152927980Y-118815500D01*
X152852020Y-118815500D01*
X152850101Y-118815753D01*
X152850095Y-118815753D01*
X152742555Y-118829911D01*
X152742554Y-118829911D01*
X152738720Y-118830416D01*
X152735147Y-118831896D01*
X152601322Y-118887328D01*
X152601319Y-118887329D01*
X152597750Y-118888808D01*
X152594685Y-118891160D01*
X152594683Y-118891161D01*
X152558828Y-118918674D01*
X152476696Y-118981696D01*
X152383808Y-119102750D01*
X152382329Y-119106319D01*
X152382328Y-119106322D01*
X152373336Y-119128031D01*
X152325416Y-119243720D01*
X152324911Y-119247554D01*
X152324911Y-119247555D01*
X152306600Y-119386648D01*
X152305500Y-119395000D01*
X152306005Y-119398836D01*
X152316974Y-119482152D01*
X152325416Y-119546280D01*
X152344853Y-119593205D01*
X152344853Y-119638360D01*
X152312923Y-119670291D01*
X152267766Y-119670291D01*
X152248625Y-119657501D01*
X152007772Y-119416648D01*
X151990491Y-119374929D01*
X151991217Y-119365699D01*
X151994976Y-119341969D01*
X152009542Y-119250000D01*
X151989498Y-119123445D01*
X151984400Y-119113438D01*
X151933433Y-119013413D01*
X151931326Y-119009277D01*
X151840723Y-118918674D01*
X151777710Y-118886567D01*
X151730693Y-118862610D01*
X151730691Y-118862609D01*
X151726555Y-118860502D01*
X151600000Y-118840458D01*
X151473445Y-118860502D01*
X151469309Y-118862609D01*
X151469307Y-118862610D01*
X151422290Y-118886567D01*
X151359277Y-118918674D01*
X151268674Y-119009277D01*
X151266567Y-119013413D01*
X151215601Y-119113438D01*
X151210502Y-119123445D01*
X151190458Y-119250000D01*
X151210502Y-119376555D01*
X151212609Y-119380691D01*
X151212610Y-119380693D01*
X151240194Y-119434828D01*
X151268674Y-119490723D01*
X151359277Y-119581326D01*
X151382587Y-119593203D01*
X151469307Y-119637390D01*
X151469309Y-119637391D01*
X151473445Y-119639498D01*
X151600000Y-119659542D01*
X151715700Y-119641217D01*
X151759608Y-119651759D01*
X151766648Y-119657772D01*
X152013157Y-119904280D01*
X152212658Y-120103781D01*
X152229939Y-120145500D01*
X152212658Y-120187219D01*
X152170939Y-120204500D01*
X150050062Y-120204500D01*
X150008343Y-120187219D01*
X149207772Y-119386648D01*
X149190491Y-119344929D01*
X149191217Y-119335699D01*
X149204065Y-119254584D01*
X149209542Y-119220000D01*
X149189498Y-119093445D01*
X149131326Y-118979277D01*
X149040723Y-118888674D01*
X148984008Y-118859776D01*
X148930693Y-118832610D01*
X148930691Y-118832609D01*
X148926555Y-118830502D01*
X148800000Y-118810458D01*
X148673445Y-118830502D01*
X148669309Y-118832609D01*
X148669307Y-118832610D01*
X148615992Y-118859776D01*
X148559277Y-118888674D01*
X148468674Y-118979277D01*
X148410502Y-119093445D01*
X148390458Y-119220000D01*
X147664759Y-119220000D01*
X147626664Y-119128031D01*
X147617672Y-119106322D01*
X147617671Y-119106319D01*
X147616192Y-119102750D01*
X147523304Y-118981696D01*
X147441172Y-118918674D01*
X147405317Y-118891161D01*
X147405315Y-118891160D01*
X147402250Y-118888808D01*
X147398681Y-118887329D01*
X147398678Y-118887328D01*
X147264853Y-118831896D01*
X147261280Y-118830416D01*
X147257446Y-118829911D01*
X147257445Y-118829911D01*
X147149905Y-118815753D01*
X147149899Y-118815753D01*
X147147980Y-118815500D01*
X147072020Y-118815500D01*
X147070101Y-118815753D01*
X147070095Y-118815753D01*
X146962555Y-118829911D01*
X146962554Y-118829911D01*
X146958720Y-118830416D01*
X146955147Y-118831896D01*
X146821322Y-118887328D01*
X146821319Y-118887329D01*
X146817750Y-118888808D01*
X146814685Y-118891160D01*
X146814683Y-118891161D01*
X146778828Y-118918674D01*
X146696696Y-118981696D01*
X146603808Y-119102750D01*
X146602329Y-119106319D01*
X146602328Y-119106322D01*
X146593336Y-119128031D01*
X146545416Y-119243720D01*
X146544911Y-119247554D01*
X146544911Y-119247555D01*
X146526600Y-119386648D01*
X146525500Y-119395000D01*
X146300000Y-119395000D01*
X146300000Y-118966737D01*
X146296562Y-118958438D01*
X146288263Y-118955000D01*
X145751737Y-118955000D01*
X145743438Y-118958438D01*
X145740000Y-118966737D01*
X145740000Y-120050714D01*
X145620000Y-120050714D01*
X145620000Y-118966737D01*
X145616562Y-118958438D01*
X145608263Y-118955000D01*
X145071737Y-118955000D01*
X145063438Y-118958438D01*
X145060000Y-118966737D01*
X145060000Y-119482152D01*
X142030000Y-119482152D01*
X142030000Y-119121737D01*
X142026562Y-119113438D01*
X142018263Y-119110000D01*
X141281737Y-119110000D01*
X141273438Y-119113438D01*
X141270000Y-119121737D01*
X141270000Y-119958262D01*
X141150000Y-119958262D01*
X141150000Y-118978263D01*
X141270000Y-118978263D01*
X141273438Y-118986562D01*
X141281737Y-118990000D01*
X142018262Y-118990000D01*
X142026561Y-118986562D01*
X142029999Y-118978263D01*
X142029999Y-118823263D01*
X145060000Y-118823263D01*
X145063438Y-118831562D01*
X145071737Y-118835000D01*
X145608263Y-118835000D01*
X145616562Y-118831562D01*
X145620000Y-118823263D01*
X145740000Y-118823263D01*
X145743438Y-118831562D01*
X145751737Y-118835000D01*
X146288263Y-118835000D01*
X146296562Y-118831562D01*
X146300000Y-118823263D01*
X146300000Y-118307848D01*
X146299767Y-118304148D01*
X146285760Y-118193267D01*
X146283929Y-118186137D01*
X146228996Y-118047392D01*
X146225446Y-118040934D01*
X146137734Y-117920210D01*
X146132694Y-117914841D01*
X146017711Y-117819720D01*
X146011498Y-117815777D01*
X145876468Y-117752237D01*
X145869471Y-117749963D01*
X145751527Y-117727464D01*
X145742732Y-117729285D01*
X145740000Y-117733445D01*
X145740000Y-118823263D01*
X145620000Y-118823263D01*
X145620000Y-117739286D01*
X145616980Y-117731996D01*
X145607323Y-117728346D01*
X145566600Y-117730908D01*
X145559372Y-117732287D01*
X145417453Y-117778400D01*
X145410782Y-117781539D01*
X145284794Y-117861493D01*
X145279111Y-117866195D01*
X145176965Y-117974970D01*
X145172634Y-117980931D01*
X145100746Y-118111694D01*
X145098033Y-118118547D01*
X145060924Y-118263075D01*
X145060000Y-118270392D01*
X145060000Y-118823263D01*
X142029999Y-118823263D01*
X142029999Y-118367287D01*
X142029435Y-118361555D01*
X142016049Y-118294253D01*
X142011686Y-118283720D01*
X141960678Y-118207381D01*
X141952619Y-118199322D01*
X141876277Y-118148313D01*
X141865748Y-118143951D01*
X141798458Y-118130567D01*
X141792707Y-118130000D01*
X141281737Y-118130000D01*
X141273438Y-118133438D01*
X141270000Y-118141737D01*
X141270000Y-118978263D01*
X141150000Y-118978263D01*
X141150000Y-118141737D01*
X141146562Y-118133438D01*
X141138263Y-118130000D01*
X140616949Y-118130000D01*
X140613542Y-118129833D01*
X140611870Y-118129500D01*
X139679500Y-118129500D01*
X139637781Y-118112219D01*
X139620500Y-118070500D01*
X139620500Y-117489500D01*
X139637781Y-117447781D01*
X139679500Y-117430500D01*
X140611871Y-117430500D01*
X141300046Y-117430499D01*
X141304903Y-117430220D01*
X141307334Y-117429659D01*
X141307339Y-117429658D01*
X141481049Y-117389553D01*
X141484263Y-117388811D01*
X141595697Y-117334942D01*
X141647018Y-117310133D01*
X141647020Y-117310132D01*
X141649992Y-117308695D01*
X141652568Y-117306638D01*
X141652572Y-117306636D01*
X141791279Y-117195906D01*
X141793852Y-117193852D01*
X141830502Y-117147942D01*
X141906636Y-117052572D01*
X141906638Y-117052568D01*
X141908695Y-117049992D01*
X141988811Y-116884263D01*
X142030220Y-116704903D01*
X142030500Y-116700047D01*
X142030499Y-116319954D01*
X142030220Y-116315097D01*
X141988811Y-116135737D01*
X141908695Y-115970008D01*
X141906638Y-115967432D01*
X141906636Y-115967428D01*
X141795906Y-115828721D01*
X141793852Y-115826148D01*
X141787264Y-115820889D01*
X141652572Y-115713364D01*
X141652568Y-115713362D01*
X141649992Y-115711305D01*
X141647020Y-115709868D01*
X141647018Y-115709867D01*
X141550032Y-115662983D01*
X141484263Y-115631189D01*
X141304903Y-115589780D01*
X141302416Y-115589637D01*
X141302412Y-115589636D01*
X141300884Y-115589548D01*
X141300875Y-115589548D01*
X141300047Y-115589500D01*
X139679500Y-115589500D01*
X139637781Y-115572219D01*
X139620500Y-115530500D01*
X139620500Y-114949500D01*
X139637781Y-114907781D01*
X139679500Y-114890500D01*
X140611871Y-114890500D01*
X141300046Y-114890499D01*
X141304903Y-114890220D01*
X141307334Y-114889659D01*
X141307339Y-114889658D01*
X141481049Y-114849553D01*
X141484263Y-114848811D01*
X141557942Y-114813193D01*
X141647018Y-114770133D01*
X141647020Y-114770132D01*
X141649992Y-114768695D01*
X141652568Y-114766638D01*
X141652572Y-114766636D01*
X141791279Y-114655906D01*
X141793852Y-114653852D01*
X141821506Y-114619211D01*
X141906636Y-114512572D01*
X141906638Y-114512568D01*
X141908695Y-114509992D01*
X141988811Y-114344263D01*
X142030220Y-114164903D01*
X142030500Y-114160047D01*
X142030499Y-113800000D01*
X144390458Y-113800000D01*
X144410502Y-113926555D01*
X144468674Y-114040723D01*
X144559277Y-114131326D01*
X144589665Y-114146810D01*
X144597286Y-114150693D01*
X144626613Y-114185031D01*
X144629500Y-114203262D01*
X144629500Y-115308124D01*
X144628455Y-115319179D01*
X144624638Y-115339190D01*
X144635014Y-115373556D01*
X144635822Y-115376512D01*
X144644380Y-115411356D01*
X144647491Y-115414885D01*
X144648851Y-115419389D01*
X144650875Y-115421999D01*
X144673955Y-115445079D01*
X144676493Y-115447781D01*
X144699781Y-115474196D01*
X144704262Y-115475916D01*
X144707496Y-115478620D01*
X146563970Y-117335094D01*
X146571049Y-117343650D01*
X146582499Y-117360498D01*
X146614133Y-117377461D01*
X146616767Y-117378963D01*
X146647488Y-117397568D01*
X146652184Y-117397863D01*
X146656329Y-117400086D01*
X146659606Y-117400500D01*
X146692233Y-117400500D01*
X146695936Y-117400616D01*
X146702287Y-117401016D01*
X146723972Y-117402380D01*
X146723973Y-117402380D01*
X146731097Y-117402828D01*
X146735484Y-117400875D01*
X146739687Y-117400500D01*
X155696524Y-117400500D01*
X155707580Y-117401545D01*
X155727590Y-117405362D01*
X155761956Y-117394986D01*
X155764916Y-117394177D01*
X155792820Y-117387324D01*
X155792822Y-117387323D01*
X155799756Y-117385620D01*
X155803285Y-117382509D01*
X155807789Y-117381149D01*
X155810399Y-117379125D01*
X155833479Y-117356045D01*
X155836180Y-117353508D01*
X155857239Y-117334942D01*
X155862596Y-117330219D01*
X155864316Y-117325737D01*
X155867020Y-117322503D01*
X156043352Y-117146172D01*
X156085071Y-117128891D01*
X156094296Y-117129617D01*
X156210000Y-117147942D01*
X156336555Y-117127898D01*
X156340691Y-117125791D01*
X156340693Y-117125790D01*
X156394828Y-117098206D01*
X156450723Y-117069726D01*
X156541326Y-116979123D01*
X156578741Y-116905693D01*
X156597390Y-116869093D01*
X156597391Y-116869091D01*
X156599498Y-116864955D01*
X156619542Y-116738400D01*
X156599498Y-116611845D01*
X156541326Y-116497677D01*
X156450723Y-116407074D01*
X156369048Y-116365458D01*
X156340693Y-116351010D01*
X156340691Y-116351009D01*
X156336555Y-116348902D01*
X156210000Y-116328858D01*
X156083445Y-116348902D01*
X156079309Y-116351009D01*
X156079307Y-116351010D01*
X156050952Y-116365458D01*
X155969277Y-116407074D01*
X155878674Y-116497677D01*
X155820502Y-116611845D01*
X155800458Y-116738400D01*
X155801184Y-116742983D01*
X155818783Y-116854099D01*
X155808241Y-116898008D01*
X155802228Y-116905048D01*
X155665057Y-117042219D01*
X155623338Y-117059500D01*
X152320300Y-117059500D01*
X152278581Y-117042219D01*
X152261300Y-117000500D01*
X152267731Y-116973714D01*
X152302390Y-116905693D01*
X152302391Y-116905691D01*
X152304498Y-116901555D01*
X152324542Y-116775000D01*
X152304498Y-116648445D01*
X152246326Y-116534277D01*
X152155723Y-116443674D01*
X152079757Y-116404967D01*
X152045693Y-116387610D01*
X152045691Y-116387609D01*
X152041555Y-116385502D01*
X151915000Y-116365458D01*
X151788445Y-116385502D01*
X151784309Y-116387609D01*
X151784307Y-116387610D01*
X151750243Y-116404967D01*
X151674277Y-116443674D01*
X151583674Y-116534277D01*
X151525502Y-116648445D01*
X151505458Y-116775000D01*
X151525502Y-116901555D01*
X151527609Y-116905691D01*
X151527610Y-116905693D01*
X151562269Y-116973714D01*
X151565812Y-117018732D01*
X151536486Y-117053069D01*
X151509700Y-117059500D01*
X146795062Y-117059500D01*
X146753343Y-117042219D01*
X144987781Y-115276657D01*
X144970500Y-115234938D01*
X144970500Y-114203262D01*
X144987781Y-114161543D01*
X145002714Y-114150693D01*
X145010335Y-114146810D01*
X145040723Y-114131326D01*
X145131326Y-114040723D01*
X145189498Y-113926555D01*
X145209542Y-113800000D01*
X145189498Y-113673445D01*
X145131326Y-113559277D01*
X145040723Y-113468674D01*
X144970674Y-113432982D01*
X144930693Y-113412610D01*
X144930691Y-113412609D01*
X144926555Y-113410502D01*
X144800000Y-113390458D01*
X144673445Y-113410502D01*
X144669309Y-113412609D01*
X144669307Y-113412610D01*
X144629326Y-113432982D01*
X144559277Y-113468674D01*
X144468674Y-113559277D01*
X144410502Y-113673445D01*
X144390458Y-113800000D01*
X142030499Y-113800000D01*
X142030499Y-113779954D01*
X142030220Y-113775097D01*
X141988811Y-113595737D01*
X141908695Y-113430008D01*
X141906638Y-113427432D01*
X141906636Y-113427428D01*
X141795906Y-113288721D01*
X141793852Y-113286148D01*
X141787264Y-113280889D01*
X141652572Y-113173364D01*
X141652568Y-113173362D01*
X141649992Y-113171305D01*
X141647020Y-113169868D01*
X141647018Y-113169867D01*
X141550032Y-113122983D01*
X141484263Y-113091189D01*
X141304903Y-113049780D01*
X141302416Y-113049637D01*
X141302412Y-113049636D01*
X141300884Y-113049548D01*
X141300875Y-113049548D01*
X141300047Y-113049500D01*
X139679500Y-113049500D01*
X139637781Y-113032219D01*
X139620500Y-112990500D01*
X139620500Y-112600000D01*
X147090458Y-112600000D01*
X147110502Y-112726555D01*
X147112609Y-112730691D01*
X147112610Y-112730693D01*
X147123451Y-112751969D01*
X147168674Y-112840723D01*
X147259277Y-112931326D01*
X147311712Y-112958043D01*
X147369307Y-112987390D01*
X147369309Y-112987391D01*
X147373445Y-112989498D01*
X147500000Y-113009542D01*
X147626555Y-112989498D01*
X147630691Y-112987391D01*
X147630693Y-112987390D01*
X147688288Y-112958043D01*
X147740723Y-112931326D01*
X147831326Y-112840723D01*
X147876549Y-112751969D01*
X147887390Y-112730693D01*
X147887391Y-112730691D01*
X147889498Y-112726555D01*
X147904791Y-112630000D01*
X148400458Y-112630000D01*
X148420502Y-112756555D01*
X148422609Y-112760691D01*
X148422610Y-112760693D01*
X148450194Y-112814828D01*
X148478674Y-112870723D01*
X148569277Y-112961326D01*
X148620430Y-112987390D01*
X148679307Y-113017390D01*
X148679309Y-113017391D01*
X148683445Y-113019498D01*
X148810000Y-113039542D01*
X148936555Y-113019498D01*
X148940691Y-113017391D01*
X148940693Y-113017390D01*
X148999570Y-112987390D01*
X149050723Y-112961326D01*
X149141326Y-112870723D01*
X149143434Y-112866587D01*
X149144400Y-112864690D01*
X149149884Y-112853928D01*
X149184219Y-112824602D01*
X149229236Y-112828144D01*
X149255021Y-112853928D01*
X149268674Y-112880723D01*
X149359277Y-112971326D01*
X149396366Y-112990224D01*
X149469307Y-113027390D01*
X149469309Y-113027391D01*
X149473445Y-113029498D01*
X149600000Y-113049542D01*
X149726555Y-113029498D01*
X149730691Y-113027391D01*
X149730693Y-113027390D01*
X149803634Y-112990224D01*
X149840723Y-112971326D01*
X149931326Y-112880723D01*
X149989498Y-112766555D01*
X150009542Y-112640000D01*
X149989498Y-112513445D01*
X149986740Y-112508031D01*
X149982648Y-112500000D01*
X152090458Y-112500000D01*
X152110502Y-112626555D01*
X152112609Y-112630691D01*
X152112610Y-112630693D01*
X152119688Y-112644584D01*
X152168674Y-112740723D01*
X152259277Y-112831326D01*
X152315172Y-112859806D01*
X152369307Y-112887390D01*
X152369309Y-112887391D01*
X152373445Y-112889498D01*
X152500000Y-112909542D01*
X152626555Y-112889498D01*
X152630691Y-112887391D01*
X152630693Y-112887390D01*
X152684828Y-112859806D01*
X152740723Y-112831326D01*
X152831326Y-112740723D01*
X152880312Y-112644584D01*
X152887390Y-112630693D01*
X152887391Y-112630691D01*
X152889498Y-112626555D01*
X152909542Y-112500000D01*
X152889498Y-112373445D01*
X152884387Y-112363413D01*
X152844547Y-112285224D01*
X152831326Y-112259277D01*
X152740723Y-112168674D01*
X152676054Y-112135723D01*
X152630693Y-112112610D01*
X152630691Y-112112609D01*
X152626555Y-112110502D01*
X152500000Y-112090458D01*
X152373445Y-112110502D01*
X152369309Y-112112609D01*
X152369307Y-112112610D01*
X152323946Y-112135723D01*
X152259277Y-112168674D01*
X152168674Y-112259277D01*
X152155453Y-112285224D01*
X152115614Y-112363413D01*
X152110502Y-112373445D01*
X152090458Y-112500000D01*
X149982648Y-112500000D01*
X149953021Y-112441856D01*
X149931326Y-112399277D01*
X149840723Y-112308674D01*
X149778593Y-112277017D01*
X149730693Y-112252610D01*
X149730691Y-112252609D01*
X149726555Y-112250502D01*
X149600000Y-112230458D01*
X149473445Y-112250502D01*
X149469309Y-112252609D01*
X149469307Y-112252610D01*
X149421407Y-112277017D01*
X149359277Y-112308674D01*
X149268674Y-112399277D01*
X149266567Y-112403412D01*
X149265600Y-112405310D01*
X149260117Y-112416071D01*
X149225781Y-112445398D01*
X149180764Y-112441856D01*
X149154979Y-112416072D01*
X149146421Y-112399277D01*
X149141326Y-112389277D01*
X149050723Y-112298674D01*
X148966960Y-112255994D01*
X148940693Y-112242610D01*
X148940691Y-112242609D01*
X148936555Y-112240502D01*
X148810000Y-112220458D01*
X148683445Y-112240502D01*
X148679309Y-112242609D01*
X148679307Y-112242610D01*
X148653040Y-112255994D01*
X148569277Y-112298674D01*
X148478674Y-112389277D01*
X148420502Y-112503445D01*
X148400458Y-112630000D01*
X147904791Y-112630000D01*
X147909542Y-112600000D01*
X147889498Y-112473445D01*
X147873403Y-112441856D01*
X147844939Y-112385994D01*
X147831326Y-112359277D01*
X147798768Y-112326719D01*
X147781487Y-112285000D01*
X147798768Y-112243281D01*
X147831326Y-112210723D01*
X147880685Y-112113852D01*
X147887390Y-112100693D01*
X147887391Y-112100691D01*
X147889498Y-112096555D01*
X147909542Y-111970000D01*
X147889498Y-111843445D01*
X147831326Y-111729277D01*
X147740723Y-111638674D01*
X147684828Y-111610194D01*
X147630693Y-111582610D01*
X147630691Y-111582609D01*
X147626555Y-111580502D01*
X147500000Y-111560458D01*
X147373445Y-111580502D01*
X147369309Y-111582609D01*
X147369307Y-111582610D01*
X147315172Y-111610194D01*
X147259277Y-111638674D01*
X147168674Y-111729277D01*
X147110502Y-111843445D01*
X147090458Y-111970000D01*
X147110502Y-112096555D01*
X147112609Y-112100691D01*
X147112610Y-112100693D01*
X147119315Y-112113852D01*
X147168674Y-112210723D01*
X147201232Y-112243281D01*
X147218513Y-112285000D01*
X147201232Y-112326719D01*
X147168674Y-112359277D01*
X147155061Y-112385994D01*
X147126598Y-112441856D01*
X147110502Y-112473445D01*
X147090458Y-112600000D01*
X139620500Y-112600000D01*
X139620500Y-112409500D01*
X139637781Y-112367781D01*
X139679500Y-112350500D01*
X140611871Y-112350500D01*
X141300046Y-112350499D01*
X141304903Y-112350220D01*
X141307334Y-112349659D01*
X141307339Y-112349658D01*
X141481049Y-112309553D01*
X141484263Y-112308811D01*
X141606384Y-112249776D01*
X141647018Y-112230133D01*
X141647020Y-112230132D01*
X141649992Y-112228695D01*
X141652568Y-112226638D01*
X141652572Y-112226636D01*
X141791279Y-112115906D01*
X141793852Y-112113852D01*
X141821506Y-112079211D01*
X141906636Y-111972572D01*
X141906638Y-111972568D01*
X141908695Y-111969992D01*
X141988811Y-111804263D01*
X142030220Y-111624903D01*
X142030500Y-111620047D01*
X142030499Y-111239954D01*
X142030220Y-111235097D01*
X141988811Y-111055737D01*
X141922687Y-110918951D01*
X141910133Y-110892982D01*
X141910132Y-110892980D01*
X141908695Y-110890008D01*
X141906638Y-110887432D01*
X141906636Y-110887428D01*
X141795906Y-110748721D01*
X141793852Y-110746148D01*
X141787264Y-110740889D01*
X141652572Y-110633364D01*
X141652568Y-110633362D01*
X141649992Y-110631305D01*
X141647020Y-110629868D01*
X141647018Y-110629867D01*
X141550032Y-110582983D01*
X141484263Y-110551189D01*
X141304903Y-110509780D01*
X141302416Y-110509637D01*
X141302412Y-110509636D01*
X141300884Y-110509548D01*
X141300875Y-110509548D01*
X141300047Y-110509500D01*
X139679500Y-110509500D01*
X139637781Y-110492219D01*
X139620500Y-110450500D01*
X139620500Y-109869500D01*
X139637781Y-109827781D01*
X139679500Y-109810500D01*
X140611871Y-109810500D01*
X141300046Y-109810499D01*
X141304903Y-109810220D01*
X141307334Y-109809659D01*
X141307339Y-109809658D01*
X141481049Y-109769553D01*
X141484263Y-109768811D01*
X141557942Y-109733193D01*
X141647018Y-109690133D01*
X141647020Y-109690132D01*
X141649992Y-109688695D01*
X141652568Y-109686638D01*
X141652572Y-109686636D01*
X141791279Y-109575906D01*
X141793852Y-109573852D01*
X141821506Y-109539211D01*
X141906636Y-109432572D01*
X141906638Y-109432568D01*
X141908695Y-109429992D01*
X141927920Y-109390224D01*
X141987375Y-109267233D01*
X141988811Y-109264263D01*
X142030220Y-109084903D01*
X142030500Y-109080047D01*
X142030500Y-109000000D01*
X147090458Y-109000000D01*
X147110502Y-109126555D01*
X147168674Y-109240723D01*
X147259277Y-109331326D01*
X147315172Y-109359806D01*
X147369307Y-109387390D01*
X147369309Y-109387391D01*
X147373445Y-109389498D01*
X147500000Y-109409542D01*
X147626555Y-109389498D01*
X147630691Y-109387391D01*
X147630693Y-109387390D01*
X147684828Y-109359806D01*
X147740723Y-109331326D01*
X147831326Y-109240723D01*
X147889498Y-109126555D01*
X147909542Y-109000000D01*
X147889498Y-108873445D01*
X147831326Y-108759277D01*
X147740723Y-108668674D01*
X147684828Y-108640194D01*
X147630693Y-108612610D01*
X147630691Y-108612609D01*
X147626555Y-108610502D01*
X147500000Y-108590458D01*
X147373445Y-108610502D01*
X147369309Y-108612609D01*
X147369307Y-108612610D01*
X147315172Y-108640194D01*
X147259277Y-108668674D01*
X147168674Y-108759277D01*
X147110502Y-108873445D01*
X147090458Y-109000000D01*
X142030500Y-109000000D01*
X142030499Y-108699954D01*
X142030220Y-108695097D01*
X142023634Y-108666567D01*
X141989553Y-108518951D01*
X141988811Y-108515737D01*
X141908695Y-108350008D01*
X141906638Y-108347432D01*
X141906636Y-108347428D01*
X141795906Y-108208721D01*
X141793852Y-108206148D01*
X141787264Y-108200889D01*
X141652572Y-108093364D01*
X141652568Y-108093362D01*
X141649992Y-108091305D01*
X141647020Y-108089868D01*
X141647018Y-108089867D01*
X141550032Y-108042983D01*
X141484263Y-108011189D01*
X141304903Y-107969780D01*
X141302416Y-107969637D01*
X141302412Y-107969636D01*
X141300884Y-107969548D01*
X141300875Y-107969548D01*
X141300047Y-107969500D01*
X139679500Y-107969500D01*
X139637781Y-107952219D01*
X139620500Y-107910500D01*
X139620500Y-107350000D01*
X147790458Y-107350000D01*
X147810502Y-107476555D01*
X147868674Y-107590723D01*
X147959277Y-107681326D01*
X148015172Y-107709806D01*
X148069307Y-107737390D01*
X148069309Y-107737391D01*
X148073445Y-107739498D01*
X148200000Y-107759542D01*
X148326555Y-107739498D01*
X148330691Y-107737391D01*
X148330693Y-107737390D01*
X148384828Y-107709806D01*
X148440723Y-107681326D01*
X148531326Y-107590723D01*
X148589498Y-107476555D01*
X148601623Y-107400000D01*
X149590458Y-107400000D01*
X149610502Y-107526555D01*
X149668674Y-107640723D01*
X149759277Y-107731326D01*
X149813229Y-107758816D01*
X149869307Y-107787390D01*
X149869309Y-107787391D01*
X149873445Y-107789498D01*
X150000000Y-107809542D01*
X150126555Y-107789498D01*
X150130691Y-107787391D01*
X150130693Y-107787390D01*
X150186771Y-107758816D01*
X150240723Y-107731326D01*
X150331326Y-107640723D01*
X150389498Y-107526555D01*
X150409542Y-107400000D01*
X152090458Y-107400000D01*
X152110502Y-107526555D01*
X152168674Y-107640723D01*
X152259277Y-107731326D01*
X152313229Y-107758816D01*
X152369307Y-107787390D01*
X152369309Y-107787391D01*
X152373445Y-107789498D01*
X152500000Y-107809542D01*
X152626555Y-107789498D01*
X152630691Y-107787391D01*
X152630693Y-107787390D01*
X152686771Y-107758816D01*
X152740723Y-107731326D01*
X152831326Y-107640723D01*
X152889498Y-107526555D01*
X152909542Y-107400000D01*
X152889498Y-107273445D01*
X152885991Y-107266561D01*
X152833433Y-107163413D01*
X152831326Y-107159277D01*
X152740723Y-107068674D01*
X152681421Y-107038458D01*
X152630693Y-107012610D01*
X152630691Y-107012609D01*
X152626555Y-107010502D01*
X152500000Y-106990458D01*
X152373445Y-107010502D01*
X152369309Y-107012609D01*
X152369307Y-107012610D01*
X152318579Y-107038458D01*
X152259277Y-107068674D01*
X152168674Y-107159277D01*
X152166567Y-107163413D01*
X152114010Y-107266561D01*
X152110502Y-107273445D01*
X152090458Y-107400000D01*
X150409542Y-107400000D01*
X150389498Y-107273445D01*
X150385991Y-107266561D01*
X150333433Y-107163413D01*
X150331326Y-107159277D01*
X150240723Y-107068674D01*
X150181421Y-107038458D01*
X150130693Y-107012610D01*
X150130691Y-107012609D01*
X150126555Y-107010502D01*
X150000000Y-106990458D01*
X149873445Y-107010502D01*
X149869309Y-107012609D01*
X149869307Y-107012610D01*
X149818579Y-107038458D01*
X149759277Y-107068674D01*
X149668674Y-107159277D01*
X149666567Y-107163413D01*
X149614010Y-107266561D01*
X149610502Y-107273445D01*
X149590458Y-107400000D01*
X148601623Y-107400000D01*
X148609542Y-107350000D01*
X148589498Y-107223445D01*
X148531326Y-107109277D01*
X148440723Y-107018674D01*
X148384828Y-106990194D01*
X148330693Y-106962610D01*
X148330691Y-106962609D01*
X148326555Y-106960502D01*
X148200000Y-106940458D01*
X148073445Y-106960502D01*
X148069309Y-106962609D01*
X148069307Y-106962610D01*
X148015172Y-106990194D01*
X147959277Y-107018674D01*
X147868674Y-107109277D01*
X147810502Y-107223445D01*
X147790458Y-107350000D01*
X139620500Y-107350000D01*
X139620500Y-107329500D01*
X139637781Y-107287781D01*
X139679500Y-107270500D01*
X140611870Y-107270500D01*
X140613542Y-107270167D01*
X140616949Y-107270000D01*
X141138263Y-107269999D01*
X141146562Y-107266561D01*
X141150000Y-107258262D01*
X141270000Y-107258262D01*
X141273438Y-107266561D01*
X141281737Y-107269999D01*
X141792713Y-107269999D01*
X141798445Y-107269435D01*
X141865747Y-107256049D01*
X141876280Y-107251686D01*
X141952619Y-107200678D01*
X141960678Y-107192619D01*
X142011687Y-107116277D01*
X142016049Y-107105748D01*
X142029433Y-107038458D01*
X142030000Y-107032707D01*
X142030000Y-106421737D01*
X142026562Y-106413438D01*
X142018263Y-106410000D01*
X141281737Y-106410000D01*
X141273438Y-106413438D01*
X141270000Y-106421737D01*
X141270000Y-107258262D01*
X141150000Y-107258262D01*
X141150000Y-106278263D01*
X141270000Y-106278263D01*
X141273438Y-106286562D01*
X141281737Y-106290000D01*
X142018262Y-106290000D01*
X142026561Y-106286562D01*
X142029999Y-106278263D01*
X142029999Y-105667287D01*
X142029435Y-105661555D01*
X142016049Y-105594253D01*
X142011686Y-105583720D01*
X141960678Y-105507381D01*
X141952619Y-105499322D01*
X141876277Y-105448313D01*
X141865748Y-105443951D01*
X141798458Y-105430567D01*
X141792707Y-105430000D01*
X141281737Y-105430000D01*
X141273438Y-105433438D01*
X141270000Y-105441737D01*
X141270000Y-106278263D01*
X141150000Y-106278263D01*
X141150000Y-105441737D01*
X141146562Y-105433438D01*
X141138263Y-105430000D01*
X140616949Y-105430000D01*
X140613542Y-105429833D01*
X140611870Y-105429500D01*
X139679500Y-105429500D01*
X139637781Y-105412219D01*
X139620500Y-105370500D01*
X139620500Y-104789500D01*
X139637781Y-104747781D01*
X139679500Y-104730500D01*
X140611871Y-104730500D01*
X141300046Y-104730499D01*
X141304903Y-104730220D01*
X141307334Y-104729659D01*
X141307339Y-104729658D01*
X141481049Y-104689553D01*
X141484263Y-104688811D01*
X141588465Y-104638438D01*
X141647018Y-104610133D01*
X141647020Y-104610132D01*
X141649992Y-104608695D01*
X141652568Y-104606638D01*
X141652572Y-104606636D01*
X141699835Y-104568906D01*
X144159369Y-104568906D01*
X144168523Y-104638438D01*
X144170508Y-104645847D01*
X144222463Y-104771279D01*
X144226296Y-104777918D01*
X144308950Y-104885635D01*
X144314365Y-104891050D01*
X144422081Y-104973704D01*
X144428720Y-104977537D01*
X144554153Y-105029492D01*
X144561562Y-105031477D01*
X144628364Y-105040272D01*
X144637040Y-105037947D01*
X144640000Y-105032821D01*
X144640000Y-105030067D01*
X144760000Y-105030067D01*
X144763438Y-105038366D01*
X144768906Y-105040631D01*
X144838438Y-105031477D01*
X144845847Y-105029492D01*
X144971280Y-104977537D01*
X144977919Y-104973704D01*
X145085635Y-104891050D01*
X145091050Y-104885635D01*
X145152877Y-104805060D01*
X145191984Y-104782482D01*
X145235602Y-104794169D01*
X145246493Y-104805060D01*
X145302354Y-104877859D01*
X145310945Y-104889055D01*
X145314009Y-104891406D01*
X145421829Y-104974140D01*
X145421831Y-104974141D01*
X145424896Y-104976493D01*
X145428465Y-104977971D01*
X145428468Y-104977973D01*
X145548823Y-105027825D01*
X145557596Y-105031459D01*
X145700000Y-105050207D01*
X145842404Y-105031459D01*
X145851177Y-105027825D01*
X145971532Y-104977973D01*
X145971535Y-104977971D01*
X145975104Y-104976493D01*
X145978169Y-104974141D01*
X145978171Y-104974140D01*
X146062309Y-104909578D01*
X146105927Y-104897891D01*
X146145034Y-104920469D01*
X146156092Y-104944875D01*
X146161491Y-104972017D01*
X146188124Y-105011876D01*
X146227983Y-105038509D01*
X146263130Y-105045500D01*
X147136870Y-105045500D01*
X147172017Y-105038509D01*
X147211876Y-105011876D01*
X147238509Y-104972017D01*
X147245500Y-104936870D01*
X147245500Y-104063130D01*
X147238509Y-104027983D01*
X147211876Y-103988124D01*
X147172017Y-103961491D01*
X147136870Y-103954500D01*
X146263130Y-103954500D01*
X146227983Y-103961491D01*
X146188124Y-103988124D01*
X146161491Y-104027983D01*
X146160357Y-104033684D01*
X146156092Y-104055125D01*
X146131004Y-104092671D01*
X146086715Y-104101480D01*
X146062309Y-104090422D01*
X145978171Y-104025860D01*
X145978169Y-104025859D01*
X145975104Y-104023507D01*
X145971535Y-104022029D01*
X145971532Y-104022027D01*
X145845977Y-103970021D01*
X145842404Y-103968541D01*
X145700000Y-103949793D01*
X145557596Y-103968541D01*
X145554023Y-103970021D01*
X145428469Y-104022027D01*
X145428466Y-104022028D01*
X145424897Y-104023507D01*
X145421832Y-104025859D01*
X145421830Y-104025860D01*
X145411634Y-104033684D01*
X145310945Y-104110945D01*
X145308594Y-104114009D01*
X145246493Y-104194940D01*
X145207386Y-104217518D01*
X145163768Y-104205831D01*
X145152877Y-104194940D01*
X145091050Y-104114365D01*
X145085635Y-104108950D01*
X144977919Y-104026296D01*
X144971280Y-104022463D01*
X144845847Y-103970508D01*
X144838438Y-103968523D01*
X144771636Y-103959728D01*
X144762960Y-103962053D01*
X144760000Y-103967179D01*
X144760000Y-105030067D01*
X144640000Y-105030067D01*
X144640000Y-104571737D01*
X144636562Y-104563438D01*
X144628263Y-104560000D01*
X144169933Y-104560000D01*
X144161634Y-104563438D01*
X144159369Y-104568906D01*
X141699835Y-104568906D01*
X141791279Y-104495906D01*
X141793852Y-104493852D01*
X141839205Y-104437040D01*
X141846131Y-104428364D01*
X144159728Y-104428364D01*
X144162053Y-104437040D01*
X144167179Y-104440000D01*
X144628263Y-104440000D01*
X144636562Y-104436562D01*
X144640000Y-104428263D01*
X144640000Y-103969933D01*
X144636562Y-103961634D01*
X144631094Y-103959369D01*
X144561562Y-103968523D01*
X144554153Y-103970508D01*
X144428721Y-104022463D01*
X144422082Y-104026296D01*
X144314365Y-104108950D01*
X144308950Y-104114365D01*
X144226296Y-104222082D01*
X144222463Y-104228721D01*
X144170508Y-104354153D01*
X144168523Y-104361562D01*
X144159728Y-104428364D01*
X141846131Y-104428364D01*
X141906636Y-104352572D01*
X141906638Y-104352568D01*
X141908695Y-104349992D01*
X141988811Y-104184263D01*
X142030220Y-104004903D01*
X142030500Y-104000047D01*
X142030499Y-103619954D01*
X142030220Y-103615097D01*
X141988811Y-103435737D01*
X141908695Y-103270008D01*
X141906638Y-103267432D01*
X141906636Y-103267428D01*
X141795906Y-103128721D01*
X141793852Y-103126148D01*
X141787264Y-103120889D01*
X141652572Y-103013364D01*
X141652568Y-103013362D01*
X141649992Y-103011305D01*
X141647020Y-103009868D01*
X141647018Y-103009867D01*
X141550032Y-102962983D01*
X141484263Y-102931189D01*
X141304903Y-102889780D01*
X141302416Y-102889637D01*
X141302412Y-102889636D01*
X141300884Y-102889548D01*
X141300875Y-102889548D01*
X141300047Y-102889500D01*
X139679500Y-102889500D01*
X139637781Y-102872219D01*
X139620500Y-102830500D01*
X139620500Y-102249500D01*
X139637781Y-102207781D01*
X139679500Y-102190500D01*
X140611871Y-102190500D01*
X141300046Y-102190499D01*
X141304903Y-102190220D01*
X141307334Y-102189659D01*
X141307339Y-102189658D01*
X141481049Y-102149553D01*
X141484263Y-102148811D01*
X141557942Y-102113193D01*
X141647018Y-102070133D01*
X141647020Y-102070132D01*
X141649992Y-102068695D01*
X141652568Y-102066638D01*
X141652572Y-102066636D01*
X141791279Y-101955906D01*
X141793852Y-101953852D01*
X141821506Y-101919211D01*
X141906636Y-101812572D01*
X141906638Y-101812568D01*
X141908695Y-101809992D01*
X141988811Y-101644263D01*
X142030220Y-101464903D01*
X142030500Y-101460047D01*
X142030499Y-101079954D01*
X142030220Y-101075097D01*
X141988811Y-100895737D01*
X141908695Y-100730008D01*
X141906638Y-100727432D01*
X141906636Y-100727428D01*
X141795906Y-100588721D01*
X141793852Y-100586148D01*
X141745707Y-100547714D01*
X141652572Y-100473364D01*
X141652568Y-100473362D01*
X141649992Y-100471305D01*
X141647020Y-100469868D01*
X141647018Y-100469867D01*
X141525960Y-100411346D01*
X141484263Y-100391189D01*
X141304903Y-100349780D01*
X141302416Y-100349637D01*
X141302412Y-100349636D01*
X141300884Y-100349548D01*
X141300875Y-100349548D01*
X141300047Y-100349500D01*
X139679500Y-100349500D01*
X139637781Y-100332219D01*
X139620500Y-100290500D01*
X139620500Y-99709500D01*
X139637781Y-99667781D01*
X139679500Y-99650500D01*
X140611871Y-99650500D01*
X141300046Y-99650499D01*
X141304903Y-99650220D01*
X141307334Y-99649659D01*
X141307339Y-99649658D01*
X141392485Y-99630000D01*
X149590458Y-99630000D01*
X149610502Y-99756555D01*
X149668674Y-99870723D01*
X149759277Y-99961326D01*
X149791401Y-99977694D01*
X149869307Y-100017390D01*
X149869309Y-100017391D01*
X149873445Y-100019498D01*
X150000000Y-100039542D01*
X150126555Y-100019498D01*
X150130691Y-100017391D01*
X150130693Y-100017390D01*
X150208599Y-99977694D01*
X150240723Y-99961326D01*
X150331326Y-99870723D01*
X150389498Y-99756555D01*
X150409542Y-99630000D01*
X150389498Y-99503445D01*
X150331326Y-99389277D01*
X150240723Y-99298674D01*
X150178595Y-99267018D01*
X150130693Y-99242610D01*
X150130691Y-99242609D01*
X150126555Y-99240502D01*
X150000000Y-99220458D01*
X149873445Y-99240502D01*
X149869309Y-99242609D01*
X149869307Y-99242610D01*
X149821405Y-99267018D01*
X149759277Y-99298674D01*
X149668674Y-99389277D01*
X149610502Y-99503445D01*
X149590458Y-99630000D01*
X141392485Y-99630000D01*
X141481049Y-99609553D01*
X141484263Y-99608811D01*
X141557942Y-99573193D01*
X141647018Y-99530133D01*
X141647020Y-99530132D01*
X141649992Y-99528695D01*
X141652568Y-99526638D01*
X141652572Y-99526636D01*
X141791279Y-99415906D01*
X141793852Y-99413852D01*
X141821506Y-99379211D01*
X141906636Y-99272572D01*
X141906638Y-99272568D01*
X141908695Y-99269992D01*
X141988811Y-99104263D01*
X142030220Y-98924903D01*
X142030500Y-98920047D01*
X142030499Y-98539954D01*
X142030220Y-98535097D01*
X141988811Y-98355737D01*
X141908695Y-98190008D01*
X141906638Y-98187432D01*
X141906636Y-98187428D01*
X141795906Y-98048721D01*
X141793852Y-98046148D01*
X141775285Y-98031326D01*
X141652572Y-97933364D01*
X141652568Y-97933362D01*
X141649992Y-97931305D01*
X141647020Y-97929868D01*
X141647018Y-97929867D01*
X141550032Y-97882983D01*
X141484263Y-97851189D01*
X141304903Y-97809780D01*
X141302416Y-97809637D01*
X141302412Y-97809636D01*
X141300884Y-97809548D01*
X141300875Y-97809548D01*
X141300047Y-97809500D01*
X139679500Y-97809500D01*
X139637781Y-97792219D01*
X139620500Y-97750500D01*
X139620500Y-97700000D01*
X151890458Y-97700000D01*
X151910502Y-97826555D01*
X151912609Y-97830691D01*
X151912610Y-97830693D01*
X151923785Y-97852625D01*
X151968674Y-97940723D01*
X152059277Y-98031326D01*
X152115172Y-98059806D01*
X152169307Y-98087390D01*
X152169309Y-98087391D01*
X152173445Y-98089498D01*
X152300000Y-98109542D01*
X152426555Y-98089498D01*
X152430691Y-98087391D01*
X152430693Y-98087390D01*
X152484828Y-98059806D01*
X152540723Y-98031326D01*
X152631326Y-97940723D01*
X152676215Y-97852625D01*
X152687390Y-97830693D01*
X152687391Y-97830691D01*
X152689498Y-97826555D01*
X152709542Y-97700000D01*
X152689498Y-97573445D01*
X152686570Y-97567697D01*
X152648823Y-97493616D01*
X152631326Y-97459277D01*
X152540723Y-97368674D01*
X152446236Y-97320530D01*
X152430693Y-97312610D01*
X152430691Y-97312609D01*
X152426555Y-97310502D01*
X152300000Y-97290458D01*
X152173445Y-97310502D01*
X152169309Y-97312609D01*
X152169307Y-97312610D01*
X152153764Y-97320530D01*
X152059277Y-97368674D01*
X151968674Y-97459277D01*
X151951177Y-97493616D01*
X151913431Y-97567697D01*
X151910502Y-97573445D01*
X151890458Y-97700000D01*
X139620500Y-97700000D01*
X139620500Y-97169500D01*
X139637781Y-97127781D01*
X139679500Y-97110500D01*
X140611871Y-97110500D01*
X141300046Y-97110499D01*
X141304903Y-97110220D01*
X141307334Y-97109659D01*
X141307339Y-97109658D01*
X141481049Y-97069553D01*
X141484263Y-97068811D01*
X141557942Y-97033193D01*
X141647018Y-96990133D01*
X141647020Y-96990132D01*
X141649992Y-96988695D01*
X141652568Y-96986638D01*
X141652572Y-96986636D01*
X141791279Y-96875906D01*
X141793852Y-96873852D01*
X141825445Y-96834277D01*
X141906636Y-96732572D01*
X141906638Y-96732568D01*
X141908695Y-96729992D01*
X141911444Y-96724307D01*
X141987375Y-96567233D01*
X141988811Y-96564263D01*
X142030220Y-96384903D01*
X142030500Y-96380047D01*
X142030499Y-95999954D01*
X142030220Y-95995097D01*
X142012870Y-95919944D01*
X141989553Y-95818951D01*
X141988811Y-95815737D01*
X141915636Y-95664366D01*
X141910133Y-95652982D01*
X141910132Y-95652980D01*
X141908695Y-95650008D01*
X141906638Y-95647432D01*
X141906636Y-95647428D01*
X141795906Y-95508721D01*
X141793852Y-95506148D01*
X141771447Y-95488262D01*
X141652572Y-95393364D01*
X141652568Y-95393362D01*
X141649992Y-95391305D01*
X141647020Y-95389868D01*
X141647018Y-95389867D01*
X141530277Y-95333433D01*
X141484263Y-95311189D01*
X141304903Y-95269780D01*
X141302416Y-95269637D01*
X141302412Y-95269636D01*
X141300884Y-95269548D01*
X141300875Y-95269548D01*
X141300047Y-95269500D01*
X139679500Y-95269500D01*
X139637781Y-95252219D01*
X139620500Y-95210500D01*
X139620500Y-95000000D01*
X152220458Y-95000000D01*
X152240502Y-95126555D01*
X152298674Y-95240723D01*
X152389277Y-95331326D01*
X152412155Y-95342983D01*
X152499307Y-95387390D01*
X152499309Y-95387391D01*
X152503445Y-95389498D01*
X152630000Y-95409542D01*
X152756555Y-95389498D01*
X152760691Y-95387391D01*
X152760693Y-95387390D01*
X152847845Y-95342983D01*
X152870723Y-95331326D01*
X152961326Y-95240723D01*
X153019498Y-95126555D01*
X153039542Y-95000000D01*
X153019498Y-94873445D01*
X153006744Y-94848413D01*
X152979025Y-94794013D01*
X152961326Y-94759277D01*
X152928768Y-94726719D01*
X152911487Y-94685000D01*
X152928768Y-94643281D01*
X152981326Y-94590723D01*
X153009806Y-94534828D01*
X153037390Y-94480693D01*
X153037391Y-94480691D01*
X153039498Y-94476555D01*
X153059542Y-94350000D01*
X153039498Y-94223445D01*
X153027565Y-94200024D01*
X152993624Y-94133413D01*
X152981326Y-94109277D01*
X152890723Y-94018674D01*
X152814382Y-93979776D01*
X152780693Y-93962610D01*
X152780691Y-93962609D01*
X152776555Y-93960502D01*
X152650000Y-93940458D01*
X152523445Y-93960502D01*
X152519309Y-93962609D01*
X152519307Y-93962610D01*
X152485618Y-93979776D01*
X152409277Y-94018674D01*
X152318674Y-94109277D01*
X152306376Y-94133413D01*
X152272436Y-94200024D01*
X152260502Y-94223445D01*
X152240458Y-94350000D01*
X152260502Y-94476555D01*
X152262609Y-94480691D01*
X152262610Y-94480693D01*
X152290194Y-94534828D01*
X152318674Y-94590723D01*
X152351232Y-94623281D01*
X152368513Y-94665000D01*
X152351232Y-94706719D01*
X152298674Y-94759277D01*
X152280975Y-94794013D01*
X152253257Y-94848413D01*
X152240502Y-94873445D01*
X152220458Y-95000000D01*
X139620500Y-95000000D01*
X139620500Y-94629500D01*
X139637781Y-94587781D01*
X139679500Y-94570500D01*
X140611870Y-94570500D01*
X140613542Y-94570167D01*
X140616949Y-94570000D01*
X141138263Y-94569999D01*
X141146562Y-94566561D01*
X141150000Y-94558262D01*
X141270000Y-94558262D01*
X141273438Y-94566561D01*
X141281737Y-94569999D01*
X141792713Y-94569999D01*
X141798445Y-94569435D01*
X141865747Y-94556049D01*
X141876280Y-94551686D01*
X141952619Y-94500678D01*
X141953297Y-94500000D01*
X147090458Y-94500000D01*
X147110502Y-94626555D01*
X147112609Y-94630691D01*
X147112610Y-94630693D01*
X147135789Y-94676184D01*
X147168674Y-94740723D01*
X147259277Y-94831326D01*
X147284695Y-94844277D01*
X147369307Y-94887390D01*
X147369309Y-94887391D01*
X147373445Y-94889498D01*
X147500000Y-94909542D01*
X147626555Y-94889498D01*
X147630691Y-94887391D01*
X147630693Y-94887390D01*
X147715305Y-94844277D01*
X147740723Y-94831326D01*
X147831326Y-94740723D01*
X147864211Y-94676184D01*
X147887390Y-94630693D01*
X147887391Y-94630691D01*
X147889498Y-94626555D01*
X147909542Y-94500000D01*
X147889498Y-94373445D01*
X147887743Y-94370000D01*
X149990458Y-94370000D01*
X150010502Y-94496555D01*
X150012609Y-94500691D01*
X150012610Y-94500693D01*
X150036697Y-94547965D01*
X150068674Y-94610723D01*
X150159277Y-94701326D01*
X150209113Y-94726719D01*
X150269307Y-94757390D01*
X150269309Y-94757391D01*
X150273445Y-94759498D01*
X150400000Y-94779542D01*
X150526555Y-94759498D01*
X150530691Y-94757391D01*
X150530693Y-94757390D01*
X150590887Y-94726719D01*
X150640723Y-94701326D01*
X150731326Y-94610723D01*
X150733433Y-94606588D01*
X150733435Y-94606585D01*
X150752431Y-94569303D01*
X150786768Y-94539976D01*
X150831785Y-94543519D01*
X150857569Y-94569303D01*
X150876565Y-94606585D01*
X150876567Y-94606588D01*
X150878674Y-94610723D01*
X150969277Y-94701326D01*
X151019113Y-94726719D01*
X151079307Y-94757390D01*
X151079309Y-94757391D01*
X151083445Y-94759498D01*
X151210000Y-94779542D01*
X151336555Y-94759498D01*
X151340691Y-94757391D01*
X151340693Y-94757390D01*
X151400887Y-94726719D01*
X151450723Y-94701326D01*
X151541326Y-94610723D01*
X151573303Y-94547965D01*
X151597390Y-94500693D01*
X151597391Y-94500691D01*
X151599498Y-94496555D01*
X151619542Y-94370000D01*
X151599498Y-94243445D01*
X151589308Y-94223445D01*
X151543433Y-94133413D01*
X151541326Y-94129277D01*
X151450723Y-94038674D01*
X151394828Y-94010194D01*
X151340693Y-93982610D01*
X151340691Y-93982609D01*
X151336555Y-93980502D01*
X151210000Y-93960458D01*
X151083445Y-93980502D01*
X151079309Y-93982609D01*
X151079307Y-93982610D01*
X151025172Y-94010194D01*
X150969277Y-94038674D01*
X150878674Y-94129277D01*
X150876567Y-94133412D01*
X150876565Y-94133415D01*
X150857569Y-94170697D01*
X150823232Y-94200024D01*
X150778215Y-94196481D01*
X150752431Y-94170697D01*
X150733435Y-94133415D01*
X150733433Y-94133412D01*
X150731326Y-94129277D01*
X150640723Y-94038674D01*
X150584828Y-94010194D01*
X150530693Y-93982610D01*
X150530691Y-93982609D01*
X150526555Y-93980502D01*
X150400000Y-93960458D01*
X150273445Y-93980502D01*
X150269309Y-93982609D01*
X150269307Y-93982610D01*
X150215172Y-94010194D01*
X150159277Y-94038674D01*
X150068674Y-94129277D01*
X150066567Y-94133413D01*
X150020693Y-94223445D01*
X150010502Y-94243445D01*
X149990458Y-94370000D01*
X147887743Y-94370000D01*
X147875217Y-94345416D01*
X147833433Y-94263413D01*
X147831326Y-94259277D01*
X147740723Y-94168674D01*
X147656960Y-94125994D01*
X147630693Y-94112610D01*
X147630691Y-94112609D01*
X147626555Y-94110502D01*
X147500000Y-94090458D01*
X147373445Y-94110502D01*
X147369309Y-94112609D01*
X147369307Y-94112610D01*
X147343040Y-94125994D01*
X147259277Y-94168674D01*
X147168674Y-94259277D01*
X147166567Y-94263413D01*
X147124784Y-94345416D01*
X147110502Y-94373445D01*
X147090458Y-94500000D01*
X141953297Y-94500000D01*
X141960678Y-94492619D01*
X142011687Y-94416277D01*
X142016049Y-94405748D01*
X142029433Y-94338458D01*
X142030000Y-94332707D01*
X142030000Y-93721737D01*
X142026562Y-93713438D01*
X142018263Y-93710000D01*
X141281737Y-93710000D01*
X141273438Y-93713438D01*
X141270000Y-93721737D01*
X141270000Y-94558262D01*
X141150000Y-94558262D01*
X141150000Y-93578263D01*
X141270000Y-93578263D01*
X141273438Y-93586562D01*
X141281737Y-93590000D01*
X142018262Y-93590000D01*
X142026561Y-93586562D01*
X142029999Y-93578263D01*
X142029999Y-92967287D01*
X142029435Y-92961555D01*
X142017192Y-92900000D01*
X152590458Y-92900000D01*
X152610502Y-93026555D01*
X152668674Y-93140723D01*
X152759277Y-93231326D01*
X152815172Y-93259806D01*
X152869307Y-93287390D01*
X152869309Y-93287391D01*
X152873445Y-93289498D01*
X153000000Y-93309542D01*
X153126555Y-93289498D01*
X153130691Y-93287391D01*
X153130693Y-93287390D01*
X153184828Y-93259806D01*
X153240723Y-93231326D01*
X153331326Y-93140723D01*
X153389498Y-93026555D01*
X153409542Y-92900000D01*
X153389498Y-92773445D01*
X153384240Y-92763124D01*
X153333433Y-92663413D01*
X153331326Y-92659277D01*
X153240723Y-92568674D01*
X153184828Y-92540194D01*
X153130693Y-92512610D01*
X153130691Y-92512609D01*
X153126555Y-92510502D01*
X153000000Y-92490458D01*
X152873445Y-92510502D01*
X152869309Y-92512609D01*
X152869307Y-92512610D01*
X152815172Y-92540194D01*
X152759277Y-92568674D01*
X152668674Y-92659277D01*
X152666567Y-92663413D01*
X152615761Y-92763124D01*
X152610502Y-92773445D01*
X152590458Y-92900000D01*
X142017192Y-92900000D01*
X142016049Y-92894253D01*
X142011686Y-92883720D01*
X141960678Y-92807381D01*
X141952619Y-92799322D01*
X141876277Y-92748313D01*
X141865748Y-92743951D01*
X141798458Y-92730567D01*
X141792707Y-92730000D01*
X141281737Y-92730000D01*
X141273438Y-92733438D01*
X141270000Y-92741737D01*
X141270000Y-93578263D01*
X141150000Y-93578263D01*
X141150000Y-92741737D01*
X141146562Y-92733438D01*
X141138263Y-92730000D01*
X140616949Y-92730000D01*
X140613542Y-92729833D01*
X140611870Y-92729500D01*
X139679500Y-92729500D01*
X139637781Y-92712219D01*
X139620500Y-92670500D01*
X139620500Y-92225000D01*
X153590458Y-92225000D01*
X153610502Y-92351555D01*
X153668674Y-92465723D01*
X153759277Y-92556326D01*
X153815172Y-92584806D01*
X153869307Y-92612390D01*
X153869309Y-92612391D01*
X153873445Y-92614498D01*
X154000000Y-92634542D01*
X154126555Y-92614498D01*
X154130691Y-92612391D01*
X154130693Y-92612390D01*
X154184828Y-92584806D01*
X154240723Y-92556326D01*
X154331326Y-92465723D01*
X154389498Y-92351555D01*
X154409542Y-92225000D01*
X154389498Y-92098445D01*
X154384941Y-92089500D01*
X154354877Y-92030499D01*
X154331326Y-91984277D01*
X154240723Y-91893674D01*
X154184828Y-91865194D01*
X154130693Y-91837610D01*
X154130691Y-91837609D01*
X154126555Y-91835502D01*
X154000000Y-91815458D01*
X153873445Y-91835502D01*
X153869309Y-91837609D01*
X153869307Y-91837610D01*
X153815172Y-91865194D01*
X153759277Y-91893674D01*
X153668674Y-91984277D01*
X153645123Y-92030499D01*
X153615060Y-92089500D01*
X153610502Y-92098445D01*
X153590458Y-92225000D01*
X139620500Y-92225000D01*
X139620500Y-92089500D01*
X139637781Y-92047781D01*
X139679500Y-92030500D01*
X140611871Y-92030500D01*
X141300046Y-92030499D01*
X141304903Y-92030220D01*
X141307334Y-92029659D01*
X141307339Y-92029658D01*
X141481049Y-91989553D01*
X141484263Y-91988811D01*
X141557942Y-91953193D01*
X141647018Y-91910133D01*
X141647020Y-91910132D01*
X141649992Y-91908695D01*
X141652568Y-91906638D01*
X141652572Y-91906636D01*
X141791279Y-91795906D01*
X141793852Y-91793852D01*
X141821506Y-91759211D01*
X141906636Y-91652572D01*
X141906638Y-91652568D01*
X141908695Y-91649992D01*
X141988811Y-91484263D01*
X142030220Y-91304903D01*
X142030500Y-91300047D01*
X142030499Y-90919954D01*
X142030220Y-90915097D01*
X142017976Y-90862060D01*
X141989553Y-90738951D01*
X141988811Y-90735737D01*
X141934546Y-90623484D01*
X141910133Y-90572982D01*
X141910132Y-90572980D01*
X141908695Y-90570008D01*
X141906638Y-90567432D01*
X141906636Y-90567428D01*
X141795906Y-90428721D01*
X141793852Y-90426148D01*
X141787264Y-90420889D01*
X141652572Y-90313364D01*
X141652568Y-90313362D01*
X141649992Y-90311305D01*
X141647020Y-90309868D01*
X141647018Y-90309867D01*
X141550032Y-90262983D01*
X141484263Y-90231189D01*
X141304903Y-90189780D01*
X141302416Y-90189637D01*
X141302412Y-90189636D01*
X141300884Y-90189548D01*
X141300875Y-90189548D01*
X141300047Y-90189500D01*
X139679500Y-90189500D01*
X139637781Y-90172219D01*
X139620500Y-90130500D01*
X139620500Y-89550000D01*
X146603706Y-89550000D01*
X146623750Y-89676555D01*
X146681922Y-89790723D01*
X146772525Y-89881326D01*
X146828420Y-89909806D01*
X146882555Y-89937390D01*
X146882557Y-89937391D01*
X146886693Y-89939498D01*
X147013248Y-89959542D01*
X147139803Y-89939498D01*
X147143939Y-89937391D01*
X147143941Y-89937390D01*
X147198076Y-89909806D01*
X147253971Y-89881326D01*
X147344574Y-89790723D01*
X147402746Y-89676555D01*
X147422790Y-89550000D01*
X147402746Y-89423445D01*
X147389051Y-89396566D01*
X147373054Y-89365172D01*
X147344574Y-89309277D01*
X147253971Y-89218674D01*
X147182784Y-89182402D01*
X147143941Y-89162610D01*
X147143939Y-89162609D01*
X147139803Y-89160502D01*
X147018823Y-89141341D01*
X147017832Y-89141184D01*
X147013248Y-89140458D01*
X147008664Y-89141184D01*
X147007673Y-89141341D01*
X146886693Y-89160502D01*
X146882557Y-89162609D01*
X146882555Y-89162610D01*
X146843712Y-89182402D01*
X146772525Y-89218674D01*
X146681922Y-89309277D01*
X146653442Y-89365172D01*
X146637446Y-89396566D01*
X146623750Y-89423445D01*
X146603706Y-89550000D01*
X139620500Y-89550000D01*
X139620500Y-89549500D01*
X139637781Y-89507781D01*
X139679500Y-89490500D01*
X140611871Y-89490500D01*
X141300046Y-89490499D01*
X141304903Y-89490220D01*
X141307334Y-89489659D01*
X141307339Y-89489658D01*
X141481049Y-89449553D01*
X141484263Y-89448811D01*
X141592338Y-89396566D01*
X141647018Y-89370133D01*
X141647020Y-89370132D01*
X141649992Y-89368695D01*
X141652568Y-89366638D01*
X141652572Y-89366636D01*
X141791279Y-89255906D01*
X141793852Y-89253852D01*
X141821506Y-89219211D01*
X141906636Y-89112572D01*
X141906638Y-89112568D01*
X141908695Y-89109992D01*
X141988811Y-88944263D01*
X142030220Y-88764903D01*
X142030500Y-88760047D01*
X142030499Y-88379954D01*
X142030220Y-88375097D01*
X142026851Y-88360502D01*
X141989553Y-88198951D01*
X141988811Y-88195737D01*
X141908695Y-88030008D01*
X141906638Y-88027432D01*
X141906636Y-88027428D01*
X141795906Y-87888721D01*
X141793852Y-87886148D01*
X141787264Y-87880889D01*
X141652572Y-87773364D01*
X141652568Y-87773362D01*
X141649992Y-87771305D01*
X141647020Y-87769868D01*
X141647018Y-87769867D01*
X141550032Y-87722983D01*
X141484263Y-87691189D01*
X141304903Y-87649780D01*
X141302416Y-87649637D01*
X141302412Y-87649636D01*
X141300884Y-87649548D01*
X141300875Y-87649548D01*
X141300047Y-87649500D01*
X139679500Y-87649500D01*
X139637781Y-87632219D01*
X139620500Y-87590500D01*
X139620500Y-87009500D01*
X139637781Y-86967781D01*
X139679500Y-86950500D01*
X140611871Y-86950500D01*
X141300046Y-86950499D01*
X141304903Y-86950220D01*
X141307334Y-86949659D01*
X141307339Y-86949658D01*
X141481049Y-86909553D01*
X141484263Y-86908811D01*
X141557942Y-86873193D01*
X141647018Y-86830133D01*
X141647020Y-86830132D01*
X141649992Y-86828695D01*
X141652568Y-86826638D01*
X141652572Y-86826636D01*
X141791279Y-86715906D01*
X141793852Y-86713852D01*
X141821506Y-86679211D01*
X141906636Y-86572572D01*
X141906638Y-86572568D01*
X141908695Y-86569992D01*
X141988811Y-86404263D01*
X142030220Y-86224903D01*
X142030500Y-86220047D01*
X142030499Y-85839954D01*
X142030220Y-85835097D01*
X141988811Y-85655737D01*
X141908695Y-85490008D01*
X141906638Y-85487432D01*
X141906636Y-85487428D01*
X141795906Y-85348721D01*
X141793852Y-85346148D01*
X141787264Y-85340889D01*
X141652572Y-85233364D01*
X141652568Y-85233362D01*
X141649992Y-85231305D01*
X141647020Y-85229868D01*
X141647018Y-85229867D01*
X141550032Y-85182983D01*
X141484263Y-85151189D01*
X141304903Y-85109780D01*
X141302416Y-85109637D01*
X141302412Y-85109636D01*
X141300884Y-85109548D01*
X141300875Y-85109548D01*
X141300047Y-85109500D01*
X139679500Y-85109500D01*
X139637781Y-85092219D01*
X139620500Y-85050500D01*
X139620500Y-84550000D01*
X145340458Y-84550000D01*
X145360502Y-84676555D01*
X145362609Y-84680691D01*
X145362610Y-84680693D01*
X145376743Y-84708430D01*
X145418674Y-84790723D01*
X145509277Y-84881326D01*
X145565172Y-84909806D01*
X145619307Y-84937390D01*
X145619309Y-84937391D01*
X145623445Y-84939498D01*
X145750000Y-84959542D01*
X145876555Y-84939498D01*
X145880691Y-84937391D01*
X145880693Y-84937390D01*
X145934828Y-84909806D01*
X145990723Y-84881326D01*
X146081326Y-84790723D01*
X146100693Y-84752714D01*
X146135031Y-84723387D01*
X146153262Y-84720500D01*
X149004938Y-84720500D01*
X149046657Y-84737781D01*
X155129217Y-90820341D01*
X155146498Y-90862060D01*
X155146498Y-93563627D01*
X155129217Y-93605346D01*
X155087498Y-93622627D01*
X155045779Y-93605346D01*
X155034929Y-93590413D01*
X155008433Y-93538413D01*
X155006326Y-93534277D01*
X154915723Y-93443674D01*
X154859828Y-93415194D01*
X154805693Y-93387610D01*
X154805691Y-93387609D01*
X154801555Y-93385502D01*
X154675000Y-93365458D01*
X154548445Y-93385502D01*
X154544309Y-93387609D01*
X154544307Y-93387610D01*
X154490172Y-93415194D01*
X154434277Y-93443674D01*
X154343674Y-93534277D01*
X154285502Y-93648445D01*
X154265458Y-93775000D01*
X154285502Y-93901555D01*
X154287609Y-93905691D01*
X154287610Y-93905693D01*
X154301934Y-93933804D01*
X154343674Y-94015723D01*
X154434277Y-94106326D01*
X154487438Y-94133413D01*
X154544307Y-94162390D01*
X154544309Y-94162391D01*
X154548445Y-94164498D01*
X154675000Y-94184542D01*
X154801555Y-94164498D01*
X154805691Y-94162391D01*
X154805693Y-94162390D01*
X154862562Y-94133413D01*
X154915723Y-94106326D01*
X155006326Y-94015723D01*
X155034929Y-93959587D01*
X155069266Y-93930261D01*
X155114284Y-93933804D01*
X155143610Y-93968141D01*
X155146498Y-93986373D01*
X155146498Y-95507941D01*
X155129217Y-95549660D01*
X154489905Y-96188972D01*
X154481349Y-96196050D01*
X154464502Y-96207499D01*
X154447538Y-96239135D01*
X154446035Y-96241770D01*
X154427433Y-96272487D01*
X154427138Y-96277182D01*
X154424914Y-96281329D01*
X154424500Y-96284606D01*
X154424500Y-96317237D01*
X154424384Y-96320942D01*
X154422172Y-96356096D01*
X154424125Y-96360483D01*
X154424500Y-96364686D01*
X154424500Y-96671738D01*
X154407219Y-96713457D01*
X154392285Y-96724307D01*
X154354277Y-96743674D01*
X154263674Y-96834277D01*
X154205502Y-96948445D01*
X154185458Y-97075000D01*
X154205502Y-97201555D01*
X154207609Y-97205691D01*
X154207610Y-97205693D01*
X154226964Y-97243677D01*
X154263674Y-97315723D01*
X154354277Y-97406326D01*
X154410172Y-97434806D01*
X154464307Y-97462390D01*
X154464309Y-97462391D01*
X154468445Y-97464498D01*
X154488690Y-97467704D01*
X154527191Y-97491298D01*
X154537734Y-97535207D01*
X154521179Y-97567697D01*
X154484906Y-97603970D01*
X154476351Y-97611048D01*
X154459502Y-97622499D01*
X154442538Y-97654135D01*
X154441035Y-97656770D01*
X154422433Y-97687487D01*
X154422138Y-97692182D01*
X154419914Y-97696329D01*
X154419500Y-97699606D01*
X154419500Y-97732237D01*
X154419384Y-97735942D01*
X154417172Y-97771096D01*
X154419125Y-97775483D01*
X154419500Y-97779686D01*
X154419500Y-99644938D01*
X154402219Y-99686657D01*
X154080510Y-100008366D01*
X154038791Y-100025647D01*
X153997072Y-100008366D01*
X153968507Y-99979801D01*
X153881682Y-99935561D01*
X153858477Y-99923737D01*
X153858475Y-99923736D01*
X153854339Y-99921629D01*
X153727784Y-99901585D01*
X153601229Y-99921629D01*
X153597093Y-99923736D01*
X153597091Y-99923737D01*
X153573886Y-99935561D01*
X153487061Y-99979801D01*
X153396458Y-100070404D01*
X153338286Y-100184572D01*
X153318242Y-100311127D01*
X153338286Y-100437682D01*
X153340393Y-100441818D01*
X153340394Y-100441820D01*
X153350817Y-100462276D01*
X153396458Y-100551850D01*
X153487061Y-100642453D01*
X153535039Y-100666899D01*
X153597091Y-100698517D01*
X153597093Y-100698518D01*
X153601229Y-100700625D01*
X153727784Y-100720669D01*
X153854339Y-100700625D01*
X153858475Y-100698518D01*
X153858477Y-100698517D01*
X153920529Y-100666899D01*
X153968507Y-100642453D01*
X154059110Y-100551850D01*
X154096665Y-100478145D01*
X154110048Y-100460891D01*
X154110872Y-100460252D01*
X154133952Y-100437172D01*
X154136654Y-100434634D01*
X154157713Y-100416068D01*
X154163069Y-100411346D01*
X154164789Y-100406865D01*
X154167493Y-100403631D01*
X154618282Y-99952842D01*
X154660001Y-99935561D01*
X154701720Y-99952842D01*
X154719001Y-99994561D01*
X154719001Y-110015437D01*
X154701720Y-110057156D01*
X154506648Y-110252228D01*
X154464929Y-110269509D01*
X154455704Y-110268783D01*
X154340000Y-110250458D01*
X154213445Y-110270502D01*
X154209309Y-110272609D01*
X154209307Y-110272610D01*
X154198990Y-110277867D01*
X154099277Y-110328674D01*
X154008674Y-110419277D01*
X154006567Y-110423413D01*
X153957867Y-110518991D01*
X153950502Y-110533445D01*
X153930458Y-110660000D01*
X153950502Y-110786555D01*
X153952609Y-110790691D01*
X153952610Y-110790693D01*
X153972266Y-110829269D01*
X154008674Y-110900723D01*
X154099277Y-110991326D01*
X154108262Y-110995904D01*
X154209307Y-111047390D01*
X154209309Y-111047391D01*
X154213445Y-111049498D01*
X154340000Y-111069542D01*
X154466555Y-111049498D01*
X154466760Y-111050794D01*
X154506507Y-111053917D01*
X154532297Y-111079704D01*
X154578674Y-111170723D01*
X154669277Y-111261326D01*
X154725172Y-111289806D01*
X154779307Y-111317390D01*
X154779309Y-111317391D01*
X154783445Y-111319498D01*
X154910000Y-111339542D01*
X155036555Y-111319498D01*
X155040693Y-111317389D01*
X155045108Y-111315955D01*
X155046004Y-111318714D01*
X155081693Y-111315943D01*
X155116000Y-111345306D01*
X155119495Y-111390327D01*
X155105121Y-111413755D01*
X155031648Y-111487228D01*
X154989929Y-111504509D01*
X154980704Y-111503783D01*
X154865000Y-111485458D01*
X154738445Y-111505502D01*
X154734309Y-111507609D01*
X154734307Y-111507610D01*
X154723990Y-111512867D01*
X154624277Y-111563674D01*
X154533674Y-111654277D01*
X154531567Y-111658413D01*
X154482867Y-111753991D01*
X154475502Y-111768445D01*
X154455458Y-111895000D01*
X154475502Y-112021555D01*
X154533674Y-112135723D01*
X154624277Y-112226326D01*
X154650674Y-112239776D01*
X154734307Y-112282390D01*
X154734309Y-112282391D01*
X154738445Y-112284498D01*
X154865000Y-112304542D01*
X154991555Y-112284498D01*
X154995691Y-112282391D01*
X154995693Y-112282390D01*
X155079326Y-112239776D01*
X155105723Y-112226326D01*
X155196326Y-112135723D01*
X155254498Y-112021555D01*
X155274542Y-111895000D01*
X155256217Y-111779300D01*
X155266759Y-111735392D01*
X155272772Y-111728352D01*
X156075094Y-110926030D01*
X156083650Y-110918951D01*
X156094593Y-110911514D01*
X156100498Y-110907501D01*
X156117462Y-110875865D01*
X156118970Y-110873221D01*
X156133869Y-110848619D01*
X156137567Y-110842513D01*
X156137862Y-110837818D01*
X156140086Y-110833671D01*
X156140500Y-110830394D01*
X156140500Y-110797763D01*
X156140616Y-110794058D01*
X156142380Y-110766029D01*
X156142380Y-110766028D01*
X156142828Y-110758904D01*
X156140875Y-110754517D01*
X156140500Y-110750314D01*
X156140500Y-110413262D01*
X156157781Y-110371543D01*
X156172714Y-110360693D01*
X156180335Y-110356810D01*
X156210723Y-110341326D01*
X156301326Y-110250723D01*
X156359498Y-110136555D01*
X156379542Y-110010000D01*
X156359498Y-109883445D01*
X156301326Y-109769277D01*
X156210723Y-109678674D01*
X156154828Y-109650194D01*
X156100693Y-109622610D01*
X156100691Y-109622609D01*
X156096555Y-109620502D01*
X155970000Y-109600458D01*
X155843445Y-109620502D01*
X155839309Y-109622609D01*
X155839307Y-109622610D01*
X155785172Y-109650194D01*
X155729277Y-109678674D01*
X155638674Y-109769277D01*
X155581412Y-109881659D01*
X155581411Y-109881660D01*
X155580502Y-109883445D01*
X155580074Y-109883227D01*
X155552785Y-109915178D01*
X155507768Y-109918720D01*
X155473430Y-109889393D01*
X155467000Y-109862608D01*
X155467000Y-98638562D01*
X155484281Y-98596843D01*
X156510094Y-97571030D01*
X156518650Y-97563951D01*
X156529593Y-97556514D01*
X156535498Y-97552501D01*
X156552461Y-97520867D01*
X156553969Y-97518223D01*
X156568871Y-97493616D01*
X156572568Y-97487512D01*
X156572863Y-97482816D01*
X156575086Y-97478671D01*
X156575500Y-97475394D01*
X156575500Y-97442767D01*
X156575616Y-97439062D01*
X156577380Y-97411028D01*
X156577380Y-97411027D01*
X156577828Y-97403903D01*
X156575875Y-97399516D01*
X156575500Y-97395313D01*
X156575500Y-95488262D01*
X156592781Y-95446543D01*
X156607714Y-95435693D01*
X156615335Y-95431810D01*
X156645723Y-95416326D01*
X156736326Y-95325723D01*
X156769500Y-95260616D01*
X156792390Y-95215693D01*
X156792391Y-95215691D01*
X156794498Y-95211555D01*
X156814542Y-95085000D01*
X156794498Y-94958445D01*
X156769581Y-94909542D01*
X156758293Y-94887390D01*
X156736326Y-94844277D01*
X156645723Y-94753674D01*
X156589828Y-94725194D01*
X156535693Y-94697610D01*
X156535691Y-94697609D01*
X156531555Y-94695502D01*
X156405000Y-94675458D01*
X156278445Y-94695502D01*
X156274309Y-94697609D01*
X156274307Y-94697610D01*
X156220172Y-94725194D01*
X156164277Y-94753674D01*
X156141219Y-94776732D01*
X156099500Y-94794013D01*
X156057781Y-94776732D01*
X156040500Y-94735013D01*
X156040500Y-90691876D01*
X156041545Y-90680821D01*
X156044024Y-90667823D01*
X156045362Y-90660810D01*
X156034986Y-90626444D01*
X156034177Y-90623484D01*
X156027324Y-90595580D01*
X156027323Y-90595578D01*
X156025620Y-90588644D01*
X156022509Y-90585115D01*
X156021149Y-90580611D01*
X156019125Y-90578001D01*
X155996045Y-90554921D01*
X155993507Y-90552219D01*
X155974941Y-90531160D01*
X155970219Y-90525804D01*
X155965738Y-90524084D01*
X155962504Y-90521380D01*
X155171123Y-89729999D01*
X156320457Y-89729999D01*
X156340501Y-89856554D01*
X156342608Y-89860690D01*
X156342609Y-89860692D01*
X156370193Y-89914827D01*
X156398673Y-89970722D01*
X156489276Y-90061325D01*
X156545171Y-90089805D01*
X156599306Y-90117389D01*
X156599308Y-90117390D01*
X156603444Y-90119497D01*
X156729999Y-90139541D01*
X156856554Y-90119497D01*
X156860690Y-90117390D01*
X156860692Y-90117389D01*
X156914827Y-90089805D01*
X156970722Y-90061325D01*
X157061325Y-89970722D01*
X157089805Y-89914827D01*
X157117389Y-89860692D01*
X157117390Y-89860690D01*
X157119497Y-89856554D01*
X157139541Y-89729999D01*
X157119497Y-89603444D01*
X157061325Y-89489276D01*
X156970722Y-89398673D01*
X156907846Y-89366636D01*
X156860692Y-89342609D01*
X156860690Y-89342608D01*
X156856554Y-89340501D01*
X156729999Y-89320457D01*
X156603444Y-89340501D01*
X156599308Y-89342608D01*
X156599306Y-89342609D01*
X156552152Y-89366636D01*
X156489276Y-89398673D01*
X156398673Y-89489276D01*
X156340501Y-89603444D01*
X156320457Y-89729999D01*
X155171123Y-89729999D01*
X154357772Y-88916648D01*
X154340491Y-88874929D01*
X154341217Y-88865699D01*
X154357182Y-88764903D01*
X154359542Y-88750000D01*
X154339498Y-88623445D01*
X154281326Y-88509277D01*
X154190723Y-88418674D01*
X154134828Y-88390194D01*
X154080693Y-88362610D01*
X154080691Y-88362609D01*
X154076555Y-88360502D01*
X153950000Y-88340458D01*
X153823445Y-88360502D01*
X153819309Y-88362609D01*
X153819307Y-88362610D01*
X153765172Y-88390194D01*
X153709277Y-88418674D01*
X153618674Y-88509277D01*
X153560502Y-88623445D01*
X153559776Y-88628029D01*
X153559775Y-88628032D01*
X153558663Y-88635056D01*
X153535069Y-88673559D01*
X153491160Y-88684101D01*
X153458670Y-88667546D01*
X152141124Y-87350000D01*
X155580458Y-87350000D01*
X155600502Y-87476555D01*
X155658674Y-87590723D01*
X155749277Y-87681326D01*
X155805172Y-87709806D01*
X155859307Y-87737390D01*
X155859309Y-87737391D01*
X155863445Y-87739498D01*
X155990000Y-87759542D01*
X156116555Y-87739498D01*
X156120691Y-87737391D01*
X156120693Y-87737390D01*
X156174828Y-87709806D01*
X156230723Y-87681326D01*
X156321326Y-87590723D01*
X156379498Y-87476555D01*
X156399542Y-87350000D01*
X156379498Y-87223445D01*
X156321326Y-87109277D01*
X156230723Y-87018674D01*
X156130841Y-86967781D01*
X156120693Y-86962610D01*
X156120691Y-86962609D01*
X156116555Y-86960502D01*
X155990000Y-86940458D01*
X155863445Y-86960502D01*
X155859309Y-86962609D01*
X155859307Y-86962610D01*
X155849159Y-86967781D01*
X155749277Y-87018674D01*
X155658674Y-87109277D01*
X155600502Y-87223445D01*
X155580458Y-87350000D01*
X152141124Y-87350000D01*
X149236030Y-84444906D01*
X149228951Y-84436350D01*
X149221514Y-84425407D01*
X149217501Y-84419502D01*
X149185865Y-84402538D01*
X149183230Y-84401035D01*
X149152513Y-84382433D01*
X149147818Y-84382138D01*
X149143671Y-84379914D01*
X149140394Y-84379500D01*
X149107763Y-84379500D01*
X149104058Y-84379384D01*
X149076029Y-84377620D01*
X149076028Y-84377620D01*
X149068904Y-84377172D01*
X149064517Y-84379125D01*
X149060314Y-84379500D01*
X146153262Y-84379500D01*
X146111543Y-84362219D01*
X146100693Y-84347286D01*
X146083433Y-84313413D01*
X146081326Y-84309277D01*
X145990723Y-84218674D01*
X145897706Y-84171279D01*
X145880693Y-84162610D01*
X145880691Y-84162609D01*
X145876555Y-84160502D01*
X145750000Y-84140458D01*
X145623445Y-84160502D01*
X145619309Y-84162609D01*
X145619307Y-84162610D01*
X145602294Y-84171279D01*
X145509277Y-84218674D01*
X145418674Y-84309277D01*
X145416567Y-84313413D01*
X145367098Y-84410500D01*
X145360502Y-84423445D01*
X145340458Y-84550000D01*
X139620500Y-84550000D01*
X139620500Y-84469500D01*
X139637781Y-84427781D01*
X139679500Y-84410500D01*
X140611871Y-84410500D01*
X141300046Y-84410499D01*
X141304903Y-84410220D01*
X141307334Y-84409659D01*
X141307339Y-84409658D01*
X141481049Y-84369553D01*
X141484263Y-84368811D01*
X141614207Y-84305994D01*
X141647018Y-84290133D01*
X141647020Y-84290132D01*
X141649992Y-84288695D01*
X141652568Y-84286638D01*
X141652572Y-84286636D01*
X141791279Y-84175906D01*
X141793852Y-84173852D01*
X141820510Y-84140458D01*
X141906636Y-84032572D01*
X141906638Y-84032568D01*
X141908695Y-84029992D01*
X141988811Y-83864263D01*
X142030220Y-83684903D01*
X142030500Y-83680047D01*
X142030499Y-83299954D01*
X142030220Y-83295097D01*
X141992897Y-83133433D01*
X141989553Y-83118951D01*
X141988811Y-83115737D01*
X141908695Y-82950008D01*
X141906638Y-82947432D01*
X141906636Y-82947428D01*
X141795906Y-82808721D01*
X141793852Y-82806148D01*
X141780408Y-82795416D01*
X141652572Y-82693364D01*
X141652568Y-82693362D01*
X141649992Y-82691305D01*
X141647020Y-82689868D01*
X141647018Y-82689867D01*
X141550032Y-82642983D01*
X141484263Y-82611189D01*
X141304903Y-82569780D01*
X141302416Y-82569637D01*
X141302412Y-82569636D01*
X141300884Y-82569548D01*
X141300875Y-82569548D01*
X141300047Y-82569500D01*
X139679500Y-82569500D01*
X139637781Y-82552219D01*
X139620500Y-82510500D01*
X139620500Y-81929500D01*
X139637781Y-81887781D01*
X139679500Y-81870500D01*
X140611870Y-81870500D01*
X140613542Y-81870167D01*
X140616949Y-81870000D01*
X141138263Y-81869999D01*
X141146562Y-81866561D01*
X141150000Y-81858262D01*
X141270000Y-81858262D01*
X141273438Y-81866561D01*
X141281737Y-81869999D01*
X141792713Y-81869999D01*
X141798445Y-81869435D01*
X141865747Y-81856049D01*
X141876280Y-81851686D01*
X141952619Y-81800678D01*
X141960678Y-81792619D01*
X142011687Y-81716277D01*
X142016049Y-81705748D01*
X142029433Y-81638458D01*
X142030000Y-81632707D01*
X142030000Y-81021737D01*
X142026562Y-81013438D01*
X142018263Y-81010000D01*
X141281737Y-81010000D01*
X141273438Y-81013438D01*
X141270000Y-81021737D01*
X141270000Y-81858262D01*
X141150000Y-81858262D01*
X141150000Y-80878263D01*
X141270000Y-80878263D01*
X141273438Y-80886562D01*
X141281737Y-80890000D01*
X142018262Y-80890000D01*
X142026561Y-80886562D01*
X142029999Y-80878263D01*
X142029999Y-80267287D01*
X142029435Y-80261555D01*
X142016049Y-80194253D01*
X142011686Y-80183720D01*
X141960678Y-80107381D01*
X141952619Y-80099322D01*
X141876277Y-80048313D01*
X141865748Y-80043951D01*
X141798458Y-80030567D01*
X141792707Y-80030000D01*
X141281737Y-80030000D01*
X141273438Y-80033438D01*
X141270000Y-80041737D01*
X141270000Y-80878263D01*
X141150000Y-80878263D01*
X141150000Y-80041737D01*
X141146562Y-80033438D01*
X141138263Y-80030000D01*
X140616949Y-80030000D01*
X140613542Y-80029833D01*
X140611870Y-80029500D01*
X139679500Y-80029500D01*
X139637781Y-80012219D01*
X139620500Y-79970500D01*
X139620500Y-79675000D01*
X144190458Y-79675000D01*
X144210502Y-79801555D01*
X144268674Y-79915723D01*
X144359277Y-80006326D01*
X144389665Y-80021810D01*
X144397286Y-80025693D01*
X144426613Y-80060031D01*
X144429500Y-80078262D01*
X144429500Y-81978124D01*
X144428455Y-81989179D01*
X144424638Y-82009190D01*
X144435014Y-82043556D01*
X144435822Y-82046512D01*
X144444380Y-82081356D01*
X144447491Y-82084885D01*
X144448851Y-82089389D01*
X144450875Y-82091999D01*
X144473955Y-82115079D01*
X144476492Y-82117780D01*
X144499781Y-82144196D01*
X144504263Y-82145916D01*
X144507497Y-82148620D01*
X144863968Y-82505091D01*
X144871047Y-82513647D01*
X144878486Y-82524594D01*
X144878488Y-82524595D01*
X144882499Y-82530498D01*
X144888790Y-82533871D01*
X144888791Y-82533872D01*
X144914117Y-82547451D01*
X144916777Y-82548968D01*
X144947487Y-82567567D01*
X144952182Y-82567862D01*
X144956329Y-82570086D01*
X144959606Y-82570500D01*
X144992247Y-82570500D01*
X144995952Y-82570616D01*
X145023971Y-82572379D01*
X145023972Y-82572379D01*
X145031096Y-82572827D01*
X145035482Y-82570875D01*
X145039680Y-82570500D01*
X151404938Y-82570500D01*
X151446657Y-82587781D01*
X151492228Y-82633352D01*
X151509509Y-82675071D01*
X151508783Y-82684296D01*
X151490458Y-82800000D01*
X151510502Y-82926555D01*
X151568674Y-83040723D01*
X151659277Y-83131326D01*
X151715172Y-83159806D01*
X151769307Y-83187390D01*
X151769309Y-83187391D01*
X151773445Y-83189498D01*
X151900000Y-83209542D01*
X152026555Y-83189498D01*
X152030691Y-83187391D01*
X152030693Y-83187390D01*
X152084828Y-83159806D01*
X152140723Y-83131326D01*
X152231326Y-83040723D01*
X152289498Y-82926555D01*
X152309542Y-82800000D01*
X152289498Y-82673445D01*
X152282134Y-82658991D01*
X152253667Y-82603124D01*
X152231326Y-82559277D01*
X152140723Y-82468674D01*
X152041010Y-82417867D01*
X152030693Y-82412610D01*
X152030691Y-82412609D01*
X152026555Y-82410502D01*
X151900000Y-82390458D01*
X151784300Y-82408783D01*
X151740392Y-82398241D01*
X151733352Y-82392228D01*
X151636030Y-82294906D01*
X151628952Y-82286351D01*
X151621514Y-82275407D01*
X151617501Y-82269502D01*
X151585865Y-82252538D01*
X151583230Y-82251035D01*
X151552513Y-82232433D01*
X151547818Y-82232138D01*
X151543671Y-82229914D01*
X151540394Y-82229500D01*
X151507763Y-82229500D01*
X151504058Y-82229384D01*
X151476029Y-82227620D01*
X151476028Y-82227620D01*
X151468904Y-82227172D01*
X151464517Y-82229125D01*
X151460314Y-82229500D01*
X146127366Y-82229500D01*
X146085647Y-82212219D01*
X146068366Y-82170500D01*
X146084357Y-82130112D01*
X146183035Y-82025030D01*
X146187366Y-82019069D01*
X146259254Y-81888306D01*
X146261967Y-81881453D01*
X146299076Y-81736925D01*
X146300000Y-81729608D01*
X146300000Y-81692152D01*
X153700000Y-81692152D01*
X153700233Y-81695852D01*
X153714240Y-81806733D01*
X153716071Y-81813863D01*
X153771004Y-81952608D01*
X153774554Y-81959066D01*
X153862266Y-82079790D01*
X153867306Y-82085159D01*
X153982289Y-82180280D01*
X153988502Y-82184223D01*
X154123532Y-82247763D01*
X154130529Y-82250037D01*
X154248473Y-82272536D01*
X154257268Y-82270715D01*
X154260000Y-82266555D01*
X154260000Y-82260714D01*
X154380000Y-82260714D01*
X154383020Y-82268004D01*
X154392677Y-82271654D01*
X154433400Y-82269092D01*
X154440628Y-82267713D01*
X154582547Y-82221600D01*
X154589218Y-82218461D01*
X154715206Y-82138507D01*
X154720889Y-82133805D01*
X154823035Y-82025030D01*
X154827366Y-82019069D01*
X154899254Y-81888306D01*
X154901967Y-81881453D01*
X154939076Y-81736925D01*
X154940000Y-81729608D01*
X154940000Y-81632713D01*
X157970001Y-81632713D01*
X157970565Y-81638445D01*
X157983951Y-81705747D01*
X157988314Y-81716280D01*
X158039322Y-81792619D01*
X158047381Y-81800678D01*
X158123723Y-81851687D01*
X158134252Y-81856049D01*
X158201542Y-81869433D01*
X158207293Y-81870000D01*
X158718263Y-81870000D01*
X158726562Y-81866562D01*
X158730000Y-81858263D01*
X158730000Y-81021737D01*
X158726562Y-81013438D01*
X158718263Y-81010000D01*
X157981738Y-81010000D01*
X157973439Y-81013438D01*
X157970001Y-81021737D01*
X157970001Y-81632713D01*
X154940000Y-81632713D01*
X154940000Y-81176737D01*
X154936562Y-81168438D01*
X154928263Y-81165000D01*
X154391737Y-81165000D01*
X154383438Y-81168438D01*
X154380000Y-81176737D01*
X154380000Y-82260714D01*
X154260000Y-82260714D01*
X154260000Y-81176737D01*
X154256562Y-81168438D01*
X154248263Y-81165000D01*
X153711737Y-81165000D01*
X153703438Y-81168438D01*
X153700000Y-81176737D01*
X153700000Y-81692152D01*
X146300000Y-81692152D01*
X146300000Y-81176737D01*
X146296562Y-81168438D01*
X146288263Y-81165000D01*
X145071737Y-81165000D01*
X145063438Y-81168438D01*
X145060000Y-81176737D01*
X145060000Y-81692152D01*
X145060233Y-81695852D01*
X145074240Y-81806733D01*
X145076071Y-81813863D01*
X145131004Y-81952608D01*
X145134554Y-81959066D01*
X145222266Y-82079790D01*
X145227307Y-82085159D01*
X145275515Y-82125040D01*
X145296645Y-82164948D01*
X145283367Y-82208108D01*
X145243459Y-82229238D01*
X145237907Y-82229500D01*
X145095061Y-82229500D01*
X145053342Y-82212219D01*
X144787781Y-81946657D01*
X144770500Y-81904938D01*
X144770500Y-81033263D01*
X145060000Y-81033263D01*
X145063438Y-81041562D01*
X145071737Y-81045000D01*
X145608263Y-81045000D01*
X145616562Y-81041562D01*
X145620000Y-81033263D01*
X145740000Y-81033263D01*
X145743438Y-81041562D01*
X145751737Y-81045000D01*
X146288263Y-81045000D01*
X146296562Y-81041562D01*
X146300000Y-81033263D01*
X146300000Y-80605000D01*
X146525500Y-80605000D01*
X146545416Y-80756280D01*
X146546896Y-80759853D01*
X146599381Y-80886562D01*
X146603808Y-80897250D01*
X146696696Y-81018304D01*
X146699760Y-81020655D01*
X146814683Y-81108839D01*
X146814685Y-81108840D01*
X146817750Y-81111192D01*
X146821319Y-81112671D01*
X146821322Y-81112672D01*
X146947653Y-81165000D01*
X146958720Y-81169584D01*
X146962554Y-81170089D01*
X146962555Y-81170089D01*
X147070095Y-81184247D01*
X147070101Y-81184247D01*
X147072020Y-81184500D01*
X147147980Y-81184500D01*
X147149899Y-81184247D01*
X147149905Y-81184247D01*
X147257445Y-81170089D01*
X147257446Y-81170089D01*
X147261280Y-81169584D01*
X147272347Y-81165000D01*
X147398678Y-81112672D01*
X147398681Y-81112671D01*
X147402250Y-81111192D01*
X147405315Y-81108840D01*
X147405317Y-81108839D01*
X147520240Y-81020655D01*
X147523304Y-81018304D01*
X147616192Y-80897250D01*
X147620620Y-80886562D01*
X147673104Y-80759853D01*
X147674584Y-80756280D01*
X147694500Y-80605000D01*
X152305500Y-80605000D01*
X152325416Y-80756280D01*
X152326896Y-80759853D01*
X152379381Y-80886562D01*
X152383808Y-80897250D01*
X152476696Y-81018304D01*
X152479760Y-81020655D01*
X152594683Y-81108839D01*
X152594685Y-81108840D01*
X152597750Y-81111192D01*
X152601319Y-81112671D01*
X152601322Y-81112672D01*
X152727653Y-81165000D01*
X152738720Y-81169584D01*
X152742554Y-81170089D01*
X152742555Y-81170089D01*
X152850095Y-81184247D01*
X152850101Y-81184247D01*
X152852020Y-81184500D01*
X152927980Y-81184500D01*
X152929899Y-81184247D01*
X152929905Y-81184247D01*
X153037445Y-81170089D01*
X153037446Y-81170089D01*
X153041280Y-81169584D01*
X153052347Y-81165000D01*
X153178678Y-81112672D01*
X153178681Y-81112671D01*
X153182250Y-81111192D01*
X153185315Y-81108840D01*
X153185317Y-81108839D01*
X153283809Y-81033263D01*
X153700000Y-81033263D01*
X153703438Y-81041562D01*
X153711737Y-81045000D01*
X154248263Y-81045000D01*
X154256562Y-81041562D01*
X154260000Y-81033263D01*
X154380000Y-81033263D01*
X154383438Y-81041562D01*
X154391737Y-81045000D01*
X154928263Y-81045000D01*
X154936562Y-81041562D01*
X154940000Y-81033263D01*
X154940000Y-80878263D01*
X157970000Y-80878263D01*
X157973438Y-80886562D01*
X157981737Y-80890000D01*
X158718263Y-80890000D01*
X158726562Y-80886562D01*
X158730000Y-80878263D01*
X158730000Y-80041738D01*
X158726562Y-80033439D01*
X158718263Y-80030001D01*
X158207287Y-80030001D01*
X158201555Y-80030565D01*
X158134253Y-80043951D01*
X158123720Y-80048314D01*
X158047381Y-80099322D01*
X158039322Y-80107381D01*
X157988313Y-80183723D01*
X157983951Y-80194252D01*
X157970567Y-80261542D01*
X157970000Y-80267293D01*
X157970000Y-80878263D01*
X154940000Y-80878263D01*
X154940000Y-80517848D01*
X154939767Y-80514148D01*
X154925760Y-80403267D01*
X154923929Y-80396137D01*
X154868996Y-80257392D01*
X154865446Y-80250934D01*
X154777734Y-80130210D01*
X154772694Y-80124841D01*
X154657711Y-80029720D01*
X154651498Y-80025777D01*
X154516468Y-79962237D01*
X154509471Y-79959963D01*
X154391527Y-79937464D01*
X154382732Y-79939285D01*
X154380000Y-79943445D01*
X154380000Y-81033263D01*
X154260000Y-81033263D01*
X154260000Y-79949286D01*
X154256980Y-79941996D01*
X154247323Y-79938346D01*
X154206600Y-79940908D01*
X154199372Y-79942287D01*
X154057453Y-79988400D01*
X154050782Y-79991539D01*
X153924794Y-80071493D01*
X153919111Y-80076195D01*
X153816965Y-80184970D01*
X153812634Y-80190931D01*
X153740746Y-80321694D01*
X153738033Y-80328547D01*
X153700924Y-80473075D01*
X153700000Y-80480392D01*
X153700000Y-81033263D01*
X153283809Y-81033263D01*
X153300240Y-81020655D01*
X153303304Y-81018304D01*
X153396192Y-80897250D01*
X153400620Y-80886562D01*
X153453104Y-80759853D01*
X153454584Y-80756280D01*
X153474500Y-80605000D01*
X153473995Y-80601164D01*
X153455089Y-80457555D01*
X153455089Y-80457554D01*
X153454584Y-80453720D01*
X153430732Y-80396137D01*
X153397672Y-80316322D01*
X153397671Y-80316319D01*
X153396192Y-80312750D01*
X153303304Y-80191696D01*
X153278801Y-80172894D01*
X153185317Y-80101161D01*
X153185315Y-80101160D01*
X153182250Y-80098808D01*
X153178681Y-80097329D01*
X153178678Y-80097328D01*
X153044853Y-80041896D01*
X153041280Y-80040416D01*
X153037446Y-80039911D01*
X153037445Y-80039911D01*
X152929905Y-80025753D01*
X152929899Y-80025753D01*
X152927980Y-80025500D01*
X152852020Y-80025500D01*
X152850101Y-80025753D01*
X152850095Y-80025753D01*
X152742555Y-80039911D01*
X152742554Y-80039911D01*
X152738720Y-80040416D01*
X152735147Y-80041896D01*
X152601322Y-80097328D01*
X152601319Y-80097329D01*
X152597750Y-80098808D01*
X152594685Y-80101160D01*
X152594683Y-80101161D01*
X152501199Y-80172894D01*
X152476696Y-80191696D01*
X152383808Y-80312750D01*
X152382329Y-80316319D01*
X152382328Y-80316322D01*
X152349268Y-80396137D01*
X152325416Y-80453720D01*
X152324911Y-80457554D01*
X152324911Y-80457555D01*
X152306005Y-80601164D01*
X152305500Y-80605000D01*
X147694500Y-80605000D01*
X147693995Y-80601164D01*
X147675089Y-80457555D01*
X147675089Y-80457554D01*
X147674584Y-80453720D01*
X147650732Y-80396137D01*
X147617672Y-80316322D01*
X147617671Y-80316319D01*
X147616192Y-80312750D01*
X147523304Y-80191696D01*
X147498801Y-80172894D01*
X147405317Y-80101161D01*
X147405315Y-80101160D01*
X147402250Y-80098808D01*
X147398681Y-80097329D01*
X147398678Y-80097328D01*
X147264853Y-80041896D01*
X147261280Y-80040416D01*
X147257446Y-80039911D01*
X147257445Y-80039911D01*
X147149905Y-80025753D01*
X147149899Y-80025753D01*
X147147980Y-80025500D01*
X147072020Y-80025500D01*
X147070101Y-80025753D01*
X147070095Y-80025753D01*
X146962555Y-80039911D01*
X146962554Y-80039911D01*
X146958720Y-80040416D01*
X146955147Y-80041896D01*
X146821322Y-80097328D01*
X146821319Y-80097329D01*
X146817750Y-80098808D01*
X146814685Y-80101160D01*
X146814683Y-80101161D01*
X146721199Y-80172894D01*
X146696696Y-80191696D01*
X146603808Y-80312750D01*
X146602329Y-80316319D01*
X146602328Y-80316322D01*
X146569268Y-80396137D01*
X146545416Y-80453720D01*
X146544911Y-80457554D01*
X146544911Y-80457555D01*
X146526005Y-80601164D01*
X146525500Y-80605000D01*
X146300000Y-80605000D01*
X146300000Y-80517848D01*
X146299767Y-80514148D01*
X146285760Y-80403267D01*
X146283929Y-80396137D01*
X146228996Y-80257392D01*
X146225446Y-80250934D01*
X146137734Y-80130210D01*
X146132694Y-80124841D01*
X146017711Y-80029720D01*
X146011498Y-80025777D01*
X145876468Y-79962237D01*
X145869471Y-79959963D01*
X145751527Y-79937464D01*
X145742732Y-79939285D01*
X145740000Y-79943445D01*
X145740000Y-81033263D01*
X145620000Y-81033263D01*
X145620000Y-79949286D01*
X145616980Y-79941996D01*
X145607323Y-79938346D01*
X145566600Y-79940908D01*
X145559372Y-79942287D01*
X145417453Y-79988400D01*
X145410782Y-79991539D01*
X145284794Y-80071493D01*
X145279111Y-80076195D01*
X145176965Y-80184970D01*
X145172634Y-80190931D01*
X145100746Y-80321694D01*
X145098033Y-80328547D01*
X145060924Y-80473075D01*
X145060000Y-80480392D01*
X145060000Y-81033263D01*
X144770500Y-81033263D01*
X144770500Y-80078262D01*
X144787781Y-80036543D01*
X144802714Y-80025693D01*
X144810335Y-80021810D01*
X144840723Y-80006326D01*
X144931326Y-79915723D01*
X144989498Y-79801555D01*
X145009542Y-79675000D01*
X144989498Y-79548445D01*
X144931326Y-79434277D01*
X144840723Y-79343674D01*
X144748878Y-79296876D01*
X144730693Y-79287610D01*
X144730691Y-79287609D01*
X144726555Y-79285502D01*
X144600000Y-79265458D01*
X144473445Y-79285502D01*
X144469309Y-79287609D01*
X144469307Y-79287610D01*
X144451122Y-79296876D01*
X144359277Y-79343674D01*
X144268674Y-79434277D01*
X144210502Y-79548445D01*
X144190458Y-79675000D01*
X139620500Y-79675000D01*
X139620500Y-79389500D01*
X139637781Y-79347781D01*
X139679500Y-79330500D01*
X140611871Y-79330500D01*
X141300046Y-79330499D01*
X141304903Y-79330220D01*
X141307334Y-79329659D01*
X141307339Y-79329658D01*
X141481049Y-79289553D01*
X141484263Y-79288811D01*
X141557942Y-79253193D01*
X141647018Y-79210133D01*
X141647020Y-79210132D01*
X141649992Y-79208695D01*
X141652568Y-79206638D01*
X141652572Y-79206636D01*
X141791279Y-79095906D01*
X141793852Y-79093852D01*
X141799111Y-79087264D01*
X141906636Y-78952572D01*
X141906638Y-78952568D01*
X141908695Y-78949992D01*
X141988811Y-78784263D01*
X142030220Y-78604903D01*
X142030500Y-78600047D01*
X142030499Y-78219954D01*
X142030220Y-78215097D01*
X141988811Y-78035737D01*
X141919133Y-77891600D01*
X141910133Y-77872982D01*
X141910132Y-77872980D01*
X141908695Y-77870008D01*
X141906638Y-77867432D01*
X141906636Y-77867428D01*
X141795906Y-77728721D01*
X141793852Y-77726148D01*
X141754872Y-77695030D01*
X141652572Y-77613364D01*
X141652568Y-77613362D01*
X141649992Y-77611305D01*
X141647020Y-77609868D01*
X141647018Y-77609867D01*
X141550032Y-77562983D01*
X141484263Y-77531189D01*
X141304903Y-77489780D01*
X141302416Y-77489637D01*
X141302412Y-77489636D01*
X141300884Y-77489548D01*
X141300875Y-77489548D01*
X141300047Y-77489500D01*
X139679500Y-77489500D01*
X139637781Y-77472219D01*
X139620500Y-77430500D01*
X139620500Y-77362152D01*
X145060000Y-77362152D01*
X145060233Y-77365852D01*
X145074240Y-77476733D01*
X145076071Y-77483863D01*
X145131004Y-77622608D01*
X145134554Y-77629066D01*
X145222266Y-77749790D01*
X145227306Y-77755159D01*
X145342289Y-77850280D01*
X145348502Y-77854223D01*
X145483532Y-77917763D01*
X145490529Y-77920037D01*
X145608473Y-77942536D01*
X145617268Y-77940715D01*
X145620000Y-77936555D01*
X145620000Y-77930714D01*
X145740000Y-77930714D01*
X145743020Y-77938004D01*
X145752677Y-77941654D01*
X145793400Y-77939092D01*
X145800628Y-77937713D01*
X145942547Y-77891600D01*
X145949218Y-77888461D01*
X146075206Y-77808507D01*
X146080889Y-77803805D01*
X146183035Y-77695030D01*
X146187366Y-77689069D01*
X146259254Y-77558306D01*
X146261967Y-77551453D01*
X146299076Y-77406925D01*
X146300000Y-77399608D01*
X146300000Y-77362152D01*
X153700000Y-77362152D01*
X153700233Y-77365852D01*
X153714240Y-77476733D01*
X153716071Y-77483863D01*
X153771004Y-77622608D01*
X153774554Y-77629066D01*
X153862266Y-77749790D01*
X153867306Y-77755159D01*
X153982289Y-77850280D01*
X153988502Y-77854223D01*
X154123532Y-77917763D01*
X154130529Y-77920037D01*
X154248473Y-77942536D01*
X154257268Y-77940715D01*
X154260000Y-77936555D01*
X154260000Y-77930714D01*
X154380000Y-77930714D01*
X154383020Y-77938004D01*
X154392677Y-77941654D01*
X154433400Y-77939092D01*
X154440628Y-77937713D01*
X154582547Y-77891600D01*
X154589218Y-77888461D01*
X154715206Y-77808507D01*
X154720889Y-77803805D01*
X154823035Y-77695030D01*
X154827366Y-77689069D01*
X154899254Y-77558306D01*
X154901967Y-77551453D01*
X154939076Y-77406925D01*
X154940000Y-77399608D01*
X154940000Y-76996737D01*
X154936562Y-76988438D01*
X154928263Y-76985000D01*
X154391737Y-76985000D01*
X154383438Y-76988438D01*
X154380000Y-76996737D01*
X154380000Y-77930714D01*
X154260000Y-77930714D01*
X154260000Y-76996737D01*
X154256562Y-76988438D01*
X154248263Y-76985000D01*
X153711737Y-76985000D01*
X153703438Y-76988438D01*
X153700000Y-76996737D01*
X153700000Y-77362152D01*
X146300000Y-77362152D01*
X146300000Y-76996737D01*
X146296562Y-76988438D01*
X146288263Y-76985000D01*
X145751737Y-76985000D01*
X145743438Y-76988438D01*
X145740000Y-76996737D01*
X145740000Y-77930714D01*
X145620000Y-77930714D01*
X145620000Y-76996737D01*
X145616562Y-76988438D01*
X145608263Y-76985000D01*
X145071737Y-76985000D01*
X145063438Y-76988438D01*
X145060000Y-76996737D01*
X145060000Y-77362152D01*
X139620500Y-77362152D01*
X139620500Y-76853263D01*
X145060000Y-76853263D01*
X145063438Y-76861562D01*
X145071737Y-76865000D01*
X145608263Y-76865000D01*
X145616562Y-76861562D01*
X145620000Y-76853263D01*
X145740000Y-76853263D01*
X145743438Y-76861562D01*
X145751737Y-76865000D01*
X146288263Y-76865000D01*
X146296562Y-76861562D01*
X146300000Y-76853263D01*
X153700000Y-76853263D01*
X153703438Y-76861562D01*
X153711737Y-76865000D01*
X154248263Y-76865000D01*
X154256562Y-76861562D01*
X154260000Y-76853263D01*
X154380000Y-76853263D01*
X154383438Y-76861562D01*
X154391737Y-76865000D01*
X154928263Y-76865000D01*
X154936562Y-76861562D01*
X154940000Y-76853263D01*
X154940000Y-76487848D01*
X154939767Y-76484148D01*
X154925760Y-76373267D01*
X154923929Y-76366137D01*
X154868996Y-76227392D01*
X154865446Y-76220934D01*
X154777734Y-76100210D01*
X154772694Y-76094841D01*
X154657711Y-75999720D01*
X154651498Y-75995777D01*
X154516468Y-75932237D01*
X154509471Y-75929963D01*
X154391527Y-75907464D01*
X154382732Y-75909285D01*
X154380000Y-75913445D01*
X154380000Y-76853263D01*
X154260000Y-76853263D01*
X154260000Y-75919286D01*
X154256980Y-75911996D01*
X154247323Y-75908346D01*
X154206600Y-75910908D01*
X154199372Y-75912287D01*
X154057453Y-75958400D01*
X154050782Y-75961539D01*
X153924794Y-76041493D01*
X153919111Y-76046195D01*
X153816965Y-76154970D01*
X153812634Y-76160931D01*
X153740746Y-76291694D01*
X153738033Y-76298547D01*
X153700924Y-76443075D01*
X153700000Y-76450392D01*
X153700000Y-76853263D01*
X146300000Y-76853263D01*
X146300000Y-76487848D01*
X146299767Y-76484148D01*
X146285760Y-76373267D01*
X146283929Y-76366137D01*
X146228996Y-76227392D01*
X146225446Y-76220934D01*
X146137734Y-76100210D01*
X146132694Y-76094841D01*
X146017711Y-75999720D01*
X146011498Y-75995777D01*
X145876468Y-75932237D01*
X145869471Y-75929963D01*
X145751527Y-75907464D01*
X145742732Y-75909285D01*
X145740000Y-75913445D01*
X145740000Y-76853263D01*
X145620000Y-76853263D01*
X145620000Y-75919286D01*
X145616980Y-75911996D01*
X145607323Y-75908346D01*
X145566600Y-75910908D01*
X145559372Y-75912287D01*
X145417453Y-75958400D01*
X145410782Y-75961539D01*
X145284794Y-76041493D01*
X145279111Y-76046195D01*
X145176965Y-76154970D01*
X145172634Y-76160931D01*
X145100746Y-76291694D01*
X145098033Y-76298547D01*
X145060924Y-76443075D01*
X145060000Y-76450392D01*
X145060000Y-76853263D01*
X139620500Y-76853263D01*
X139620500Y-76849500D01*
X139637781Y-76807781D01*
X139679500Y-76790500D01*
X140611871Y-76790500D01*
X141300046Y-76790499D01*
X141304903Y-76790220D01*
X141307334Y-76789659D01*
X141307339Y-76789658D01*
X141481049Y-76749553D01*
X141484263Y-76748811D01*
X141557942Y-76713193D01*
X141647018Y-76670133D01*
X141647020Y-76670132D01*
X141649992Y-76668695D01*
X141652568Y-76666638D01*
X141652572Y-76666636D01*
X141791279Y-76555906D01*
X141793852Y-76553852D01*
X141846543Y-76487848D01*
X141906636Y-76412572D01*
X141906638Y-76412568D01*
X141908695Y-76409992D01*
X141926449Y-76373267D01*
X141987375Y-76247233D01*
X141988811Y-76244263D01*
X142030220Y-76064903D01*
X142030500Y-76060047D01*
X142030499Y-75679954D01*
X142030220Y-75675097D01*
X141988811Y-75495737D01*
X141908695Y-75330008D01*
X141906638Y-75327432D01*
X141906636Y-75327428D01*
X141795906Y-75188721D01*
X141793852Y-75186148D01*
X141787264Y-75180889D01*
X141652572Y-75073364D01*
X141652568Y-75073362D01*
X141649992Y-75071305D01*
X141647020Y-75069868D01*
X141647018Y-75069867D01*
X141550032Y-75022983D01*
X141484263Y-74991189D01*
X141304903Y-74949780D01*
X141302416Y-74949637D01*
X141302412Y-74949636D01*
X141300884Y-74949548D01*
X141300875Y-74949548D01*
X141300047Y-74949500D01*
X139679500Y-74949500D01*
X139637781Y-74932219D01*
X139620500Y-74890500D01*
X139620500Y-74679500D01*
X139637781Y-74637781D01*
X139679500Y-74620500D01*
X160320500Y-74620500D01*
X160362219Y-74637781D01*
G37*
%TD.AperFunction*%
%TA.AperFunction,Conductor*%
G36*
X158144719Y-117117492D02*
G01*
X158149107Y-117122399D01*
X158206148Y-117193852D01*
X158208721Y-117195906D01*
X158347428Y-117306636D01*
X158347432Y-117306638D01*
X158350008Y-117308695D01*
X158352980Y-117310132D01*
X158352982Y-117310133D01*
X158404303Y-117334942D01*
X158515737Y-117388811D01*
X158695097Y-117430220D01*
X158697584Y-117430363D01*
X158697588Y-117430364D01*
X158699116Y-117430452D01*
X158699125Y-117430452D01*
X158699953Y-117430500D01*
X160320500Y-117430500D01*
X160362219Y-117447781D01*
X160379500Y-117489500D01*
X160379500Y-118070500D01*
X160362219Y-118112219D01*
X160320500Y-118129500D01*
X159388130Y-118129500D01*
X159386458Y-118129833D01*
X159383051Y-118130000D01*
X158861737Y-118130001D01*
X158853438Y-118133439D01*
X158850000Y-118141738D01*
X158850000Y-119958263D01*
X158853438Y-119966562D01*
X158861737Y-119970000D01*
X159383051Y-119970000D01*
X159386458Y-119970167D01*
X159388130Y-119970500D01*
X160320500Y-119970500D01*
X160362219Y-119987781D01*
X160379500Y-120029500D01*
X160379500Y-120610500D01*
X160362219Y-120652219D01*
X160320500Y-120669500D01*
X159388129Y-120669500D01*
X158699954Y-120669501D01*
X158695097Y-120669780D01*
X158692666Y-120670341D01*
X158692661Y-120670342D01*
X158550670Y-120703124D01*
X158515737Y-120711189D01*
X158449968Y-120742983D01*
X158352982Y-120789867D01*
X158352980Y-120789868D01*
X158350008Y-120791305D01*
X158347432Y-120793362D01*
X158347428Y-120793364D01*
X158212736Y-120900889D01*
X158206148Y-120906148D01*
X158204094Y-120908721D01*
X158149110Y-120977598D01*
X158109577Y-120999421D01*
X158066191Y-120986899D01*
X158044368Y-120947366D01*
X158044000Y-120940789D01*
X158044000Y-120006965D01*
X158061281Y-119965246D01*
X158103000Y-119947965D01*
X158125576Y-119952455D01*
X158134254Y-119956049D01*
X158201542Y-119969433D01*
X158207293Y-119970000D01*
X158718263Y-119970000D01*
X158726562Y-119966562D01*
X158730000Y-119958263D01*
X158730000Y-118141738D01*
X158726562Y-118133439D01*
X158718263Y-118130001D01*
X158207287Y-118130001D01*
X158201555Y-118130565D01*
X158134251Y-118143952D01*
X158125578Y-118147544D01*
X158080421Y-118147544D01*
X158048491Y-118115613D01*
X158044000Y-118093035D01*
X158044000Y-117159211D01*
X158061281Y-117117492D01*
X158103000Y-117100211D01*
X158144719Y-117117492D01*
G37*
%TD.AperFunction*%
%TA.AperFunction,Conductor*%
G36*
X158144719Y-104417492D02*
G01*
X158149107Y-104422399D01*
X158206148Y-104493852D01*
X158208721Y-104495906D01*
X158347428Y-104606636D01*
X158347432Y-104606638D01*
X158350008Y-104608695D01*
X158352980Y-104610132D01*
X158352982Y-104610133D01*
X158411535Y-104638438D01*
X158515737Y-104688811D01*
X158695097Y-104730220D01*
X158697584Y-104730363D01*
X158697588Y-104730364D01*
X158699116Y-104730452D01*
X158699125Y-104730452D01*
X158699953Y-104730500D01*
X160320500Y-104730500D01*
X160362219Y-104747781D01*
X160379500Y-104789500D01*
X160379500Y-105370500D01*
X160362219Y-105412219D01*
X160320500Y-105429500D01*
X159388130Y-105429500D01*
X159386458Y-105429833D01*
X159383051Y-105430000D01*
X158861737Y-105430001D01*
X158853438Y-105433439D01*
X158850000Y-105441738D01*
X158850000Y-107258263D01*
X158853438Y-107266562D01*
X158861737Y-107270000D01*
X159383051Y-107270000D01*
X159386458Y-107270167D01*
X159388130Y-107270500D01*
X160320500Y-107270500D01*
X160362219Y-107287781D01*
X160379500Y-107329500D01*
X160379500Y-107910500D01*
X160362219Y-107952219D01*
X160320500Y-107969500D01*
X159388129Y-107969500D01*
X158699954Y-107969501D01*
X158695097Y-107969780D01*
X158692666Y-107970341D01*
X158692661Y-107970342D01*
X158550670Y-108003124D01*
X158515737Y-108011189D01*
X158449968Y-108042983D01*
X158352982Y-108089867D01*
X158352980Y-108089868D01*
X158350008Y-108091305D01*
X158347432Y-108093362D01*
X158347428Y-108093364D01*
X158212736Y-108200889D01*
X158206148Y-108206148D01*
X158204094Y-108208721D01*
X158149110Y-108277598D01*
X158109577Y-108299421D01*
X158066191Y-108286899D01*
X158044368Y-108247366D01*
X158044000Y-108240789D01*
X158044000Y-107306965D01*
X158061281Y-107265246D01*
X158103000Y-107247965D01*
X158125576Y-107252455D01*
X158134254Y-107256049D01*
X158201542Y-107269433D01*
X158207293Y-107270000D01*
X158718263Y-107270000D01*
X158726562Y-107266562D01*
X158730000Y-107258263D01*
X158730000Y-105441738D01*
X158726562Y-105433439D01*
X158718263Y-105430001D01*
X158207287Y-105430001D01*
X158201555Y-105430565D01*
X158134251Y-105443952D01*
X158125578Y-105447544D01*
X158080421Y-105447544D01*
X158048491Y-105415613D01*
X158044000Y-105393035D01*
X158044000Y-104459211D01*
X158061281Y-104417492D01*
X158103000Y-104400211D01*
X158144719Y-104417492D01*
G37*
%TD.AperFunction*%
%TA.AperFunction,Conductor*%
G36*
X158144719Y-91717492D02*
G01*
X158149107Y-91722399D01*
X158206148Y-91793852D01*
X158208721Y-91795906D01*
X158347428Y-91906636D01*
X158347432Y-91906638D01*
X158350008Y-91908695D01*
X158352980Y-91910132D01*
X158352982Y-91910133D01*
X158442058Y-91953193D01*
X158515737Y-91988811D01*
X158695097Y-92030220D01*
X158697584Y-92030363D01*
X158697588Y-92030364D01*
X158699116Y-92030452D01*
X158699125Y-92030452D01*
X158699953Y-92030500D01*
X160320500Y-92030500D01*
X160362219Y-92047781D01*
X160379500Y-92089500D01*
X160379500Y-92670500D01*
X160362219Y-92712219D01*
X160320500Y-92729500D01*
X159388130Y-92729500D01*
X159386458Y-92729833D01*
X159383051Y-92730000D01*
X158861737Y-92730001D01*
X158853438Y-92733439D01*
X158850000Y-92741738D01*
X158850000Y-94558263D01*
X158853438Y-94566562D01*
X158861737Y-94570000D01*
X159383051Y-94570000D01*
X159386458Y-94570167D01*
X159388130Y-94570500D01*
X160320500Y-94570500D01*
X160362219Y-94587781D01*
X160379500Y-94629500D01*
X160379500Y-95210500D01*
X160362219Y-95252219D01*
X160320500Y-95269500D01*
X159388129Y-95269500D01*
X158699954Y-95269501D01*
X158695097Y-95269780D01*
X158692666Y-95270341D01*
X158692661Y-95270342D01*
X158550670Y-95303124D01*
X158515737Y-95311189D01*
X158469723Y-95333433D01*
X158352982Y-95389867D01*
X158352980Y-95389868D01*
X158350008Y-95391305D01*
X158347432Y-95393362D01*
X158347428Y-95393364D01*
X158228553Y-95488262D01*
X158206148Y-95506148D01*
X158152167Y-95573769D01*
X158149110Y-95577598D01*
X158109577Y-95599421D01*
X158066191Y-95586899D01*
X158044368Y-95547366D01*
X158044000Y-95540789D01*
X158044000Y-94606965D01*
X158061281Y-94565246D01*
X158103000Y-94547965D01*
X158125576Y-94552455D01*
X158134254Y-94556049D01*
X158201542Y-94569433D01*
X158207293Y-94570000D01*
X158718263Y-94570000D01*
X158726562Y-94566562D01*
X158730000Y-94558263D01*
X158730000Y-92741738D01*
X158726562Y-92733439D01*
X158718263Y-92730001D01*
X158207287Y-92730001D01*
X158201555Y-92730565D01*
X158134251Y-92743952D01*
X158125578Y-92747544D01*
X158080421Y-92747544D01*
X158048491Y-92715613D01*
X158044000Y-92693035D01*
X158044000Y-91759211D01*
X158061281Y-91717492D01*
X158103000Y-91700211D01*
X158144719Y-91717492D01*
G37*
%TD.AperFunction*%
%TA.AperFunction,Conductor*%
G36*
X158144719Y-89177492D02*
G01*
X158149107Y-89182399D01*
X158206148Y-89253852D01*
X158208721Y-89255906D01*
X158347428Y-89366636D01*
X158347432Y-89366638D01*
X158350008Y-89368695D01*
X158352980Y-89370132D01*
X158352982Y-89370133D01*
X158407662Y-89396566D01*
X158515737Y-89448811D01*
X158695097Y-89490220D01*
X158697584Y-89490363D01*
X158697588Y-89490364D01*
X158699116Y-89490452D01*
X158699125Y-89490452D01*
X158699953Y-89490500D01*
X160320500Y-89490500D01*
X160362219Y-89507781D01*
X160379500Y-89549500D01*
X160379500Y-90130500D01*
X160362219Y-90172219D01*
X160320500Y-90189500D01*
X159388129Y-90189500D01*
X158699954Y-90189501D01*
X158695097Y-90189780D01*
X158692666Y-90190341D01*
X158692661Y-90190342D01*
X158550670Y-90223124D01*
X158515737Y-90231189D01*
X158449968Y-90262983D01*
X158352982Y-90309867D01*
X158352980Y-90309868D01*
X158350008Y-90311305D01*
X158347432Y-90313362D01*
X158347428Y-90313364D01*
X158212736Y-90420889D01*
X158206148Y-90426148D01*
X158204094Y-90428721D01*
X158149110Y-90497598D01*
X158109577Y-90519421D01*
X158066191Y-90506899D01*
X158044368Y-90467366D01*
X158044000Y-90460789D01*
X158044000Y-89219211D01*
X158061281Y-89177492D01*
X158103000Y-89160211D01*
X158144719Y-89177492D01*
G37*
%TD.AperFunction*%
%TA.AperFunction,Conductor*%
G36*
X158144719Y-86637492D02*
G01*
X158149107Y-86642399D01*
X158206148Y-86713852D01*
X158208721Y-86715906D01*
X158347428Y-86826636D01*
X158347432Y-86826638D01*
X158350008Y-86828695D01*
X158352980Y-86830132D01*
X158352982Y-86830133D01*
X158442058Y-86873193D01*
X158515737Y-86908811D01*
X158695097Y-86950220D01*
X158697584Y-86950363D01*
X158697588Y-86950364D01*
X158699116Y-86950452D01*
X158699125Y-86950452D01*
X158699953Y-86950500D01*
X160320500Y-86950500D01*
X160362219Y-86967781D01*
X160379500Y-87009500D01*
X160379500Y-87590500D01*
X160362219Y-87632219D01*
X160320500Y-87649500D01*
X159388129Y-87649500D01*
X158699954Y-87649501D01*
X158695097Y-87649780D01*
X158692666Y-87650341D01*
X158692661Y-87650342D01*
X158526797Y-87688636D01*
X158515737Y-87691189D01*
X158449968Y-87722983D01*
X158352982Y-87769867D01*
X158352980Y-87769868D01*
X158350008Y-87771305D01*
X158347432Y-87773362D01*
X158347428Y-87773364D01*
X158212736Y-87880889D01*
X158206148Y-87886148D01*
X158204094Y-87888721D01*
X158149110Y-87957598D01*
X158109577Y-87979421D01*
X158066191Y-87966899D01*
X158044368Y-87927366D01*
X158044000Y-87920789D01*
X158044000Y-86679211D01*
X158061281Y-86637492D01*
X158103000Y-86620211D01*
X158144719Y-86637492D01*
G37*
%TD.AperFunction*%
M02*
