%TF.GenerationSoftware,KiCad,Pcbnew,6.0.11+dfsg-1*%
%TF.CreationDate,2023-04-26T00:49:20+01:00*%
%TF.ProjectId,bico,6269636f-2e6b-4696-9361-645f70636258,rev?*%
%TF.SameCoordinates,Original*%
%TF.FileFunction,Drillmap*%
%TF.FilePolarity,Positive*%
%FSLAX45Y45*%
G04 Gerber Fmt 4.5, Leading zero omitted, Abs format (unit mm)*
G04 Created by KiCad (PCBNEW 6.0.11+dfsg-1) date 2023-04-26 00:49:20*
%MOMM*%
%LPD*%
G01*
G04 APERTURE LIST*
%ADD10C,0.200000*%
%ADD11C,0.030000*%
%ADD12C,0.050000*%
%ADD13C,0.060000*%
%ADD14C,0.100000*%
G04 APERTURE END LIST*
D10*
D11*
X14155000Y-9985000D02*
X14185000Y-10015000D01*
X14185000Y-9985000D02*
X14155000Y-10015000D01*
X14235000Y-12460000D02*
X14265000Y-12490000D01*
X14265000Y-12460000D02*
X14235000Y-12490000D01*
X14240000Y-7530000D02*
X14270000Y-7560000D01*
X14270000Y-7530000D02*
X14240000Y-7560000D01*
X14287500Y-11357500D02*
X14317500Y-11387500D01*
X14317500Y-11357500D02*
X14287500Y-11387500D01*
X14337000Y-9012000D02*
X14367000Y-9042000D01*
X14367000Y-9012000D02*
X14337000Y-9042000D01*
X14337000Y-9301000D02*
X14367000Y-9331000D01*
X14367000Y-9301000D02*
X14337000Y-9331000D01*
X14340000Y-8280000D02*
X14370000Y-8310000D01*
X14370000Y-8280000D02*
X14340000Y-8310000D01*
X14345000Y-9655000D02*
X14375000Y-9685000D01*
X14375000Y-9655000D02*
X14345000Y-9685000D01*
X14347500Y-9785000D02*
X14377500Y-9815000D01*
X14377500Y-9785000D02*
X14347500Y-9815000D01*
X14395000Y-10610000D02*
X14425000Y-10640000D01*
X14425000Y-10610000D02*
X14395000Y-10640000D01*
X14395000Y-10800000D02*
X14425000Y-10830000D01*
X14425000Y-10800000D02*
X14395000Y-10830000D01*
X14415000Y-9315000D02*
X14445000Y-9345000D01*
X14445000Y-9315000D02*
X14415000Y-9345000D01*
X14441325Y-8940000D02*
X14471325Y-8970000D01*
X14471325Y-8940000D02*
X14441325Y-8970000D01*
X14445000Y-7952500D02*
X14475000Y-7982500D01*
X14475000Y-7952500D02*
X14445000Y-7982500D01*
X14465000Y-11365000D02*
X14495000Y-11395000D01*
X14495000Y-11365000D02*
X14465000Y-11395000D01*
X14490000Y-9035000D02*
X14520000Y-9065000D01*
X14520000Y-9035000D02*
X14490000Y-9065000D01*
X14490000Y-9175000D02*
X14520000Y-9205000D01*
X14520000Y-9175000D02*
X14490000Y-9205000D01*
X14525000Y-10805000D02*
X14555000Y-10835000D01*
X14555000Y-10805000D02*
X14525000Y-10835000D01*
X14560000Y-8440000D02*
X14590000Y-8470000D01*
X14590000Y-8440000D02*
X14560000Y-8470000D01*
X14615000Y-11370000D02*
X14645000Y-11400000D01*
X14645000Y-11370000D02*
X14615000Y-11400000D01*
X14625000Y-9035000D02*
X14655000Y-9065000D01*
X14655000Y-9035000D02*
X14625000Y-9065000D01*
X14625000Y-9174000D02*
X14655000Y-9204000D01*
X14655000Y-9174000D02*
X14625000Y-9204000D01*
X14635000Y-10195000D02*
X14665000Y-10225000D01*
X14665000Y-10195000D02*
X14635000Y-10225000D01*
X14665000Y-11630000D02*
X14695000Y-11660000D01*
X14695000Y-11630000D02*
X14665000Y-11660000D01*
X14674000Y-9305000D02*
X14704000Y-9335000D01*
X14704000Y-9305000D02*
X14674000Y-9335000D01*
X14686325Y-8940000D02*
X14716325Y-8970000D01*
X14716325Y-8940000D02*
X14686325Y-8970000D01*
X14725000Y-10335000D02*
X14755000Y-10365000D01*
X14755000Y-10335000D02*
X14725000Y-10365000D01*
X14735000Y-9435000D02*
X14765000Y-9465000D01*
X14765000Y-9435000D02*
X14735000Y-9465000D01*
X14735000Y-10885000D02*
X14765000Y-10915000D01*
X14765000Y-10885000D02*
X14735000Y-10915000D01*
X14735000Y-11182000D02*
X14765000Y-11212000D01*
X14765000Y-11182000D02*
X14735000Y-11212000D01*
X14735000Y-11245000D02*
X14765000Y-11275000D01*
X14765000Y-11245000D02*
X14735000Y-11275000D01*
X14745000Y-10455000D02*
X14775000Y-10485000D01*
X14775000Y-10455000D02*
X14745000Y-10485000D01*
X14765000Y-11630000D02*
X14795000Y-11660000D01*
X14795000Y-11630000D02*
X14765000Y-11660000D01*
X14805000Y-10335000D02*
X14835000Y-10365000D01*
X14835000Y-10335000D02*
X14805000Y-10365000D01*
X14805000Y-10720000D02*
X14835000Y-10750000D01*
X14835000Y-10720000D02*
X14805000Y-10750000D01*
X14865000Y-11907000D02*
X14895000Y-11937000D01*
X14895000Y-11907000D02*
X14865000Y-11937000D01*
X14866000Y-11248000D02*
X14896000Y-11278000D01*
X14896000Y-11248000D02*
X14866000Y-11278000D01*
X14887000Y-8278000D02*
X14917000Y-8308000D01*
X14917000Y-8278000D02*
X14887000Y-8308000D01*
X14905000Y-9605000D02*
X14935000Y-9635000D01*
X14935000Y-9605000D02*
X14905000Y-9635000D01*
X14905000Y-9765000D02*
X14935000Y-9795000D01*
X14935000Y-9765000D02*
X14905000Y-9795000D01*
X14905000Y-10905000D02*
X14935000Y-10935000D01*
X14935000Y-10905000D02*
X14905000Y-10935000D01*
X14905000Y-11065000D02*
X14935000Y-11095000D01*
X14935000Y-11065000D02*
X14905000Y-11095000D01*
X14910000Y-9045000D02*
X14940000Y-9075000D01*
X14940000Y-9045000D02*
X14910000Y-9075000D01*
X14910000Y-10335000D02*
X14940000Y-10365000D01*
X14940000Y-10335000D02*
X14910000Y-10365000D01*
X14935000Y-10130000D02*
X14965000Y-10160000D01*
X14965000Y-10130000D02*
X14935000Y-10160000D01*
X14945000Y-10255000D02*
X14975000Y-10285000D01*
X14975000Y-10255000D02*
X14945000Y-10285000D01*
X14945000Y-11249000D02*
X14975000Y-11279000D01*
X14975000Y-11249000D02*
X14945000Y-11279000D01*
X14955000Y-11655000D02*
X14985000Y-11685000D01*
X14985000Y-11655000D02*
X14955000Y-11685000D01*
X14985000Y-9948000D02*
X15015000Y-9978000D01*
X15015000Y-9948000D02*
X14985000Y-9978000D01*
X14985000Y-10725000D02*
X15015000Y-10755000D01*
X15015000Y-10725000D02*
X14985000Y-10755000D01*
X15015000Y-10335000D02*
X15045000Y-10365000D01*
X15045000Y-10335000D02*
X15015000Y-10365000D01*
X15025000Y-9422000D02*
X15055000Y-9452000D01*
X15055000Y-9422000D02*
X15025000Y-9452000D01*
X15065000Y-9605000D02*
X15095000Y-9635000D01*
X15095000Y-9605000D02*
X15065000Y-9635000D01*
X15065000Y-9765000D02*
X15095000Y-9795000D01*
X15095000Y-9765000D02*
X15065000Y-9795000D01*
X15065000Y-10905000D02*
X15095000Y-10935000D01*
X15095000Y-10905000D02*
X15065000Y-10935000D01*
X15065000Y-11065000D02*
X15095000Y-11095000D01*
X15095000Y-11065000D02*
X15065000Y-11095000D01*
X15075000Y-8275000D02*
X15105000Y-8305000D01*
X15105000Y-8275000D02*
X15075000Y-8305000D01*
X15106000Y-9422000D02*
X15136000Y-9452000D01*
X15136000Y-9422000D02*
X15106000Y-9452000D01*
X15129000Y-10199000D02*
X15159000Y-10229000D01*
X15159000Y-10199000D02*
X15129000Y-10229000D01*
X15137000Y-11582000D02*
X15167000Y-11612000D01*
X15167000Y-11582000D02*
X15137000Y-11612000D01*
X15145000Y-11910000D02*
X15175000Y-11940000D01*
X15175000Y-11910000D02*
X15145000Y-11940000D01*
X15175000Y-8265000D02*
X15205000Y-8295000D01*
X15205000Y-8265000D02*
X15175000Y-8295000D01*
X15175000Y-9905000D02*
X15205000Y-9935000D01*
X15205000Y-9905000D02*
X15175000Y-9935000D01*
X15176500Y-11662500D02*
X15206500Y-11692500D01*
X15206500Y-11662500D02*
X15176500Y-11692500D01*
X15210000Y-9045000D02*
X15240000Y-9075000D01*
X15240000Y-9045000D02*
X15210000Y-9075000D01*
X15215000Y-9755000D02*
X15245000Y-9785000D01*
X15245000Y-9755000D02*
X15215000Y-9785000D01*
X15235000Y-10725000D02*
X15265000Y-10755000D01*
X15265000Y-10725000D02*
X15235000Y-10755000D01*
X15235000Y-11235000D02*
X15265000Y-11265000D01*
X15265000Y-11235000D02*
X15235000Y-11265000D01*
X15248000Y-9485000D02*
X15278000Y-9515000D01*
X15278000Y-9485000D02*
X15248000Y-9515000D01*
X15250000Y-9420000D02*
X15280000Y-9450000D01*
X15280000Y-9420000D02*
X15250000Y-9450000D01*
X15285000Y-9275000D02*
X15315000Y-9305000D01*
X15315000Y-9275000D02*
X15285000Y-9305000D01*
X15305000Y-11485000D02*
X15335000Y-11515000D01*
X15335000Y-11485000D02*
X15305000Y-11515000D01*
X15305000Y-11630073D02*
X15335000Y-11660073D01*
X15335000Y-11630073D02*
X15305000Y-11660073D01*
X15310000Y-9045000D02*
X15340000Y-9075000D01*
X15340000Y-9045000D02*
X15310000Y-9075000D01*
X15345000Y-9345000D02*
X15375000Y-9375000D01*
X15375000Y-9345000D02*
X15345000Y-9375000D01*
X15355000Y-11325000D02*
X15385000Y-11355000D01*
X15385000Y-11325000D02*
X15355000Y-11355000D01*
X15357778Y-10016113D02*
X15387778Y-10046113D01*
X15387778Y-10016113D02*
X15357778Y-10046113D01*
X15380000Y-8860000D02*
X15410000Y-8890000D01*
X15410000Y-8860000D02*
X15380000Y-8890000D01*
X15385000Y-9207500D02*
X15415000Y-9237500D01*
X15415000Y-9207500D02*
X15385000Y-9237500D01*
X15390000Y-9110000D02*
X15420000Y-9140000D01*
X15420000Y-9110000D02*
X15390000Y-9140000D01*
X15395000Y-10575000D02*
X15425000Y-10605000D01*
X15425000Y-10575000D02*
X15395000Y-10605000D01*
X15419000Y-11051000D02*
X15449000Y-11081000D01*
X15449000Y-11051000D02*
X15419000Y-11081000D01*
X15425000Y-10940000D02*
X15455000Y-10970000D01*
X15455000Y-10940000D02*
X15425000Y-10970000D01*
X15442000Y-11495000D02*
X15472000Y-11525000D01*
X15472000Y-11495000D02*
X15442000Y-11525000D01*
X15442500Y-11630000D02*
X15472500Y-11660000D01*
X15472500Y-11630000D02*
X15442500Y-11660000D01*
X15444500Y-9692500D02*
X15474500Y-9722500D01*
X15474500Y-9692500D02*
X15444500Y-9722500D01*
X15452000Y-11250000D02*
X15482000Y-11280000D01*
X15482000Y-11250000D02*
X15452000Y-11280000D01*
X15452500Y-9362500D02*
X15482500Y-9392500D01*
X15482500Y-9362500D02*
X15452500Y-9392500D01*
X15469000Y-8575000D02*
X15499000Y-8605000D01*
X15499000Y-8575000D02*
X15469000Y-8605000D01*
X15471500Y-11174500D02*
X15501500Y-11204500D01*
X15501500Y-11174500D02*
X15471500Y-11204500D01*
X15476000Y-11078000D02*
X15506000Y-11108000D01*
X15506000Y-11078000D02*
X15476000Y-11108000D01*
X15485000Y-8285000D02*
X15515000Y-8315000D01*
X15515000Y-8285000D02*
X15485000Y-8315000D01*
X15485000Y-8885000D02*
X15515000Y-8915000D01*
X15515000Y-8885000D02*
X15485000Y-8915000D01*
X15535000Y-9664000D02*
X15565000Y-9694000D01*
X15565000Y-9664000D02*
X15535000Y-9694000D01*
X15535000Y-11044000D02*
X15565000Y-11074000D01*
X15565000Y-11044000D02*
X15535000Y-11074000D01*
X15536650Y-9589650D02*
X15566650Y-9619650D01*
X15566650Y-9589650D02*
X15536650Y-9619650D01*
X15555000Y-7555000D02*
X15585000Y-7585000D01*
X15585000Y-7555000D02*
X15555000Y-7585000D01*
X15560000Y-8575000D02*
X15590000Y-8605000D01*
X15590000Y-8575000D02*
X15560000Y-8605000D01*
X15560000Y-10300000D02*
X15590000Y-10330000D01*
X15590000Y-10300000D02*
X15560000Y-10330000D01*
X15560000Y-10575000D02*
X15590000Y-10605000D01*
X15590000Y-10575000D02*
X15560000Y-10605000D01*
X15562500Y-8957500D02*
X15592500Y-8987500D01*
X15592500Y-8957500D02*
X15562500Y-8987500D01*
X15565000Y-8205000D02*
X15595000Y-8235000D01*
X15595000Y-8205000D02*
X15565000Y-8235000D01*
X15565000Y-9870000D02*
X15595000Y-9900000D01*
X15595000Y-9870000D02*
X15565000Y-9900000D01*
X15565000Y-10725000D02*
X15595000Y-10755000D01*
X15595000Y-10725000D02*
X15565000Y-10755000D01*
X15575500Y-12202500D02*
X15605500Y-12232500D01*
X15605500Y-12202500D02*
X15575500Y-12232500D01*
X15577933Y-12269067D02*
X15607933Y-12299067D01*
X15607933Y-12269067D02*
X15577933Y-12299067D01*
X15579000Y-9710000D02*
X15609000Y-9740000D01*
X15609000Y-9710000D02*
X15579000Y-9740000D01*
X15582000Y-10986000D02*
X15612000Y-11016000D01*
X15612000Y-10986000D02*
X15582000Y-11016000D01*
X15584000Y-8720000D02*
X15614000Y-8750000D01*
X15614000Y-8720000D02*
X15584000Y-8750000D01*
X15606000Y-11658840D02*
X15636000Y-11688840D01*
X15636000Y-11658840D02*
X15606000Y-11688840D01*
X15625500Y-9493500D02*
X15655500Y-9523500D01*
X15655500Y-9493500D02*
X15625500Y-9523500D01*
X15630000Y-9420000D02*
X15660000Y-9450000D01*
X15660000Y-9420000D02*
X15630000Y-9450000D01*
X15651000Y-8575000D02*
X15681000Y-8605000D01*
X15681000Y-8575000D02*
X15651000Y-8605000D01*
X15654000Y-9798000D02*
X15684000Y-9828000D01*
X15684000Y-9798000D02*
X15654000Y-9828000D01*
X15658000Y-8958000D02*
X15688000Y-8988000D01*
X15688000Y-8958000D02*
X15658000Y-8988000D01*
X15660000Y-12295000D02*
X15690000Y-12325000D01*
X15690000Y-12295000D02*
X15660000Y-12325000D01*
X15675000Y-11245000D02*
X15705000Y-11275000D01*
X15705000Y-11245000D02*
X15675000Y-11275000D01*
X15675000Y-11493000D02*
X15705000Y-11523000D01*
X15705000Y-11493000D02*
X15675000Y-11523000D01*
X15685000Y-12185000D02*
X15715000Y-12215000D01*
X15715000Y-12185000D02*
X15685000Y-12215000D01*
X15687000Y-9581000D02*
X15717000Y-9611000D01*
X15717000Y-9581000D02*
X15687000Y-9611000D01*
X15730000Y-8455000D02*
X15760000Y-8485000D01*
X15760000Y-8455000D02*
X15730000Y-8485000D01*
X15740000Y-12465000D02*
X15770000Y-12495000D01*
X15770000Y-12465000D02*
X15740000Y-12495000D01*
X15785000Y-7700000D02*
X15815000Y-7730000D01*
X15815000Y-7700000D02*
X15785000Y-7730000D01*
X15915000Y-8970000D02*
X15945000Y-9000000D01*
X15945000Y-8970000D02*
X15915000Y-9000000D01*
X15920000Y-8460000D02*
X15950000Y-8490000D01*
X15950000Y-8460000D02*
X15920000Y-8490000D01*
X15920000Y-8715000D02*
X15950000Y-8745000D01*
X15950000Y-8715000D02*
X15920000Y-8745000D01*
D12*
X14495000Y-10450000D02*
G75*
G03*
X14495000Y-10450000I-25000J0D01*
G01*
X14595000Y-10450000D02*
G75*
G03*
X14595000Y-10450000I-25000J0D01*
G01*
X14695000Y-10450000D02*
G75*
G03*
X14695000Y-10450000I-25000J0D01*
G01*
D13*
X14568000Y-7662500D02*
X14568000Y-7722500D01*
X14538000Y-7692500D02*
X14598000Y-7692500D01*
D10*
X14598000Y-7732500D02*
X14598000Y-7652500D01*
X14538000Y-7732500D02*
X14538000Y-7652500D01*
X14598000Y-7652500D02*
G75*
G03*
X14538000Y-7652500I-30000J0D01*
G01*
X14538000Y-7732500D02*
G75*
G03*
X14598000Y-7732500I30000J0D01*
G01*
D13*
X14568000Y-8080500D02*
X14568000Y-8140500D01*
X14538000Y-8110500D02*
X14598000Y-8110500D01*
D10*
X14598000Y-8165500D02*
X14598000Y-8055500D01*
X14538000Y-8165500D02*
X14538000Y-8055500D01*
X14598000Y-8055500D02*
G75*
G03*
X14538000Y-8055500I-30000J0D01*
G01*
X14538000Y-8165500D02*
G75*
G03*
X14598000Y-8165500I30000J0D01*
G01*
D13*
X14568000Y-11859500D02*
X14568000Y-11919500D01*
X14538000Y-11889500D02*
X14598000Y-11889500D01*
D10*
X14538000Y-11834500D02*
X14538000Y-11944500D01*
X14598000Y-11834500D02*
X14598000Y-11944500D01*
X14538000Y-11944500D02*
G75*
G03*
X14598000Y-11944500I30000J0D01*
G01*
X14598000Y-11834500D02*
G75*
G03*
X14538000Y-11834500I-30000J0D01*
G01*
D13*
X14568000Y-12277500D02*
X14568000Y-12337500D01*
X14538000Y-12307500D02*
X14598000Y-12307500D01*
D10*
X14538000Y-12267500D02*
X14538000Y-12347500D01*
X14598000Y-12267500D02*
X14598000Y-12347500D01*
X14538000Y-12347500D02*
G75*
G03*
X14598000Y-12347500I30000J0D01*
G01*
X14598000Y-12267500D02*
G75*
G03*
X14538000Y-12267500I-30000J0D01*
G01*
D13*
X15432000Y-7662500D02*
X15432000Y-7722500D01*
X15402000Y-7692500D02*
X15462000Y-7692500D01*
D10*
X15462000Y-7732500D02*
X15462000Y-7652500D01*
X15402000Y-7732500D02*
X15402000Y-7652500D01*
X15462000Y-7652500D02*
G75*
G03*
X15402000Y-7652500I-30000J0D01*
G01*
X15402000Y-7732500D02*
G75*
G03*
X15462000Y-7732500I30000J0D01*
G01*
D13*
X15432000Y-8080500D02*
X15432000Y-8140500D01*
X15402000Y-8110500D02*
X15462000Y-8110500D01*
D10*
X15462000Y-8165500D02*
X15462000Y-8055500D01*
X15402000Y-8165500D02*
X15402000Y-8055500D01*
X15462000Y-8055500D02*
G75*
G03*
X15402000Y-8055500I-30000J0D01*
G01*
X15402000Y-8165500D02*
G75*
G03*
X15462000Y-8165500I30000J0D01*
G01*
D13*
X15432000Y-11859500D02*
X15432000Y-11919500D01*
X15402000Y-11889500D02*
X15462000Y-11889500D01*
D10*
X15402000Y-11834500D02*
X15402000Y-11944500D01*
X15462000Y-11834500D02*
X15462000Y-11944500D01*
X15402000Y-11944500D02*
G75*
G03*
X15462000Y-11944500I30000J0D01*
G01*
X15462000Y-11834500D02*
G75*
G03*
X15402000Y-11834500I-30000J0D01*
G01*
D13*
X15432000Y-12277500D02*
X15432000Y-12337500D01*
X15402000Y-12307500D02*
X15462000Y-12307500D01*
D10*
X15402000Y-12267500D02*
X15402000Y-12347500D01*
X15462000Y-12267500D02*
X15462000Y-12347500D01*
X15402000Y-12347500D02*
G75*
G03*
X15462000Y-12347500I30000J0D01*
G01*
X15462000Y-12267500D02*
G75*
G03*
X15402000Y-12267500I-30000J0D01*
G01*
D14*
X13985356Y-7622356D02*
X13985356Y-7551644D01*
X13914644Y-7551644D01*
X13914644Y-7622356D01*
X13985356Y-7622356D01*
X13985356Y-7876356D02*
X13985356Y-7805644D01*
X13914644Y-7805644D01*
X13914644Y-7876356D01*
X13985356Y-7876356D01*
X13985356Y-8130356D02*
X13985356Y-8059644D01*
X13914644Y-8059644D01*
X13914644Y-8130356D01*
X13985356Y-8130356D01*
X13985356Y-8384356D02*
X13985356Y-8313644D01*
X13914644Y-8313644D01*
X13914644Y-8384356D01*
X13985356Y-8384356D01*
X13985356Y-8638356D02*
X13985356Y-8567644D01*
X13914644Y-8567644D01*
X13914644Y-8638356D01*
X13985356Y-8638356D01*
X13985356Y-8892356D02*
X13985356Y-8821644D01*
X13914644Y-8821644D01*
X13914644Y-8892356D01*
X13985356Y-8892356D01*
X13985356Y-9146356D02*
X13985356Y-9075644D01*
X13914644Y-9075644D01*
X13914644Y-9146356D01*
X13985356Y-9146356D01*
X13985356Y-9400356D02*
X13985356Y-9329644D01*
X13914644Y-9329644D01*
X13914644Y-9400356D01*
X13985356Y-9400356D01*
X13985356Y-9654356D02*
X13985356Y-9583644D01*
X13914644Y-9583644D01*
X13914644Y-9654356D01*
X13985356Y-9654356D01*
X13985356Y-9908356D02*
X13985356Y-9837644D01*
X13914644Y-9837644D01*
X13914644Y-9908356D01*
X13985356Y-9908356D01*
X13985356Y-10162356D02*
X13985356Y-10091644D01*
X13914644Y-10091644D01*
X13914644Y-10162356D01*
X13985356Y-10162356D01*
X13985356Y-10416356D02*
X13985356Y-10345644D01*
X13914644Y-10345644D01*
X13914644Y-10416356D01*
X13985356Y-10416356D01*
X13985356Y-10670356D02*
X13985356Y-10599644D01*
X13914644Y-10599644D01*
X13914644Y-10670356D01*
X13985356Y-10670356D01*
X13985356Y-10924356D02*
X13985356Y-10853644D01*
X13914644Y-10853644D01*
X13914644Y-10924356D01*
X13985356Y-10924356D01*
X13985356Y-11178356D02*
X13985356Y-11107644D01*
X13914644Y-11107644D01*
X13914644Y-11178356D01*
X13985356Y-11178356D01*
X13985356Y-11432356D02*
X13985356Y-11361644D01*
X13914644Y-11361644D01*
X13914644Y-11432356D01*
X13985356Y-11432356D01*
X13985356Y-11686356D02*
X13985356Y-11615644D01*
X13914644Y-11615644D01*
X13914644Y-11686356D01*
X13985356Y-11686356D01*
X13985356Y-11940356D02*
X13985356Y-11869644D01*
X13914644Y-11869644D01*
X13914644Y-11940356D01*
X13985356Y-11940356D01*
X13985356Y-12194356D02*
X13985356Y-12123644D01*
X13914644Y-12123644D01*
X13914644Y-12194356D01*
X13985356Y-12194356D01*
X13985356Y-12448356D02*
X13985356Y-12377644D01*
X13914644Y-12377644D01*
X13914644Y-12448356D01*
X13985356Y-12448356D01*
X14146356Y-7622356D02*
X14146356Y-7551644D01*
X14075644Y-7551644D01*
X14075644Y-7622356D01*
X14146356Y-7622356D01*
X14146356Y-7876356D02*
X14146356Y-7805644D01*
X14075644Y-7805644D01*
X14075644Y-7876356D01*
X14146356Y-7876356D01*
X14146356Y-8130356D02*
X14146356Y-8059644D01*
X14075644Y-8059644D01*
X14075644Y-8130356D01*
X14146356Y-8130356D01*
X14146356Y-8384356D02*
X14146356Y-8313644D01*
X14075644Y-8313644D01*
X14075644Y-8384356D01*
X14146356Y-8384356D01*
X14146356Y-8638356D02*
X14146356Y-8567644D01*
X14075644Y-8567644D01*
X14075644Y-8638356D01*
X14146356Y-8638356D01*
X14146356Y-8892356D02*
X14146356Y-8821644D01*
X14075644Y-8821644D01*
X14075644Y-8892356D01*
X14146356Y-8892356D01*
X14146356Y-9146356D02*
X14146356Y-9075644D01*
X14075644Y-9075644D01*
X14075644Y-9146356D01*
X14146356Y-9146356D01*
X14146356Y-9400356D02*
X14146356Y-9329644D01*
X14075644Y-9329644D01*
X14075644Y-9400356D01*
X14146356Y-9400356D01*
X14146356Y-9654356D02*
X14146356Y-9583644D01*
X14075644Y-9583644D01*
X14075644Y-9654356D01*
X14146356Y-9654356D01*
X14146356Y-9908356D02*
X14146356Y-9837644D01*
X14075644Y-9837644D01*
X14075644Y-9908356D01*
X14146356Y-9908356D01*
X14146356Y-10162356D02*
X14146356Y-10091644D01*
X14075644Y-10091644D01*
X14075644Y-10162356D01*
X14146356Y-10162356D01*
X14146356Y-10416356D02*
X14146356Y-10345644D01*
X14075644Y-10345644D01*
X14075644Y-10416356D01*
X14146356Y-10416356D01*
X14146356Y-10670356D02*
X14146356Y-10599644D01*
X14075644Y-10599644D01*
X14075644Y-10670356D01*
X14146356Y-10670356D01*
X14146356Y-10924356D02*
X14146356Y-10853644D01*
X14075644Y-10853644D01*
X14075644Y-10924356D01*
X14146356Y-10924356D01*
X14146356Y-11178356D02*
X14146356Y-11107644D01*
X14075644Y-11107644D01*
X14075644Y-11178356D01*
X14146356Y-11178356D01*
X14146356Y-11432356D02*
X14146356Y-11361644D01*
X14075644Y-11361644D01*
X14075644Y-11432356D01*
X14146356Y-11432356D01*
X14146356Y-11686356D02*
X14146356Y-11615644D01*
X14075644Y-11615644D01*
X14075644Y-11686356D01*
X14146356Y-11686356D01*
X14146356Y-11940356D02*
X14146356Y-11869644D01*
X14075644Y-11869644D01*
X14075644Y-11940356D01*
X14146356Y-11940356D01*
X14146356Y-12194356D02*
X14146356Y-12123644D01*
X14075644Y-12123644D01*
X14075644Y-12194356D01*
X14146356Y-12194356D01*
X14146356Y-12448356D02*
X14146356Y-12377644D01*
X14075644Y-12377644D01*
X14075644Y-12448356D01*
X14146356Y-12448356D01*
X15924356Y-7622356D02*
X15924356Y-7551644D01*
X15853644Y-7551644D01*
X15853644Y-7622356D01*
X15924356Y-7622356D01*
X15924356Y-7876356D02*
X15924356Y-7805644D01*
X15853644Y-7805644D01*
X15853644Y-7876356D01*
X15924356Y-7876356D01*
X15924356Y-8130356D02*
X15924356Y-8059644D01*
X15853644Y-8059644D01*
X15853644Y-8130356D01*
X15924356Y-8130356D01*
X15924356Y-8384356D02*
X15924356Y-8313644D01*
X15853644Y-8313644D01*
X15853644Y-8384356D01*
X15924356Y-8384356D01*
X15924356Y-8638356D02*
X15924356Y-8567644D01*
X15853644Y-8567644D01*
X15853644Y-8638356D01*
X15924356Y-8638356D01*
X15924356Y-8892356D02*
X15924356Y-8821644D01*
X15853644Y-8821644D01*
X15853644Y-8892356D01*
X15924356Y-8892356D01*
X15924356Y-9146356D02*
X15924356Y-9075644D01*
X15853644Y-9075644D01*
X15853644Y-9146356D01*
X15924356Y-9146356D01*
X15924356Y-9400356D02*
X15924356Y-9329644D01*
X15853644Y-9329644D01*
X15853644Y-9400356D01*
X15924356Y-9400356D01*
X15924356Y-9654356D02*
X15924356Y-9583644D01*
X15853644Y-9583644D01*
X15853644Y-9654356D01*
X15924356Y-9654356D01*
X15924356Y-9908356D02*
X15924356Y-9837644D01*
X15853644Y-9837644D01*
X15853644Y-9908356D01*
X15924356Y-9908356D01*
X15924356Y-10162356D02*
X15924356Y-10091644D01*
X15853644Y-10091644D01*
X15853644Y-10162356D01*
X15924356Y-10162356D01*
X15924356Y-10416356D02*
X15924356Y-10345644D01*
X15853644Y-10345644D01*
X15853644Y-10416356D01*
X15924356Y-10416356D01*
X15924356Y-10670356D02*
X15924356Y-10599644D01*
X15853644Y-10599644D01*
X15853644Y-10670356D01*
X15924356Y-10670356D01*
X15924356Y-10924356D02*
X15924356Y-10853644D01*
X15853644Y-10853644D01*
X15853644Y-10924356D01*
X15924356Y-10924356D01*
X15924356Y-11178356D02*
X15924356Y-11107644D01*
X15853644Y-11107644D01*
X15853644Y-11178356D01*
X15924356Y-11178356D01*
X15924356Y-11432356D02*
X15924356Y-11361644D01*
X15853644Y-11361644D01*
X15853644Y-11432356D01*
X15924356Y-11432356D01*
X15924356Y-11686356D02*
X15924356Y-11615644D01*
X15853644Y-11615644D01*
X15853644Y-11686356D01*
X15924356Y-11686356D01*
X15924356Y-11940356D02*
X15924356Y-11869644D01*
X15853644Y-11869644D01*
X15853644Y-11940356D01*
X15924356Y-11940356D01*
X15924356Y-12194356D02*
X15924356Y-12123644D01*
X15853644Y-12123644D01*
X15853644Y-12194356D01*
X15924356Y-12194356D01*
X15924356Y-12448356D02*
X15924356Y-12377644D01*
X15853644Y-12377644D01*
X15853644Y-12448356D01*
X15924356Y-12448356D01*
X16085356Y-7622356D02*
X16085356Y-7551644D01*
X16014644Y-7551644D01*
X16014644Y-7622356D01*
X16085356Y-7622356D01*
X16085356Y-7876356D02*
X16085356Y-7805644D01*
X16014644Y-7805644D01*
X16014644Y-7876356D01*
X16085356Y-7876356D01*
X16085356Y-8130356D02*
X16085356Y-8059644D01*
X16014644Y-8059644D01*
X16014644Y-8130356D01*
X16085356Y-8130356D01*
X16085356Y-8384356D02*
X16085356Y-8313644D01*
X16014644Y-8313644D01*
X16014644Y-8384356D01*
X16085356Y-8384356D01*
X16085356Y-8638356D02*
X16085356Y-8567644D01*
X16014644Y-8567644D01*
X16014644Y-8638356D01*
X16085356Y-8638356D01*
X16085356Y-8892356D02*
X16085356Y-8821644D01*
X16014644Y-8821644D01*
X16014644Y-8892356D01*
X16085356Y-8892356D01*
X16085356Y-9146356D02*
X16085356Y-9075644D01*
X16014644Y-9075644D01*
X16014644Y-9146356D01*
X16085356Y-9146356D01*
X16085356Y-9400356D02*
X16085356Y-9329644D01*
X16014644Y-9329644D01*
X16014644Y-9400356D01*
X16085356Y-9400356D01*
X16085356Y-9654356D02*
X16085356Y-9583644D01*
X16014644Y-9583644D01*
X16014644Y-9654356D01*
X16085356Y-9654356D01*
X16085356Y-9908356D02*
X16085356Y-9837644D01*
X16014644Y-9837644D01*
X16014644Y-9908356D01*
X16085356Y-9908356D01*
X16085356Y-10162356D02*
X16085356Y-10091644D01*
X16014644Y-10091644D01*
X16014644Y-10162356D01*
X16085356Y-10162356D01*
X16085356Y-10416356D02*
X16085356Y-10345644D01*
X16014644Y-10345644D01*
X16014644Y-10416356D01*
X16085356Y-10416356D01*
X16085356Y-10670356D02*
X16085356Y-10599644D01*
X16014644Y-10599644D01*
X16014644Y-10670356D01*
X16085356Y-10670356D01*
X16085356Y-10924356D02*
X16085356Y-10853644D01*
X16014644Y-10853644D01*
X16014644Y-10924356D01*
X16085356Y-10924356D01*
X16085356Y-11178356D02*
X16085356Y-11107644D01*
X16014644Y-11107644D01*
X16014644Y-11178356D01*
X16085356Y-11178356D01*
X16085356Y-11432356D02*
X16085356Y-11361644D01*
X16014644Y-11361644D01*
X16014644Y-11432356D01*
X16085356Y-11432356D01*
X16085356Y-11686356D02*
X16085356Y-11615644D01*
X16014644Y-11615644D01*
X16014644Y-11686356D01*
X16085356Y-11686356D01*
X16085356Y-11940356D02*
X16085356Y-11869644D01*
X16014644Y-11869644D01*
X16014644Y-11940356D01*
X16085356Y-11940356D01*
X16085356Y-12194356D02*
X16085356Y-12123644D01*
X16014644Y-12123644D01*
X16014644Y-12194356D01*
X16085356Y-12194356D01*
X16085356Y-12448356D02*
X16085356Y-12377644D01*
X16014644Y-12377644D01*
X16014644Y-12448356D01*
X16085356Y-12448356D01*
D10*
X14201619Y-12866476D02*
X14201619Y-12666476D01*
X14249238Y-12666476D01*
X14277809Y-12676000D01*
X14296857Y-12695048D01*
X14306381Y-12714095D01*
X14315905Y-12752190D01*
X14315905Y-12780762D01*
X14306381Y-12818857D01*
X14296857Y-12837905D01*
X14277809Y-12856952D01*
X14249238Y-12866476D01*
X14201619Y-12866476D01*
X14401619Y-12866476D02*
X14401619Y-12733143D01*
X14401619Y-12771238D02*
X14411143Y-12752190D01*
X14420667Y-12742667D01*
X14439714Y-12733143D01*
X14458762Y-12733143D01*
X14525428Y-12866476D02*
X14525428Y-12733143D01*
X14525428Y-12666476D02*
X14515905Y-12676000D01*
X14525428Y-12685524D01*
X14534952Y-12676000D01*
X14525428Y-12666476D01*
X14525428Y-12685524D01*
X14649238Y-12866476D02*
X14630190Y-12856952D01*
X14620667Y-12837905D01*
X14620667Y-12666476D01*
X14754000Y-12866476D02*
X14734952Y-12856952D01*
X14725428Y-12837905D01*
X14725428Y-12666476D01*
X14982571Y-12866476D02*
X14982571Y-12666476D01*
X15049238Y-12809333D01*
X15115905Y-12666476D01*
X15115905Y-12866476D01*
X15296857Y-12866476D02*
X15296857Y-12761714D01*
X15287333Y-12742667D01*
X15268286Y-12733143D01*
X15230190Y-12733143D01*
X15211143Y-12742667D01*
X15296857Y-12856952D02*
X15277809Y-12866476D01*
X15230190Y-12866476D01*
X15211143Y-12856952D01*
X15201619Y-12837905D01*
X15201619Y-12818857D01*
X15211143Y-12799809D01*
X15230190Y-12790286D01*
X15277809Y-12790286D01*
X15296857Y-12780762D01*
X15392095Y-12733143D02*
X15392095Y-12933143D01*
X15392095Y-12742667D02*
X15411143Y-12733143D01*
X15449238Y-12733143D01*
X15468286Y-12742667D01*
X15477809Y-12752190D01*
X15487333Y-12771238D01*
X15487333Y-12828381D01*
X15477809Y-12847428D01*
X15468286Y-12856952D01*
X15449238Y-12866476D01*
X15411143Y-12866476D01*
X15392095Y-12856952D01*
X15573048Y-12847428D02*
X15582571Y-12856952D01*
X15573048Y-12866476D01*
X15563524Y-12856952D01*
X15573048Y-12847428D01*
X15573048Y-12866476D01*
X15573048Y-12742667D02*
X15582571Y-12752190D01*
X15573048Y-12761714D01*
X15563524Y-12752190D01*
X15573048Y-12742667D01*
X15573048Y-12761714D01*
D11*
X13914000Y-13181000D02*
X13944000Y-13211000D01*
X13944000Y-13181000D02*
X13914000Y-13211000D01*
D10*
X14239714Y-13086476D02*
X14258762Y-13086476D01*
X14277809Y-13096000D01*
X14287333Y-13105524D01*
X14296857Y-13124571D01*
X14306381Y-13162667D01*
X14306381Y-13210286D01*
X14296857Y-13248381D01*
X14287333Y-13267428D01*
X14277809Y-13276952D01*
X14258762Y-13286476D01*
X14239714Y-13286476D01*
X14220667Y-13276952D01*
X14211143Y-13267428D01*
X14201619Y-13248381D01*
X14192095Y-13210286D01*
X14192095Y-13162667D01*
X14201619Y-13124571D01*
X14211143Y-13105524D01*
X14220667Y-13096000D01*
X14239714Y-13086476D01*
X14392095Y-13267428D02*
X14401619Y-13276952D01*
X14392095Y-13286476D01*
X14382571Y-13276952D01*
X14392095Y-13267428D01*
X14392095Y-13286476D01*
X14468286Y-13086476D02*
X14592095Y-13086476D01*
X14525428Y-13162667D01*
X14554000Y-13162667D01*
X14573048Y-13172190D01*
X14582571Y-13181714D01*
X14592095Y-13200762D01*
X14592095Y-13248381D01*
X14582571Y-13267428D01*
X14573048Y-13276952D01*
X14554000Y-13286476D01*
X14496857Y-13286476D01*
X14477809Y-13276952D01*
X14468286Y-13267428D01*
X14715905Y-13086476D02*
X14734952Y-13086476D01*
X14754000Y-13096000D01*
X14763524Y-13105524D01*
X14773048Y-13124571D01*
X14782571Y-13162667D01*
X14782571Y-13210286D01*
X14773048Y-13248381D01*
X14763524Y-13267428D01*
X14754000Y-13276952D01*
X14734952Y-13286476D01*
X14715905Y-13286476D01*
X14696857Y-13276952D01*
X14687333Y-13267428D01*
X14677809Y-13248381D01*
X14668286Y-13210286D01*
X14668286Y-13162667D01*
X14677809Y-13124571D01*
X14687333Y-13105524D01*
X14696857Y-13096000D01*
X14715905Y-13086476D01*
X14906381Y-13086476D02*
X14925428Y-13086476D01*
X14944476Y-13096000D01*
X14954000Y-13105524D01*
X14963524Y-13124571D01*
X14973048Y-13162667D01*
X14973048Y-13210286D01*
X14963524Y-13248381D01*
X14954000Y-13267428D01*
X14944476Y-13276952D01*
X14925428Y-13286476D01*
X14906381Y-13286476D01*
X14887333Y-13276952D01*
X14877809Y-13267428D01*
X14868286Y-13248381D01*
X14858762Y-13210286D01*
X14858762Y-13162667D01*
X14868286Y-13124571D01*
X14877809Y-13105524D01*
X14887333Y-13096000D01*
X14906381Y-13086476D01*
X15058762Y-13286476D02*
X15058762Y-13153143D01*
X15058762Y-13172190D02*
X15068286Y-13162667D01*
X15087333Y-13153143D01*
X15115905Y-13153143D01*
X15134952Y-13162667D01*
X15144476Y-13181714D01*
X15144476Y-13286476D01*
X15144476Y-13181714D02*
X15154000Y-13162667D01*
X15173048Y-13153143D01*
X15201619Y-13153143D01*
X15220667Y-13162667D01*
X15230190Y-13181714D01*
X15230190Y-13286476D01*
X15325428Y-13286476D02*
X15325428Y-13153143D01*
X15325428Y-13172190D02*
X15334952Y-13162667D01*
X15354000Y-13153143D01*
X15382571Y-13153143D01*
X15401619Y-13162667D01*
X15411143Y-13181714D01*
X15411143Y-13286476D01*
X15411143Y-13181714D02*
X15420667Y-13162667D01*
X15439714Y-13153143D01*
X15468286Y-13153143D01*
X15487333Y-13162667D01*
X15496857Y-13181714D01*
X15496857Y-13286476D01*
X15887333Y-13076952D02*
X15715905Y-13334095D01*
X16144476Y-13086476D02*
X16163524Y-13086476D01*
X16182571Y-13096000D01*
X16192095Y-13105524D01*
X16201619Y-13124571D01*
X16211143Y-13162667D01*
X16211143Y-13210286D01*
X16201619Y-13248381D01*
X16192095Y-13267428D01*
X16182571Y-13276952D01*
X16163524Y-13286476D01*
X16144476Y-13286476D01*
X16125428Y-13276952D01*
X16115905Y-13267428D01*
X16106381Y-13248381D01*
X16096857Y-13210286D01*
X16096857Y-13162667D01*
X16106381Y-13124571D01*
X16115905Y-13105524D01*
X16125428Y-13096000D01*
X16144476Y-13086476D01*
X16296857Y-13267428D02*
X16306381Y-13276952D01*
X16296857Y-13286476D01*
X16287333Y-13276952D01*
X16296857Y-13267428D01*
X16296857Y-13286476D01*
X16430190Y-13086476D02*
X16449238Y-13086476D01*
X16468286Y-13096000D01*
X16477809Y-13105524D01*
X16487333Y-13124571D01*
X16496857Y-13162667D01*
X16496857Y-13210286D01*
X16487333Y-13248381D01*
X16477809Y-13267428D01*
X16468286Y-13276952D01*
X16449238Y-13286476D01*
X16430190Y-13286476D01*
X16411143Y-13276952D01*
X16401619Y-13267428D01*
X16392095Y-13248381D01*
X16382571Y-13210286D01*
X16382571Y-13162667D01*
X16392095Y-13124571D01*
X16401619Y-13105524D01*
X16411143Y-13096000D01*
X16430190Y-13086476D01*
X16687333Y-13286476D02*
X16573048Y-13286476D01*
X16630190Y-13286476D02*
X16630190Y-13086476D01*
X16611143Y-13115048D01*
X16592095Y-13134095D01*
X16573048Y-13143619D01*
X16877810Y-13286476D02*
X16763524Y-13286476D01*
X16820667Y-13286476D02*
X16820667Y-13086476D01*
X16801619Y-13115048D01*
X16782571Y-13134095D01*
X16763524Y-13143619D01*
X16992095Y-13172190D02*
X16973048Y-13162667D01*
X16963524Y-13153143D01*
X16954000Y-13134095D01*
X16954000Y-13124571D01*
X16963524Y-13105524D01*
X16973048Y-13096000D01*
X16992095Y-13086476D01*
X17030190Y-13086476D01*
X17049238Y-13096000D01*
X17058762Y-13105524D01*
X17068286Y-13124571D01*
X17068286Y-13134095D01*
X17058762Y-13153143D01*
X17049238Y-13162667D01*
X17030190Y-13172190D01*
X16992095Y-13172190D01*
X16973048Y-13181714D01*
X16963524Y-13191238D01*
X16954000Y-13210286D01*
X16954000Y-13248381D01*
X16963524Y-13267428D01*
X16973048Y-13276952D01*
X16992095Y-13286476D01*
X17030190Y-13286476D01*
X17049238Y-13276952D01*
X17058762Y-13267428D01*
X17068286Y-13248381D01*
X17068286Y-13210286D01*
X17058762Y-13191238D01*
X17049238Y-13181714D01*
X17030190Y-13172190D01*
X17144476Y-13086476D02*
X17144476Y-13124571D01*
X17220667Y-13086476D02*
X17220667Y-13124571D01*
X17515905Y-13362667D02*
X17506381Y-13353143D01*
X17487333Y-13324571D01*
X17477810Y-13305524D01*
X17468286Y-13276952D01*
X17458762Y-13229333D01*
X17458762Y-13191238D01*
X17468286Y-13143619D01*
X17477810Y-13115048D01*
X17487333Y-13096000D01*
X17506381Y-13067428D01*
X17515905Y-13057905D01*
X17696857Y-13286476D02*
X17582571Y-13286476D01*
X17639714Y-13286476D02*
X17639714Y-13086476D01*
X17620667Y-13115048D01*
X17601619Y-13134095D01*
X17582571Y-13143619D01*
X17773048Y-13105524D02*
X17782571Y-13096000D01*
X17801619Y-13086476D01*
X17849238Y-13086476D01*
X17868286Y-13096000D01*
X17877810Y-13105524D01*
X17887333Y-13124571D01*
X17887333Y-13143619D01*
X17877810Y-13172190D01*
X17763524Y-13286476D01*
X17887333Y-13286476D01*
X18058762Y-13086476D02*
X18020667Y-13086476D01*
X18001619Y-13096000D01*
X17992095Y-13105524D01*
X17973048Y-13134095D01*
X17963524Y-13172190D01*
X17963524Y-13248381D01*
X17973048Y-13267428D01*
X17982571Y-13276952D01*
X18001619Y-13286476D01*
X18039714Y-13286476D01*
X18058762Y-13276952D01*
X18068286Y-13267428D01*
X18077810Y-13248381D01*
X18077810Y-13200762D01*
X18068286Y-13181714D01*
X18058762Y-13172190D01*
X18039714Y-13162667D01*
X18001619Y-13162667D01*
X17982571Y-13172190D01*
X17973048Y-13181714D01*
X17963524Y-13200762D01*
X18315905Y-13286476D02*
X18315905Y-13086476D01*
X18401619Y-13286476D02*
X18401619Y-13181714D01*
X18392095Y-13162667D01*
X18373048Y-13153143D01*
X18344476Y-13153143D01*
X18325429Y-13162667D01*
X18315905Y-13172190D01*
X18525429Y-13286476D02*
X18506381Y-13276952D01*
X18496857Y-13267428D01*
X18487333Y-13248381D01*
X18487333Y-13191238D01*
X18496857Y-13172190D01*
X18506381Y-13162667D01*
X18525429Y-13153143D01*
X18554000Y-13153143D01*
X18573048Y-13162667D01*
X18582571Y-13172190D01*
X18592095Y-13191238D01*
X18592095Y-13248381D01*
X18582571Y-13267428D01*
X18573048Y-13276952D01*
X18554000Y-13286476D01*
X18525429Y-13286476D01*
X18706381Y-13286476D02*
X18687333Y-13276952D01*
X18677810Y-13257905D01*
X18677810Y-13086476D01*
X18858762Y-13276952D02*
X18839714Y-13286476D01*
X18801619Y-13286476D01*
X18782571Y-13276952D01*
X18773048Y-13257905D01*
X18773048Y-13181714D01*
X18782571Y-13162667D01*
X18801619Y-13153143D01*
X18839714Y-13153143D01*
X18858762Y-13162667D01*
X18868286Y-13181714D01*
X18868286Y-13200762D01*
X18773048Y-13219809D01*
X18944476Y-13276952D02*
X18963524Y-13286476D01*
X19001619Y-13286476D01*
X19020667Y-13276952D01*
X19030190Y-13257905D01*
X19030190Y-13248381D01*
X19020667Y-13229333D01*
X19001619Y-13219809D01*
X18973048Y-13219809D01*
X18954000Y-13210286D01*
X18944476Y-13191238D01*
X18944476Y-13181714D01*
X18954000Y-13162667D01*
X18973048Y-13153143D01*
X19001619Y-13153143D01*
X19020667Y-13162667D01*
X19096857Y-13362667D02*
X19106381Y-13353143D01*
X19125429Y-13324571D01*
X19134952Y-13305524D01*
X19144476Y-13276952D01*
X19154000Y-13229333D01*
X19154000Y-13191238D01*
X19144476Y-13143619D01*
X19134952Y-13115048D01*
X19125429Y-13096000D01*
X19106381Y-13067428D01*
X19096857Y-13057905D01*
D12*
X13944000Y-13460000D02*
G75*
G03*
X13944000Y-13460000I-25000J0D01*
G01*
D10*
X14239714Y-13350476D02*
X14258762Y-13350476D01*
X14277809Y-13360000D01*
X14287333Y-13369524D01*
X14296857Y-13388571D01*
X14306381Y-13426667D01*
X14306381Y-13474286D01*
X14296857Y-13512381D01*
X14287333Y-13531428D01*
X14277809Y-13540952D01*
X14258762Y-13550476D01*
X14239714Y-13550476D01*
X14220667Y-13540952D01*
X14211143Y-13531428D01*
X14201619Y-13512381D01*
X14192095Y-13474286D01*
X14192095Y-13426667D01*
X14201619Y-13388571D01*
X14211143Y-13369524D01*
X14220667Y-13360000D01*
X14239714Y-13350476D01*
X14392095Y-13531428D02*
X14401619Y-13540952D01*
X14392095Y-13550476D01*
X14382571Y-13540952D01*
X14392095Y-13531428D01*
X14392095Y-13550476D01*
X14582571Y-13350476D02*
X14487333Y-13350476D01*
X14477809Y-13445714D01*
X14487333Y-13436190D01*
X14506381Y-13426667D01*
X14554000Y-13426667D01*
X14573048Y-13436190D01*
X14582571Y-13445714D01*
X14592095Y-13464762D01*
X14592095Y-13512381D01*
X14582571Y-13531428D01*
X14573048Y-13540952D01*
X14554000Y-13550476D01*
X14506381Y-13550476D01*
X14487333Y-13540952D01*
X14477809Y-13531428D01*
X14715905Y-13350476D02*
X14734952Y-13350476D01*
X14754000Y-13360000D01*
X14763524Y-13369524D01*
X14773048Y-13388571D01*
X14782571Y-13426667D01*
X14782571Y-13474286D01*
X14773048Y-13512381D01*
X14763524Y-13531428D01*
X14754000Y-13540952D01*
X14734952Y-13550476D01*
X14715905Y-13550476D01*
X14696857Y-13540952D01*
X14687333Y-13531428D01*
X14677809Y-13512381D01*
X14668286Y-13474286D01*
X14668286Y-13426667D01*
X14677809Y-13388571D01*
X14687333Y-13369524D01*
X14696857Y-13360000D01*
X14715905Y-13350476D01*
X14906381Y-13350476D02*
X14925428Y-13350476D01*
X14944476Y-13360000D01*
X14954000Y-13369524D01*
X14963524Y-13388571D01*
X14973048Y-13426667D01*
X14973048Y-13474286D01*
X14963524Y-13512381D01*
X14954000Y-13531428D01*
X14944476Y-13540952D01*
X14925428Y-13550476D01*
X14906381Y-13550476D01*
X14887333Y-13540952D01*
X14877809Y-13531428D01*
X14868286Y-13512381D01*
X14858762Y-13474286D01*
X14858762Y-13426667D01*
X14868286Y-13388571D01*
X14877809Y-13369524D01*
X14887333Y-13360000D01*
X14906381Y-13350476D01*
X15058762Y-13550476D02*
X15058762Y-13417143D01*
X15058762Y-13436190D02*
X15068286Y-13426667D01*
X15087333Y-13417143D01*
X15115905Y-13417143D01*
X15134952Y-13426667D01*
X15144476Y-13445714D01*
X15144476Y-13550476D01*
X15144476Y-13445714D02*
X15154000Y-13426667D01*
X15173048Y-13417143D01*
X15201619Y-13417143D01*
X15220667Y-13426667D01*
X15230190Y-13445714D01*
X15230190Y-13550476D01*
X15325428Y-13550476D02*
X15325428Y-13417143D01*
X15325428Y-13436190D02*
X15334952Y-13426667D01*
X15354000Y-13417143D01*
X15382571Y-13417143D01*
X15401619Y-13426667D01*
X15411143Y-13445714D01*
X15411143Y-13550476D01*
X15411143Y-13445714D02*
X15420667Y-13426667D01*
X15439714Y-13417143D01*
X15468286Y-13417143D01*
X15487333Y-13426667D01*
X15496857Y-13445714D01*
X15496857Y-13550476D01*
X15887333Y-13340952D02*
X15715905Y-13598095D01*
X16144476Y-13350476D02*
X16163524Y-13350476D01*
X16182571Y-13360000D01*
X16192095Y-13369524D01*
X16201619Y-13388571D01*
X16211143Y-13426667D01*
X16211143Y-13474286D01*
X16201619Y-13512381D01*
X16192095Y-13531428D01*
X16182571Y-13540952D01*
X16163524Y-13550476D01*
X16144476Y-13550476D01*
X16125428Y-13540952D01*
X16115905Y-13531428D01*
X16106381Y-13512381D01*
X16096857Y-13474286D01*
X16096857Y-13426667D01*
X16106381Y-13388571D01*
X16115905Y-13369524D01*
X16125428Y-13360000D01*
X16144476Y-13350476D01*
X16296857Y-13531428D02*
X16306381Y-13540952D01*
X16296857Y-13550476D01*
X16287333Y-13540952D01*
X16296857Y-13531428D01*
X16296857Y-13550476D01*
X16430190Y-13350476D02*
X16449238Y-13350476D01*
X16468286Y-13360000D01*
X16477809Y-13369524D01*
X16487333Y-13388571D01*
X16496857Y-13426667D01*
X16496857Y-13474286D01*
X16487333Y-13512381D01*
X16477809Y-13531428D01*
X16468286Y-13540952D01*
X16449238Y-13550476D01*
X16430190Y-13550476D01*
X16411143Y-13540952D01*
X16401619Y-13531428D01*
X16392095Y-13512381D01*
X16382571Y-13474286D01*
X16382571Y-13426667D01*
X16392095Y-13388571D01*
X16401619Y-13369524D01*
X16411143Y-13360000D01*
X16430190Y-13350476D01*
X16687333Y-13550476D02*
X16573048Y-13550476D01*
X16630190Y-13550476D02*
X16630190Y-13350476D01*
X16611143Y-13379048D01*
X16592095Y-13398095D01*
X16573048Y-13407619D01*
X16782571Y-13550476D02*
X16820667Y-13550476D01*
X16839714Y-13540952D01*
X16849238Y-13531428D01*
X16868286Y-13502857D01*
X16877810Y-13464762D01*
X16877810Y-13388571D01*
X16868286Y-13369524D01*
X16858762Y-13360000D01*
X16839714Y-13350476D01*
X16801619Y-13350476D01*
X16782571Y-13360000D01*
X16773048Y-13369524D01*
X16763524Y-13388571D01*
X16763524Y-13436190D01*
X16773048Y-13455238D01*
X16782571Y-13464762D01*
X16801619Y-13474286D01*
X16839714Y-13474286D01*
X16858762Y-13464762D01*
X16868286Y-13455238D01*
X16877810Y-13436190D01*
X16944476Y-13350476D02*
X17077810Y-13350476D01*
X16992095Y-13550476D01*
X17144476Y-13350476D02*
X17144476Y-13388571D01*
X17220667Y-13350476D02*
X17220667Y-13388571D01*
X17515905Y-13626667D02*
X17506381Y-13617143D01*
X17487333Y-13588571D01*
X17477810Y-13569524D01*
X17468286Y-13540952D01*
X17458762Y-13493333D01*
X17458762Y-13455238D01*
X17468286Y-13407619D01*
X17477810Y-13379048D01*
X17487333Y-13360000D01*
X17506381Y-13331428D01*
X17515905Y-13321905D01*
X17573048Y-13350476D02*
X17696857Y-13350476D01*
X17630190Y-13426667D01*
X17658762Y-13426667D01*
X17677810Y-13436190D01*
X17687333Y-13445714D01*
X17696857Y-13464762D01*
X17696857Y-13512381D01*
X17687333Y-13531428D01*
X17677810Y-13540952D01*
X17658762Y-13550476D01*
X17601619Y-13550476D01*
X17582571Y-13540952D01*
X17573048Y-13531428D01*
X17934952Y-13550476D02*
X17934952Y-13350476D01*
X18020667Y-13550476D02*
X18020667Y-13445714D01*
X18011143Y-13426667D01*
X17992095Y-13417143D01*
X17963524Y-13417143D01*
X17944476Y-13426667D01*
X17934952Y-13436190D01*
X18144476Y-13550476D02*
X18125429Y-13540952D01*
X18115905Y-13531428D01*
X18106381Y-13512381D01*
X18106381Y-13455238D01*
X18115905Y-13436190D01*
X18125429Y-13426667D01*
X18144476Y-13417143D01*
X18173048Y-13417143D01*
X18192095Y-13426667D01*
X18201619Y-13436190D01*
X18211143Y-13455238D01*
X18211143Y-13512381D01*
X18201619Y-13531428D01*
X18192095Y-13540952D01*
X18173048Y-13550476D01*
X18144476Y-13550476D01*
X18325429Y-13550476D02*
X18306381Y-13540952D01*
X18296857Y-13521905D01*
X18296857Y-13350476D01*
X18477810Y-13540952D02*
X18458762Y-13550476D01*
X18420667Y-13550476D01*
X18401619Y-13540952D01*
X18392095Y-13521905D01*
X18392095Y-13445714D01*
X18401619Y-13426667D01*
X18420667Y-13417143D01*
X18458762Y-13417143D01*
X18477810Y-13426667D01*
X18487333Y-13445714D01*
X18487333Y-13464762D01*
X18392095Y-13483809D01*
X18563524Y-13540952D02*
X18582571Y-13550476D01*
X18620667Y-13550476D01*
X18639714Y-13540952D01*
X18649238Y-13521905D01*
X18649238Y-13512381D01*
X18639714Y-13493333D01*
X18620667Y-13483809D01*
X18592095Y-13483809D01*
X18573048Y-13474286D01*
X18563524Y-13455238D01*
X18563524Y-13445714D01*
X18573048Y-13426667D01*
X18592095Y-13417143D01*
X18620667Y-13417143D01*
X18639714Y-13426667D01*
X18715905Y-13626667D02*
X18725429Y-13617143D01*
X18744476Y-13588571D01*
X18754000Y-13569524D01*
X18763524Y-13540952D01*
X18773048Y-13493333D01*
X18773048Y-13455238D01*
X18763524Y-13407619D01*
X18754000Y-13379048D01*
X18744476Y-13360000D01*
X18725429Y-13331428D01*
X18715905Y-13321905D01*
D13*
X13914000Y-13694000D02*
X13914000Y-13754000D01*
X13884000Y-13724000D02*
X13944000Y-13724000D01*
D10*
X14239714Y-13614476D02*
X14258762Y-13614476D01*
X14277809Y-13624000D01*
X14287333Y-13633524D01*
X14296857Y-13652571D01*
X14306381Y-13690667D01*
X14306381Y-13738286D01*
X14296857Y-13776381D01*
X14287333Y-13795428D01*
X14277809Y-13804952D01*
X14258762Y-13814476D01*
X14239714Y-13814476D01*
X14220667Y-13804952D01*
X14211143Y-13795428D01*
X14201619Y-13776381D01*
X14192095Y-13738286D01*
X14192095Y-13690667D01*
X14201619Y-13652571D01*
X14211143Y-13633524D01*
X14220667Y-13624000D01*
X14239714Y-13614476D01*
X14392095Y-13795428D02*
X14401619Y-13804952D01*
X14392095Y-13814476D01*
X14382571Y-13804952D01*
X14392095Y-13795428D01*
X14392095Y-13814476D01*
X14573048Y-13614476D02*
X14534952Y-13614476D01*
X14515905Y-13624000D01*
X14506381Y-13633524D01*
X14487333Y-13662095D01*
X14477809Y-13700190D01*
X14477809Y-13776381D01*
X14487333Y-13795428D01*
X14496857Y-13804952D01*
X14515905Y-13814476D01*
X14554000Y-13814476D01*
X14573048Y-13804952D01*
X14582571Y-13795428D01*
X14592095Y-13776381D01*
X14592095Y-13728762D01*
X14582571Y-13709714D01*
X14573048Y-13700190D01*
X14554000Y-13690667D01*
X14515905Y-13690667D01*
X14496857Y-13700190D01*
X14487333Y-13709714D01*
X14477809Y-13728762D01*
X14715905Y-13614476D02*
X14734952Y-13614476D01*
X14754000Y-13624000D01*
X14763524Y-13633524D01*
X14773048Y-13652571D01*
X14782571Y-13690667D01*
X14782571Y-13738286D01*
X14773048Y-13776381D01*
X14763524Y-13795428D01*
X14754000Y-13804952D01*
X14734952Y-13814476D01*
X14715905Y-13814476D01*
X14696857Y-13804952D01*
X14687333Y-13795428D01*
X14677809Y-13776381D01*
X14668286Y-13738286D01*
X14668286Y-13690667D01*
X14677809Y-13652571D01*
X14687333Y-13633524D01*
X14696857Y-13624000D01*
X14715905Y-13614476D01*
X14906381Y-13614476D02*
X14925428Y-13614476D01*
X14944476Y-13624000D01*
X14954000Y-13633524D01*
X14963524Y-13652571D01*
X14973048Y-13690667D01*
X14973048Y-13738286D01*
X14963524Y-13776381D01*
X14954000Y-13795428D01*
X14944476Y-13804952D01*
X14925428Y-13814476D01*
X14906381Y-13814476D01*
X14887333Y-13804952D01*
X14877809Y-13795428D01*
X14868286Y-13776381D01*
X14858762Y-13738286D01*
X14858762Y-13690667D01*
X14868286Y-13652571D01*
X14877809Y-13633524D01*
X14887333Y-13624000D01*
X14906381Y-13614476D01*
X15058762Y-13814476D02*
X15058762Y-13681143D01*
X15058762Y-13700190D02*
X15068286Y-13690667D01*
X15087333Y-13681143D01*
X15115905Y-13681143D01*
X15134952Y-13690667D01*
X15144476Y-13709714D01*
X15144476Y-13814476D01*
X15144476Y-13709714D02*
X15154000Y-13690667D01*
X15173048Y-13681143D01*
X15201619Y-13681143D01*
X15220667Y-13690667D01*
X15230190Y-13709714D01*
X15230190Y-13814476D01*
X15325428Y-13814476D02*
X15325428Y-13681143D01*
X15325428Y-13700190D02*
X15334952Y-13690667D01*
X15354000Y-13681143D01*
X15382571Y-13681143D01*
X15401619Y-13690667D01*
X15411143Y-13709714D01*
X15411143Y-13814476D01*
X15411143Y-13709714D02*
X15420667Y-13690667D01*
X15439714Y-13681143D01*
X15468286Y-13681143D01*
X15487333Y-13690667D01*
X15496857Y-13709714D01*
X15496857Y-13814476D01*
X15887333Y-13604952D02*
X15715905Y-13862095D01*
X16144476Y-13614476D02*
X16163524Y-13614476D01*
X16182571Y-13624000D01*
X16192095Y-13633524D01*
X16201619Y-13652571D01*
X16211143Y-13690667D01*
X16211143Y-13738286D01*
X16201619Y-13776381D01*
X16192095Y-13795428D01*
X16182571Y-13804952D01*
X16163524Y-13814476D01*
X16144476Y-13814476D01*
X16125428Y-13804952D01*
X16115905Y-13795428D01*
X16106381Y-13776381D01*
X16096857Y-13738286D01*
X16096857Y-13690667D01*
X16106381Y-13652571D01*
X16115905Y-13633524D01*
X16125428Y-13624000D01*
X16144476Y-13614476D01*
X16296857Y-13795428D02*
X16306381Y-13804952D01*
X16296857Y-13814476D01*
X16287333Y-13804952D01*
X16296857Y-13795428D01*
X16296857Y-13814476D01*
X16430190Y-13614476D02*
X16449238Y-13614476D01*
X16468286Y-13624000D01*
X16477809Y-13633524D01*
X16487333Y-13652571D01*
X16496857Y-13690667D01*
X16496857Y-13738286D01*
X16487333Y-13776381D01*
X16477809Y-13795428D01*
X16468286Y-13804952D01*
X16449238Y-13814476D01*
X16430190Y-13814476D01*
X16411143Y-13804952D01*
X16401619Y-13795428D01*
X16392095Y-13776381D01*
X16382571Y-13738286D01*
X16382571Y-13690667D01*
X16392095Y-13652571D01*
X16401619Y-13633524D01*
X16411143Y-13624000D01*
X16430190Y-13614476D01*
X16573048Y-13633524D02*
X16582571Y-13624000D01*
X16601619Y-13614476D01*
X16649238Y-13614476D01*
X16668286Y-13624000D01*
X16677809Y-13633524D01*
X16687333Y-13652571D01*
X16687333Y-13671619D01*
X16677809Y-13700190D01*
X16563524Y-13814476D01*
X16687333Y-13814476D01*
X16754000Y-13614476D02*
X16877810Y-13614476D01*
X16811143Y-13690667D01*
X16839714Y-13690667D01*
X16858762Y-13700190D01*
X16868286Y-13709714D01*
X16877810Y-13728762D01*
X16877810Y-13776381D01*
X16868286Y-13795428D01*
X16858762Y-13804952D01*
X16839714Y-13814476D01*
X16782571Y-13814476D01*
X16763524Y-13804952D01*
X16754000Y-13795428D01*
X17049238Y-13614476D02*
X17011143Y-13614476D01*
X16992095Y-13624000D01*
X16982571Y-13633524D01*
X16963524Y-13662095D01*
X16954000Y-13700190D01*
X16954000Y-13776381D01*
X16963524Y-13795428D01*
X16973048Y-13804952D01*
X16992095Y-13814476D01*
X17030190Y-13814476D01*
X17049238Y-13804952D01*
X17058762Y-13795428D01*
X17068286Y-13776381D01*
X17068286Y-13728762D01*
X17058762Y-13709714D01*
X17049238Y-13700190D01*
X17030190Y-13690667D01*
X16992095Y-13690667D01*
X16973048Y-13700190D01*
X16963524Y-13709714D01*
X16954000Y-13728762D01*
X17144476Y-13614476D02*
X17144476Y-13652571D01*
X17220667Y-13614476D02*
X17220667Y-13652571D01*
X17515905Y-13890667D02*
X17506381Y-13881143D01*
X17487333Y-13852571D01*
X17477810Y-13833524D01*
X17468286Y-13804952D01*
X17458762Y-13757333D01*
X17458762Y-13719238D01*
X17468286Y-13671619D01*
X17477810Y-13643048D01*
X17487333Y-13624000D01*
X17506381Y-13595428D01*
X17515905Y-13585905D01*
X17630190Y-13614476D02*
X17649238Y-13614476D01*
X17668286Y-13624000D01*
X17677810Y-13633524D01*
X17687333Y-13652571D01*
X17696857Y-13690667D01*
X17696857Y-13738286D01*
X17687333Y-13776381D01*
X17677810Y-13795428D01*
X17668286Y-13804952D01*
X17649238Y-13814476D01*
X17630190Y-13814476D01*
X17611143Y-13804952D01*
X17601619Y-13795428D01*
X17592095Y-13776381D01*
X17582571Y-13738286D01*
X17582571Y-13690667D01*
X17592095Y-13652571D01*
X17601619Y-13633524D01*
X17611143Y-13624000D01*
X17630190Y-13614476D01*
X17934952Y-13814476D02*
X17934952Y-13614476D01*
X18020667Y-13814476D02*
X18020667Y-13709714D01*
X18011143Y-13690667D01*
X17992095Y-13681143D01*
X17963524Y-13681143D01*
X17944476Y-13690667D01*
X17934952Y-13700190D01*
X18144476Y-13814476D02*
X18125429Y-13804952D01*
X18115905Y-13795428D01*
X18106381Y-13776381D01*
X18106381Y-13719238D01*
X18115905Y-13700190D01*
X18125429Y-13690667D01*
X18144476Y-13681143D01*
X18173048Y-13681143D01*
X18192095Y-13690667D01*
X18201619Y-13700190D01*
X18211143Y-13719238D01*
X18211143Y-13776381D01*
X18201619Y-13795428D01*
X18192095Y-13804952D01*
X18173048Y-13814476D01*
X18144476Y-13814476D01*
X18325429Y-13814476D02*
X18306381Y-13804952D01*
X18296857Y-13785905D01*
X18296857Y-13614476D01*
X18477810Y-13804952D02*
X18458762Y-13814476D01*
X18420667Y-13814476D01*
X18401619Y-13804952D01*
X18392095Y-13785905D01*
X18392095Y-13709714D01*
X18401619Y-13690667D01*
X18420667Y-13681143D01*
X18458762Y-13681143D01*
X18477810Y-13690667D01*
X18487333Y-13709714D01*
X18487333Y-13728762D01*
X18392095Y-13747809D01*
X18563524Y-13804952D02*
X18582571Y-13814476D01*
X18620667Y-13814476D01*
X18639714Y-13804952D01*
X18649238Y-13785905D01*
X18649238Y-13776381D01*
X18639714Y-13757333D01*
X18620667Y-13747809D01*
X18592095Y-13747809D01*
X18573048Y-13738286D01*
X18563524Y-13719238D01*
X18563524Y-13709714D01*
X18573048Y-13690667D01*
X18592095Y-13681143D01*
X18620667Y-13681143D01*
X18639714Y-13690667D01*
X18887333Y-13738286D02*
X19039714Y-13738286D01*
X18963524Y-13814476D02*
X18963524Y-13662095D01*
X19315905Y-13700190D02*
X19296857Y-13690667D01*
X19287333Y-13681143D01*
X19277810Y-13662095D01*
X19277810Y-13652571D01*
X19287333Y-13633524D01*
X19296857Y-13624000D01*
X19315905Y-13614476D01*
X19354000Y-13614476D01*
X19373048Y-13624000D01*
X19382571Y-13633524D01*
X19392095Y-13652571D01*
X19392095Y-13662095D01*
X19382571Y-13681143D01*
X19373048Y-13690667D01*
X19354000Y-13700190D01*
X19315905Y-13700190D01*
X19296857Y-13709714D01*
X19287333Y-13719238D01*
X19277810Y-13738286D01*
X19277810Y-13776381D01*
X19287333Y-13795428D01*
X19296857Y-13804952D01*
X19315905Y-13814476D01*
X19354000Y-13814476D01*
X19373048Y-13804952D01*
X19382571Y-13795428D01*
X19392095Y-13776381D01*
X19392095Y-13738286D01*
X19382571Y-13719238D01*
X19373048Y-13709714D01*
X19354000Y-13700190D01*
X19620667Y-13804952D02*
X19639714Y-13814476D01*
X19677810Y-13814476D01*
X19696857Y-13804952D01*
X19706381Y-13785905D01*
X19706381Y-13776381D01*
X19696857Y-13757333D01*
X19677810Y-13747809D01*
X19649238Y-13747809D01*
X19630190Y-13738286D01*
X19620667Y-13719238D01*
X19620667Y-13709714D01*
X19630190Y-13690667D01*
X19649238Y-13681143D01*
X19677810Y-13681143D01*
X19696857Y-13690667D01*
X19820667Y-13814476D02*
X19801619Y-13804952D01*
X19792095Y-13785905D01*
X19792095Y-13614476D01*
X19925429Y-13814476D02*
X19906381Y-13804952D01*
X19896857Y-13795428D01*
X19887333Y-13776381D01*
X19887333Y-13719238D01*
X19896857Y-13700190D01*
X19906381Y-13690667D01*
X19925429Y-13681143D01*
X19954000Y-13681143D01*
X19973048Y-13690667D01*
X19982571Y-13700190D01*
X19992095Y-13719238D01*
X19992095Y-13776381D01*
X19982571Y-13795428D01*
X19973048Y-13804952D01*
X19954000Y-13814476D01*
X19925429Y-13814476D01*
X20049238Y-13681143D02*
X20125429Y-13681143D01*
X20077810Y-13614476D02*
X20077810Y-13785905D01*
X20087333Y-13804952D01*
X20106381Y-13814476D01*
X20125429Y-13814476D01*
X20182571Y-13804952D02*
X20201619Y-13814476D01*
X20239714Y-13814476D01*
X20258762Y-13804952D01*
X20268286Y-13785905D01*
X20268286Y-13776381D01*
X20258762Y-13757333D01*
X20239714Y-13747809D01*
X20211143Y-13747809D01*
X20192095Y-13738286D01*
X20182571Y-13719238D01*
X20182571Y-13709714D01*
X20192095Y-13690667D01*
X20211143Y-13681143D01*
X20239714Y-13681143D01*
X20258762Y-13690667D01*
X20334952Y-13890667D02*
X20344476Y-13881143D01*
X20363524Y-13852571D01*
X20373048Y-13833524D01*
X20382571Y-13804952D01*
X20392095Y-13757333D01*
X20392095Y-13719238D01*
X20382571Y-13671619D01*
X20373048Y-13643048D01*
X20363524Y-13624000D01*
X20344476Y-13595428D01*
X20334952Y-13585905D01*
D14*
X13929356Y-14023356D02*
X13929356Y-13952644D01*
X13858644Y-13952644D01*
X13858644Y-14023356D01*
X13929356Y-14023356D01*
D10*
X14306381Y-14078476D02*
X14192095Y-14078476D01*
X14249238Y-14078476D02*
X14249238Y-13878476D01*
X14230190Y-13907048D01*
X14211143Y-13926095D01*
X14192095Y-13935619D01*
X14392095Y-14059428D02*
X14401619Y-14068952D01*
X14392095Y-14078476D01*
X14382571Y-14068952D01*
X14392095Y-14059428D01*
X14392095Y-14078476D01*
X14525428Y-13878476D02*
X14544476Y-13878476D01*
X14563524Y-13888000D01*
X14573048Y-13897524D01*
X14582571Y-13916571D01*
X14592095Y-13954667D01*
X14592095Y-14002286D01*
X14582571Y-14040381D01*
X14573048Y-14059428D01*
X14563524Y-14068952D01*
X14544476Y-14078476D01*
X14525428Y-14078476D01*
X14506381Y-14068952D01*
X14496857Y-14059428D01*
X14487333Y-14040381D01*
X14477809Y-14002286D01*
X14477809Y-13954667D01*
X14487333Y-13916571D01*
X14496857Y-13897524D01*
X14506381Y-13888000D01*
X14525428Y-13878476D01*
X14715905Y-13878476D02*
X14734952Y-13878476D01*
X14754000Y-13888000D01*
X14763524Y-13897524D01*
X14773048Y-13916571D01*
X14782571Y-13954667D01*
X14782571Y-14002286D01*
X14773048Y-14040381D01*
X14763524Y-14059428D01*
X14754000Y-14068952D01*
X14734952Y-14078476D01*
X14715905Y-14078476D01*
X14696857Y-14068952D01*
X14687333Y-14059428D01*
X14677809Y-14040381D01*
X14668286Y-14002286D01*
X14668286Y-13954667D01*
X14677809Y-13916571D01*
X14687333Y-13897524D01*
X14696857Y-13888000D01*
X14715905Y-13878476D01*
X14906381Y-13878476D02*
X14925428Y-13878476D01*
X14944476Y-13888000D01*
X14954000Y-13897524D01*
X14963524Y-13916571D01*
X14973048Y-13954667D01*
X14973048Y-14002286D01*
X14963524Y-14040381D01*
X14954000Y-14059428D01*
X14944476Y-14068952D01*
X14925428Y-14078476D01*
X14906381Y-14078476D01*
X14887333Y-14068952D01*
X14877809Y-14059428D01*
X14868286Y-14040381D01*
X14858762Y-14002286D01*
X14858762Y-13954667D01*
X14868286Y-13916571D01*
X14877809Y-13897524D01*
X14887333Y-13888000D01*
X14906381Y-13878476D01*
X15058762Y-14078476D02*
X15058762Y-13945143D01*
X15058762Y-13964190D02*
X15068286Y-13954667D01*
X15087333Y-13945143D01*
X15115905Y-13945143D01*
X15134952Y-13954667D01*
X15144476Y-13973714D01*
X15144476Y-14078476D01*
X15144476Y-13973714D02*
X15154000Y-13954667D01*
X15173048Y-13945143D01*
X15201619Y-13945143D01*
X15220667Y-13954667D01*
X15230190Y-13973714D01*
X15230190Y-14078476D01*
X15325428Y-14078476D02*
X15325428Y-13945143D01*
X15325428Y-13964190D02*
X15334952Y-13954667D01*
X15354000Y-13945143D01*
X15382571Y-13945143D01*
X15401619Y-13954667D01*
X15411143Y-13973714D01*
X15411143Y-14078476D01*
X15411143Y-13973714D02*
X15420667Y-13954667D01*
X15439714Y-13945143D01*
X15468286Y-13945143D01*
X15487333Y-13954667D01*
X15496857Y-13973714D01*
X15496857Y-14078476D01*
X15887333Y-13868952D02*
X15715905Y-14126095D01*
X16144476Y-13878476D02*
X16163524Y-13878476D01*
X16182571Y-13888000D01*
X16192095Y-13897524D01*
X16201619Y-13916571D01*
X16211143Y-13954667D01*
X16211143Y-14002286D01*
X16201619Y-14040381D01*
X16192095Y-14059428D01*
X16182571Y-14068952D01*
X16163524Y-14078476D01*
X16144476Y-14078476D01*
X16125428Y-14068952D01*
X16115905Y-14059428D01*
X16106381Y-14040381D01*
X16096857Y-14002286D01*
X16096857Y-13954667D01*
X16106381Y-13916571D01*
X16115905Y-13897524D01*
X16125428Y-13888000D01*
X16144476Y-13878476D01*
X16296857Y-14059428D02*
X16306381Y-14068952D01*
X16296857Y-14078476D01*
X16287333Y-14068952D01*
X16296857Y-14059428D01*
X16296857Y-14078476D01*
X16430190Y-13878476D02*
X16449238Y-13878476D01*
X16468286Y-13888000D01*
X16477809Y-13897524D01*
X16487333Y-13916571D01*
X16496857Y-13954667D01*
X16496857Y-14002286D01*
X16487333Y-14040381D01*
X16477809Y-14059428D01*
X16468286Y-14068952D01*
X16449238Y-14078476D01*
X16430190Y-14078476D01*
X16411143Y-14068952D01*
X16401619Y-14059428D01*
X16392095Y-14040381D01*
X16382571Y-14002286D01*
X16382571Y-13954667D01*
X16392095Y-13916571D01*
X16401619Y-13897524D01*
X16411143Y-13888000D01*
X16430190Y-13878476D01*
X16563524Y-13878476D02*
X16687333Y-13878476D01*
X16620667Y-13954667D01*
X16649238Y-13954667D01*
X16668286Y-13964190D01*
X16677809Y-13973714D01*
X16687333Y-13992762D01*
X16687333Y-14040381D01*
X16677809Y-14059428D01*
X16668286Y-14068952D01*
X16649238Y-14078476D01*
X16592095Y-14078476D01*
X16573048Y-14068952D01*
X16563524Y-14059428D01*
X16782571Y-14078476D02*
X16820667Y-14078476D01*
X16839714Y-14068952D01*
X16849238Y-14059428D01*
X16868286Y-14030857D01*
X16877810Y-13992762D01*
X16877810Y-13916571D01*
X16868286Y-13897524D01*
X16858762Y-13888000D01*
X16839714Y-13878476D01*
X16801619Y-13878476D01*
X16782571Y-13888000D01*
X16773048Y-13897524D01*
X16763524Y-13916571D01*
X16763524Y-13964190D01*
X16773048Y-13983238D01*
X16782571Y-13992762D01*
X16801619Y-14002286D01*
X16839714Y-14002286D01*
X16858762Y-13992762D01*
X16868286Y-13983238D01*
X16877810Y-13964190D01*
X17049238Y-13945143D02*
X17049238Y-14078476D01*
X17001619Y-13868952D02*
X16954000Y-14011809D01*
X17077810Y-14011809D01*
X17144476Y-13878476D02*
X17144476Y-13916571D01*
X17220667Y-13878476D02*
X17220667Y-13916571D01*
X17515905Y-14154667D02*
X17506381Y-14145143D01*
X17487333Y-14116571D01*
X17477810Y-14097524D01*
X17468286Y-14068952D01*
X17458762Y-14021333D01*
X17458762Y-13983238D01*
X17468286Y-13935619D01*
X17477810Y-13907048D01*
X17487333Y-13888000D01*
X17506381Y-13859428D01*
X17515905Y-13849905D01*
X17620667Y-13964190D02*
X17601619Y-13954667D01*
X17592095Y-13945143D01*
X17582571Y-13926095D01*
X17582571Y-13916571D01*
X17592095Y-13897524D01*
X17601619Y-13888000D01*
X17620667Y-13878476D01*
X17658762Y-13878476D01*
X17677810Y-13888000D01*
X17687333Y-13897524D01*
X17696857Y-13916571D01*
X17696857Y-13926095D01*
X17687333Y-13945143D01*
X17677810Y-13954667D01*
X17658762Y-13964190D01*
X17620667Y-13964190D01*
X17601619Y-13973714D01*
X17592095Y-13983238D01*
X17582571Y-14002286D01*
X17582571Y-14040381D01*
X17592095Y-14059428D01*
X17601619Y-14068952D01*
X17620667Y-14078476D01*
X17658762Y-14078476D01*
X17677810Y-14068952D01*
X17687333Y-14059428D01*
X17696857Y-14040381D01*
X17696857Y-14002286D01*
X17687333Y-13983238D01*
X17677810Y-13973714D01*
X17658762Y-13964190D01*
X17820667Y-13878476D02*
X17839714Y-13878476D01*
X17858762Y-13888000D01*
X17868286Y-13897524D01*
X17877810Y-13916571D01*
X17887333Y-13954667D01*
X17887333Y-14002286D01*
X17877810Y-14040381D01*
X17868286Y-14059428D01*
X17858762Y-14068952D01*
X17839714Y-14078476D01*
X17820667Y-14078476D01*
X17801619Y-14068952D01*
X17792095Y-14059428D01*
X17782571Y-14040381D01*
X17773048Y-14002286D01*
X17773048Y-13954667D01*
X17782571Y-13916571D01*
X17792095Y-13897524D01*
X17801619Y-13888000D01*
X17820667Y-13878476D01*
X18125429Y-14078476D02*
X18125429Y-13878476D01*
X18211143Y-14078476D02*
X18211143Y-13973714D01*
X18201619Y-13954667D01*
X18182571Y-13945143D01*
X18154000Y-13945143D01*
X18134952Y-13954667D01*
X18125429Y-13964190D01*
X18334952Y-14078476D02*
X18315905Y-14068952D01*
X18306381Y-14059428D01*
X18296857Y-14040381D01*
X18296857Y-13983238D01*
X18306381Y-13964190D01*
X18315905Y-13954667D01*
X18334952Y-13945143D01*
X18363524Y-13945143D01*
X18382571Y-13954667D01*
X18392095Y-13964190D01*
X18401619Y-13983238D01*
X18401619Y-14040381D01*
X18392095Y-14059428D01*
X18382571Y-14068952D01*
X18363524Y-14078476D01*
X18334952Y-14078476D01*
X18515905Y-14078476D02*
X18496857Y-14068952D01*
X18487333Y-14049905D01*
X18487333Y-13878476D01*
X18668286Y-14068952D02*
X18649238Y-14078476D01*
X18611143Y-14078476D01*
X18592095Y-14068952D01*
X18582571Y-14049905D01*
X18582571Y-13973714D01*
X18592095Y-13954667D01*
X18611143Y-13945143D01*
X18649238Y-13945143D01*
X18668286Y-13954667D01*
X18677810Y-13973714D01*
X18677810Y-13992762D01*
X18582571Y-14011809D01*
X18754000Y-14068952D02*
X18773048Y-14078476D01*
X18811143Y-14078476D01*
X18830190Y-14068952D01*
X18839714Y-14049905D01*
X18839714Y-14040381D01*
X18830190Y-14021333D01*
X18811143Y-14011809D01*
X18782571Y-14011809D01*
X18763524Y-14002286D01*
X18754000Y-13983238D01*
X18754000Y-13973714D01*
X18763524Y-13954667D01*
X18782571Y-13945143D01*
X18811143Y-13945143D01*
X18830190Y-13954667D01*
X18906381Y-14154667D02*
X18915905Y-14145143D01*
X18934952Y-14116571D01*
X18944476Y-14097524D01*
X18954000Y-14068952D01*
X18963524Y-14021333D01*
X18963524Y-13983238D01*
X18954000Y-13935619D01*
X18944476Y-13907048D01*
X18934952Y-13888000D01*
X18915905Y-13859428D01*
X18906381Y-13849905D01*
M02*
