%TF.GenerationSoftware,KiCad,Pcbnew,6.0.11+dfsg-1*%
%TF.CreationDate,2023-04-26T00:49:17+01:00*%
%TF.ProjectId,bico,6269636f-2e6b-4696-9361-645f70636258,rev?*%
%TF.SameCoordinates,Original*%
%TF.FileFunction,Paste,Top*%
%TF.FilePolarity,Positive*%
%FSLAX46Y46*%
G04 Gerber Fmt 4.6, Leading zero omitted, Abs format (unit mm)*
G04 Created by KiCad (PCBNEW 6.0.11+dfsg-1) date 2023-04-26 00:49:17*
%MOMM*%
%LPD*%
G01*
G04 APERTURE LIST*
G04 Aperture macros list*
%AMRoundRect*
0 Rectangle with rounded corners*
0 $1 Rounding radius*
0 $2 $3 $4 $5 $6 $7 $8 $9 X,Y pos of 4 corners*
0 Add a 4 corners polygon primitive as box body*
4,1,4,$2,$3,$4,$5,$6,$7,$8,$9,$2,$3,0*
0 Add four circle primitives for the rounded corners*
1,1,$1+$1,$2,$3*
1,1,$1+$1,$4,$5*
1,1,$1+$1,$6,$7*
1,1,$1+$1,$8,$9*
0 Add four rect primitives between the rounded corners*
20,1,$1+$1,$2,$3,$4,$5,0*
20,1,$1+$1,$4,$5,$6,$7,0*
20,1,$1+$1,$6,$7,$8,$9,0*
20,1,$1+$1,$8,$9,$2,$3,0*%
G04 Aperture macros list end*
%ADD10R,1.200000X0.900000*%
%ADD11R,0.650000X1.560000*%
%ADD12R,0.650000X1.050000*%
%ADD13RoundRect,0.135000X0.135000X0.185000X-0.135000X0.185000X-0.135000X-0.185000X0.135000X-0.185000X0*%
%ADD14RoundRect,0.135000X-0.185000X0.135000X-0.185000X-0.135000X0.185000X-0.135000X0.185000X0.135000X0*%
%ADD15RoundRect,0.135000X-0.135000X-0.185000X0.135000X-0.185000X0.135000X0.185000X-0.135000X0.185000X0*%
%ADD16RoundRect,0.135000X0.185000X-0.135000X0.185000X0.135000X-0.185000X0.135000X-0.185000X-0.135000X0*%
%ADD17RoundRect,0.218750X-0.218750X-0.256250X0.218750X-0.256250X0.218750X0.256250X-0.218750X0.256250X0*%
%ADD18RoundRect,0.218750X0.256250X-0.218750X0.256250X0.218750X-0.256250X0.218750X-0.256250X-0.218750X0*%
%ADD19RoundRect,0.140000X-0.140000X-0.170000X0.140000X-0.170000X0.140000X0.170000X-0.140000X0.170000X0*%
%ADD20RoundRect,0.140000X0.140000X0.170000X-0.140000X0.170000X-0.140000X-0.170000X0.140000X-0.170000X0*%
%ADD21RoundRect,0.140000X0.170000X-0.140000X0.170000X0.140000X-0.170000X0.140000X-0.170000X-0.140000X0*%
%ADD22RoundRect,0.140000X-0.170000X0.140000X-0.170000X-0.140000X0.170000X-0.140000X0.170000X0.140000X0*%
%ADD23O,1.000000X0.200000*%
%ADD24O,0.200000X1.000000*%
%ADD25R,1.400000X1.400000*%
%ADD26R,0.600000X1.150000*%
%ADD27R,0.300000X1.150000*%
%ADD28RoundRect,0.100000X-0.100000X-0.320000X0.100000X-0.320000X0.100000X0.320000X-0.100000X0.320000X0*%
%ADD29RoundRect,0.062500X-0.312500X-0.062500X0.312500X-0.062500X0.312500X0.062500X-0.312500X0.062500X0*%
%ADD30R,1.400000X1.200000*%
%ADD31RoundRect,0.100000X0.100000X0.320000X-0.100000X0.320000X-0.100000X-0.320000X0.100000X-0.320000X0*%
%ADD32RoundRect,0.062500X0.312500X0.062500X-0.312500X0.062500X-0.312500X-0.062500X0.312500X-0.062500X0*%
G04 APERTURE END LIST*
D10*
X156500000Y-121050000D03*
X156500000Y-124350000D03*
D11*
X156700000Y-84650000D03*
X155750000Y-84650000D03*
X154800000Y-84650000D03*
X154800000Y-87350000D03*
X156700000Y-87350000D03*
D10*
X156750000Y-79150000D03*
X156750000Y-75850000D03*
D12*
X142675000Y-110275000D03*
X144825000Y-110275000D03*
X144825000Y-114425000D03*
X142675000Y-114425000D03*
D13*
X144110000Y-117800000D03*
X143090000Y-117800000D03*
D14*
X144500000Y-86990000D03*
X144500000Y-88010000D03*
D15*
X155990000Y-117500000D03*
X157010000Y-117500000D03*
D14*
X149800000Y-114790000D03*
X149800000Y-115810000D03*
X148800000Y-114790000D03*
X148800000Y-115810000D03*
D15*
X155990000Y-118600000D03*
X157010000Y-118600000D03*
X155990000Y-119700000D03*
X157010000Y-119700000D03*
D16*
X145600000Y-88010000D03*
X145600000Y-86990000D03*
X150250000Y-92260000D03*
X150250000Y-91240000D03*
D13*
X144010000Y-82030000D03*
X142990000Y-82030000D03*
D16*
X151250000Y-92260000D03*
X151250000Y-91240000D03*
D13*
X144010000Y-81000000D03*
X142990000Y-81000000D03*
D17*
X143012500Y-116150000D03*
X144587500Y-116150000D03*
D18*
X145000000Y-85287500D03*
X145000000Y-83712500D03*
D19*
X154820000Y-108300000D03*
X155780000Y-108300000D03*
X154820000Y-113400000D03*
X155780000Y-113400000D03*
D20*
X145180000Y-109000000D03*
X144220000Y-109000000D03*
D21*
X149250000Y-105180000D03*
X149250000Y-104220000D03*
D22*
X155700000Y-104220000D03*
X155700000Y-105180000D03*
D21*
X150300000Y-105180000D03*
X150300000Y-104220000D03*
D20*
X151380000Y-116700000D03*
X150420000Y-116700000D03*
D21*
X148200000Y-105180000D03*
X148200000Y-104220000D03*
D22*
X150800000Y-114820000D03*
X150800000Y-115780000D03*
X147800000Y-114820000D03*
X147800000Y-115780000D03*
X146800000Y-114820000D03*
X146800000Y-115780000D03*
D19*
X155770000Y-89000000D03*
X156730000Y-89000000D03*
X155770000Y-83000000D03*
X156730000Y-83000000D03*
D20*
X145230000Y-94250000D03*
X144270000Y-94250000D03*
D19*
X154770000Y-94500000D03*
X155730000Y-94500000D03*
X154770000Y-98000000D03*
X155730000Y-98000000D03*
D20*
X145230000Y-98000000D03*
X144270000Y-98000000D03*
X146243248Y-89550000D03*
X145283248Y-89550000D03*
D22*
X150300000Y-101750000D03*
X150300000Y-102710000D03*
D21*
X149250000Y-92230000D03*
X149250000Y-91270000D03*
X152250000Y-92230000D03*
X152250000Y-91270000D03*
X153250000Y-92230000D03*
X153250000Y-91270000D03*
D23*
X153500000Y-112600000D03*
X153500000Y-112200000D03*
X153500000Y-111800000D03*
X153500000Y-111400000D03*
X153500000Y-111000000D03*
X153500000Y-110600000D03*
X153500000Y-110200000D03*
X153500000Y-109800000D03*
X153500000Y-109400000D03*
X153500000Y-109000000D03*
X153500000Y-108600000D03*
X153500000Y-108200000D03*
X153500000Y-107800000D03*
X153500000Y-107400000D03*
D24*
X152600000Y-106500000D03*
X152200000Y-106500000D03*
X151800000Y-106500000D03*
X151400000Y-106500000D03*
X151000000Y-106500000D03*
X150600000Y-106500000D03*
X150200000Y-106500000D03*
X149800000Y-106500000D03*
X149400000Y-106500000D03*
X149000000Y-106500000D03*
X148600000Y-106500000D03*
X148200000Y-106500000D03*
X147800000Y-106500000D03*
X147400000Y-106500000D03*
D23*
X146500000Y-107400000D03*
X146500000Y-107800000D03*
X146500000Y-108200000D03*
X146500000Y-108600000D03*
X146500000Y-109000000D03*
X146500000Y-109400000D03*
X146500000Y-109800000D03*
X146500000Y-110200000D03*
X146500000Y-110600000D03*
X146500000Y-111000000D03*
X146500000Y-111400000D03*
X146500000Y-111800000D03*
X146500000Y-112200000D03*
X146500000Y-112600000D03*
D24*
X147400000Y-113500000D03*
X147800000Y-113500000D03*
X148200000Y-113500000D03*
X148600000Y-113500000D03*
X149000000Y-113500000D03*
X149400000Y-113500000D03*
X149800000Y-113500000D03*
X150200000Y-113500000D03*
X150600000Y-113500000D03*
X151000000Y-113500000D03*
X151400000Y-113500000D03*
X151800000Y-113500000D03*
X152200000Y-113500000D03*
X152600000Y-113500000D03*
D25*
X150800000Y-110800000D03*
X150800000Y-109200000D03*
X149200000Y-110800000D03*
X149200000Y-109200000D03*
D26*
X153200000Y-81680000D03*
X152400000Y-81680000D03*
D27*
X151250000Y-81680000D03*
X150250000Y-81680000D03*
X149750000Y-81680000D03*
X148750000Y-81680000D03*
D26*
X147600000Y-81680000D03*
X146800000Y-81680000D03*
X146800000Y-81680000D03*
X147600000Y-81680000D03*
D27*
X148250000Y-81680000D03*
X149250000Y-81680000D03*
X150750000Y-81680000D03*
X151750000Y-81680000D03*
D26*
X152400000Y-81680000D03*
X153200000Y-81680000D03*
D12*
X146925000Y-83925000D03*
X149075000Y-83925000D03*
X149075000Y-88075000D03*
X146925000Y-88075000D03*
X150925000Y-83925000D03*
X153075000Y-83925000D03*
X153075000Y-88075000D03*
X150925000Y-88075000D03*
D26*
X146800000Y-118320000D03*
X147600000Y-118320000D03*
D27*
X148750000Y-118320000D03*
X149750000Y-118320000D03*
X150250000Y-118320000D03*
X151250000Y-118320000D03*
D26*
X152400000Y-118320000D03*
X153200000Y-118320000D03*
X153200000Y-118320000D03*
X152400000Y-118320000D03*
D27*
X151750000Y-118320000D03*
X150750000Y-118320000D03*
X149250000Y-118320000D03*
X148250000Y-118320000D03*
D26*
X147600000Y-118320000D03*
X146800000Y-118320000D03*
D23*
X146500000Y-94400000D03*
X146500000Y-94800000D03*
X146500000Y-95200000D03*
X146500000Y-95600000D03*
X146500000Y-96000000D03*
X146500000Y-96400000D03*
X146500000Y-96800000D03*
X146500000Y-97200000D03*
X146500000Y-97600000D03*
X146500000Y-98000000D03*
X146500000Y-98400000D03*
X146500000Y-98800000D03*
X146500000Y-99200000D03*
X146500000Y-99600000D03*
D24*
X147400000Y-100500000D03*
X147800000Y-100500000D03*
X148200000Y-100500000D03*
X148600000Y-100500000D03*
X149000000Y-100500000D03*
X149400000Y-100500000D03*
X149800000Y-100500000D03*
X150200000Y-100500000D03*
X150600000Y-100500000D03*
X151000000Y-100500000D03*
X151400000Y-100500000D03*
X151800000Y-100500000D03*
X152200000Y-100500000D03*
X152600000Y-100500000D03*
D23*
X153500000Y-99600000D03*
X153500000Y-99200000D03*
X153500000Y-98800000D03*
X153500000Y-98400000D03*
X153500000Y-98000000D03*
X153500000Y-97600000D03*
X153500000Y-97200000D03*
X153500000Y-96800000D03*
X153500000Y-96400000D03*
X153500000Y-96000000D03*
X153500000Y-95600000D03*
X153500000Y-95200000D03*
X153500000Y-94800000D03*
X153500000Y-94400000D03*
D24*
X152600000Y-93500000D03*
X152200000Y-93500000D03*
X151800000Y-93500000D03*
X151400000Y-93500000D03*
X151000000Y-93500000D03*
X150600000Y-93500000D03*
X150200000Y-93500000D03*
X149800000Y-93500000D03*
X149400000Y-93500000D03*
X149000000Y-93500000D03*
X148600000Y-93500000D03*
X148200000Y-93500000D03*
X147800000Y-93500000D03*
X147400000Y-93500000D03*
D25*
X149200000Y-96200000D03*
X149200000Y-97800000D03*
X150800000Y-96200000D03*
X150800000Y-97800000D03*
D28*
X145763248Y-91750000D03*
X145763248Y-90790000D03*
D29*
X144263248Y-90520000D03*
X144263248Y-91020000D03*
X144263248Y-91520000D03*
X144263248Y-92020000D03*
X147263248Y-92020000D03*
X147263248Y-91520000D03*
X147263248Y-91020000D03*
X147263248Y-90520000D03*
D30*
X151900000Y-104850000D03*
X154100000Y-104850000D03*
X154100000Y-103150000D03*
X151900000Y-103150000D03*
D31*
X153900000Y-115220000D03*
X153900000Y-116180000D03*
D32*
X155400000Y-116450000D03*
X155400000Y-115950000D03*
X155400000Y-115450000D03*
X155400000Y-114950000D03*
X152400000Y-114950000D03*
X152400000Y-115450000D03*
X152400000Y-115950000D03*
X152400000Y-116450000D03*
M02*
