%TF.GenerationSoftware,KiCad,Pcbnew,6.0.11+dfsg-1*%
%TF.CreationDate,2023-04-26T00:49:17+01:00*%
%TF.ProjectId,bico,6269636f-2e6b-4696-9361-645f70636258,rev?*%
%TF.SameCoordinates,Original*%
%TF.FileFunction,Legend,Bot*%
%TF.FilePolarity,Positive*%
%FSLAX46Y46*%
G04 Gerber Fmt 4.6, Leading zero omitted, Abs format (unit mm)*
G04 Created by KiCad (PCBNEW 6.0.11+dfsg-1) date 2023-04-26 00:49:17*
%MOMM*%
%LPD*%
G01*
G04 APERTURE LIST*
G04 Aperture macros list*
%AMFreePoly0*
4,1,19,-0.700000,0.800000,0.000000,0.800000,0.127565,0.788278,0.288060,0.737982,0.431925,0.650855,0.550855,0.531925,0.637982,0.388060,0.688278,0.227565,0.700000,0.100000,0.700000,-0.100000,0.688278,-0.227565,0.637982,-0.388060,0.550855,-0.531925,0.431925,-0.650855,0.288060,-0.737982,0.127565,-0.788278,0.000000,-0.800000,-0.700000,-0.800000,-0.700000,0.800000,-0.700000,0.800000,
$1*%
%AMFreePoly1*
4,1,13,-0.700000,0.800000,0.560000,0.800000,0.613576,0.789343,0.658995,0.758995,0.689343,0.713576,0.700000,0.660000,0.700000,-0.660000,0.689343,-0.713576,0.658995,-0.758995,0.613576,-0.789343,0.560000,-0.800000,-0.700000,-0.800000,-0.700000,0.800000,-0.700000,0.800000,$1*%
G04 Aperture macros list end*
%ADD10C,0.120000*%
%ADD11C,0.100000*%
%ADD12C,0.150000*%
%ADD13R,0.850000X0.850000*%
%ADD14O,0.850000X0.850000*%
%ADD15R,1.800000X1.600000*%
%ADD16FreePoly0,0.000000*%
%ADD17FreePoly1,0.000000*%
%ADD18FreePoly0,180.000000*%
%ADD19FreePoly1,180.000000*%
%ADD20C,0.650000*%
%ADD21O,1.000000X1.800000*%
%ADD22O,1.000000X2.100000*%
G04 APERTURE END LIST*
D10*
X154144142Y-86883142D02*
X154144142Y-87526000D01*
X154187000Y-87654571D01*
X154272714Y-87740285D01*
X154401285Y-87783142D01*
X154487000Y-87783142D01*
X153287000Y-87783142D02*
X153715571Y-87783142D01*
X153715571Y-86883142D01*
X152472714Y-87697428D02*
X152515571Y-87740285D01*
X152644142Y-87783142D01*
X152729857Y-87783142D01*
X152858428Y-87740285D01*
X152944142Y-87654571D01*
X152987000Y-87568857D01*
X153029857Y-87397428D01*
X153029857Y-87268857D01*
X152987000Y-87097428D01*
X152944142Y-87011714D01*
X152858428Y-86926000D01*
X152729857Y-86883142D01*
X152644142Y-86883142D01*
X152515571Y-86926000D01*
X152472714Y-86968857D01*
X151829857Y-86883142D02*
X151829857Y-87526000D01*
X151872714Y-87654571D01*
X151958428Y-87740285D01*
X152087000Y-87783142D01*
X152172714Y-87783142D01*
X150972714Y-87783142D02*
X151401285Y-87783142D01*
X151401285Y-86883142D01*
X150158428Y-87697428D02*
X150201285Y-87740285D01*
X150329857Y-87783142D01*
X150415571Y-87783142D01*
X150544142Y-87740285D01*
X150629857Y-87654571D01*
X150672714Y-87568857D01*
X150715571Y-87397428D01*
X150715571Y-87268857D01*
X150672714Y-87097428D01*
X150629857Y-87011714D01*
X150544142Y-86926000D01*
X150415571Y-86883142D01*
X150329857Y-86883142D01*
X150201285Y-86926000D01*
X150158428Y-86968857D01*
X149515571Y-86883142D02*
X149515571Y-87526000D01*
X149558428Y-87654571D01*
X149644142Y-87740285D01*
X149772714Y-87783142D01*
X149858428Y-87783142D01*
X148658428Y-87783142D02*
X149087000Y-87783142D01*
X149087000Y-86883142D01*
X147844142Y-87697428D02*
X147887000Y-87740285D01*
X148015571Y-87783142D01*
X148101285Y-87783142D01*
X148229857Y-87740285D01*
X148315571Y-87654571D01*
X148358428Y-87568857D01*
X148401285Y-87397428D01*
X148401285Y-87268857D01*
X148358428Y-87097428D01*
X148315571Y-87011714D01*
X148229857Y-86926000D01*
X148101285Y-86883142D01*
X148015571Y-86883142D01*
X147887000Y-86926000D01*
X147844142Y-86968857D01*
X147201285Y-86883142D02*
X147201285Y-87526000D01*
X147244142Y-87654571D01*
X147329857Y-87740285D01*
X147458428Y-87783142D01*
X147544142Y-87783142D01*
X146344142Y-87783142D02*
X146772714Y-87783142D01*
X146772714Y-86883142D01*
X145529857Y-87697428D02*
X145572714Y-87740285D01*
X145701285Y-87783142D01*
X145787000Y-87783142D01*
X145915571Y-87740285D01*
X146001285Y-87654571D01*
X146044142Y-87568857D01*
X146087000Y-87397428D01*
X146087000Y-87268857D01*
X146044142Y-87097428D01*
X146001285Y-87011714D01*
X145915571Y-86926000D01*
X145787000Y-86883142D01*
X145701285Y-86883142D01*
X145572714Y-86926000D01*
X145529857Y-86968857D01*
D11*
X151472714Y-121392904D02*
X151739380Y-121011952D01*
X151929857Y-121392904D02*
X151929857Y-120592904D01*
X151625095Y-120592904D01*
X151548904Y-120631000D01*
X151510809Y-120669095D01*
X151472714Y-120745285D01*
X151472714Y-120859571D01*
X151510809Y-120935761D01*
X151548904Y-120973857D01*
X151625095Y-121011952D01*
X151929857Y-121011952D01*
X151129857Y-120973857D02*
X150863190Y-120973857D01*
X150748904Y-121392904D02*
X151129857Y-121392904D01*
X151129857Y-120592904D01*
X150748904Y-120592904D01*
X150520333Y-120592904D02*
X150253666Y-121392904D01*
X149987000Y-120592904D01*
X149148904Y-121164333D02*
X148767952Y-121164333D01*
X149225095Y-121392904D02*
X148958428Y-120592904D01*
X148691761Y-121392904D01*
X148272714Y-120592904D02*
X148196523Y-120592904D01*
X148120333Y-120631000D01*
X148082238Y-120669095D01*
X148044142Y-120745285D01*
X148006047Y-120897666D01*
X148006047Y-121088142D01*
X148044142Y-121240523D01*
X148082238Y-121316714D01*
X148120333Y-121354809D01*
X148196523Y-121392904D01*
X148272714Y-121392904D01*
X148348904Y-121354809D01*
X148387000Y-121316714D01*
X148425095Y-121240523D01*
X148463190Y-121088142D01*
X148463190Y-120897666D01*
X148425095Y-120745285D01*
X148387000Y-120669095D01*
X148348904Y-120631000D01*
X148272714Y-120592904D01*
X153167952Y-77924571D02*
X153167952Y-78572190D01*
X153206047Y-78648380D01*
X153244142Y-78686476D01*
X153320333Y-78724571D01*
X153434619Y-78724571D01*
X153510809Y-78686476D01*
X153167952Y-78419809D02*
X153244142Y-78457904D01*
X153396523Y-78457904D01*
X153472714Y-78419809D01*
X153510809Y-78381714D01*
X153548904Y-78305523D01*
X153548904Y-78076952D01*
X153510809Y-78000761D01*
X153472714Y-77962666D01*
X153396523Y-77924571D01*
X153244142Y-77924571D01*
X153167952Y-77962666D01*
X152787000Y-78457904D02*
X152787000Y-77924571D01*
X152787000Y-77657904D02*
X152825095Y-77696000D01*
X152787000Y-77734095D01*
X152748904Y-77696000D01*
X152787000Y-77657904D01*
X152787000Y-77734095D01*
X152520333Y-77924571D02*
X152215571Y-77924571D01*
X152406047Y-77657904D02*
X152406047Y-78343619D01*
X152367952Y-78419809D01*
X152291761Y-78457904D01*
X152215571Y-78457904D01*
X151948904Y-78457904D02*
X151948904Y-77657904D01*
X151606047Y-78457904D02*
X151606047Y-78038857D01*
X151644142Y-77962666D01*
X151720333Y-77924571D01*
X151834619Y-77924571D01*
X151910809Y-77962666D01*
X151948904Y-78000761D01*
X150882238Y-77924571D02*
X150882238Y-78457904D01*
X151225095Y-77924571D02*
X151225095Y-78343619D01*
X151187000Y-78419809D01*
X151110809Y-78457904D01*
X150996523Y-78457904D01*
X150920333Y-78419809D01*
X150882238Y-78381714D01*
X150501285Y-78457904D02*
X150501285Y-77657904D01*
X150501285Y-77962666D02*
X150425095Y-77924571D01*
X150272714Y-77924571D01*
X150196523Y-77962666D01*
X150158428Y-78000761D01*
X150120333Y-78076952D01*
X150120333Y-78305523D01*
X150158428Y-78381714D01*
X150196523Y-78419809D01*
X150272714Y-78457904D01*
X150425095Y-78457904D01*
X150501285Y-78419809D01*
X149777476Y-78381714D02*
X149739380Y-78419809D01*
X149777476Y-78457904D01*
X149815571Y-78419809D01*
X149777476Y-78381714D01*
X149777476Y-78457904D01*
X149053666Y-78419809D02*
X149129857Y-78457904D01*
X149282238Y-78457904D01*
X149358428Y-78419809D01*
X149396523Y-78381714D01*
X149434619Y-78305523D01*
X149434619Y-78076952D01*
X149396523Y-78000761D01*
X149358428Y-77962666D01*
X149282238Y-77924571D01*
X149129857Y-77924571D01*
X149053666Y-77962666D01*
X148596523Y-78457904D02*
X148672714Y-78419809D01*
X148710809Y-78381714D01*
X148748904Y-78305523D01*
X148748904Y-78076952D01*
X148710809Y-78000761D01*
X148672714Y-77962666D01*
X148596523Y-77924571D01*
X148482238Y-77924571D01*
X148406047Y-77962666D01*
X148367952Y-78000761D01*
X148329857Y-78076952D01*
X148329857Y-78305523D01*
X148367952Y-78381714D01*
X148406047Y-78419809D01*
X148482238Y-78457904D01*
X148596523Y-78457904D01*
X147987000Y-78457904D02*
X147987000Y-77924571D01*
X147987000Y-78000761D02*
X147948904Y-77962666D01*
X147872714Y-77924571D01*
X147758428Y-77924571D01*
X147682238Y-77962666D01*
X147644142Y-78038857D01*
X147644142Y-78457904D01*
X147644142Y-78038857D02*
X147606047Y-77962666D01*
X147529857Y-77924571D01*
X147415571Y-77924571D01*
X147339380Y-77962666D01*
X147301285Y-78038857D01*
X147301285Y-78457904D01*
X146348904Y-77619809D02*
X147034619Y-78648380D01*
X154444142Y-79212571D02*
X154291761Y-79745904D01*
X154139380Y-79364952D01*
X153987000Y-79745904D01*
X153834619Y-79212571D01*
X153529857Y-79745904D02*
X153529857Y-79212571D01*
X153529857Y-79364952D02*
X153491761Y-79288761D01*
X153453666Y-79250666D01*
X153377476Y-79212571D01*
X153301285Y-79212571D01*
X152729857Y-79707809D02*
X152806047Y-79745904D01*
X152958428Y-79745904D01*
X153034619Y-79707809D01*
X153072714Y-79631619D01*
X153072714Y-79326857D01*
X153034619Y-79250666D01*
X152958428Y-79212571D01*
X152806047Y-79212571D01*
X152729857Y-79250666D01*
X152691761Y-79326857D01*
X152691761Y-79403047D01*
X153072714Y-79479238D01*
X152348904Y-79212571D02*
X152348904Y-79745904D01*
X152348904Y-79288761D02*
X152310809Y-79250666D01*
X152234619Y-79212571D01*
X152120333Y-79212571D01*
X152044142Y-79250666D01*
X152006047Y-79326857D01*
X152006047Y-79745904D01*
X151282238Y-78945904D02*
X151434619Y-78945904D01*
X151510809Y-78984000D01*
X151548904Y-79022095D01*
X151625095Y-79136380D01*
X151663190Y-79288761D01*
X151663190Y-79593523D01*
X151625095Y-79669714D01*
X151587000Y-79707809D01*
X151510809Y-79745904D01*
X151358428Y-79745904D01*
X151282238Y-79707809D01*
X151244142Y-79669714D01*
X151206047Y-79593523D01*
X151206047Y-79403047D01*
X151244142Y-79326857D01*
X151282238Y-79288761D01*
X151358428Y-79250666D01*
X151510809Y-79250666D01*
X151587000Y-79288761D01*
X151625095Y-79326857D01*
X151663190Y-79403047D01*
X150825095Y-79745904D02*
X150672714Y-79745904D01*
X150596523Y-79707809D01*
X150558428Y-79669714D01*
X150482238Y-79555428D01*
X150444142Y-79403047D01*
X150444142Y-79098285D01*
X150482238Y-79022095D01*
X150520333Y-78984000D01*
X150596523Y-78945904D01*
X150748904Y-78945904D01*
X150825095Y-78984000D01*
X150863190Y-79022095D01*
X150901285Y-79098285D01*
X150901285Y-79288761D01*
X150863190Y-79364952D01*
X150825095Y-79403047D01*
X150748904Y-79441142D01*
X150596523Y-79441142D01*
X150520333Y-79403047D01*
X150482238Y-79364952D01*
X150444142Y-79288761D01*
X150063190Y-79745904D02*
X149910809Y-79745904D01*
X149834619Y-79707809D01*
X149796523Y-79669714D01*
X149720333Y-79555428D01*
X149682238Y-79403047D01*
X149682238Y-79098285D01*
X149720333Y-79022095D01*
X149758428Y-78984000D01*
X149834619Y-78945904D01*
X149987000Y-78945904D01*
X150063190Y-78984000D01*
X150101285Y-79022095D01*
X150139380Y-79098285D01*
X150139380Y-79288761D01*
X150101285Y-79364952D01*
X150063190Y-79403047D01*
X149987000Y-79441142D01*
X149834619Y-79441142D01*
X149758428Y-79403047D01*
X149720333Y-79364952D01*
X149682238Y-79288761D01*
X148920333Y-79745904D02*
X149377476Y-79745904D01*
X149148904Y-79745904D02*
X149148904Y-78945904D01*
X149225095Y-79060190D01*
X149301285Y-79136380D01*
X149377476Y-79174476D01*
X148006047Y-78907809D02*
X148691761Y-79936380D01*
X147739380Y-79745904D02*
X147739380Y-78945904D01*
X147739380Y-79250666D02*
X147663190Y-79212571D01*
X147510809Y-79212571D01*
X147434619Y-79250666D01*
X147396523Y-79288761D01*
X147358428Y-79364952D01*
X147358428Y-79593523D01*
X147396523Y-79669714D01*
X147434619Y-79707809D01*
X147510809Y-79745904D01*
X147663190Y-79745904D01*
X147739380Y-79707809D01*
X147015571Y-79745904D02*
X147015571Y-79212571D01*
X147015571Y-78945904D02*
X147053666Y-78984000D01*
X147015571Y-79022095D01*
X146977476Y-78984000D01*
X147015571Y-78945904D01*
X147015571Y-79022095D01*
X146291761Y-79707809D02*
X146367952Y-79745904D01*
X146520333Y-79745904D01*
X146596523Y-79707809D01*
X146634619Y-79669714D01*
X146672714Y-79593523D01*
X146672714Y-79364952D01*
X146634619Y-79288761D01*
X146596523Y-79250666D01*
X146520333Y-79212571D01*
X146367952Y-79212571D01*
X146291761Y-79250666D01*
X145834619Y-79745904D02*
X145910809Y-79707809D01*
X145948904Y-79669714D01*
X145987000Y-79593523D01*
X145987000Y-79364952D01*
X145948904Y-79288761D01*
X145910809Y-79250666D01*
X145834619Y-79212571D01*
X145720333Y-79212571D01*
X145644142Y-79250666D01*
X145606047Y-79288761D01*
X145567952Y-79364952D01*
X145567952Y-79593523D01*
X145606047Y-79669714D01*
X145644142Y-79707809D01*
X145720333Y-79745904D01*
X145834619Y-79745904D01*
D12*
X157744461Y-75296780D02*
X157411128Y-76296780D01*
X157077795Y-75296780D01*
X156411128Y-75772971D02*
X156268271Y-75820590D01*
X156220652Y-75868209D01*
X156173033Y-75963447D01*
X156173033Y-76106304D01*
X156220652Y-76201542D01*
X156268271Y-76249161D01*
X156363509Y-76296780D01*
X156744461Y-76296780D01*
X156744461Y-75296780D01*
X156411128Y-75296780D01*
X156315890Y-75344400D01*
X156268271Y-75392019D01*
X156220652Y-75487257D01*
X156220652Y-75582495D01*
X156268271Y-75677733D01*
X156315890Y-75725352D01*
X156411128Y-75772971D01*
X156744461Y-75772971D01*
X155744461Y-75296780D02*
X155744461Y-76106304D01*
X155696842Y-76201542D01*
X155649223Y-76249161D01*
X155553985Y-76296780D01*
X155363509Y-76296780D01*
X155268271Y-76249161D01*
X155220652Y-76201542D01*
X155173033Y-76106304D01*
X155173033Y-75296780D01*
X157744461Y-77887580D02*
X157411128Y-78887580D01*
X157077795Y-77887580D01*
X156792080Y-78839961D02*
X156649223Y-78887580D01*
X156411128Y-78887580D01*
X156315890Y-78839961D01*
X156268271Y-78792342D01*
X156220652Y-78697104D01*
X156220652Y-78601866D01*
X156268271Y-78506628D01*
X156315890Y-78459009D01*
X156411128Y-78411390D01*
X156601604Y-78363771D01*
X156696842Y-78316152D01*
X156744461Y-78268533D01*
X156792080Y-78173295D01*
X156792080Y-78078057D01*
X156744461Y-77982819D01*
X156696842Y-77935200D01*
X156601604Y-77887580D01*
X156363509Y-77887580D01*
X156220652Y-77935200D01*
X155601604Y-78411390D02*
X155601604Y-78887580D01*
X155934938Y-77887580D02*
X155601604Y-78411390D01*
X155268271Y-77887580D01*
X157077795Y-80475200D02*
X157173033Y-80427580D01*
X157315890Y-80427580D01*
X157458747Y-80475200D01*
X157553985Y-80570438D01*
X157601604Y-80665676D01*
X157649223Y-80856152D01*
X157649223Y-80999009D01*
X157601604Y-81189485D01*
X157553985Y-81284723D01*
X157458747Y-81379961D01*
X157315890Y-81427580D01*
X157220652Y-81427580D01*
X157077795Y-81379961D01*
X157030176Y-81332342D01*
X157030176Y-80999009D01*
X157220652Y-80999009D01*
X156601604Y-81427580D02*
X156601604Y-80427580D01*
X156030176Y-81427580D01*
X156030176Y-80427580D01*
X155553985Y-81427580D02*
X155553985Y-80427580D01*
X155315890Y-80427580D01*
X155173033Y-80475200D01*
X155077795Y-80570438D01*
X155030176Y-80665676D01*
X154982557Y-80856152D01*
X154982557Y-80999009D01*
X155030176Y-81189485D01*
X155077795Y-81284723D01*
X155173033Y-81379961D01*
X155315890Y-81427580D01*
X155553985Y-81427580D01*
X157696842Y-83967580D02*
X157173033Y-83300914D01*
X157696842Y-83300914D02*
X157173033Y-83967580D01*
X157696842Y-85507580D02*
X157077795Y-85507580D01*
X157411128Y-85888533D01*
X157268271Y-85888533D01*
X157173033Y-85936152D01*
X157125414Y-85983771D01*
X157077795Y-86079009D01*
X157077795Y-86317104D01*
X157125414Y-86412342D01*
X157173033Y-86459961D01*
X157268271Y-86507580D01*
X157553985Y-86507580D01*
X157649223Y-86459961D01*
X157696842Y-86412342D01*
X156792080Y-85507580D02*
X156458747Y-86507580D01*
X156125414Y-85507580D01*
X155887319Y-85507580D02*
X155268271Y-85507580D01*
X155601604Y-85888533D01*
X155458747Y-85888533D01*
X155363509Y-85936152D01*
X155315890Y-85983771D01*
X155268271Y-86079009D01*
X155268271Y-86317104D01*
X155315890Y-86412342D01*
X155363509Y-86459961D01*
X155458747Y-86507580D01*
X155744461Y-86507580D01*
X155839700Y-86459961D01*
X155887319Y-86412342D01*
X157696842Y-89047580D02*
X157173033Y-88380914D01*
X157696842Y-88380914D02*
X157173033Y-89047580D01*
X157077795Y-90635200D02*
X157173033Y-90587580D01*
X157315890Y-90587580D01*
X157458747Y-90635200D01*
X157553985Y-90730438D01*
X157601604Y-90825676D01*
X157649223Y-91016152D01*
X157649223Y-91159009D01*
X157601604Y-91349485D01*
X157553985Y-91444723D01*
X157458747Y-91539961D01*
X157315890Y-91587580D01*
X157220652Y-91587580D01*
X157077795Y-91539961D01*
X157030176Y-91492342D01*
X157030176Y-91159009D01*
X157220652Y-91159009D01*
X156649223Y-90682819D02*
X156601604Y-90635200D01*
X156506366Y-90587580D01*
X156268271Y-90587580D01*
X156173033Y-90635200D01*
X156125414Y-90682819D01*
X156077795Y-90778057D01*
X156077795Y-90873295D01*
X156125414Y-91016152D01*
X156696842Y-91587580D01*
X156077795Y-91587580D01*
X155506366Y-91016152D02*
X155601604Y-90968533D01*
X155649223Y-90920914D01*
X155696842Y-90825676D01*
X155696842Y-90778057D01*
X155649223Y-90682819D01*
X155601604Y-90635200D01*
X155506366Y-90587580D01*
X155315890Y-90587580D01*
X155220652Y-90635200D01*
X155173033Y-90682819D01*
X155125414Y-90778057D01*
X155125414Y-90825676D01*
X155173033Y-90920914D01*
X155220652Y-90968533D01*
X155315890Y-91016152D01*
X155506366Y-91016152D01*
X155601604Y-91063771D01*
X155649223Y-91111390D01*
X155696842Y-91206628D01*
X155696842Y-91397104D01*
X155649223Y-91492342D01*
X155601604Y-91539961D01*
X155506366Y-91587580D01*
X155315890Y-91587580D01*
X155220652Y-91539961D01*
X155173033Y-91492342D01*
X155125414Y-91397104D01*
X155125414Y-91206628D01*
X155173033Y-91111390D01*
X155220652Y-91063771D01*
X155315890Y-91016152D01*
X157077795Y-93175200D02*
X157173033Y-93127580D01*
X157315890Y-93127580D01*
X157458747Y-93175200D01*
X157553985Y-93270438D01*
X157601604Y-93365676D01*
X157649223Y-93556152D01*
X157649223Y-93699009D01*
X157601604Y-93889485D01*
X157553985Y-93984723D01*
X157458747Y-94079961D01*
X157315890Y-94127580D01*
X157220652Y-94127580D01*
X157077795Y-94079961D01*
X157030176Y-94032342D01*
X157030176Y-93699009D01*
X157220652Y-93699009D01*
X156601604Y-94127580D02*
X156601604Y-93127580D01*
X156030176Y-94127580D01*
X156030176Y-93127580D01*
X155553985Y-94127580D02*
X155553985Y-93127580D01*
X155315890Y-93127580D01*
X155173033Y-93175200D01*
X155077795Y-93270438D01*
X155030176Y-93365676D01*
X154982557Y-93556152D01*
X154982557Y-93699009D01*
X155030176Y-93889485D01*
X155077795Y-93984723D01*
X155173033Y-94079961D01*
X155315890Y-94127580D01*
X155553985Y-94127580D01*
X157077795Y-95664400D02*
X157173033Y-95616780D01*
X157315890Y-95616780D01*
X157458747Y-95664400D01*
X157553985Y-95759638D01*
X157601604Y-95854876D01*
X157649223Y-96045352D01*
X157649223Y-96188209D01*
X157601604Y-96378685D01*
X157553985Y-96473923D01*
X157458747Y-96569161D01*
X157315890Y-96616780D01*
X157220652Y-96616780D01*
X157077795Y-96569161D01*
X157030176Y-96521542D01*
X157030176Y-96188209D01*
X157220652Y-96188209D01*
X156649223Y-95712019D02*
X156601604Y-95664400D01*
X156506366Y-95616780D01*
X156268271Y-95616780D01*
X156173033Y-95664400D01*
X156125414Y-95712019D01*
X156077795Y-95807257D01*
X156077795Y-95902495D01*
X156125414Y-96045352D01*
X156696842Y-96616780D01*
X156077795Y-96616780D01*
X155744461Y-95616780D02*
X155077795Y-95616780D01*
X155506366Y-96616780D01*
X157077795Y-98204400D02*
X157173033Y-98156780D01*
X157315890Y-98156780D01*
X157458747Y-98204400D01*
X157553985Y-98299638D01*
X157601604Y-98394876D01*
X157649223Y-98585352D01*
X157649223Y-98728209D01*
X157601604Y-98918685D01*
X157553985Y-99013923D01*
X157458747Y-99109161D01*
X157315890Y-99156780D01*
X157220652Y-99156780D01*
X157077795Y-99109161D01*
X157030176Y-99061542D01*
X157030176Y-98728209D01*
X157220652Y-98728209D01*
X156649223Y-98252019D02*
X156601604Y-98204400D01*
X156506366Y-98156780D01*
X156268271Y-98156780D01*
X156173033Y-98204400D01*
X156125414Y-98252019D01*
X156077795Y-98347257D01*
X156077795Y-98442495D01*
X156125414Y-98585352D01*
X156696842Y-99156780D01*
X156077795Y-99156780D01*
X155220652Y-98156780D02*
X155411128Y-98156780D01*
X155506366Y-98204400D01*
X155553985Y-98252019D01*
X155649223Y-98394876D01*
X155696842Y-98585352D01*
X155696842Y-98966304D01*
X155649223Y-99061542D01*
X155601604Y-99109161D01*
X155506366Y-99156780D01*
X155315890Y-99156780D01*
X155220652Y-99109161D01*
X155173033Y-99061542D01*
X155125414Y-98966304D01*
X155125414Y-98728209D01*
X155173033Y-98632971D01*
X155220652Y-98585352D01*
X155315890Y-98537733D01*
X155506366Y-98537733D01*
X155601604Y-98585352D01*
X155649223Y-98632971D01*
X155696842Y-98728209D01*
X157839700Y-100465200D02*
X156839700Y-100465200D01*
X157030176Y-101747580D02*
X157363509Y-101271390D01*
X157601604Y-101747580D02*
X157601604Y-100747580D01*
X157220652Y-100747580D01*
X157125414Y-100795200D01*
X157077795Y-100842819D01*
X157030176Y-100938057D01*
X157030176Y-101080914D01*
X157077795Y-101176152D01*
X157125414Y-101223771D01*
X157220652Y-101271390D01*
X157601604Y-101271390D01*
X156839700Y-100465200D02*
X155887319Y-100465200D01*
X156649223Y-101699961D02*
X156506366Y-101747580D01*
X156268271Y-101747580D01*
X156173033Y-101699961D01*
X156125414Y-101652342D01*
X156077795Y-101557104D01*
X156077795Y-101461866D01*
X156125414Y-101366628D01*
X156173033Y-101319009D01*
X156268271Y-101271390D01*
X156458747Y-101223771D01*
X156553985Y-101176152D01*
X156601604Y-101128533D01*
X156649223Y-101033295D01*
X156649223Y-100938057D01*
X156601604Y-100842819D01*
X156553985Y-100795200D01*
X156458747Y-100747580D01*
X156220652Y-100747580D01*
X156077795Y-100795200D01*
X155887319Y-100465200D02*
X155125414Y-100465200D01*
X155792080Y-100747580D02*
X155220652Y-100747580D01*
X155506366Y-101747580D02*
X155506366Y-100747580D01*
X157077795Y-103335200D02*
X157173033Y-103287580D01*
X157315890Y-103287580D01*
X157458747Y-103335200D01*
X157553985Y-103430438D01*
X157601604Y-103525676D01*
X157649223Y-103716152D01*
X157649223Y-103859009D01*
X157601604Y-104049485D01*
X157553985Y-104144723D01*
X157458747Y-104239961D01*
X157315890Y-104287580D01*
X157220652Y-104287580D01*
X157077795Y-104239961D01*
X157030176Y-104192342D01*
X157030176Y-103859009D01*
X157220652Y-103859009D01*
X156649223Y-103382819D02*
X156601604Y-103335200D01*
X156506366Y-103287580D01*
X156268271Y-103287580D01*
X156173033Y-103335200D01*
X156125414Y-103382819D01*
X156077795Y-103478057D01*
X156077795Y-103573295D01*
X156125414Y-103716152D01*
X156696842Y-104287580D01*
X156077795Y-104287580D01*
X155696842Y-103382819D02*
X155649223Y-103335200D01*
X155553985Y-103287580D01*
X155315890Y-103287580D01*
X155220652Y-103335200D01*
X155173033Y-103382819D01*
X155125414Y-103478057D01*
X155125414Y-103573295D01*
X155173033Y-103716152D01*
X155744461Y-104287580D01*
X155125414Y-104287580D01*
X157077795Y-105875200D02*
X157173033Y-105827580D01*
X157315890Y-105827580D01*
X157458747Y-105875200D01*
X157553985Y-105970438D01*
X157601604Y-106065676D01*
X157649223Y-106256152D01*
X157649223Y-106399009D01*
X157601604Y-106589485D01*
X157553985Y-106684723D01*
X157458747Y-106779961D01*
X157315890Y-106827580D01*
X157220652Y-106827580D01*
X157077795Y-106779961D01*
X157030176Y-106732342D01*
X157030176Y-106399009D01*
X157220652Y-106399009D01*
X156601604Y-106827580D02*
X156601604Y-105827580D01*
X156030176Y-106827580D01*
X156030176Y-105827580D01*
X155553985Y-106827580D02*
X155553985Y-105827580D01*
X155315890Y-105827580D01*
X155173033Y-105875200D01*
X155077795Y-105970438D01*
X155030176Y-106065676D01*
X154982557Y-106256152D01*
X154982557Y-106399009D01*
X155030176Y-106589485D01*
X155077795Y-106684723D01*
X155173033Y-106779961D01*
X155315890Y-106827580D01*
X155553985Y-106827580D01*
X157077795Y-108415200D02*
X157173033Y-108367580D01*
X157315890Y-108367580D01*
X157458747Y-108415200D01*
X157553985Y-108510438D01*
X157601604Y-108605676D01*
X157649223Y-108796152D01*
X157649223Y-108939009D01*
X157601604Y-109129485D01*
X157553985Y-109224723D01*
X157458747Y-109319961D01*
X157315890Y-109367580D01*
X157220652Y-109367580D01*
X157077795Y-109319961D01*
X157030176Y-109272342D01*
X157030176Y-108939009D01*
X157220652Y-108939009D01*
X156649223Y-108462819D02*
X156601604Y-108415200D01*
X156506366Y-108367580D01*
X156268271Y-108367580D01*
X156173033Y-108415200D01*
X156125414Y-108462819D01*
X156077795Y-108558057D01*
X156077795Y-108653295D01*
X156125414Y-108796152D01*
X156696842Y-109367580D01*
X156077795Y-109367580D01*
X155125414Y-109367580D02*
X155696842Y-109367580D01*
X155411128Y-109367580D02*
X155411128Y-108367580D01*
X155506366Y-108510438D01*
X155601604Y-108605676D01*
X155696842Y-108653295D01*
X157077795Y-110955200D02*
X157173033Y-110907580D01*
X157315890Y-110907580D01*
X157458747Y-110955200D01*
X157553985Y-111050438D01*
X157601604Y-111145676D01*
X157649223Y-111336152D01*
X157649223Y-111479009D01*
X157601604Y-111669485D01*
X157553985Y-111764723D01*
X157458747Y-111859961D01*
X157315890Y-111907580D01*
X157220652Y-111907580D01*
X157077795Y-111859961D01*
X157030176Y-111812342D01*
X157030176Y-111479009D01*
X157220652Y-111479009D01*
X156649223Y-111002819D02*
X156601604Y-110955200D01*
X156506366Y-110907580D01*
X156268271Y-110907580D01*
X156173033Y-110955200D01*
X156125414Y-111002819D01*
X156077795Y-111098057D01*
X156077795Y-111193295D01*
X156125414Y-111336152D01*
X156696842Y-111907580D01*
X156077795Y-111907580D01*
X155458747Y-110907580D02*
X155363509Y-110907580D01*
X155268271Y-110955200D01*
X155220652Y-111002819D01*
X155173033Y-111098057D01*
X155125414Y-111288533D01*
X155125414Y-111526628D01*
X155173033Y-111717104D01*
X155220652Y-111812342D01*
X155268271Y-111859961D01*
X155363509Y-111907580D01*
X155458747Y-111907580D01*
X155553985Y-111859961D01*
X155601604Y-111812342D01*
X155649223Y-111717104D01*
X155696842Y-111526628D01*
X155696842Y-111288533D01*
X155649223Y-111098057D01*
X155601604Y-111002819D01*
X155553985Y-110955200D01*
X155458747Y-110907580D01*
X157077795Y-113495200D02*
X157173033Y-113447580D01*
X157315890Y-113447580D01*
X157458747Y-113495200D01*
X157553985Y-113590438D01*
X157601604Y-113685676D01*
X157649223Y-113876152D01*
X157649223Y-114019009D01*
X157601604Y-114209485D01*
X157553985Y-114304723D01*
X157458747Y-114399961D01*
X157315890Y-114447580D01*
X157220652Y-114447580D01*
X157077795Y-114399961D01*
X157030176Y-114352342D01*
X157030176Y-114019009D01*
X157220652Y-114019009D01*
X156077795Y-114447580D02*
X156649223Y-114447580D01*
X156363509Y-114447580D02*
X156363509Y-113447580D01*
X156458747Y-113590438D01*
X156553985Y-113685676D01*
X156649223Y-113733295D01*
X155601604Y-114447580D02*
X155411128Y-114447580D01*
X155315890Y-114399961D01*
X155268271Y-114352342D01*
X155173033Y-114209485D01*
X155125414Y-114019009D01*
X155125414Y-113638057D01*
X155173033Y-113542819D01*
X155220652Y-113495200D01*
X155315890Y-113447580D01*
X155506366Y-113447580D01*
X155601604Y-113495200D01*
X155649223Y-113542819D01*
X155696842Y-113638057D01*
X155696842Y-113876152D01*
X155649223Y-113971390D01*
X155601604Y-114019009D01*
X155506366Y-114066628D01*
X155315890Y-114066628D01*
X155220652Y-114019009D01*
X155173033Y-113971390D01*
X155125414Y-113876152D01*
X157077795Y-116035200D02*
X157173033Y-115987580D01*
X157315890Y-115987580D01*
X157458747Y-116035200D01*
X157553985Y-116130438D01*
X157601604Y-116225676D01*
X157649223Y-116416152D01*
X157649223Y-116559009D01*
X157601604Y-116749485D01*
X157553985Y-116844723D01*
X157458747Y-116939961D01*
X157315890Y-116987580D01*
X157220652Y-116987580D01*
X157077795Y-116939961D01*
X157030176Y-116892342D01*
X157030176Y-116559009D01*
X157220652Y-116559009D01*
X156077795Y-116987580D02*
X156649223Y-116987580D01*
X156363509Y-116987580D02*
X156363509Y-115987580D01*
X156458747Y-116130438D01*
X156553985Y-116225676D01*
X156649223Y-116273295D01*
X155506366Y-116416152D02*
X155601604Y-116368533D01*
X155649223Y-116320914D01*
X155696842Y-116225676D01*
X155696842Y-116178057D01*
X155649223Y-116082819D01*
X155601604Y-116035200D01*
X155506366Y-115987580D01*
X155315890Y-115987580D01*
X155220652Y-116035200D01*
X155173033Y-116082819D01*
X155125414Y-116178057D01*
X155125414Y-116225676D01*
X155173033Y-116320914D01*
X155220652Y-116368533D01*
X155315890Y-116416152D01*
X155506366Y-116416152D01*
X155601604Y-116463771D01*
X155649223Y-116511390D01*
X155696842Y-116606628D01*
X155696842Y-116797104D01*
X155649223Y-116892342D01*
X155601604Y-116939961D01*
X155506366Y-116987580D01*
X155315890Y-116987580D01*
X155220652Y-116939961D01*
X155173033Y-116892342D01*
X155125414Y-116797104D01*
X155125414Y-116606628D01*
X155173033Y-116511390D01*
X155220652Y-116463771D01*
X155315890Y-116416152D01*
X157077795Y-118626000D02*
X157173033Y-118578380D01*
X157315890Y-118578380D01*
X157458747Y-118626000D01*
X157553985Y-118721238D01*
X157601604Y-118816476D01*
X157649223Y-119006952D01*
X157649223Y-119149809D01*
X157601604Y-119340285D01*
X157553985Y-119435523D01*
X157458747Y-119530761D01*
X157315890Y-119578380D01*
X157220652Y-119578380D01*
X157077795Y-119530761D01*
X157030176Y-119483142D01*
X157030176Y-119149809D01*
X157220652Y-119149809D01*
X156601604Y-119578380D02*
X156601604Y-118578380D01*
X156030176Y-119578380D01*
X156030176Y-118578380D01*
X155553985Y-119578380D02*
X155553985Y-118578380D01*
X155315890Y-118578380D01*
X155173033Y-118626000D01*
X155077795Y-118721238D01*
X155030176Y-118816476D01*
X154982557Y-119006952D01*
X154982557Y-119149809D01*
X155030176Y-119340285D01*
X155077795Y-119435523D01*
X155173033Y-119530761D01*
X155315890Y-119578380D01*
X155553985Y-119578380D01*
X157077795Y-121064400D02*
X157173033Y-121016780D01*
X157315890Y-121016780D01*
X157458747Y-121064400D01*
X157553985Y-121159638D01*
X157601604Y-121254876D01*
X157649223Y-121445352D01*
X157649223Y-121588209D01*
X157601604Y-121778685D01*
X157553985Y-121873923D01*
X157458747Y-121969161D01*
X157315890Y-122016780D01*
X157220652Y-122016780D01*
X157077795Y-121969161D01*
X157030176Y-121921542D01*
X157030176Y-121588209D01*
X157220652Y-121588209D01*
X156077795Y-122016780D02*
X156649223Y-122016780D01*
X156363509Y-122016780D02*
X156363509Y-121016780D01*
X156458747Y-121159638D01*
X156553985Y-121254876D01*
X156649223Y-121302495D01*
X155744461Y-121016780D02*
X155077795Y-121016780D01*
X155506366Y-122016780D01*
X157077795Y-123706000D02*
X157173033Y-123658380D01*
X157315890Y-123658380D01*
X157458747Y-123706000D01*
X157553985Y-123801238D01*
X157601604Y-123896476D01*
X157649223Y-124086952D01*
X157649223Y-124229809D01*
X157601604Y-124420285D01*
X157553985Y-124515523D01*
X157458747Y-124610761D01*
X157315890Y-124658380D01*
X157220652Y-124658380D01*
X157077795Y-124610761D01*
X157030176Y-124563142D01*
X157030176Y-124229809D01*
X157220652Y-124229809D01*
X156077795Y-124658380D02*
X156649223Y-124658380D01*
X156363509Y-124658380D02*
X156363509Y-123658380D01*
X156458747Y-123801238D01*
X156553985Y-123896476D01*
X156649223Y-123944095D01*
X155220652Y-123658380D02*
X155411128Y-123658380D01*
X155506366Y-123706000D01*
X155553985Y-123753619D01*
X155649223Y-123896476D01*
X155696842Y-124086952D01*
X155696842Y-124467904D01*
X155649223Y-124563142D01*
X155601604Y-124610761D01*
X155506366Y-124658380D01*
X155315890Y-124658380D01*
X155220652Y-124610761D01*
X155173033Y-124563142D01*
X155125414Y-124467904D01*
X155125414Y-124229809D01*
X155173033Y-124134571D01*
X155220652Y-124086952D01*
X155315890Y-124039333D01*
X155506366Y-124039333D01*
X155601604Y-124086952D01*
X155649223Y-124134571D01*
X155696842Y-124229809D01*
X144327957Y-123655200D02*
X144423195Y-123607580D01*
X144566052Y-123607580D01*
X144708909Y-123655200D01*
X144804147Y-123750438D01*
X144851766Y-123845676D01*
X144899385Y-124036152D01*
X144899385Y-124179009D01*
X144851766Y-124369485D01*
X144804147Y-124464723D01*
X144708909Y-124559961D01*
X144566052Y-124607580D01*
X144470814Y-124607580D01*
X144327957Y-124559961D01*
X144280338Y-124512342D01*
X144280338Y-124179009D01*
X144470814Y-124179009D01*
X143327957Y-124607580D02*
X143899385Y-124607580D01*
X143613671Y-124607580D02*
X143613671Y-123607580D01*
X143708909Y-123750438D01*
X143804147Y-123845676D01*
X143899385Y-123893295D01*
X142423195Y-123607580D02*
X142899385Y-123607580D01*
X142947004Y-124083771D01*
X142899385Y-124036152D01*
X142804147Y-123988533D01*
X142566052Y-123988533D01*
X142470814Y-124036152D01*
X142423195Y-124083771D01*
X142375576Y-124179009D01*
X142375576Y-124417104D01*
X142423195Y-124512342D01*
X142470814Y-124559961D01*
X142566052Y-124607580D01*
X142804147Y-124607580D01*
X142899385Y-124559961D01*
X142947004Y-124512342D01*
X144327957Y-121064400D02*
X144423195Y-121016780D01*
X144566052Y-121016780D01*
X144708909Y-121064400D01*
X144804147Y-121159638D01*
X144851766Y-121254876D01*
X144899385Y-121445352D01*
X144899385Y-121588209D01*
X144851766Y-121778685D01*
X144804147Y-121873923D01*
X144708909Y-121969161D01*
X144566052Y-122016780D01*
X144470814Y-122016780D01*
X144327957Y-121969161D01*
X144280338Y-121921542D01*
X144280338Y-121588209D01*
X144470814Y-121588209D01*
X143327957Y-122016780D02*
X143899385Y-122016780D01*
X143613671Y-122016780D02*
X143613671Y-121016780D01*
X143708909Y-121159638D01*
X143804147Y-121254876D01*
X143899385Y-121302495D01*
X142470814Y-121350114D02*
X142470814Y-122016780D01*
X142708909Y-120969161D02*
X142947004Y-121683447D01*
X142327957Y-121683447D01*
X144470814Y-118575200D02*
X144566052Y-118527580D01*
X144708909Y-118527580D01*
X144851766Y-118575200D01*
X144947004Y-118670438D01*
X144994623Y-118765676D01*
X145042242Y-118956152D01*
X145042242Y-119099009D01*
X144994623Y-119289485D01*
X144947004Y-119384723D01*
X144851766Y-119479961D01*
X144708909Y-119527580D01*
X144613671Y-119527580D01*
X144470814Y-119479961D01*
X144423195Y-119432342D01*
X144423195Y-119099009D01*
X144613671Y-119099009D01*
X143994623Y-119527580D02*
X143994623Y-118527580D01*
X143423195Y-119527580D01*
X143423195Y-118527580D01*
X142947004Y-119527580D02*
X142947004Y-118527580D01*
X142708909Y-118527580D01*
X142566052Y-118575200D01*
X142470814Y-118670438D01*
X142423195Y-118765676D01*
X142375576Y-118956152D01*
X142375576Y-119099009D01*
X142423195Y-119289485D01*
X142470814Y-119384723D01*
X142566052Y-119479961D01*
X142708909Y-119527580D01*
X142947004Y-119527580D01*
X144327957Y-116035200D02*
X144423195Y-115987580D01*
X144566052Y-115987580D01*
X144708909Y-116035200D01*
X144804147Y-116130438D01*
X144851766Y-116225676D01*
X144899385Y-116416152D01*
X144899385Y-116559009D01*
X144851766Y-116749485D01*
X144804147Y-116844723D01*
X144708909Y-116939961D01*
X144566052Y-116987580D01*
X144470814Y-116987580D01*
X144327957Y-116939961D01*
X144280338Y-116892342D01*
X144280338Y-116559009D01*
X144470814Y-116559009D01*
X143327957Y-116987580D02*
X143899385Y-116987580D01*
X143613671Y-116987580D02*
X143613671Y-115987580D01*
X143708909Y-116130438D01*
X143804147Y-116225676D01*
X143899385Y-116273295D01*
X142994623Y-115987580D02*
X142375576Y-115987580D01*
X142708909Y-116368533D01*
X142566052Y-116368533D01*
X142470814Y-116416152D01*
X142423195Y-116463771D01*
X142375576Y-116559009D01*
X142375576Y-116797104D01*
X142423195Y-116892342D01*
X142470814Y-116939961D01*
X142566052Y-116987580D01*
X142851766Y-116987580D01*
X142947004Y-116939961D01*
X142994623Y-116892342D01*
X144327957Y-113444400D02*
X144423195Y-113396780D01*
X144566052Y-113396780D01*
X144708909Y-113444400D01*
X144804147Y-113539638D01*
X144851766Y-113634876D01*
X144899385Y-113825352D01*
X144899385Y-113968209D01*
X144851766Y-114158685D01*
X144804147Y-114253923D01*
X144708909Y-114349161D01*
X144566052Y-114396780D01*
X144470814Y-114396780D01*
X144327957Y-114349161D01*
X144280338Y-114301542D01*
X144280338Y-113968209D01*
X144470814Y-113968209D01*
X143327957Y-114396780D02*
X143899385Y-114396780D01*
X143613671Y-114396780D02*
X143613671Y-113396780D01*
X143708909Y-113539638D01*
X143804147Y-113634876D01*
X143899385Y-113682495D01*
X142947004Y-113492019D02*
X142899385Y-113444400D01*
X142804147Y-113396780D01*
X142566052Y-113396780D01*
X142470814Y-113444400D01*
X142423195Y-113492019D01*
X142375576Y-113587257D01*
X142375576Y-113682495D01*
X142423195Y-113825352D01*
X142994623Y-114396780D01*
X142375576Y-114396780D01*
X144327957Y-110955200D02*
X144423195Y-110907580D01*
X144566052Y-110907580D01*
X144708909Y-110955200D01*
X144804147Y-111050438D01*
X144851766Y-111145676D01*
X144899385Y-111336152D01*
X144899385Y-111479009D01*
X144851766Y-111669485D01*
X144804147Y-111764723D01*
X144708909Y-111859961D01*
X144566052Y-111907580D01*
X144470814Y-111907580D01*
X144327957Y-111859961D01*
X144280338Y-111812342D01*
X144280338Y-111479009D01*
X144470814Y-111479009D01*
X143327957Y-111907580D02*
X143899385Y-111907580D01*
X143613671Y-111907580D02*
X143613671Y-110907580D01*
X143708909Y-111050438D01*
X143804147Y-111145676D01*
X143899385Y-111193295D01*
X142375576Y-111907580D02*
X142947004Y-111907580D01*
X142661290Y-111907580D02*
X142661290Y-110907580D01*
X142756528Y-111050438D01*
X142851766Y-111145676D01*
X142947004Y-111193295D01*
X144327957Y-108415200D02*
X144423195Y-108367580D01*
X144566052Y-108367580D01*
X144708909Y-108415200D01*
X144804147Y-108510438D01*
X144851766Y-108605676D01*
X144899385Y-108796152D01*
X144899385Y-108939009D01*
X144851766Y-109129485D01*
X144804147Y-109224723D01*
X144708909Y-109319961D01*
X144566052Y-109367580D01*
X144470814Y-109367580D01*
X144327957Y-109319961D01*
X144280338Y-109272342D01*
X144280338Y-108939009D01*
X144470814Y-108939009D01*
X143327957Y-109367580D02*
X143899385Y-109367580D01*
X143613671Y-109367580D02*
X143613671Y-108367580D01*
X143708909Y-108510438D01*
X143804147Y-108605676D01*
X143899385Y-108653295D01*
X142708909Y-108367580D02*
X142613671Y-108367580D01*
X142518433Y-108415200D01*
X142470814Y-108462819D01*
X142423195Y-108558057D01*
X142375576Y-108748533D01*
X142375576Y-108986628D01*
X142423195Y-109177104D01*
X142470814Y-109272342D01*
X142518433Y-109319961D01*
X142613671Y-109367580D01*
X142708909Y-109367580D01*
X142804147Y-109319961D01*
X142851766Y-109272342D01*
X142899385Y-109177104D01*
X142947004Y-108986628D01*
X142947004Y-108748533D01*
X142899385Y-108558057D01*
X142851766Y-108462819D01*
X142804147Y-108415200D01*
X142708909Y-108367580D01*
X144470814Y-105875200D02*
X144566052Y-105827580D01*
X144708909Y-105827580D01*
X144851766Y-105875200D01*
X144947004Y-105970438D01*
X144994623Y-106065676D01*
X145042242Y-106256152D01*
X145042242Y-106399009D01*
X144994623Y-106589485D01*
X144947004Y-106684723D01*
X144851766Y-106779961D01*
X144708909Y-106827580D01*
X144613671Y-106827580D01*
X144470814Y-106779961D01*
X144423195Y-106732342D01*
X144423195Y-106399009D01*
X144613671Y-106399009D01*
X143994623Y-106827580D02*
X143994623Y-105827580D01*
X143423195Y-106827580D01*
X143423195Y-105827580D01*
X142947004Y-106827580D02*
X142947004Y-105827580D01*
X142708909Y-105827580D01*
X142566052Y-105875200D01*
X142470814Y-105970438D01*
X142423195Y-106065676D01*
X142375576Y-106256152D01*
X142375576Y-106399009D01*
X142423195Y-106589485D01*
X142470814Y-106684723D01*
X142566052Y-106779961D01*
X142708909Y-106827580D01*
X142947004Y-106827580D01*
X143375576Y-103284400D02*
X143470814Y-103236780D01*
X143613671Y-103236780D01*
X143756528Y-103284400D01*
X143851766Y-103379638D01*
X143899385Y-103474876D01*
X143947004Y-103665352D01*
X143947004Y-103808209D01*
X143899385Y-103998685D01*
X143851766Y-104093923D01*
X143756528Y-104189161D01*
X143613671Y-104236780D01*
X143518433Y-104236780D01*
X143375576Y-104189161D01*
X143327957Y-104141542D01*
X143327957Y-103808209D01*
X143518433Y-103808209D01*
X142851766Y-104236780D02*
X142661290Y-104236780D01*
X142566052Y-104189161D01*
X142518433Y-104141542D01*
X142423195Y-103998685D01*
X142375576Y-103808209D01*
X142375576Y-103427257D01*
X142423195Y-103332019D01*
X142470814Y-103284400D01*
X142566052Y-103236780D01*
X142756528Y-103236780D01*
X142851766Y-103284400D01*
X142899385Y-103332019D01*
X142947004Y-103427257D01*
X142947004Y-103665352D01*
X142899385Y-103760590D01*
X142851766Y-103808209D01*
X142756528Y-103855828D01*
X142566052Y-103855828D01*
X142470814Y-103808209D01*
X142423195Y-103760590D01*
X142375576Y-103665352D01*
X143375576Y-100744400D02*
X143470814Y-100696780D01*
X143613671Y-100696780D01*
X143756528Y-100744400D01*
X143851766Y-100839638D01*
X143899385Y-100934876D01*
X143947004Y-101125352D01*
X143947004Y-101268209D01*
X143899385Y-101458685D01*
X143851766Y-101553923D01*
X143756528Y-101649161D01*
X143613671Y-101696780D01*
X143518433Y-101696780D01*
X143375576Y-101649161D01*
X143327957Y-101601542D01*
X143327957Y-101268209D01*
X143518433Y-101268209D01*
X142756528Y-101125352D02*
X142851766Y-101077733D01*
X142899385Y-101030114D01*
X142947004Y-100934876D01*
X142947004Y-100887257D01*
X142899385Y-100792019D01*
X142851766Y-100744400D01*
X142756528Y-100696780D01*
X142566052Y-100696780D01*
X142470814Y-100744400D01*
X142423195Y-100792019D01*
X142375576Y-100887257D01*
X142375576Y-100934876D01*
X142423195Y-101030114D01*
X142470814Y-101077733D01*
X142566052Y-101125352D01*
X142756528Y-101125352D01*
X142851766Y-101172971D01*
X142899385Y-101220590D01*
X142947004Y-101315828D01*
X142947004Y-101506304D01*
X142899385Y-101601542D01*
X142851766Y-101649161D01*
X142756528Y-101696780D01*
X142566052Y-101696780D01*
X142470814Y-101649161D01*
X142423195Y-101601542D01*
X142375576Y-101506304D01*
X142375576Y-101315828D01*
X142423195Y-101220590D01*
X142470814Y-101172971D01*
X142566052Y-101125352D01*
X143375576Y-98255200D02*
X143470814Y-98207580D01*
X143613671Y-98207580D01*
X143756528Y-98255200D01*
X143851766Y-98350438D01*
X143899385Y-98445676D01*
X143947004Y-98636152D01*
X143947004Y-98779009D01*
X143899385Y-98969485D01*
X143851766Y-99064723D01*
X143756528Y-99159961D01*
X143613671Y-99207580D01*
X143518433Y-99207580D01*
X143375576Y-99159961D01*
X143327957Y-99112342D01*
X143327957Y-98779009D01*
X143518433Y-98779009D01*
X142994623Y-98207580D02*
X142327957Y-98207580D01*
X142756528Y-99207580D01*
X143375576Y-95664400D02*
X143470814Y-95616780D01*
X143613671Y-95616780D01*
X143756528Y-95664400D01*
X143851766Y-95759638D01*
X143899385Y-95854876D01*
X143947004Y-96045352D01*
X143947004Y-96188209D01*
X143899385Y-96378685D01*
X143851766Y-96473923D01*
X143756528Y-96569161D01*
X143613671Y-96616780D01*
X143518433Y-96616780D01*
X143375576Y-96569161D01*
X143327957Y-96521542D01*
X143327957Y-96188209D01*
X143518433Y-96188209D01*
X142470814Y-95616780D02*
X142661290Y-95616780D01*
X142756528Y-95664400D01*
X142804147Y-95712019D01*
X142899385Y-95854876D01*
X142947004Y-96045352D01*
X142947004Y-96426304D01*
X142899385Y-96521542D01*
X142851766Y-96569161D01*
X142756528Y-96616780D01*
X142566052Y-96616780D01*
X142470814Y-96569161D01*
X142423195Y-96521542D01*
X142375576Y-96426304D01*
X142375576Y-96188209D01*
X142423195Y-96092971D01*
X142470814Y-96045352D01*
X142566052Y-95997733D01*
X142756528Y-95997733D01*
X142851766Y-96045352D01*
X142899385Y-96092971D01*
X142947004Y-96188209D01*
X144470814Y-93124400D02*
X144566052Y-93076780D01*
X144708909Y-93076780D01*
X144851766Y-93124400D01*
X144947004Y-93219638D01*
X144994623Y-93314876D01*
X145042242Y-93505352D01*
X145042242Y-93648209D01*
X144994623Y-93838685D01*
X144947004Y-93933923D01*
X144851766Y-94029161D01*
X144708909Y-94076780D01*
X144613671Y-94076780D01*
X144470814Y-94029161D01*
X144423195Y-93981542D01*
X144423195Y-93648209D01*
X144613671Y-93648209D01*
X143994623Y-94076780D02*
X143994623Y-93076780D01*
X143423195Y-94076780D01*
X143423195Y-93076780D01*
X142947004Y-94076780D02*
X142947004Y-93076780D01*
X142708909Y-93076780D01*
X142566052Y-93124400D01*
X142470814Y-93219638D01*
X142423195Y-93314876D01*
X142375576Y-93505352D01*
X142375576Y-93648209D01*
X142423195Y-93838685D01*
X142470814Y-93933923D01*
X142566052Y-94029161D01*
X142708909Y-94076780D01*
X142947004Y-94076780D01*
X143375576Y-90635200D02*
X143470814Y-90587580D01*
X143613671Y-90587580D01*
X143756528Y-90635200D01*
X143851766Y-90730438D01*
X143899385Y-90825676D01*
X143947004Y-91016152D01*
X143947004Y-91159009D01*
X143899385Y-91349485D01*
X143851766Y-91444723D01*
X143756528Y-91539961D01*
X143613671Y-91587580D01*
X143518433Y-91587580D01*
X143375576Y-91539961D01*
X143327957Y-91492342D01*
X143327957Y-91159009D01*
X143518433Y-91159009D01*
X142423195Y-90587580D02*
X142899385Y-90587580D01*
X142947004Y-91063771D01*
X142899385Y-91016152D01*
X142804147Y-90968533D01*
X142566052Y-90968533D01*
X142470814Y-91016152D01*
X142423195Y-91063771D01*
X142375576Y-91159009D01*
X142375576Y-91397104D01*
X142423195Y-91492342D01*
X142470814Y-91539961D01*
X142566052Y-91587580D01*
X142804147Y-91587580D01*
X142899385Y-91539961D01*
X142947004Y-91492342D01*
X143375576Y-88044400D02*
X143470814Y-87996780D01*
X143613671Y-87996780D01*
X143756528Y-88044400D01*
X143851766Y-88139638D01*
X143899385Y-88234876D01*
X143947004Y-88425352D01*
X143947004Y-88568209D01*
X143899385Y-88758685D01*
X143851766Y-88853923D01*
X143756528Y-88949161D01*
X143613671Y-88996780D01*
X143518433Y-88996780D01*
X143375576Y-88949161D01*
X143327957Y-88901542D01*
X143327957Y-88568209D01*
X143518433Y-88568209D01*
X142470814Y-88330114D02*
X142470814Y-88996780D01*
X142708909Y-87949161D02*
X142947004Y-88663447D01*
X142327957Y-88663447D01*
X143375576Y-85504400D02*
X143470814Y-85456780D01*
X143613671Y-85456780D01*
X143756528Y-85504400D01*
X143851766Y-85599638D01*
X143899385Y-85694876D01*
X143947004Y-85885352D01*
X143947004Y-86028209D01*
X143899385Y-86218685D01*
X143851766Y-86313923D01*
X143756528Y-86409161D01*
X143613671Y-86456780D01*
X143518433Y-86456780D01*
X143375576Y-86409161D01*
X143327957Y-86361542D01*
X143327957Y-86028209D01*
X143518433Y-86028209D01*
X142994623Y-85456780D02*
X142375576Y-85456780D01*
X142708909Y-85837733D01*
X142566052Y-85837733D01*
X142470814Y-85885352D01*
X142423195Y-85932971D01*
X142375576Y-86028209D01*
X142375576Y-86266304D01*
X142423195Y-86361542D01*
X142470814Y-86409161D01*
X142566052Y-86456780D01*
X142851766Y-86456780D01*
X142947004Y-86409161D01*
X142994623Y-86361542D01*
X143375576Y-83015200D02*
X143470814Y-82967580D01*
X143613671Y-82967580D01*
X143756528Y-83015200D01*
X143851766Y-83110438D01*
X143899385Y-83205676D01*
X143947004Y-83396152D01*
X143947004Y-83539009D01*
X143899385Y-83729485D01*
X143851766Y-83824723D01*
X143756528Y-83919961D01*
X143613671Y-83967580D01*
X143518433Y-83967580D01*
X143375576Y-83919961D01*
X143327957Y-83872342D01*
X143327957Y-83539009D01*
X143518433Y-83539009D01*
X142947004Y-83062819D02*
X142899385Y-83015200D01*
X142804147Y-82967580D01*
X142566052Y-82967580D01*
X142470814Y-83015200D01*
X142423195Y-83062819D01*
X142375576Y-83158057D01*
X142375576Y-83253295D01*
X142423195Y-83396152D01*
X142994623Y-83967580D01*
X142375576Y-83967580D01*
X144470814Y-80475200D02*
X144566052Y-80427580D01*
X144708909Y-80427580D01*
X144851766Y-80475200D01*
X144947004Y-80570438D01*
X144994623Y-80665676D01*
X145042242Y-80856152D01*
X145042242Y-80999009D01*
X144994623Y-81189485D01*
X144947004Y-81284723D01*
X144851766Y-81379961D01*
X144708909Y-81427580D01*
X144613671Y-81427580D01*
X144470814Y-81379961D01*
X144423195Y-81332342D01*
X144423195Y-80999009D01*
X144613671Y-80999009D01*
X143994623Y-81427580D02*
X143994623Y-80427580D01*
X143423195Y-81427580D01*
X143423195Y-80427580D01*
X142947004Y-81427580D02*
X142947004Y-80427580D01*
X142708909Y-80427580D01*
X142566052Y-80475200D01*
X142470814Y-80570438D01*
X142423195Y-80665676D01*
X142375576Y-80856152D01*
X142375576Y-80999009D01*
X142423195Y-81189485D01*
X142470814Y-81284723D01*
X142566052Y-81379961D01*
X142708909Y-81427580D01*
X142947004Y-81427580D01*
X143375576Y-77935200D02*
X143470814Y-77887580D01*
X143613671Y-77887580D01*
X143756528Y-77935200D01*
X143851766Y-78030438D01*
X143899385Y-78125676D01*
X143947004Y-78316152D01*
X143947004Y-78459009D01*
X143899385Y-78649485D01*
X143851766Y-78744723D01*
X143756528Y-78839961D01*
X143613671Y-78887580D01*
X143518433Y-78887580D01*
X143375576Y-78839961D01*
X143327957Y-78792342D01*
X143327957Y-78459009D01*
X143518433Y-78459009D01*
X142375576Y-78887580D02*
X142947004Y-78887580D01*
X142661290Y-78887580D02*
X142661290Y-77887580D01*
X142756528Y-78030438D01*
X142851766Y-78125676D01*
X142947004Y-78173295D01*
X143375576Y-75395200D02*
X143470814Y-75347580D01*
X143613671Y-75347580D01*
X143756528Y-75395200D01*
X143851766Y-75490438D01*
X143899385Y-75585676D01*
X143947004Y-75776152D01*
X143947004Y-75919009D01*
X143899385Y-76109485D01*
X143851766Y-76204723D01*
X143756528Y-76299961D01*
X143613671Y-76347580D01*
X143518433Y-76347580D01*
X143375576Y-76299961D01*
X143327957Y-76252342D01*
X143327957Y-75919009D01*
X143518433Y-75919009D01*
X142708909Y-75347580D02*
X142613671Y-75347580D01*
X142518433Y-75395200D01*
X142470814Y-75442819D01*
X142423195Y-75538057D01*
X142375576Y-75728533D01*
X142375576Y-75966628D01*
X142423195Y-76157104D01*
X142470814Y-76252342D01*
X142518433Y-76299961D01*
X142613671Y-76347580D01*
X142708909Y-76347580D01*
X142804147Y-76299961D01*
X142851766Y-76252342D01*
X142899385Y-76157104D01*
X142947004Y-75966628D01*
X142947004Y-75728533D01*
X142899385Y-75538057D01*
X142851766Y-75442819D01*
X142804147Y-75395200D01*
X142708909Y-75347580D01*
%LPC*%
D13*
X146700000Y-104500000D03*
D14*
X145700000Y-104500000D03*
X144700000Y-104500000D03*
D15*
X139700000Y-101270000D03*
X139700000Y-108890000D03*
X160300000Y-113970000D03*
X139700000Y-78410000D03*
X160300000Y-103810000D03*
X160300000Y-108890000D03*
X160300000Y-80950000D03*
X160300000Y-93650000D03*
X139700000Y-113970000D03*
X139700000Y-116510000D03*
X160300000Y-124130000D03*
X139700000Y-103810000D03*
X160300000Y-98730000D03*
X139700000Y-96190000D03*
X160300000Y-83490000D03*
X139700000Y-121590000D03*
X160300000Y-88570000D03*
X160300000Y-101270000D03*
X139700000Y-91110000D03*
X160300000Y-78410000D03*
X160300000Y-119050000D03*
X139700000Y-98730000D03*
X139700000Y-83490000D03*
X139700000Y-124130000D03*
X160300000Y-111430000D03*
X139700000Y-75870000D03*
X160300000Y-116510000D03*
X139700000Y-93650000D03*
X160300000Y-91110000D03*
X160300000Y-106350000D03*
X139700000Y-119050000D03*
X160300000Y-121590000D03*
X139700000Y-86030000D03*
X139700000Y-111430000D03*
X160300000Y-75870000D03*
X160300000Y-86030000D03*
X139700000Y-88570000D03*
X160300000Y-96190000D03*
X139700000Y-106350000D03*
X139700000Y-80950000D03*
D16*
X141210000Y-75870000D03*
X141210000Y-78410000D03*
D17*
X141210000Y-80950000D03*
D16*
X141210000Y-83490000D03*
X141210000Y-86030000D03*
X141210000Y-88570000D03*
X141210000Y-91110000D03*
D17*
X141210000Y-93650000D03*
D16*
X141210000Y-96190000D03*
X141210000Y-98730000D03*
X141210000Y-101270000D03*
X141210000Y-103810000D03*
D17*
X141210000Y-106350000D03*
D16*
X141210000Y-108890000D03*
X141210000Y-111430000D03*
X141210000Y-113970000D03*
X141210000Y-116510000D03*
D17*
X141210000Y-119050000D03*
D16*
X141210000Y-121590000D03*
X141210000Y-124130000D03*
D18*
X158790000Y-124130000D03*
X158790000Y-121590000D03*
D19*
X158790000Y-119050000D03*
D18*
X158790000Y-116510000D03*
X158790000Y-113970000D03*
X158790000Y-111430000D03*
X158790000Y-108890000D03*
D19*
X158790000Y-106350000D03*
D18*
X158790000Y-103810000D03*
X158790000Y-101270000D03*
X158790000Y-98730000D03*
X158790000Y-96190000D03*
D19*
X158790000Y-93650000D03*
D18*
X158790000Y-91110000D03*
X158790000Y-88570000D03*
X158790000Y-86030000D03*
X158790000Y-83490000D03*
D19*
X158790000Y-80950000D03*
D18*
X158790000Y-78410000D03*
X158790000Y-75870000D03*
D20*
X147110000Y-80605000D03*
X152890000Y-80605000D03*
D21*
X154320000Y-76925000D03*
D22*
X145680000Y-81105000D03*
D21*
X145680000Y-76925000D03*
D22*
X154320000Y-81105000D03*
D20*
X152890000Y-119395000D03*
X147110000Y-119395000D03*
D21*
X145680000Y-123075000D03*
D22*
X154320000Y-118895000D03*
D21*
X154320000Y-123075000D03*
D22*
X145680000Y-118895000D03*
M02*
